<?xml version="1.0" encoding="UTF-8"?>
<svg width="1001px" height="1001px" viewBox="0 0 1001 1001" version="1.1" xmlns="http://www.w3.org/2000/svg" xmlns:xlink="http://www.w3.org/1999/xlink">
    <!-- Generator: Sketch 51.1 (57501) - http://www.bohemiancoding.com/sketch -->
    <title>avatar-h</title>
    <desc>Created with Sketch.</desc>
    <defs></defs>
    <g id="Avatar" stroke="none" stroke-width="1" fill="none" fill-rule="evenodd">
        <g id="avatar-h" transform="translate(-0.141672, 0.146973)">
            <rect id="Rectangle-25-Copy-6-Copy-3" fill="#FFD3D9" fill-rule="nonzero" x="0.693389534" y="0.065459476" width="1000" height="1000"></rect>
            <g id="Group-11" transform="translate(259.108084, 181.500000)">
                <path d="M29.0475354,363.298192 C35.2583083,289.108609 46.2942862,127.854837 46.2942862,195.070719 L46.2942862,259.520631 L52.480578,259.520631 C87.2362897,259.520631 97.624577,283.943023 97.624577,310.925112 C97.624577,335.820389 97.624577,363.131888 62.1657651,383.460996 C62.599574,385.381997 62.8285569,387.380636 62.8285569,389.432758 C62.8285569,404.341534 50.7426057,416.427486 35.8338293,416.427486 C20.9250529,416.427486 8.83910168,404.341534 8.83910168,389.432758 C8.83910168,376.867847 17.4236148,366.307957 29.0475354,363.298192 Z" id="Combined-Shape-Copy-2" fill="#E8A191" fill-rule="nonzero" transform="translate(53.231839, 297.734232) scale(-1, 1) rotate(-4.000000) translate(-53.231839, -297.734232) "></path>
                <path d="M45.7401663,419.235036 C43.5112438,419.235036 42.3967826,418.120574 42.3967826,415.891652 L42.3967826,395.583692 C42.3967826,393.354769 43.5112438,392.240308 45.7401663,392.240308 L66.0481265,392.240308 C68.277049,392.240308 69.3915102,393.354769 69.3915102,395.583692 L69.3915102,415.891652 C69.3915102,418.120574 68.277049,419.235036 66.0481265,419.235036 L45.7401663,419.235036 Z" id="Shape_6_-Copy-4" fill="#FCB138" fill-rule="nonzero"></path>
                <path d="M392.545554,414.318204 C388.818611,457.618593 373.791394,479.044288 353.82894,507.40821 C281.341273,610.403287 239.090123,639.340906 150.87817,639.340906 C120.616393,639.340906 74.3257429,626.24483 61.2096269,507.40821 L34.5233204,195.672925 C34.5233204,90.2072424 68.2667299,0.411061625 219.549682,0.411061625 C365.771124,0.411061625 414.811545,102.137279 414.811545,195.672925 L414.811545,260.122837 L420.997837,260.122837 C455.753549,260.122837 466.141836,284.545229 466.141836,311.527317 C466.141836,336.422594 466.141836,363.734093 430.683024,384.063201 C431.116833,385.984202 431.345816,387.982842 431.345816,390.034963 C431.345816,404.94374 419.259865,417.029691 404.351088,417.029691 C400.1176,417.029691 396.111724,416.055164 392.545554,414.318204 Z" id="Combined-Shape" fill="#E8A191" fill-rule="nonzero"></path>
                <path d="M395.494421,419.235036 C393.265498,419.235036 392.151037,418.120574 392.151037,415.891652 L392.151037,395.583692 C392.151037,393.354769 393.265498,392.240308 395.494421,392.240308 L415.802381,392.240308 C418.031303,392.240308 419.145764,393.354769 419.145764,395.583692 L419.145764,415.891652 C419.145764,418.120574 418.031303,419.235036 415.802381,419.235036 L395.494421,419.235036 Z" id="Shape_6_-Copy-3" fill="#FCB138" fill-rule="nonzero"></path>
                <g id="Group-10" transform="translate(419.145764, 320.427892) rotate(28.000000) translate(-419.145764, -320.427892) translate(396.087768, 292.870774)" stroke="#BC776C" stroke-linecap="round" stroke-linejoin="round" stroke-width="22.4956063">
                    <path d="M0.899824253,12.558689 C28.2192172,-23.1946806 50.6718486,31.35293 43.8434161,54.802899" id="Shape_8_-Copy-3" fill-rule="nonzero"></path>
                    <path d="M1.5936959,12.838613 C22.3904998,5.79172497 42.5253171,26.3181549 17.2224574,49.4056426" id="Shape_9_-Copy-3"></path>
                </g>
                <path d="M105.054482,261.135139 C101.005272,261.135139 95.831283,258.098232 95.831283,251.91194 C95.831283,248.875034 97.8558875,245.725649 99.8804921,244.713346 C97.8558875,243.701044 96.8435852,243.701044 94.8189807,243.701044 C84.5834798,243.701044 76.3725835,250.899638 76.3725835,262.147441 C76.3725835,273.395244 83.5711775,280.593838 94.8189807,280.593838 C105.054482,280.593838 113.265378,273.395244 113.265378,262.147441 C113.265378,260.122837 113.265378,259.110534 112.253076,257.08593 C110.228471,260.122837 108.091388,261.135139 105.054482,261.135139 Z" id="Shape_10_-Copy-3" stroke="#7F4B4F" stroke-width="5.11977504" fill="#7F4B4F" fill-rule="nonzero" stroke-linecap="round" stroke-linejoin="round"></path>
                <path d="M255.943761,261.135139 C251.894552,261.135139 246.720562,258.098232 246.720562,251.91194 C246.720562,248.875034 248.745167,245.725649 250.769772,244.713346 C248.745167,243.701044 247.732865,243.701044 245.70826,243.701044 C235.472759,243.701044 227.261863,250.899638 227.261863,262.147441 C227.261863,273.395244 234.460457,280.593838 245.70826,280.593838 C255.943761,280.593838 264.154657,273.395244 264.154657,262.147441 C264.154657,260.122837 264.154657,259.110534 263.142355,257.08593 C262.130053,260.122837 258.980668,261.135139 255.943761,261.135139 Z" id="Shape_11_-Copy-3" stroke="#7F4B4F" stroke-width="5.11977504" fill="#7F4B4F" fill-rule="nonzero" stroke-linecap="round" stroke-linejoin="round"></path>
                <g id="Group-8" transform="translate(218.368663, 353.181019)" fill="#BC776C" fill-rule="nonzero">
                    <circle id="Oval-Copy-3" cx="8.99824253" cy="12.2212549" r="8.43585237"></circle>
                    <circle id="Oval_1_-Copy-3" cx="65.9121265" cy="12.2212549" r="11.2478032"></circle>
                    <circle id="Oval_2_-Copy-3" cx="40.3796134" cy="49.1140493" r="11.2478032"></circle>
                </g>
                <path d="M122.657522,194.548144 C122.657522,207.892795 122.657522,234.997278 122.657522,275.861595 C122.657522,337.15807 108.089516,330.209274 108.089516,369.146736 C108.089516,408.084199 66.0875217,444.76921 122.657522,450.004006 C140.217193,450.004006 163.691307,435.178908 163.691307,435.178908 C163.691307,435.178908 200.246688,439.505143 200.246688,419.425037 C200.246688,399.344932 179.458808,400.993292 170.716245,407.603794" id="Line-Copy-3" stroke="#7F4B4F" stroke-width="22.4956063" stroke-linecap="round" stroke-linejoin="round"></path>
                <path d="M95.3383281,521.710336 C114.797028,483.917717 139.381449,500.06588 151.014954,499.102251 C162.648459,498.138623 209.953442,481.780635 235.485955,521.710336 C228.006701,538.637109 222.198901,548.588388 218.062553,551.564172 C199.67806,564.790401 181.608497,557.200354 167.796608,557.200354 C157.321969,557.200354 134.024732,555.027576 107.856342,538.858251 C104.198785,536.598265 100.026114,530.882293 95.3383281,521.710336 Z" id="Shape_16_-Copy-4" stroke="#7F4B4F" stroke-width="22.4956063" stroke-linecap="round" stroke-linejoin="round" fill-rule="nonzero"></path>
                <path d="M221.02013,531.530746 C216.188734,529.052317 202.839614,526.471258 188.088644,526.604793 C178.403477,526.692469 166.03511,528.859927 162.374594,529.802046 C153.138939,532.179058 149.673909,531.530746 147.707952,531.530746 C145.741995,531.530746 138.87671,529.802046 124.88768,529.802046 C110.89865,529.802046 106.091038,532.892299 102.001433,539.074568 C97.9118285,545.256837 94.7815167,566.7022 120.602167,568.640439 C146.407127,570.5775 137.324509,554.253494 171.758729,569.395982 C190.46397,577.621634 207.584762,570.454674 214.453755,560.841677 C220.229797,552.75824 229.023715,535.636459 229.023715,535.636459 C229.023715,535.636459 229.023715,535.636459 221.02013,531.530746 Z" id="Line-5-Copy-4" stroke="#7F4B4F" stroke-width="22.4956063" fill="#BC776C" fill-rule="nonzero" stroke-linecap="round" stroke-linejoin="round"></path>
                <path d="M287.546261,170.034566 L180.83141,171.89728" id="Shape_18_-Copy-3" stroke="#7F4B4F" stroke-width="22.4956063" stroke-linecap="round" stroke-linejoin="round" transform="translate(234.188836, 170.965923) scale(-1, 1) rotate(1.000000) translate(-234.188836, -170.965923) "></path>
                <path d="M122.340921,192.899824 L35.2829246,192.899824" id="Shape_18_-Copy-3" stroke="#7F4B4F" stroke-width="22.4956063" stroke-linecap="round" stroke-linejoin="round"></path>
            </g>
        </g>
    </g>
</svg>