<?xml version="1.0" encoding="UTF-8"?>
<svg width="802px" height="389px" viewBox="0 0 802 389" version="1.1" xmlns="http://www.w3.org/2000/svg" xmlns:xlink="http://www.w3.org/1999/xlink">
    <!-- Generator: Sketch 64 (93537) - https://sketch.com -->
    <title>Group</title>
    <desc>Created with Sketch.</desc>
    <g id="Page-1" stroke="none" stroke-width="1" fill="none" fill-rule="evenodd" stroke-linejoin="round">
        <g id="Group" transform="translate(1.000000, 0.800000)" fill-rule="nonzero">
            <rect id="Rectangle" stroke="#EB5263" fill="#EB5263" x="0" y="-2.84217094e-14" width="800" height="386.8"></rect>
            <path d="M138.6,136.8 L154.8,136.8 C160.9,136.8 165.9,139.5 168.9,144.6 C171.2,148.5 171.4,150.3 171.4,160 C171.4,170.4 170.9,172.2 168.8,175.5 C166.1,179.8 161.2,183.2 154.3,183.2 L138.6,183.2 L138.6,136.8 Z M145.6,176.6 L154,176.6 C158,176.6 160.8,175.2 162.6,172.6 C164.2,170.3 164.4,169 164.4,160.4 C164.4,152.1 164.2,150 162.3,147.5 C160.2,144.6 157.8,143.6 154,143.6 L145.6,143.6 L145.6,176.6 Z" id="Shape" stroke="#FFDD9D" fill="#FFDD9D"></path>
            <polygon id="Path" stroke="#FFDD9D" fill="#FFDD9D" points="182.4 136.8 212 136.8 212 143.4 189.4 143.4 189.4 156.6 208.7 156.6 208.7 162.9 189.4 162.9 189.4 176.5 212 176.5 212 183.1 182.4 183.1"></polygon>
            <polygon id="Path" stroke="#FFDD9D" fill="#FFDD9D" points="219.7 136.8 227.1 136.8 237.7 172.1 237.8 172.1 248.4 136.8 255.8 136.8 240.5 183.2 235 183.2"></polygon>
            <path d="M306.3,136.8 L323.1,136.8 C326.7,136.8 329.9,137.3 333.5,140.1 C336.3,142.2 338.5,146.2 338.5,151.2 C338.5,157.8 333.5,165.1 324,165.1 L313.3,165.1 L313.3,183.2 L306.3,183.2 L306.3,136.8 Z M313.3,158.5 L323.7,158.5 C328.9,158.5 331.5,154.7 331.5,151 C331.5,147.9 330.3,146 328.5,144.8 C326.9,143.8 325.5,143.5 323.5,143.5 L313.3,143.5 L313.3,158.5 Z" id="Shape" stroke="#FFDD9D" fill="#FFDD9D"></path>
            <path d="M348.8,171.9 C352.3,174.7 357,176.5 362,176.5 C367.7,176.5 371.2,173.9 371.2,170.1 C371.2,166.8 369.3,164.4 365.1,163.8 C363,163.5 361.4,163.3 359,163 C351,161.9 346.7,156.7 346.7,150 C346.7,142.1 352.2,136.5 361.8,136.5 C367.5,136.5 372.6,138.5 376.8,141.3 L372.9,147.1 C369.5,145 365.5,143.5 361.4,143.5 C357.1,143.5 353.6,145.7 353.6,150.1 C353.6,152.7 355.5,155.3 360.2,156 C361.4,156.2 363.2,156.5 365.4,156.7 C374.1,157.7 378.1,163.7 378.1,170.1 C378.1,178.6 371.8,183.6 361.8,183.6 C355,183.6 349,181.5 344.1,177.2 L348.8,171.9 Z" id="Path" stroke="#FFDD9D" fill="#FFDD9D"></path>
            <path d="M388.4,136.8 L404.6,136.8 C410.7,136.8 415.7,139.5 418.7,144.6 C421,148.5 421.2,150.3 421.2,160 C421.2,170.4 420.7,172.2 418.6,175.5 C415.9,179.8 411,183.2 404.1,183.2 L388.3,183.2 L388.3,136.8 L388.4,136.8 Z M395.4,176.6 L403.8,176.6 C407.8,176.6 410.6,175.2 412.4,172.6 C414,170.3 414.2,169 414.2,160.4 C414.2,152.1 414,150 412.1,147.5 C410,144.6 407.6,143.6 403.8,143.6 L395.4,143.6 L395.4,176.6 Z" id="Shape" stroke="#FFDD9D" fill="#FFDD9D"></path>
            <path d="M455.8,172.8 L438.2,172.8 L434.6,183.2 L427.2,183.2 L444.1,136.8 L450,136.8 L466.9,183.2 L459.5,183.2 L455.8,172.8 Z M453.8,166.6 L447.1,146.3 L447,146.3 L440.3,166.6 L453.8,166.6 Z" id="Shape" stroke="#FFDD9D" fill="#FFDD9D"></path>
            <polygon id="Path" stroke="#FFDD9D" fill="#FFDD9D" points="479.6 164.1 465.7 136.8 473.1 136.8 482.9 157.4 492.7 136.8 500.1 136.8 486.2 164.1 486.2 183.2 479.6 183.2"></polygon>
            <path d="M507.9,171.9 C511.4,174.7 516.1,176.5 521.1,176.5 C526.8,176.5 530.3,173.9 530.3,170.1 C530.3,166.8 528.4,164.4 524.2,163.8 C522.1,163.5 520.5,163.3 518.1,163 C510.1,161.9 505.8,156.7 505.8,150 C505.8,142.1 511.3,136.5 520.9,136.5 C526.6,136.5 531.7,138.5 535.9,141.3 L532,147.1 C528.6,145 524.6,143.5 520.5,143.5 C516.2,143.5 512.7,145.7 512.7,150.1 C512.7,152.7 514.6,155.3 519.3,156 C520.5,156.2 522.3,156.5 524.5,156.7 C533.2,157.7 537.2,163.7 537.2,170.1 C537.2,178.6 530.9,183.6 520.9,183.6 C514.1,183.6 508.1,181.5 503.2,177.2 L507.9,171.9 Z" id="Path" stroke="#FFDD9D" fill="#FFDD9D"></path>
            <polygon id="Path" stroke="#FFDD9D" fill="#FFDD9D" points="151 208.2 138.3 208.2 138.3 201.9 170.7 201.9 170.7 208.2 158 208.2 158 248.3 151 248.3"></polygon>
            <path d="M179.7,209.9 C181.9,205.9 186.9,201.6 194.2,201.6 C201.5,201.6 206.5,205.9 208.7,209.9 C210.2,212.6 210.7,214 210.7,225.1 C210.7,236.2 210.2,237.6 208.7,240.3 C206.5,244.3 201.5,248.6 194.2,248.6 C186.9,248.6 181.9,244.3 179.7,240.3 C178.2,237.6 177.7,236.2 177.7,225.1 C177.7,214 178.2,212.6 179.7,209.9 Z M187.1,238.3 C188.5,240.1 190.9,241.7 194.3,241.7 C197.6,241.7 200,240.1 201.5,238.3 C203.3,236 203.8,234.7 203.8,225.1 C203.8,215.6 203.3,214.3 201.5,211.9 C200.1,210.1 197.7,208.5 194.3,208.5 C191,208.5 188.6,210.1 187.1,211.9 C185.3,214.2 184.8,215.5 184.8,225.1 C184.7,234.7 185.3,236 187.1,238.3 Z" id="Shape" stroke="#FFDD9D" fill="#FFDD9D"></path>
            <path d="M221.9,202 L240,202 C243.9,202 247,202.9 249.4,205.1 C252,207.3 254,210.8 254,215 C254,221 250.6,225.9 245,227.8 L255.7,248.4 L247.4,248.4 L237.8,228.6 L228.8,228.6 L228.8,248.4 L221.8,248.4 L221.8,202 L221.9,202 Z M228.9,222.3 L239.5,222.3 C244.8,222.3 247.4,218.8 247.4,214.9 C247.4,212.5 246.5,210.7 245.1,209.6 C243.8,208.6 242.4,208.2 240,208.2 L229,208.2 L229,222.3 L228.9,222.3 Z" id="Shape" stroke="#FFDD9D" fill="#FFDD9D"></path>
            <polygon id="Path" stroke="#FFDD9D" fill="#FFDD9D" points="307.8 202 314.4 202 335.4 235 335.5 235 335.5 202 342.5 202 342.5 248.4 335.9 248.4 314.9 215.4 314.8 215.4 314.8 248.4 307.8 248.4"></polygon>
            <polygon id="Path" stroke="#FFDD9D" fill="#FFDD9D" points="364.5 208.2 351.8 208.2 351.8 201.9 384.2 201.9 384.2 208.2 371.5 208.2 371.5 248.3 364.5 248.3"></polygon>
            <path d="M393.2,209.9 C395.4,205.9 400.4,201.6 407.7,201.6 C415,201.6 420,205.9 422.2,209.9 C423.7,212.6 424.2,214 424.2,225.1 C424.2,236.2 423.7,237.6 422.2,240.3 C420,244.3 415,248.6 407.7,248.6 C400.4,248.6 395.4,244.3 393.2,240.3 C391.7,237.6 391.2,236.2 391.2,225.1 C391.2,214 391.7,212.6 393.2,209.9 Z M400.5,238.3 C401.9,240.1 404.3,241.7 407.7,241.7 C411,241.7 413.4,240.1 414.9,238.3 C416.7,236 417.2,234.7 417.2,225.1 C417.2,215.6 416.7,214.3 414.9,211.9 C413.5,210.1 411.1,208.5 407.7,208.5 C404.4,208.5 402,210.1 400.5,211.9 C398.7,214.2 398.2,215.5 398.2,225.1 C398.2,234.7 398.7,236 400.5,238.3 Z" id="Shape" stroke="#FFDD9D" fill="#FFDD9D"></path>
            <path d="M279.2,241.4 L279.5,241.4 C280.9,241.4 282,241.3 283,241 C283.8,240.8 284.5,240.5 285.1,240.3 C285.6,240 286,239.8 286.4,239.5 C286.7,239.2 287,239 287.2,238.7 C287.6,238.2 287.9,237.7 288.2,237.2 C288.4,236.8 288.5,236.4 288.6,236 C288.8,235.5 288.8,235 288.9,234.6 C288.9,234.4 288.9,234.3 288.9,234.3 C288.9,234.3 288.9,234.3 288.9,234.3 L288.9,214.5 C288.9,213.3 288.8,212.3 288.7,211.3 C288.6,210.5 288.4,209.7 288.1,208.9 C287.7,207.6 287.1,206.4 286.4,205.3 C285.9,204.5 285.3,203.6 284.6,202.8 C283.6,201.6 282.4,200.4 281.1,199.1 C280.5,198.6 279.9,198 279.3,197.5 L273.7,192.4 C273,191.8 272.3,191.2 271.7,190.5 C270.5,189.3 269.2,188.1 268.1,186.7 C267.3,185.7 266.5,184.6 265.7,183.4 C265.2,182.5 264.7,181.6 264.2,180.6 C263.5,179.1 263,177.6 262.7,175.9 C262.3,174.2 262.2,172.4 262.2,170.5 L262.2,150.7 C262.2,150.5 262.2,149.6 262.5,148.3 C262.7,147.3 263.1,146.1 263.7,144.7 C264.2,143.7 264.8,142.6 265.7,141.6 C266.3,140.8 267.1,140.1 268,139.4 C268.7,138.9 269.4,138.4 270.2,138 C271.4,137.4 272.8,136.9 274.3,136.5 C275.8,136.2 277.5,136 279.3,136 L279.6,136 C281.5,136 283.2,136.2 284.8,136.6 C286.2,136.9 287.4,137.4 288.6,137.9 C289.6,138.4 290.5,139 291.2,139.6 C291.9,140.1 292.5,140.7 293,141.3 C293.9,142.4 294.6,143.5 295.1,144.5 C295.5,145.3 295.7,146 296,146.7 C296.3,147.7 296.5,148.6 296.5,149.3 C296.6,150 296.6,150.4 296.6,150.5 L296.6,170.3 C296.6,171.8 296.5,173.3 296.3,174.7 C296.1,175.9 295.8,177.1 295.5,178.2 C294.9,180.1 294,181.9 293.1,183.4 C292.4,184.6 291.5,185.7 290.7,186.7 C289.7,187.9 289.6,188.1 289.5,188.1 L284,183 C284.1,183 284.2,182.9 285,181.8 C285.7,181 286.2,180.2 286.8,179.4 C287.2,178.8 287.5,178.2 287.8,177.5 C288.2,176.5 288.6,175.5 288.8,174.3 C289,173.1 289.2,171.8 289.2,170.4 L289.2,150.6 C289.2,150.5 289.2,150 289,149.3 C288.9,148.8 288.7,148.1 288.3,147.5 C288,147 287.7,146.5 287.3,146.1 C287,145.8 286.7,145.4 286.2,145.1 C285.6,144.7 284.8,144.2 283.7,143.9 C282.6,143.6 281.3,143.4 279.6,143.4 L279.3,143.4 C277.9,143.4 276.8,143.5 275.8,143.8 C275,144 274.3,144.3 273.7,144.5 C273.2,144.8 272.8,145 272.4,145.3 C272.1,145.6 271.8,145.8 271.6,146.1 C271.2,146.6 270.9,147.1 270.6,147.6 C270.4,148 270.3,148.4 270.2,148.8 C270,149.3 270,149.8 269.9,150.2 C269.9,150.4 269.9,150.5 269.9,150.5 L269.9,150.5 L269.9,170.3 C269.9,171.5 270,172.5 270.1,173.5 C270.2,174.3 270.4,175.1 270.7,175.9 C271.1,177.2 271.7,178.4 272.4,179.5 C272.9,180.3 273.5,181.2 274.2,182 C275.2,183.2 276.4,184.4 277.7,185.7 C278.3,186.2 278.9,186.8 279.5,187.3 L285.1,192.4 C285.8,193 286.5,193.6 287.1,194.3 C288.3,195.5 289.6,196.7 290.7,198.1 C291.5,199.1 292.3,200.2 293.1,201.4 C293.6,202.3 294.1,203.2 294.6,204.2 C295.3,205.7 295.8,207.2 296.1,208.9 C296.5,210.6 296.6,212.4 296.6,214.3 L296.6,234.1 C296.6,234.3 296.6,235.2 296.3,236.5 C296.1,237.5 295.7,238.7 295.1,240.1 C294.6,241.1 294,242.2 293.1,243.2 C292.5,244 291.7,244.7 290.8,245.4 C290.1,245.9 289.4,246.4 288.6,246.8 C287.4,247.4 286,247.9 284.5,248.3 C283,248.6 281.3,248.8 279.5,248.8 L279.2,248.8 L279.3,248.8 L279,248.8 C277.1,248.8 275.4,248.6 273.8,248.2 C272.4,247.9 271.2,247.4 270,246.9 C269,246.4 268.1,245.8 267.4,245.2 C266.7,244.7 266.1,244.1 265.6,243.5 C264.7,242.4 264,241.3 263.5,240.3 C263.1,239.5 262.9,238.8 262.6,238.1 C262.3,237.1 262.1,236.2 262.1,235.5 C262,234.8 262,234.4 262,234.3 L262,214.5 C262,213 262.1,211.5 262.3,210.1 C262.5,208.9 262.8,207.7 263.1,206.6 C263.7,204.7 264.6,202.9 265.5,201.4 C266.2,200.2 267.1,199.1 267.9,198.1 C268.9,196.9 269,196.7 269.1,196.7 L274.6,201.8 C274.5,201.8 274.4,201.9 273.6,203 C272.9,203.8 272.4,204.6 271.8,205.4 C271.4,206 271.1,206.6 270.8,207.3 C270.4,208.3 270,209.3 269.8,210.5 C269.6,211.7 269.4,213 269.4,214.4 L269.4,234.2 C269.4,234.3 269.4,234.8 269.6,235.5 C269.7,236 269.9,236.7 270.3,237.3 C270.6,237.8 270.9,238.3 271.3,238.7 C271.6,239 271.9,239.4 272.4,239.7 C273,240.1 273.8,240.6 274.9,240.9 C276,241.2 277.3,241.4 279,241.4 L279.3,241.4 L279.2,241.4 L279.2,241.4 Z" id="Path" stroke="#FFDD9D" fill="#FFDD9D"></path>
            <path d="M640.3,298.8 L644.4,298.8 C645.9,298.8 647.2,299.5 647.9,300.8 C648.5,301.8 648.5,302.2 648.5,304.6 C648.5,307.2 648.4,307.7 647.8,308.5 C647.1,309.6 645.9,310.4 644.2,310.4 L640.3,310.4 L640.3,298.8 Z M642.1,308.7 L644.2,308.7 C645.2,308.7 645.9,308.4 646.3,307.7 C646.7,307.1 646.7,306.8 646.7,304.6 C646.7,302.5 646.7,302 646.2,301.4 C645.7,300.7 645.1,300.4 644.1,300.4 L642,300.4 L642,308.7 L642.1,308.7 Z" id="Shape" stroke="#FFDD9D" stroke-width="0.25" fill="#FFDD9D"></path>
            <polygon id="Path" stroke="#FFDD9D" stroke-width="0.25" fill="#FFDD9D" points="651.3 298.8 658.7 298.8 658.7 300.5 653 300.5 653 303.8 657.8 303.8 657.8 305.4 653 305.4 653 308.8 658.7 308.8 658.7 310.5 651.3 310.5 651.3 298.8"></polygon>
            <polygon id="Path" stroke="#FFDD9D" stroke-width="0.25" fill="#FFDD9D" points="660.6 298.8 662.5 298.8 665.1 307.6 665.1 307.6 667.7 298.8 669.6 298.8 665.8 310.4 664.4 310.4"></polygon>
            <path d="M682.2,298.8 L686.4,298.8 C687.3,298.8 688.1,298.9 689,299.6 C689.7,300.1 690.3,301.1 690.3,302.4 C690.3,304 689,305.9 686.7,305.9 L684,305.9 L684,310.4 L682.2,310.4 L682.2,298.8 Z M684,304.2 L686.6,304.2 C687.9,304.2 688.5,303.2 688.5,302.3 C688.5,301.5 688.2,301 687.8,300.8 C687.4,300.5 687.1,300.5 686.5,300.5 L684,300.5 L684,304.2 Z" id="Shape" stroke="#FFDD9D" stroke-width="0.25" fill="#FFDD9D"></path>
            <path d="M692.9,307.5 C693.8,308.2 695,308.7 696.2,308.7 C697.6,308.7 698.5,308 698.5,307.1 C698.5,306.3 698,305.7 697,305.5 C696.5,305.4 696.1,305.4 695.5,305.3 C693.5,305 692.4,303.7 692.4,302 C692.4,300 693.8,298.6 696.2,298.6 C697.6,298.6 698.9,299.1 700,299.8 L699,301.2 C698.2,300.7 697.2,300.3 696.1,300.3 C695,300.3 694.2,300.9 694.2,302 C694.2,302.7 694.7,303.3 695.8,303.5 C696.1,303.5 696.5,303.6 697.1,303.7 C699.3,304 700.3,305.5 700.3,307 C700.3,309.1 698.7,310.4 696.2,310.4 C694.5,310.4 693,309.9 691.8,308.8 L692.9,307.5 Z" id="Path" stroke="#FFDD9D" stroke-width="0.25" fill="#FFDD9D"></path>
            <path d="M702.8,298.8 L706.9,298.8 C708.4,298.8 709.7,299.5 710.4,300.8 C711,301.8 711,302.2 711,304.6 C711,307.2 710.9,307.7 710.3,308.5 C709.6,309.6 708.4,310.4 706.7,310.4 L702.8,310.4 L702.8,298.8 Z M704.5,308.7 L706.6,308.7 C707.6,308.7 708.3,308.4 708.7,307.7 C709.1,307.1 709.1,306.8 709.1,304.6 C709.1,302.5 709.1,302 708.6,301.4 C708.1,300.7 707.5,300.4 706.5,300.4 L704.4,300.4 L704.4,308.7 L704.5,308.7 Z" id="Shape" stroke="#FFDD9D" stroke-width="0.25" fill="#FFDD9D"></path>
            <path d="M719.6,307.8 L715.2,307.8 L714.3,310.4 L712.4,310.4 L716.6,298.8 L718.1,298.8 L722.3,310.4 L720.4,310.4 L719.6,307.8 Z M719.1,306.2 L717.4,301.1 L717.4,301.1 L715.7,306.2 L719.1,306.2 Z" id="Shape" stroke="#FFDD9D" stroke-width="0.25" fill="#FFDD9D"></path>
            <polygon id="Path" stroke="#FFDD9D" stroke-width="0.25" fill="#FFDD9D" points="725.6 305.6 722.1 298.8 724 298.8 726.5 303.9 729 298.8 730.9 298.8 727.4 305.6 727.4 310.4 725.7 310.4 725.7 305.6"></polygon>
            <path d="M732.7,307.5 C733.6,308.2 734.8,308.7 736,308.7 C737.4,308.7 738.3,308 738.3,307.1 C738.3,306.3 737.8,305.7 736.8,305.5 C736.3,305.4 735.9,305.4 735.3,305.3 C733.3,305 732.2,303.7 732.2,302 C732.2,300 733.6,298.6 736,298.6 C737.4,298.6 738.7,299.1 739.8,299.8 L738.8,301.2 C738,300.7 737,300.3 735.9,300.3 C734.8,300.3 734,300.9 734,302 C734,302.7 734.5,303.3 735.6,303.5 C735.9,303.5 736.3,303.6 736.9,303.7 C739.1,304 740.1,305.5 740.1,307 C740.1,309.1 738.5,310.4 736,310.4 C734.3,310.4 732.8,309.9 731.6,308.8 L732.7,307.5 Z" id="Path" stroke="#FFDD9D" stroke-width="0.25" fill="#FFDD9D"></path>
            <polygon id="Path" stroke="#FFDD9D" stroke-width="0.25" fill="#FFDD9D" points="643.4 316.6 640.2 316.6 640.2 315 648.3 315 648.3 316.6 645.1 316.6 645.1 326.6 643.3 326.6 643.3 316.6"></polygon>
            <path d="M650.6,317 C651.2,316 652.4,314.9 654.2,314.9 C656,314.9 657.3,316 657.8,317 C658.2,317.7 658.3,318 658.3,320.8 C658.3,323.6 658.2,323.9 657.8,324.6 C657.2,325.6 656,326.7 654.2,326.7 C652.4,326.7 651.1,325.6 650.6,324.6 C650.2,323.9 650.1,323.6 650.1,320.8 C650.1,318.1 650.2,317.7 650.6,317 Z M652.4,324.1 C652.8,324.6 653.4,324.9 654.2,324.9 C655,324.9 655.6,324.5 656,324.1 C656.5,323.5 656.6,323.2 656.6,320.8 C656.6,318.4 656.5,318.1 656,317.5 C655.6,317 655,316.7 654.2,316.7 C653.4,316.7 652.8,317.1 652.4,317.5 C651.9,318.1 651.8,318.4 651.8,320.8 C651.9,323.2 652,323.5 652.4,324.1 Z" id="Shape" stroke="#FFDD9D" stroke-width="0.25" fill="#FFDD9D"></path>
            <path d="M661.2,315 L665.7,315 C666.7,315 667.4,315.2 668.1,315.8 C668.8,316.4 669.3,317.2 669.3,318.3 C669.3,319.8 668.5,321 667.1,321.5 L669.8,326.6 L667.7,326.6 L665.3,321.6 L663.1,321.6 L663.1,326.6 L661.3,326.6 L661.3,315 L661.2,315 Z M662.9,320.1 L665.6,320.1 C666.9,320.1 667.6,319.2 667.6,318.3 C667.6,317.7 667.4,317.2 667,317 C666.7,316.8 666.3,316.6 665.7,316.6 L662.9,316.6 L662.9,320.1 L662.9,320.1 Z" id="Shape" stroke="#FFDD9D" stroke-width="0.25" fill="#FFDD9D"></path>
            <polygon id="Path" stroke="#FFDD9D" stroke-width="0.25" fill="#FFDD9D" points="682.6 315 684.3 315 689.5 323.2 689.5 323.2 689.5 315 691.3 315 691.3 326.6 689.6 326.6 684.4 318.4 684.4 318.4 684.4 326.6 682.6 326.6"></polygon>
            <polygon id="Path" stroke="#FFDD9D" stroke-width="0.25" fill="#FFDD9D" points="696.8 316.6 693.6 316.6 693.6 315 701.7 315 701.7 316.6 698.5 316.6 698.5 326.6 696.7 326.6 696.7 316.6"></polygon>
            <path d="M704,317 C704.6,316 705.8,314.9 707.6,314.9 C709.4,314.9 710.7,316 711.2,317 C711.6,317.7 711.7,318 711.7,320.8 C711.7,323.6 711.6,323.9 711.2,324.6 C710.6,325.6 709.4,326.7 707.6,326.7 C705.8,326.7 704.5,325.6 704,324.6 C703.6,323.9 703.5,323.6 703.5,320.8 C703.5,318.1 703.6,317.7 704,317 Z M705.8,324.1 C706.2,324.6 706.8,324.9 707.6,324.9 C708.4,324.9 709,324.5 709.4,324.1 C709.9,323.5 710,323.2 710,320.8 C710,318.4 709.9,318.1 709.4,317.5 C709,317 708.4,316.7 707.6,316.7 C706.8,316.7 706.2,317.1 705.8,317.5 C705.3,318.1 705.2,318.4 705.2,320.8 C705.2,323.2 705.4,323.5 705.8,324.1 Z" id="Shape" stroke="#FFDD9D" stroke-width="0.25" fill="#FFDD9D"></path>
            <path d="M675.5,324.9 L675.5,324.9 C675.9,324.9 676.2,324.9 676.5,324.8 C676.7,324.8 676.9,324.7 677,324.6 C677.1,324.5 677.2,324.5 677.3,324.4 C677.4,324.3 677.4,324.3 677.5,324.2 C677.6,324.1 677.7,323.9 677.7,323.8 C677.7,323.7 677.8,323.6 677.8,323.5 C677.8,323.4 677.9,323.2 677.9,323.2 C677.9,323.2 677.9,323.1 677.9,323.1 C677.9,323.1 677.9,323.1 677.9,323.1 L677.9,318.2 C677.9,317.9 677.9,317.7 677.8,317.4 C677.8,317.2 677.7,317 677.7,316.8 C677.6,316.5 677.5,316.2 677.3,315.9 C677.2,315.7 677,315.5 676.8,315.3 C676.5,315 676.2,314.7 675.9,314.4 C675.8,314.3 675.6,314.1 675.5,314 L674.1,312.7 C673.9,312.5 673.8,312.4 673.6,312.2 C673.3,311.9 673,311.6 672.7,311.2 C672.5,310.9 672.3,310.7 672.1,310.4 C672,310.2 671.8,309.9 671.7,309.7 C671.5,309.3 671.4,308.9 671.3,308.5 C671.2,308.1 671.2,307.6 671.2,307.1 L671.2,302.2 C671.2,302.2 671.2,301.9 671.3,301.6 C671.4,301.3 671.4,301 671.6,300.7 C671.7,300.4 671.9,300.2 672.1,299.9 C672.3,299.7 672.4,299.5 672.7,299.4 C672.9,299.3 673,299.2 673.3,299.1 C673.6,298.9 673.9,298.8 674.3,298.7 C674.7,298.6 675.1,298.6 675.5,298.6 L675.6,298.6 C676.1,298.6 676.5,298.6 676.9,298.7 C677.2,298.8 677.6,298.9 677.8,299 C678,299.1 678.3,299.3 678.5,299.4 C678.7,299.5 678.8,299.7 678.9,299.8 C679.1,300.1 679.3,300.3 679.4,300.6 C679.5,300.8 679.6,301 679.6,301.2 C679.7,301.5 679.7,301.7 679.7,301.9 C679.7,302.1 679.7,302.2 679.7,302.2 L679.7,307.1 C679.7,307.5 679.7,307.8 679.6,308.2 C679.6,308.5 679.5,308.8 679.4,309.1 C679.2,309.6 679,310 678.8,310.4 C678.6,310.7 678.4,311 678.2,311.2 C677.9,311.5 677.9,311.5 677.9,311.5 L676.5,310.2 C676.5,310.2 676.5,310.2 676.8,309.9 C677,309.7 677.1,309.5 677.2,309.3 C677.3,309.1 677.4,309 677.5,308.8 C677.6,308.6 677.7,308.3 677.8,308 C677.9,307.7 677.9,307.4 677.9,307 L677.9,302.1 C677.9,302.1 677.9,301.9 677.9,301.8 C677.9,301.7 677.8,301.5 677.7,301.3 C677.6,301.2 677.6,301.1 677.5,300.9 C677.4,300.8 677.3,300.7 677.2,300.7 C677,300.6 676.8,300.5 676.6,300.4 C676.3,300.3 676,300.3 675.6,300.3 L675.5,300.3 C675.2,300.3 674.9,300.3 674.6,300.4 C674.4,300.4 674.2,300.5 674.1,300.6 C674,300.7 673.9,300.7 673.8,300.8 C673.7,300.9 673.7,300.9 673.6,301 C673.5,301.1 673.4,301.3 673.4,301.4 C673.4,301.5 673.3,301.6 673.3,301.7 C673.3,301.8 673.2,302 673.2,302 C673.2,302 673.2,302.1 673.2,302.1 L673.2,302.1 L673.2,307 C673.2,307.3 673.2,307.5 673.3,307.8 C673.3,308 673.4,308.2 673.4,308.4 C673.5,308.7 673.6,309 673.8,309.3 C673.9,309.5 674.1,309.7 674.3,309.9 C674.6,310.2 674.9,310.5 675.2,310.8 C675.3,310.9 675.5,311.1 675.6,311.2 L677,312.5 C677.2,312.7 677.3,312.8 677.5,313 C677.8,313.3 678.1,313.6 678.4,314 C678.6,314.3 678.8,314.5 679,314.8 C679.1,315 679.3,315.3 679.4,315.5 C679.6,315.9 679.7,316.3 679.8,316.7 C679.9,317.1 679.9,317.6 679.9,318.1 L679.9,323 C679.9,323 679.9,323.3 679.8,323.6 C679.7,323.9 679.7,324.2 679.5,324.5 C679.4,324.8 679.2,325 679,325.3 C678.8,325.5 678.7,325.7 678.4,325.8 C678.2,325.9 678.1,326 677.8,326.1 C677.5,326.3 677.2,326.4 676.8,326.5 C676.4,326.6 676,326.6 675.6,326.6 L675.5,326.6 L675.5,326.6 L675.4,326.6 C674.9,326.6 674.5,326.6 674.1,326.5 C673.8,326.4 673.4,326.3 673.2,326.2 C673,326.1 672.7,325.9 672.5,325.8 C672.3,325.7 672.2,325.5 672.1,325.4 C671.9,325.1 671.7,324.9 671.6,324.6 C671.5,324.4 671.4,324.2 671.4,324 C671.3,323.7 671.3,323.5 671.3,323.3 C671.3,323.1 671.3,323 671.3,323 L671.3,318.1 C671.3,317.7 671.3,317.4 671.4,317 C671.4,316.7 671.5,316.4 671.6,316.1 C671.8,315.6 672,315.2 672.2,314.8 C672.4,314.5 672.6,314.2 672.8,314 C673.1,313.7 673.1,313.7 673.1,313.7 L674.5,315 C674.5,315 674.5,315 674.2,315.3 C674,315.5 673.9,315.7 673.8,315.9 C673.7,316.1 673.6,316.2 673.5,316.4 C673.4,316.6 673.3,316.9 673.2,317.2 C673.1,317.5 673.1,317.8 673.1,318.2 L673.1,323.1 C673.1,323.1 673.1,323.3 673.1,323.4 C673.1,323.5 673.2,323.7 673.3,323.9 C673.4,324 673.4,324.1 673.5,324.3 C673.6,324.4 673.7,324.5 673.8,324.5 C674,324.6 674.2,324.7 674.4,324.8 C674.7,324.9 675,324.9 675.5,324.9 L675.5,324.9 L675.5,324.9 Z" id="Path" stroke="#FFDD9D" stroke-width="0.25" fill="#FFDD9D"></path>
        </g>
    </g>
</svg>