<?xml version="1.0" encoding="UTF-8"?>
<svg width="359px" height="437px" viewBox="0 0 359 437" version="1.1" xmlns="http://www.w3.org/2000/svg" xmlns:xlink="http://www.w3.org/1999/xlink">
    <title>favicon</title>
    <g id="Page-1" stroke="none" stroke-width="1" fill="none" fill-rule="evenodd" stroke-linecap="round" stroke-linejoin="round">
        <g id="favicon" transform="translate(10.000000, 14.000000)" stroke="inherit" stroke-width="20">
            <line x1="80.8533789" y1="331.4939" x2="137.225379" y2="275.1219" id="Stroke-3"></line>
            <line x1="290.202979" y1="377.7003" x2="301.739979" y2="366.1633" id="Stroke-4"></line>
            <path d="M316.513579,0 C325.334579,8.821 325.435579,23.225 316.513579,31.944 L316.422579,32.036 L233.458579,115" id="Stroke-5"></path>
            <path d="M54.5696789,229.9998 L38.5966789,245.9728 L38.5976789,245.9728 C29.5956789,254.6098 15.4746789,254.7938 6.6536789,245.9728 C-2.1673211,237.1518 -2.2683211,222.7478 6.6536789,214.0288 L6.6526789,214.0278 L13.0416789,207.6388" id="Stroke-7"></path>
            <path d="M201.515079,51.1115 C210.336079,59.9325 224.457079,59.7485 233.459079,51.1115 L270.195079,14.3745" id="Stroke-9"></path>
            <line x1="208" y1="6.5" x2="224.32" y2="6.5" id="Stroke-1" transform="translate(216.160000, 6.500000) rotate(-45.000000) translate(-216.160000, -6.500000) "></line>
            <path d="M271.791879,268.3334 L300.223879,239.9014 L300.142879,239.8214 C309.143879,231.1844 323.265879,231.0004 332.085879,239.8214 C340.907879,248.6424 341.008879,263.0464 332.085879,271.7654 L329.291879,274.7224" id="Stroke-11"></path>
            <path d="M204.708879,143.7505 C195.786879,152.4695 195.887879,166.8735 204.708879,175.6945 C213.529879,184.5155 227.650879,184.3315 236.652879,175.6945 L268.597879,143.7495 L300.142879,112.2045 C309.143879,103.5675 323.265879,103.3835 332.085879,112.2045" id="Stroke-13"></path>
            <path d="M265.402679,402.5003 C256.401679,411.1373 242.279679,411.3213 233.458679,402.5003 C224.637679,393.6793 224.536679,379.2753 233.458679,370.5563 L233.458679,370.5563 L303.736679,300.2773" id="Stroke-15"></path>
            <path d="M329.291879,146.9444 L102.486879,373.7504 C93.5648789,382.4694 93.6658789,396.8734 102.486879,405.6944 C111.307879,414.5154 125.428879,414.3314 134.430879,405.6944 L140.819879,399.3054 L239.681879,300.4434" id="Stroke-17"></path>
            <path d="M54.5696789,357.7777 C45.5676789,366.4147 31.4466789,366.5987 22.6256789,357.7777 C13.8046789,348.9567 13.7036789,334.5527 22.6256789,325.8337 L112.068679,236.3887 C120.990679,227.6697 120.889679,213.2657 112.068679,204.4447 C103.247679,195.6237 89.1266789,195.8077 80.1246789,204.4447" id="Stroke-19"></path>
        </g>
    </g>
    <style>
        #favicon { stroke: #999;}
  </style>
</svg>