<?xml version="1.0" encoding="UTF-8"?>
<svg width="800px" height="800px" viewBox="0 0 800 800" version="1.1" xmlns="http://www.w3.org/2000/svg" xmlns:xlink="http://www.w3.org/1999/xlink">
    <!-- Generator: Sketch 51.2 (57519) - http://www.bohemiancoding.com/sketch -->
    <title>j</title>
    <desc>Created with Sketch.</desc>
    <defs></defs>
    <g id="Page-1" stroke="none" stroke-width="1" fill="none" fill-rule="evenodd">
        <g id="j" fill-rule="nonzero">
            <rect id="Rectangle-path" fill="#FEDCA1" x="0.916467375" y="0.899311217" width="799.001248" height="799.001248"></rect>
            <path d="M477.098571,300.722587 C471.536754,306.284403 462.519267,306.284403 456.95745,300.722587 C451.395633,295.16077 451.395633,286.143283 456.95745,280.581466 L555.909915,181.629002 C561.471731,176.067185 570.489217,176.067185 576.051035,181.629002 C581.612852,187.190819 581.612852,196.208306 576.051035,201.770122 L477.098571,300.722587 Z" id="Shape" fill="#FCB138"></path>
            <path d="M516.998758,333.739992 C511.436941,339.301809 502.419454,339.301809 496.857637,333.739992 C491.29582,328.178175 491.29582,319.160688 496.857637,313.598871 L533.067057,277.389451 C538.628874,271.827634 547.646361,271.827634 553.208178,277.389451 C558.769995,282.951268 558.769995,291.968755 553.208178,297.530572 L516.998758,333.739992 Z" id="Shape" fill="#FCB138"></path>
            <path d="M477.098571,226.807491 C471.536754,232.369307 462.519267,232.369307 456.95745,226.807491 C451.395633,221.245673 451.395633,212.228187 456.95745,206.66637 L498.952397,164.671423 C504.514214,159.109606 513.5317,159.109606 519.093517,164.671423 C524.655335,170.233239 524.655335,179.250727 519.093517,184.812543 L477.098571,226.807491 Z" id="Shape" fill="#FCB138"></path>
            <path d="M445.178421,478.976673 C439.616604,484.53849 430.599117,484.53849 425.0373,478.976673 C419.475484,473.414856 419.475484,464.397369 425.0373,458.835553 L566.583214,317.289639 C572.145031,311.727822 581.162518,311.727822 586.724335,317.289639 C592.286151,322.851456 592.286151,331.868942 586.724335,337.43076 L445.178421,478.976673 Z" id="Shape" fill="#FCB138"></path>
            <path d="M586.824085,483.465444 C581.262268,489.027261 572.244782,489.027261 566.682964,483.465444 C561.121148,477.903627 561.121148,468.88614 566.682964,463.324324 L574.064499,455.94279 C579.626316,450.380972 588.643803,450.380972 594.20562,455.94279 C599.767437,461.504606 599.767437,470.522092 594.20562,476.08391 L586.824085,483.465444 Z" id="Shape" fill="#FCB138"></path>
            <path d="M521.01962,475.75372 C515.47489,481.332571 506.457446,481.360233 500.878595,475.815503 C495.299743,470.270773 495.272083,461.253328 500.816813,455.674477 L533.235714,423.056074 C538.780444,417.477222 547.797889,417.449561 553.37674,422.994291 C558.955592,428.539021 558.983253,437.556465 553.438523,443.135317 L521.01962,475.75372 Z" id="Shape" fill="#FCB138"></path>
            <path d="M480.049785,369.890794 C474.465251,375.429801 465.44784,375.392895 459.908833,369.808362 C454.369826,364.223828 454.406732,355.206417 459.991265,349.66741 L496.699438,313.258489 C502.283971,307.719482 511.301382,307.756388 516.84039,313.340921 C522.379397,318.925454 522.34249,327.942865 516.757957,333.481873 L480.049785,369.890794 Z" id="Shape" fill="#FCB138"></path>
            <path d="M253.575321,450.529581 C247.968471,456.045998 238.951282,455.972687 233.434865,450.365838 C227.918449,444.758988 227.991759,435.7418 233.598609,430.225383 L252.152196,411.971047 C257.759046,406.454631 266.776235,406.527941 272.292651,412.134791 C277.809068,417.74164 277.735757,426.758829 272.128908,432.275246 L253.575321,450.529581 Z" id="Shape" fill="#FCB138"></path>
            <path d="M216.818123,413.57138 C211.29427,419.170903 202.276992,419.232245 196.677469,413.708392 C191.077947,408.184538 191.016604,399.16726 196.540458,393.567737 L203.822242,386.186202 C209.346095,380.58668 218.363374,380.525337 223.962896,386.049191 C229.56242,391.573045 229.623761,400.590323 224.099908,406.189846 L216.818123,413.57138 Z" id="Shape" fill="#FCB138"></path>
            <path d="M293.580519,483.243082 C288.031329,488.817496 279.013865,488.837945 273.439451,483.288753 C267.865037,477.739563 267.844588,468.722099 273.39378,463.147684 L317.283985,419.057978 C322.833176,413.483564 331.85064,413.463116 337.425054,419.012307 C342.999469,424.561497 343.019916,433.578961 337.470726,439.153375 L293.580519,483.243082 Z" id="Shape" fill="#FCB138"></path>
            <path d="M301.537747,548.6025 C295.97593,554.164317 286.958443,554.164317 281.396626,548.6025 C275.834809,543.040683 275.834809,534.023196 281.396626,528.461379 L345.935179,463.922826 C351.496996,458.36101 360.514483,458.36101 366.0763,463.922826 C371.638116,469.484643 371.638116,478.50213 366.0763,484.063947 L301.537747,548.6025 Z" id="Shape" fill="#FCB138"></path>
            <path d="M363.383037,634.088651 C357.82122,639.650468 348.803733,639.650468 343.241917,634.088651 C337.6801,628.526834 337.6801,619.509347 343.241917,613.947531 L350.623451,606.565996 C356.185268,601.004179 365.202755,601.004179 370.764571,606.565996 C376.326389,612.127812 376.326389,621.145299 370.764571,626.707116 L363.383037,634.088651 Z" id="Shape" fill="#FCB138"></path>
            <path d="M326.471324,597.384517 C320.907276,602.944103 311.88979,602.940485 306.330204,597.376438 C300.770619,591.812391 300.774236,582.794905 306.338284,577.23532 L430.727117,452.946236 C436.291165,447.386651 445.308651,447.390268 450.868236,452.954315 C456.427821,458.518363 456.424205,467.535849 450.860157,473.095435 L326.471324,597.384517 Z" id="Shape" fill="#FCB138"></path>
            <path d="M234.687763,542.534862 C229.116479,548.087197 220.099005,548.071834 214.546672,542.500551 C208.994338,536.929267 209.0097,527.911793 214.580984,522.35946 L273.234258,463.905685 C278.805542,458.353351 287.823016,458.368713 293.37535,463.939997 C298.927683,469.511281 298.912322,478.528755 293.341038,484.081089 L234.687763,542.534862 Z" id="Shape" fill="#FCB138"></path>
            <path d="M477.111026,593.67724 C471.556097,599.245937 462.538618,599.257097 456.969922,593.702167 C451.401225,588.147238 451.390065,579.129758 456.944994,573.561062 L537.443621,492.862933 C542.998551,487.294237 552.016031,487.283077 557.584727,492.838006 C563.153423,498.392936 563.164583,507.410416 557.609654,512.979112 L477.111026,593.67724 Z" id="Shape" fill="#FCB138"></path>
            <path d="M541.936375,601.969 C536.374558,607.530817 527.357071,607.530817 521.795254,601.969 C516.233437,596.407183 516.233437,587.389697 521.795254,581.82788 L534.962316,568.660818 C540.524133,563.099001 549.54162,563.099001 555.103437,568.660818 C560.665253,574.222635 560.665253,583.240122 555.103437,588.801939 L541.936375,601.969 Z" id="Shape" fill="#FCB138"></path>
            <path d="M416.875919,174.741983 C416.875919,166.876387 423.252245,160.50006 431.117842,160.50006 C438.983439,160.50006 445.359764,166.876387 445.359764,174.741983 L445.359764,175.744462 C445.359764,183.610059 438.983439,189.986386 431.117842,189.986386 C423.252245,189.986386 416.875919,183.610059 416.875919,175.744462 L416.875919,174.741983 Z" id="Shape-Copy" fill="#FCB138"></path>
            <path d="M363.383037,633.789399 C357.82122,639.351216 348.803733,639.351216 343.241917,633.789399 C337.6801,628.227583 337.6801,619.210095 343.241917,613.648279 L464.039733,492.850462 C469.60155,487.288645 478.619037,487.288645 484.180854,492.850462 C489.742671,498.412279 489.742671,507.429766 484.180854,512.991583 L363.383037,633.789399 Z" id="Shape" fill="#FCB138"></path>
            <path d="M551.720396,168.852468 C546.158579,163.290652 546.158579,154.273165 551.720396,148.711348 C557.282212,143.149531 566.299699,143.149531 571.861516,148.711348 C587.606169,164.456001 587.606169,189.97059 571.811786,205.610126 C566.222639,211.144478 557.205261,211.100058 551.670909,205.51091 C546.136558,199.921763 546.180979,190.904386 551.770126,185.370034 C556.324838,180.859976 556.324838,173.456911 551.720396,168.852468 Z" id="Shape" fill="#FCB138"></path>
            <path d="M233.218802,429.563253 C238.915882,424.140071 247.930636,424.362109 253.353817,430.059189 C258.776999,435.756269 258.55496,444.771021 252.857881,450.194203 C236.847854,465.434516 211.733277,465.576406 196.259609,449.949288 C180.514956,434.204635 180.514956,408.690045 196.309339,393.05051 C201.898487,387.516158 210.915864,387.560578 216.450215,393.149726 C221.984567,398.738872 221.940147,407.756251 216.350999,413.290602 C211.796288,417.80066 211.796288,425.203725 216.450215,429.857898 C220.872441,434.323908 228.261566,434.282161 233.218802,429.563253 Z" id="Shape" fill="#FCB138"></path>
            <path d="M457.008972,206.321732 C462.706051,200.89855 471.720804,201.120588 477.143985,206.817668 C482.567167,212.514748 482.345129,221.5295 476.648049,226.952681 C460.638023,242.192995 435.523446,242.334885 420.000292,226.658036 C414.465941,221.068889 414.510361,212.051512 420.099509,206.517161 C425.688655,200.982808 434.706032,201.027229 440.240385,206.616377 C444.66261,211.082386 452.051734,211.04064 457.008972,206.321732 Z" id="Shape" fill="#FCB138"></path>
            <path d="M552.657932,297.315685 C546.960852,302.738866 537.946099,302.516829 532.522917,296.819749 C527.099736,291.12267 527.321775,282.107917 533.018854,276.684735 C549.02888,261.444422 574.143458,261.302532 589.666612,276.97938 C595.200963,282.568527 595.156542,291.585905 589.567395,297.120257 C583.978248,302.654608 574.960871,302.610187 569.426519,297.021041 C565.004294,292.55503 557.615169,292.596777 552.657932,297.315685 Z" id="Shape" fill="#FCB138"></path>
            <path d="M552.657932,443.955051 C546.960852,449.378232 537.946099,449.156195 532.522917,443.459115 C527.099736,437.762035 527.321775,428.747282 533.018854,423.324101 C549.02888,408.083787 574.143458,407.941898 589.617126,423.569016 C605.361779,439.313669 605.361779,464.828258 589.567395,480.467794 C583.978248,486.002146 574.960871,485.957725 569.426519,480.368578 C563.892168,474.779431 563.936588,465.762053 569.525735,460.227702 C574.080447,455.717644 574.080447,448.314579 569.426519,443.660405 C565.004294,439.194396 557.615169,439.236143 552.657932,443.955051 Z" id="Shape" fill="#FCB138"></path>
            <path d="M300.289247,403.057359 C294.592168,408.48054 285.577415,408.258503 280.154234,402.561423 C274.731052,396.864344 274.953091,387.84959 280.65017,382.426409 C296.660196,367.186095 321.774774,367.044206 337.248441,382.671324 C352.993095,398.415977 352.993095,423.930566 337.198712,439.570102 C331.609564,445.104454 322.592187,445.060034 317.057835,439.470886 C311.523484,433.881739 311.567904,424.864362 317.157051,419.33001 C321.711763,414.819952 321.711763,407.416887 317.057835,402.762714 C312.635609,398.296704 305.246485,398.338451 300.289247,403.057359 Z" id="Shape" fill="#FCB138"></path>
            <path d="M460.64987,349.762878 C466.346949,344.339696 475.361702,344.561735 480.784884,350.258814 C486.208065,355.955894 485.986027,364.970647 480.288948,370.393829 C464.278921,385.634141 439.164345,385.776032 423.690677,370.148914 C407.946023,354.404261 407.946023,328.889672 423.740406,313.250135 C429.329554,307.715783 438.346931,307.760204 443.881282,313.349351 C449.415634,318.938499 449.371214,327.955876 443.782066,333.490227 C439.227354,338.000286 439.227354,345.403351 443.881282,350.057523 C448.303509,354.523534 455.692632,354.481787 460.64987,349.762878 Z" id="Shape" fill="#FCB138"></path>
            <path d="M493.567525,609.114095 C499.264604,603.690913 508.279357,603.912952 513.702538,609.610031 C519.12572,615.307111 518.903681,624.321864 513.206602,629.745046 C497.196576,644.985358 472.081999,645.127249 456.608331,629.500131 C440.863677,613.755478 440.863677,588.240888 456.65806,572.601352 C462.247208,567.067 471.264585,567.111421 476.798937,572.700568 C482.333288,578.289715 482.288868,587.307092 476.699721,592.841444 C472.145009,597.351503 472.145009,604.754568 476.798937,609.40874 C481.221163,613.874751 488.610287,613.833004 493.567525,609.114095 Z" id="Shape" fill="#FCB138"></path>
            <path d="M342.944318,613.104114 C348.641397,607.680932 357.65615,607.90297 363.079332,613.60005 C368.502513,619.29713 368.280474,628.311882 362.583396,633.735064 C346.573369,648.975377 321.458792,649.117267 305.985124,633.490149 C290.240471,617.745496 290.240471,592.230907 306.034854,576.591371 C311.624001,571.057019 320.641379,571.101439 326.17573,576.690587 C331.710082,582.279734 331.665662,591.297112 326.076514,596.831463 C321.521802,601.341521 321.521802,608.744586 326.17573,613.398759 C330.597956,617.864769 337.98708,617.823022 342.944318,613.104114 Z" id="Shape" fill="#FCB138"></path>
            <path d="M252.171392,558.241356 C257.868471,552.818175 266.883224,553.040213 272.306406,558.737292 C277.729587,564.434372 277.507549,573.449126 271.81047,578.872307 C255.800443,594.11262 230.685866,594.25451 215.212198,578.627392 C199.467546,562.882739 199.467546,537.36815 215.261929,521.728613 C220.851075,516.194261 229.868453,516.238682 235.402804,521.827829 C240.937157,527.416977 240.892736,536.434354 235.303589,541.968705 C230.748876,546.478764 230.748876,553.881829 235.402804,558.536002 C239.82503,563.002011 247.214154,562.960265 252.171392,558.241356 Z" id="Shape" fill="#FCB138"></path>
        </g>
    </g>
</svg>