<?xml version="1.0" encoding="UTF-8"?>
<svg width="1440px" height="800px" viewBox="0 0 1440 800" version="1.1" xmlns="http://www.w3.org/2000/svg" xmlns:xlink="http://www.w3.org/1999/xlink">
    <title>splash4</title>
    <defs>
        <rect id="path-1" x="0" y="0" width="1440" height="800"></rect>
    </defs>
    <g id="Page-1" stroke="none" stroke-width="1" fill="none" fill-rule="evenodd">
        <g id="splash4">
            <rect id="Mask" fill-opacity="0.25" fill="#1F90FF" fill-rule="nonzero" x="0" y="0" width="1440" height="800"></rect>
            <g id="Clipped">
                <mask id="mask-2" fill="white">
                    <use xlink:href="#path-1"></use>
                </mask>
                <g id="sky"></g>
                <g id="Group" mask="url(#mask-2)" fill-rule="nonzero">
                    <g transform="translate(-87.500000, 128.103170)">
                        <path d="M1297.41433,441.985949 C1261.27119,452.897084 1203.07563,506.486102 1178.5,531.916719 L1178.5,745.02483 L1844.24974,710.0751 C1847.51455,595.706796 1843.90876,386.334897 1801.62812,386.334897 C1748.7773,386.334897 1733.92793,362.608292 1705.72947,366.971042 C1536.52163,393.155209 1496.15912,347.608891 1439.34433,366.971894 C1382.52954,386.334897 1342.59325,428.34703 1297.41433,441.985949 Z" id="Vector-2" fill="#40E1A4" opacity="0.6"></path>
                        <path d="M182.274092,48.8658797 C139.753723,48.8658797 25.040997,7.53408622 0,0 L86.1410298,724.39783 L1527,724.39783 L1527,609.442631 C1400.79337,584.901634 1240.0656,477.246938 1174.42276,451.863595 C1108.77993,426.480252 936.62104,366.591294 850.568874,319.37408 C764.516708,272.156865 524.767976,260.942695 416.090048,195.069492 C307.412121,129.196288 224.794461,48.8658797 182.274092,48.8658797 Z" id="Vector-1" fill="#3ACB94"></path>
                    </g>
                </g>
            </g>
        </g>
    </g>
</svg>