<?xml version="1.0" encoding="UTF-8"?>
<svg width="3214px" height="1556px" viewBox="0 0 3214 1556" version="1.1" xmlns="http://www.w3.org/2000/svg" xmlns:xlink="http://www.w3.org/1999/xlink">
    <title>template</title>
    <defs>
        <rect id="path-1" x="0" y="-4.20496971e-15" width="3213.08927" height="1555.11562"></rect>
    </defs>
    <g id="Page-1" stroke="none" stroke-width="1" fill="none" fill-rule="evenodd">
        <g id="template" transform="translate(0.000000, 0.545037)">
            <g id="Mask" fill="#F6D28D" fill-rule="nonzero">
                <rect id="path-1" x="0" y="-4.20496971e-15" width="3213.08927" height="1555.11562"></rect>
            </g>
            <g id="Group-Clipped">
                <mask id="mask-2" fill="white">
                    <use xlink:href="#path-1"></use>
                </mask>
                <use id="path-1" fill="#D6D6D6" fill-rule="nonzero" xlink:href="#path-1"></use>
                <g id="Group" mask="url(#mask-2)">
                    <g transform="translate(609.000000, 213.521493)">
                        <g transform="translate(-0.000000, 0.000000)" fill-rule="nonzero" id="template-copy">
                            <g id="dod2">
                                <path d="M712.947416,-5.68434189e-14 L2349.37349,-5.68434189e-14 C2376.41147,-5.68434189e-14 2398.33008,21.92313 2398.33008,48.961107 L2398.33008,1195.05793 L664.101156,1195.05793 L663.990836,48.961108 C663.990836,21.923131 685.904926,-5.68434189e-14 712.942896,-5.68434189e-14 C712.944406,-5.68434189e-14 712.945916,-5.68434189e-14 712.947416,-5.68434189e-14 L712.947416,-5.68434189e-14 Z" id="path-41" fill="#202427"></path>
                                <path d="M573.990836,1156.44089 C573.990836,1152.3314 577.327766,1149 581.453476,1149 L2479.74683,1149 C2483.86833,1149 2487.20946,1152.3334 2487.20946,1156.44089 L2487.20946,1180.62214 C2487.20946,1198.08656 2473.05672,1212.24428 2455.57708,1212.24428 L605.623216,1212.24428 C588.153136,1212.24428 573.990836,1198.0904 573.990836,1180.62214 L573.990836,1156.44089 Z" id="Rectangle-304" fill="#B6B6B6"></path>
                                <rect id="Rectangle-2" fill="#202427" x="738.990836" y="79" width="362.022524" height="988.360049"></rect>
                                <rect id="Rectangle-2-Copy" fill="#F3F3F3" x="1100.99084" y="311" width="571.903762" height="756.520551"></rect>
                                <rect id="Rectangle-2-Copy-3" fill="#000000" x="1100.99084" y="79" width="1219.34244" height="231.832554"></rect>
                                <rect id="Rectangle-2-Copy-2" fill="#7B7B7B" x="1462.99084" y="311" width="857.319921" height="756.520551"></rect>
                            </g>
                        </g>
                    </g>
                </g>
            </g>
        </g>
    </g>
</svg>