<svg width="915" height="494" viewBox="0 0 915 494" fill="none" xmlns="http://www.w3.org/2000/svg">
<path fill-rule="evenodd" clip-rule="evenodd" d="M60.0982 0.00184135H770.713C782.454 0.00184135 791.972 8.93268 791.972 19.9494V486.932H38.8868L38.8389 19.9494C38.8378 8.93268 48.355 0.00101708 60.0962 8.49966e-08C60.0968 2.83256e-08 60.0975 0 60.0982 0V0.00184135Z" fill="black"/>
<path fill-rule="evenodd" clip-rule="evenodd" d="M0 471.2C0 469.525 1.44906 468.168 3.24064 468.168H827.57C829.36 468.168 830.811 469.526 830.811 471.2V481.053C830.811 488.168 824.665 493.937 817.075 493.937H13.7363C6.14995 493.937 0 488.17 0 481.053V471.2Z" fill="#40454D"/>
<rect x="71.0977" y="32.3398" width="687" height="403" fill="#151719"/>
<rect x="715" y="33" width="207.841" height="400.72" rx="28" fill="#40454D"/>
<rect x="725" y="66" width="188" height="335" fill="#151719"/>
</svg>
