<svg width="359" height="437" viewBox="0 0 359 437" fill="none" xmlns="http://www.w3.org/2000/svg">
<path d="M90.8534 345.494L147.225 289.122" stroke="#FFC972" stroke-width="20" stroke-linecap="round" stroke-linejoin="round"/>
<path d="M300.203 391.7L311.74 380.163" stroke="#FFBCCD" stroke-width="20" stroke-linecap="round" stroke-linejoin="round"/>
<path d="M326.514 14C335.335 22.821 335.436 37.225 326.514 45.944L326.423 46.036L243.459 129" stroke="#00D2C5" stroke-width="20" stroke-linecap="round" stroke-linejoin="round"/>
<path d="M64.5697 244L48.5967 259.973H48.5977C39.5957 268.61 25.4747 268.794 16.6537 259.973C7.83268 251.152 7.73168 236.748 16.6537 228.029L16.6527 228.028L23.0417 221.639" stroke="#00D2C5" stroke-width="20" stroke-linecap="round" stroke-linejoin="round"/>
<path d="M211.515 65.1115C220.336 73.9325 234.457 73.7485 243.459 65.1115L280.195 28.3745" stroke="#F85CA5" stroke-width="20" stroke-linecap="round" stroke-linejoin="round"/>
<path d="M220.39 26.27L231.93 14.73" stroke="#FFBCCD" stroke-width="20" stroke-linecap="round" stroke-linejoin="round"/>
<path d="M281.792 282.333L310.224 253.901L310.143 253.821C319.144 245.184 333.266 245 342.086 253.821C350.908 262.642 351.009 277.046 342.086 285.765L339.292 288.722" stroke="#FFC972" stroke-width="20" stroke-linecap="round" stroke-linejoin="round"/>
<path d="M214.709 157.75C205.787 166.469 205.888 180.873 214.709 189.694C223.53 198.515 237.651 198.331 246.653 189.694L278.598 157.749L310.143 126.204C319.144 117.567 333.266 117.383 342.086 126.204" stroke="#FFC972" stroke-width="20" stroke-linecap="round" stroke-linejoin="round"/>
<path d="M275.403 416.5C266.402 425.137 252.28 425.321 243.459 416.5C234.638 407.679 234.537 393.275 243.459 384.556L313.737 314.277" stroke="#00D2C5" stroke-width="20" stroke-linecap="round" stroke-linejoin="round"/>
<path d="M339.292 160.944L112.487 387.75C103.565 396.469 103.666 410.873 112.487 419.694C121.308 428.515 135.429 428.331 144.431 419.694L150.82 413.305L249.682 314.443" stroke="#80CCEB" stroke-width="20" stroke-linecap="round" stroke-linejoin="round"/>
<path d="M64.5697 371.778C55.5677 380.415 41.4467 380.599 32.6257 371.778C23.8047 362.957 23.7037 348.553 32.6257 339.834L122.069 250.389C130.991 241.67 130.89 227.266 122.069 218.445C113.248 209.624 99.1267 209.808 90.1247 218.445" stroke="#F85CA5" stroke-width="20" stroke-linecap="round" stroke-linejoin="round"/>
</svg>
