<svg xmlns="http://www.w3.org/2000/svg" viewBox="810 393 122 148" fill="currentColor">
  <path d="M904,495.74c10.65-10.01,17.32-24.25,17.32-40.02,0-30.35-24.6-54.95-54.96-54.96h-49.89c-1.33,0-2.64,.54-3.58,1.48-.94,.94-1.48,2.25-1.48,3.58v124.73c0,1.33,.54,2.64,1.48,3.58,.94,.94,2.25,1.48,3.58,1.48h37.42c1.33,0,2.64-.54,3.58-1.48s1.48-2.25,1.48-3.58v-19.88h1.59l7.47,21.54c.71,2.04,2.63,3.41,4.79,3.41h37.4c1.63,0,3.16-.78,4.11-2.1s1.21-3.02,.7-4.56l-11.02-33.22Zm-27.59,29.74l-7.47-21.54c-.71-2.04-2.63-3.41-4.79-3.41h-10.27c-1.33,0-2.64,.54-3.58,1.48-.94,.94-1.48,2.25-1.48,3.58v19.88h-27.28v-114.59h44.82c12.39,0,23.57,5.01,31.69,13.13,8.12,8.13,13.13,19.3,13.13,31.69,0,13.92-6.32,26.31-16.27,34.55-1.61,1.34-2.24,3.51-1.58,5.5l9.86,29.72h-26.78Z"/>
  <line x1="821.05" y1="455.72" x2="911.16" y2="455.72" stroke="currentColor" stroke-width="10" stroke-miterlimit="10" fill="none"/>
</svg>
