<?xml version="1.0" encoding="UTF-8"?>
<svg id="Layer_1" data-name="Layer 1" xmlns="http://www.w3.org/2000/svg" viewBox="0 0 803.46 803.46">
  <defs>
    <style>
      .cls-1 {
        fill: #f4f4f4;
      }

      .cls-2 {
        fill: #53bb7d;
      }
    </style>
  </defs>
  <rect class="cls-1" x="0" y="0" width="803.46" height="803.46"/>
  <g>
    <path class="cls-2" d="M279.85,394.11c.7,.06,1.4,.12,2.1,.18,1.27,.11,2.54,.21,3.83,.32l.24,.02c1.29,.14,2.58,.28,3.89,.42,2.62,.28,5.28,.57,7.98,.86h.1c2.86,.35,5.63,.74,8.32,1.09h-.08c5.91,.71,11.67,1.71,17.37,2.58l.13,.02c3.06,.51,6.02,1.08,8.9,1.59h.03c1.48,.27,2.97,.54,4.46,.81l.23,.04c1.49,.31,2.98,.61,4.48,.92l-.08-.02c.32,.06,.64,.13,.96,.19l5.14-10.82h0s53.6-107.2,53.6-107.2l159.13,318.27,26.83-13.42v-30h-.69c-16.57,0-30,13.43-30,30s13.43,30,30,30h.69c10.43,0,20.04-5.36,25.52-14.23,5.48-8.87,5.98-19.86,1.31-29.19L428.28,204.61c-5.09-10.18-15.45-16.58-26.83-16.58s-21.74,6.4-26.83,16.58l-80.43,160.87-14.34,28.63Z"/>
    <path class="cls-2" d="M573.3,604.28s-1.1-1.18-3.16-3.4c-1.03-1.11-2.3-2.48-3.8-4.08-.75-.8-1.55-1.66-2.41-2.58-.83-.85-1.71-1.76-2.65-2.71-1.87-1.92-3.94-4.04-6.19-6.35-2.36-2.29-4.9-4.78-7.63-7.43-5.5-5.25-11.81-11.07-18.9-17.22-1.75-1.57-3.6-3.09-5.47-4.65-1.87-1.57-3.78-3.16-5.73-4.79-1.96-1.6-3.99-3.18-6.04-4.81-2.06-1.61-4.1-3.32-6.27-4.91-4.31-3.24-8.7-6.62-13.34-9.87-2.32-1.63-4.61-3.36-7.02-4.96-2.4-1.62-4.82-3.27-7.26-4.92-2.43-1.68-4.97-3.22-7.48-4.86-2.52-1.62-5.05-3.28-7.67-4.83-2.6-1.58-5.22-3.17-7.85-4.77-2.67-1.53-5.35-3.07-8.04-4.62-10.83-6.09-22.02-12.03-33.5-17.38-11.47-5.37-23.11-10.49-34.82-14.92-11.7-4.46-23.35-8.58-34.82-12.01-1.43-.44-2.85-.88-4.27-1.32-1.43-.4-2.85-.81-4.26-1.21-2.83-.79-5.63-1.62-8.42-2.37-5.59-1.42-11.04-2.92-16.42-4.1-2.68-.61-5.32-1.25-7.94-1.82-2.62-.54-5.2-1.08-7.74-1.6-1.27-.26-2.53-.52-3.78-.78-1.25-.23-2.5-.45-3.73-.68-2.46-.45-4.88-.89-7.25-1.32-4.75-.82-9.32-1.48-13.66-2.18-4.36-.58-8.5-1.13-12.38-1.65-3.9-.43-7.55-.82-10.93-1.19-3.38-.38-6.49-.57-9.31-.83-5.62-.53-10.06-.71-13.08-.91-3.02-.18-4.64-.28-4.64-.28,0,0,1.61-.06,4.64-.17,3.03-.09,7.47-.33,13.13-.36,2.83-.02,5.97-.12,9.38-.07,3.42,.04,7.11,.08,11.06,.13,3.95,.14,8.15,.29,12.59,.45,4.42,.28,9.09,.5,13.95,.86,2.43,.2,4.91,.41,7.44,.62,1.26,.11,2.54,.21,3.83,.32,1.28,.14,2.58,.28,3.89,.42,2.62,.28,5.28,.57,7.98,.86,2.7,.32,5.43,.71,8.21,1.06,5.56,.67,11.23,1.65,17.06,2.54,2.9,.48,5.83,1.04,8.79,1.57,1.48,.27,2.97,.54,4.46,.81,1.49,.31,2.98,.61,4.48,.92,12.03,2.36,24.36,5.41,36.81,8.83,12.47,3.39,24.96,7.48,37.37,11.89,12.42,4.38,24.62,9.42,36.52,14.67,2.96,1.34,5.92,2.68,8.86,4.01,2.91,1.4,5.8,2.79,8.67,4.18,2.89,1.36,5.7,2.83,8.51,4.27,2.79,1.46,5.62,2.82,8.33,4.34,2.73,1.49,5.44,2.96,8.12,4.42,2.69,1.44,5.28,3.02,7.88,4.5,5.22,2.95,10.19,6.06,15.07,9.03,2.46,1.46,4.79,3.05,7.13,4.54,2.33,1.52,4.64,2.98,6.88,4.48,2.22,1.52,4.41,3.01,6.55,4.48,2.14,1.47,4.27,2.89,6.28,4.37,8.15,5.79,15.47,11.33,21.88,16.36,3.18,2.55,6.15,4.93,8.91,7.13,2.74,2.32,5.26,4.44,7.53,6.36,1.14,.96,2.21,1.88,3.23,2.73,.95,.83,1.83,1.62,2.66,2.35,1.64,1.45,3.04,2.69,4.18,3.7,2.27,2.01,3.48,3.08,3.48,3.08,8.28,7.33,9.06,19.98,1.73,28.26-7.33,8.28-19.98,9.06-28.26,1.73-.48-.43-.96-.89-1.39-1.35Z"/>
    <path class="cls-2" d="M573.3,604.28l7.32-6.81s-.28-.3-.81-.87c-.53-.57-1.32-1.42-2.36-2.53-1.03-1.11-2.3-2.48-3.8-4.08h0c-.75-.81-1.55-1.67-2.41-2.59l-.15-.16c-.83-.85-1.72-1.76-2.65-2.71h0c-1.87-1.91-3.94-4.03-6.19-6.34l-.19-.19c-2.36-2.29-4.9-4.78-7.63-7.43l-.07-.07c-5.59-5.34-12.03-11.27-19.25-17.54l-6.55,7.55,6.69-7.43c-1.98-1.79-3.93-3.37-5.74-4.89h0c-1.87-1.57-3.78-3.17-5.72-4.79l-.08-.07c-2.09-1.71-4.15-3.31-6.12-4.88l-.08-.07c-1.89-1.47-4.01-3.26-6.52-5.1l-5.92,8.06,6.01-8c-4.24-3.18-8.73-6.65-13.62-10.07l.03,.02c-2.14-1.5-4.51-3.29-7.23-5.1l.06,.04c-2.4-1.62-4.82-3.27-7.26-4.92l-5.61,8.28,5.7-8.22c-2.76-1.91-5.38-3.49-7.71-5.02l-.07-.05c-2.46-1.57-5.08-3.3-7.96-5.01l-5.1,8.6,5.19-8.55c-2.6-1.58-5.22-3.17-7.85-4.77l-.21-.12c-2.67-1.53-5.35-3.08-8.04-4.62l-.08-.05c-10.97-6.17-22.38-12.23-34.18-17.73h.02c-11.62-5.43-23.49-10.65-35.52-15.21h.02c-11.85-4.51-23.73-8.71-35.51-12.23l.08,.03c-1.43-.44-2.86-.88-4.27-1.32l-.22-.07c-1.43-.4-2.85-.81-4.26-1.21h-.03c-2.75-.78-5.58-1.61-8.52-2.4l-.14-.04c-5.46-1.38-11.01-2.91-16.72-4.17l.08,.02c-2.6-.59-5.27-1.24-8.05-1.85l-.1-.02c-2.62-.54-5.2-1.08-7.74-1.6-1.27-.26-2.53-.52-3.78-.78l-.23-.05c-1.26-.23-2.5-.46-3.73-.68-2.46-.45-4.88-.89-7.25-1.32l-.09-.02c-4.9-.84-9.52-1.52-13.76-2.2l-.27-.04c-4.36-.58-8.5-1.13-12.38-1.65l-.24-.03c-3.9-.43-7.55-.82-10.93-1.19h.02c-3.66-.4-6.89-.61-9.5-.85h.02c-2.94-.27-5.57-.46-7.82-.6-2.25-.14-4.13-.24-5.53-.33h-.06c-3.02-.19-4.64-.28-4.64-.28l-.6,9.98,.37,9.99s1.61-.06,4.64-.17h-.06c1.63-.05,3.48-.13,5.62-.2,2.14-.07,4.55-.14,7.25-.15h.02c2.48-.02,4.96-.09,7.5-.09,.57,0,1.12,0,1.66,.01h.04c3.42,.04,7.11,.09,11.06,.13l.12-10-.36,9.99c3.95,.14,8.15,.29,12.59,.45l.36-9.99-.63,9.98c4.52,.28,9.14,.51,13.84,.85h-.1c2.43,.2,4.91,.4,7.44,.61,1.26,.1,2.54,.21,3.83,.32l.83-9.97-1.07,9.94c1.28,.14,2.58,.28,3.89,.42,2.62,.28,5.28,.57,7.98,.86h-.1c2.54,.29,5.24,.67,8.1,1.04h.08c5.22,.64,10.8,1.6,16.75,2.51l1.51-9.88-1.65,9.86c2.75,.46,5.64,1.01,8.68,1.55h-.03c1.48,.26,2.97,.53,4.47,.81l1.78-9.84-2.01,9.8c1.49,.3,2.98,.61,4.48,.92l.08,.02c11.71,2.3,23.8,5.29,36.09,8.66h.02c12.13,3.3,24.39,7.32,36.65,11.67h.02c12.1,4.28,24.06,9.21,35.82,14.39l-.09-.04c2.96,1.34,5.92,2.68,8.86,4.01l4.12-9.11-4.34,9.01c2.91,1.4,5.8,2.79,8.67,4.18l.09,.04c2.63,1.23,5.33,2.65,8.2,4.12l-.08-.04c2.98,1.55,5.73,2.88,8.1,4.21l.08,.04c2.73,1.49,5.44,2.96,8.12,4.42l.06,.03c2.38,1.27,4.89,2.8,7.67,4.38l.03,.02c4.96,2.8,9.83,5.84,14.78,8.86l.09,.05c2.12,1.26,4.36,2.78,6.88,4.39l5.37-8.43-5.46,8.38c2.4,1.56,4.68,3.01,6.79,4.41l5.55-8.32-5.64,8.26c2.22,1.52,4.41,3.01,6.55,4.48h-.01c2.2,1.5,4.23,2.86,6,4.17l.14,.1c8,5.69,15.2,11.13,21.5,16.07l-.08-.06c3.18,2.55,6.15,4.93,8.91,7.13l6.25-7.8-6.45,7.64c2.74,2.32,5.26,4.44,7.53,6.36h0c1.14,.96,2.21,1.87,3.23,2.73l6.46-7.63-6.62,7.5c.94,.83,1.83,1.62,2.66,2.35h0c1.64,1.45,3.04,2.68,4.18,3.69,2.27,2.01,3.48,3.08,3.48,3.08,1.14,1.01,1.96,2.17,2.53,3.45,.56,1.28,.85,2.67,.85,4.06,0,1.19-.21,2.37-.62,3.49-.42,1.12-1.03,2.17-1.89,3.15h0c-1.01,1.14-2.17,1.96-3.45,2.53-1.28,.56-2.67,.85-4.06,.85-1.19,0-2.37-.21-3.49-.62-1.12-.42-2.17-1.03-3.15-1.89-.21-.19-.49-.45-.71-.7l.02,.02-7.32,6.81-7.3,6.84c.63,.67,1.31,1.34,2.06,2.01,2.84,2.51,6.06,4.41,9.44,5.66,3.38,1.26,6.92,1.88,10.45,1.88,4.14,0,8.27-.85,12.13-2.55,3.85-1.69,7.42-4.25,10.37-7.58h0c2.51-2.84,4.41-6.06,5.66-9.44,1.26-3.38,1.88-6.92,1.88-10.45,0-4.14-.85-8.27-2.55-12.13-1.69-3.85-4.25-7.42-7.58-10.37,0,0-.3-.27-.89-.79-.59-.52-1.45-1.29-2.59-2.29-1.13-1-2.53-2.24-4.18-3.7h0c-.82-.73-1.71-1.52-2.66-2.35l-.16-.14c-1.01-.86-2.09-1.77-3.23-2.73h0c-2.27-1.93-4.79-4.05-7.53-6.37l-.2-.17c-2.75-2.2-5.73-4.59-8.91-7.13l-.08-.06c-6.51-5.11-13.96-10.75-22.26-16.65l-5.79,8.15,5.93-8.05c-2.26-1.66-4.47-3.14-6.56-4.57h-.01c-2.15-1.47-4.33-2.97-6.56-4.49l-.09-.06c-2.37-1.58-4.72-3.07-6.98-4.54l-.08-.05c-2.17-1.38-4.59-3.03-7.38-4.7l-5.12,8.59,5.21-8.54c-4.82-2.94-9.89-6.12-15.37-9.21l.03,.02c-2.43-1.38-5.09-3-8.1-4.62l.06,.03c-2.68-1.46-5.39-2.94-8.12-4.42l.08,.04c-3.06-1.7-5.96-3.1-8.57-4.46l-.08-.04c-2.74-1.4-5.65-2.93-8.81-4.42l-4.25,9.05,4.34-9.01c-2.87-1.38-5.77-2.78-8.67-4.18l-.22-.1c-2.94-1.33-5.89-2.67-8.85-4.01l-.09-.04c-12.05-5.31-24.48-10.44-37.23-14.95h.02c-12.56-4.45-25.29-8.63-38.1-12.11h.02c-12.62-3.45-25.17-6.56-37.53-8.99l.08,.02c-1.5-.31-3-.61-4.48-.92l-.23-.04c-1.49-.27-2.98-.54-4.46-.81h-.03c-2.88-.52-5.84-1.09-8.9-1.6l-.13-.02c-5.7-.87-11.46-1.87-17.37-2.59h.08c-2.69-.34-5.46-.73-8.32-1.07h-.1c-2.7-.3-5.36-.59-7.98-.87-1.31-.14-2.6-.28-3.89-.42l-.24-.02c-1.29-.11-2.56-.21-3.83-.32-2.53-.21-5.01-.42-7.44-.62h-.1c-5.02-.38-9.73-.61-14.06-.88h-.27c-4.43-.17-8.63-.32-12.59-.46h-.24c-3.95-.05-7.64-.1-11.06-.14h.04c-.69-.01-1.35-.01-1.98-.01-2.89,0-5.46,.07-7.62,.09h.02c-2.96,.01-5.6,.08-7.86,.16-2.26,.08-4.14,.16-5.54,.2h-.06c-3.03,.11-4.64,.17-4.64,.17-5.34,.2-9.57,4.54-9.63,9.88s4.07,9.78,9.4,10.1c0,0,1.61,.1,4.63,.28h-.06c1.63,.1,3.47,.2,5.6,.33,2.13,.13,4.53,.3,7.21,.55h.02c3.01,.28,6.02,.47,9.11,.81h.02c3.38,.37,7.03,.77,10.93,1.19l1.08-9.94-1.32,9.91c3.89,.52,8.02,1.07,12.38,1.65l1.32-9.91-1.59,9.87c4.44,.71,8.96,1.38,13.55,2.17l-.09-.02c2.37,.43,4.78,.87,7.25,1.32,1.23,.22,2.47,.45,3.72,.68l1.79-9.84-2.03,9.79c1.25,.26,2.51,.52,3.78,.78,2.54,.52,5.12,1.06,7.74,1.6l-.1-.02c2.45,.53,5.06,1.17,7.83,1.8l.08,.02c5.03,1.1,10.39,2.58,16.11,4.03l2.46-9.69-2.59,9.66c2.63,.71,5.4,1.52,8.31,2.34h-.03c1.41,.39,2.83,.79,4.26,1.2l2.73-9.62-2.95,9.56c1.42,.44,2.84,.88,4.27,1.32l.08,.03c11.14,3.33,22.58,7.37,34.12,11.77h.02c11.38,4.32,22.8,9.33,34.12,14.63h.02c11.17,5.21,22.14,11.03,32.83,17.04l-.08-.05c2.69,1.55,5.38,3.09,8.04,4.62l4.98-8.67-5.19,8.55c2.63,1.6,5.25,3.19,7.85,4.77l.09,.06c2.35,1.39,4.78,2.98,7.37,4.64l-.08-.05c2.7,1.76,5.16,3.26,7.25,4.71l.08,.06c2.44,1.65,4.86,3.29,7.26,4.92l.06,.04c2.09,1.39,4.32,3.06,6.81,4.82l.03,.02c4.39,3.07,8.69,6.38,13.06,9.67l.09,.06c1.84,1.35,3.8,2.98,6.03,4.73l6.16-7.88-6.24,7.81c2.12,1.69,4.12,3.25,5.95,4.75l6.33-7.74-6.42,7.67c1.94,1.62,3.85,3.22,5.73,4.79h0c1.93,1.61,3.69,3.06,5.2,4.41l.14,.12c6.95,6.03,13.14,11.74,18.55,16.9l-.07-.07c2.72,2.65,5.27,5.13,7.63,7.43l6.98-7.16-7.16,6.98c2.25,2.31,4.32,4.43,6.19,6.35h0c.93,.96,1.82,1.87,2.65,2.72l7.16-6.98-7.31,6.82c.86,.92,1.66,1.78,2.4,2.58h0c1.5,1.6,2.77,2.97,3.8,4.08,2.06,2.22,3.16,3.4,3.16,3.4l.02,.02,7.3-6.84Z"/>
    <path class="cls-2" d="M315.96,453.21c-.48,2.85-1.39,5.67-2.75,8.39l-70.89,141.78c-7.41,14.82-25.43,20.83-40.25,13.42s-20.83-25.43-13.42-40.25l70.89-141.78"/>
  </g>
</svg>