<svg width="392" height="314" viewBox="0 0 392 314" fill="none" xmlns="http://www.w3.org/2000/svg">
<g clip-path="url(#clip0_25_917)">
<path d="M391.328 0H0V313.062H391.328V0Z" fill="url(#paint0_linear_25_917)"/>
<path opacity="0.95" d="M326.759 58.6992H64.5691C55.9242 58.6992 48.916 65.7074 48.916 74.3523V238.71C48.916 247.355 55.9242 254.363 64.5691 254.363H326.759C335.404 254.363 342.412 247.355 342.412 238.71V74.3523C342.412 65.7074 335.404 58.6992 326.759 58.6992Z" fill="white"/>
<path d="M318.932 88.0488H72.3957C70.2345 88.0488 68.4824 89.8009 68.4824 91.9621V106.148C68.4824 108.309 70.2345 110.061 72.3957 110.061H318.932C321.094 110.061 322.846 108.309 322.846 106.148V91.9621C322.846 89.8009 321.094 88.0488 318.932 88.0488Z" fill="#1D1B22"/>
<path d="M251.428 124.736H71.4174C69.7964 124.736 68.4824 126.05 68.4824 127.671V136.476C68.4824 138.097 69.7964 139.411 71.4174 139.411H251.428C253.049 139.411 254.363 138.097 254.363 136.476V127.671C254.363 126.05 253.049 124.736 251.428 124.736Z" fill="#666666"/>
<path d="M271.484 154.085H70.9282C69.5774 154.085 68.4824 155.18 68.4824 156.531V161.423C68.4824 162.774 69.5774 163.869 70.9282 163.869H271.484C272.835 163.869 273.93 162.774 273.93 161.423V156.531C273.93 155.18 272.835 154.085 271.484 154.085Z" fill="#999999"/>
<path d="M237.243 173.652H70.9282C69.5774 173.652 68.4824 174.747 68.4824 176.098V180.989C68.4824 182.34 69.5774 183.435 70.9282 183.435H237.243C238.593 183.435 239.688 182.34 239.688 180.989V176.098C239.688 174.747 238.593 173.652 237.243 173.652Z" fill="#999999"/>
<path d="M135.987 205.447H74.3523C71.1105 205.447 68.4824 208.075 68.4824 211.317V224.035C68.4824 227.277 71.1105 229.905 74.3523 229.905H135.987C139.228 229.905 141.856 227.277 141.856 224.035V211.317C141.856 208.075 139.228 205.447 135.987 205.447Z" fill="#E74646"/>
</g>
<defs>
<linearGradient id="paint0_linear_25_917" x1="0" y1="0" x2="30542.7" y2="38178.4" gradientUnits="userSpaceOnUse">
<stop stop-color="#FFD3D9"/>
<stop offset="1" stop-color="#E8A192"/>
</linearGradient>
<clipPath id="clip0_25_917">
<rect width="391.328" height="313.062" fill="white"/>
</clipPath>
</defs>
</svg>
