<svg width="392" height="314" viewBox="0 0 392 314" fill="none" xmlns="http://www.w3.org/2000/svg">
<g clip-path="url(#clip0_25_984)">
<path d="M391.328 0H0V313.062H391.328V0Z" fill="#D6D6D6"/>
<path d="M183.924 34.2412H36.1979C29.7141 34.2412 24.458 39.4973 24.458 45.9811V267.081C24.458 273.565 29.7141 278.821 36.1979 278.821H183.924C190.408 278.821 195.664 273.565 195.664 267.081V45.9811C195.664 39.4973 190.408 34.2412 183.924 34.2412Z" fill="#0086E6"/>
<path d="M363.935 88.0488H213.274C208.951 88.0488 205.447 91.5529 205.447 95.8754V236.754C205.447 241.076 208.951 244.58 213.274 244.58H363.935C368.258 244.58 371.762 241.076 371.762 236.754V95.8754C371.762 91.5529 368.258 88.0488 363.935 88.0488Z" fill="#24292E"/>
<path d="M220.122 109.083C222.284 109.083 224.036 107.331 224.036 105.169C224.036 103.008 222.284 101.256 220.122 101.256C217.961 101.256 216.209 103.008 216.209 105.169C216.209 107.331 217.961 109.083 220.122 109.083Z" fill="#E74646"/>
<path d="M232.351 109.083C234.512 109.083 236.264 107.331 236.264 105.169C236.264 103.008 234.512 101.256 232.351 101.256C230.19 101.256 228.438 103.008 228.438 105.169C228.438 107.331 230.19 109.083 232.351 109.083Z" fill="#FCB23B"/>
<path d="M244.58 109.083C246.742 109.083 248.494 107.331 248.494 105.169C248.494 103.008 246.742 101.256 244.58 101.256C242.419 101.256 240.667 103.008 240.667 105.169C240.667 107.331 242.419 109.083 244.58 109.083Z" fill="#0DBA38"/>
<path d="M353.662 122.29H223.546C220.304 122.29 217.676 124.918 217.676 128.16V226.481C217.676 229.723 220.304 232.351 223.546 232.351H353.662C356.904 232.351 359.532 229.723 359.532 226.481V128.16C359.532 124.918 356.904 122.29 353.662 122.29Z" fill="white"/>
<path d="M281.267 136.965H232.351C229.649 136.965 227.459 139.155 227.459 141.856C227.459 144.558 229.649 146.748 232.351 146.748H281.267C283.968 146.748 286.158 144.558 286.158 141.856C286.158 139.155 283.968 136.965 281.267 136.965Z" fill="#E6E6E6"/>
<path d="M311.595 156.531H231.372C229.211 156.531 227.459 158.174 227.459 160.2C227.459 162.226 229.211 163.869 231.372 163.869H311.595C313.756 163.869 315.508 162.226 315.508 160.2C315.508 158.174 313.756 156.531 311.595 156.531Z" fill="#D6D6D6"/>
<path d="M296.92 173.652H231.372C229.211 173.652 227.459 175.294 227.459 177.321C227.459 179.347 229.211 180.989 231.372 180.989H296.92C299.081 180.989 300.833 179.347 300.833 177.321C300.833 175.294 299.081 173.652 296.92 173.652Z" fill="#D6D6D6"/>
<path d="M272.462 200.556H231.372C229.211 200.556 227.459 202.308 227.459 204.469V211.317C227.459 213.478 229.211 215.23 231.372 215.23H272.462C274.623 215.23 276.375 213.478 276.375 211.317V204.469C276.375 202.308 274.623 200.556 272.462 200.556Z" fill="#0086E6"/>
</g>
<defs>
<clipPath id="clip0_25_984">
<rect width="391.328" height="313.062" fill="white"/>
</clipPath>
</defs>
</svg>
