<svg width="392" height="314" viewBox="0 0 392 314" fill="none" xmlns="http://www.w3.org/2000/svg">
<g clip-path="url(#clip0_25_1182)">
<path d="M391.328 0H0V313.062H391.328V0Z" fill="url(#paint0_linear_25_1182)"/>
<path opacity="0.4" d="M95.3862 58.6992H41.5786C40.2278 58.6992 39.1328 59.7942 39.1328 61.145C39.1328 62.4958 40.2278 63.5908 41.5786 63.5908H95.3862C96.737 63.5908 97.832 62.4958 97.832 61.145C97.832 59.7942 96.737 58.6992 95.3862 58.6992Z" fill="#999999"/>
<path opacity="0.3" d="M158.977 48.916H124.736C123.385 48.916 122.29 50.011 122.29 51.3618C122.29 52.7126 123.385 53.8076 124.736 53.8076H158.977C160.328 53.8076 161.423 52.7126 161.423 51.3618C161.423 50.011 160.328 48.916 158.977 48.916Z" fill="#999999"/>
<path opacity="0.5" d="M261.701 68.4824H198.11C196.759 68.4824 195.664 69.5774 195.664 70.9282C195.664 72.279 196.759 73.374 198.11 73.374H261.701C263.051 73.374 264.146 72.279 264.146 70.9282C264.146 69.5774 263.051 68.4824 261.701 68.4824Z" fill="#999999"/>
<path opacity="0.3" d="M339.966 53.8076H295.942C294.591 53.8076 293.496 54.9026 293.496 56.2534C293.496 57.6042 294.591 58.6992 295.942 58.6992H339.966C341.317 58.6992 342.412 57.6042 342.412 56.2534C342.412 54.9026 341.317 53.8076 339.966 53.8076Z" fill="#999999"/>
<path opacity="0.2" d="M73.3735 119.844C80.1274 119.844 85.6025 114.369 85.6025 107.615C85.6025 100.861 80.1274 95.3862 73.3735 95.3862C66.6196 95.3862 61.1445 100.861 61.1445 107.615C61.1445 114.369 66.6196 119.844 73.3735 119.844Z" fill="#E74646"/>
<path opacity="0.15" d="M317.954 136.965C326.059 136.965 332.629 130.395 332.629 122.29C332.629 114.185 326.059 107.615 317.954 107.615C309.849 107.615 303.279 114.185 303.279 122.29C303.279 130.395 309.849 136.965 317.954 136.965Z" fill="#E74646"/>
<path d="M281.756 141.856H109.572C103.088 141.856 97.832 147.113 97.832 153.596V218.165C97.832 224.649 103.088 229.905 109.572 229.905H281.756C288.24 229.905 293.496 224.649 293.496 218.165V153.596C293.496 147.113 288.24 141.856 281.756 141.856Z" fill="white"/>
<path d="M274.908 161.423H116.42C114.259 161.423 112.507 163.175 112.507 165.336V168.271C112.507 170.432 114.259 172.184 116.42 172.184H274.908C277.069 172.184 278.821 170.432 278.821 168.271V165.336C278.821 163.175 277.069 161.423 274.908 161.423Z" fill="#1D1B22"/>
<path d="M246.537 180.989H115.442C113.821 180.989 112.507 182.303 112.507 183.924V185.881C112.507 187.502 113.821 188.816 115.442 188.816H246.537C248.158 188.816 249.472 187.502 249.472 185.881V183.924C249.472 182.303 248.158 180.989 246.537 180.989Z" fill="#666666"/>
<path d="M261.212 195.664H115.442C113.821 195.664 112.507 196.978 112.507 198.599V200.556C112.507 202.177 113.821 203.491 115.442 203.491H261.212C262.832 203.491 264.146 202.177 264.146 200.556V198.599C264.146 196.978 262.832 195.664 261.212 195.664Z" fill="#666666"/>
<path d="M231.862 210.339H115.442C113.821 210.339 112.507 211.653 112.507 213.274V215.23C112.507 216.851 113.821 218.165 115.442 218.165H231.862C233.483 218.165 234.797 216.851 234.797 215.23V213.274C234.797 211.653 233.483 210.339 231.862 210.339Z" fill="#666666"/>
<path d="M242.134 210.339H239.688V218.165H242.134V210.339Z" fill="#0086E6"/>
<path opacity="0.3" d="M90.9838 254.363H50.8727C49.792 254.363 48.916 255.239 48.916 256.32C48.916 257.401 49.792 258.277 50.8727 258.277H90.9838C92.0644 258.277 92.9404 257.401 92.9404 256.32C92.9404 255.239 92.0644 254.363 90.9838 254.363Z" fill="#999999"/>
<path opacity="0.4" d="M203.491 264.146H148.705C147.624 264.146 146.748 265.023 146.748 266.103C146.748 267.184 147.624 268.06 148.705 268.06H203.491C204.571 268.06 205.447 267.184 205.447 266.103C205.447 265.023 204.571 264.146 203.491 264.146Z" fill="#999999"/>
<path opacity="0.3" d="M320.889 249.472H270.995C269.914 249.472 269.038 250.348 269.038 251.428C269.038 252.509 269.914 253.385 270.995 253.385H320.889C321.97 253.385 322.846 252.509 322.846 251.428C322.846 250.348 321.97 249.472 320.889 249.472Z" fill="#999999"/>
</g>
<defs>
<linearGradient id="paint0_linear_25_1182" x1="0" y1="0" x2="30542.7" y2="38178.4" gradientUnits="userSpaceOnUse">
<stop stop-color="#F2F2F2"/>
<stop offset="1" stop-color="#D6D6D6"/>
</linearGradient>
<clipPath id="clip0_25_1182">
<rect width="391.328" height="313.062" fill="white"/>
</clipPath>
</defs>
</svg>
