<svg width="392" height="314" viewBox="0 0 392 314" fill="none" xmlns="http://www.w3.org/2000/svg">
<g clip-path="url(#clip0_25_1025)">
<path d="M391.328 0H0V313.062H391.328V0Z" fill="url(#paint0_linear_25_1025)"/>
<path opacity="0.95" d="M164.358 63.5908H50.8727C44.3889 63.5908 39.1328 68.8469 39.1328 75.3307V237.732C39.1328 244.216 44.3889 249.472 50.8727 249.472H164.358C170.842 249.472 176.098 244.216 176.098 237.732V75.3307C176.098 68.8469 170.842 63.5908 164.358 63.5908Z" fill="white"/>
<path d="M340.455 63.5908H226.97C220.487 63.5908 215.23 68.8469 215.23 75.3307V237.732C215.23 244.216 220.487 249.472 226.97 249.472H340.455C346.939 249.472 352.195 244.216 352.195 237.732V75.3307C352.195 68.8469 346.939 63.5908 340.455 63.5908Z" fill="#24292E"/>
<path d="M155.553 88.0488H59.6775C56.4357 88.0488 53.8076 90.6769 53.8076 93.9187V150.661C53.8076 153.903 56.4357 156.531 59.6775 156.531H155.553C158.795 156.531 161.423 153.903 161.423 150.661V93.9187C161.423 90.6769 158.795 88.0488 155.553 88.0488Z" fill="#D6D6D6"/>
<path d="M108.594 171.206H57.7209C55.5597 171.206 53.8076 172.958 53.8076 175.119V191.751C53.8076 193.912 55.5597 195.664 57.7209 195.664H108.594C110.755 195.664 112.507 193.912 112.507 191.751V175.119C112.507 172.958 110.755 171.206 108.594 171.206Z" fill="#0086E6"/>
<path d="M331.651 88.0488H235.775C232.533 88.0488 229.905 90.6769 229.905 93.9187V150.661C229.905 153.903 232.533 156.531 235.775 156.531H331.651C334.892 156.531 337.521 153.903 337.521 150.661V93.9187C337.521 90.6769 334.892 88.0488 331.651 88.0488Z" fill="#41464E"/>
<path d="M284.691 171.206H233.819C231.657 171.206 229.905 172.958 229.905 175.119V191.751C229.905 193.912 231.657 195.664 233.819 195.664H284.691C286.852 195.664 288.604 193.912 288.604 191.751V175.119C288.604 172.958 286.852 171.206 284.691 171.206Z" fill="#A099FF"/>
</g>
<defs>
<linearGradient id="paint0_linear_25_1025" x1="0" y1="0" x2="30542.7" y2="38178.4" gradientUnits="userSpaceOnUse">
<stop stop-color="#387FFB"/>
<stop offset="0.5" stop-color="#34C4FF"/>
<stop offset="1" stop-color="#FFC6D0"/>
</linearGradient>
<clipPath id="clip0_25_1025">
<rect width="391.328" height="313.062" fill="white"/>
</clipPath>
</defs>
</svg>
