<svg width="392" height="314" viewBox="0 0 392 314" fill="none" xmlns="http://www.w3.org/2000/svg">
<g clip-path="url(#clip0_25_1045)">
<path d="M391.332 0H0.00390625V313.062H391.332V0Z" fill="#0DBA38"/>
<path d="M332.633 39.1328H58.7031C53.3 39.1328 48.9199 43.5129 48.9199 48.916V264.146C48.9199 269.55 53.3 273.93 58.7031 273.93H332.633C338.036 273.93 342.416 269.55 342.416 264.146V48.916C342.416 43.5129 338.036 39.1328 332.633 39.1328Z" fill="#24292E"/>
<path d="M66.0402 65.0583C68.2015 65.0583 69.9535 63.3063 69.9535 61.145C69.9535 58.9838 68.2015 57.2318 66.0402 57.2318C63.879 57.2318 62.127 58.9838 62.127 61.145C62.127 63.3063 63.879 65.0583 66.0402 65.0583Z" fill="#E74646"/>
<path d="M80.715 65.0583C82.8763 65.0583 84.6283 63.3063 84.6283 61.145C84.6283 58.9838 82.8763 57.2318 80.715 57.2318C78.5538 57.2318 76.8018 58.9838 76.8018 61.145C76.8018 63.3063 78.5538 65.0583 80.715 65.0583Z" fill="#FCB23B"/>
<path d="M95.3898 65.0583C97.5511 65.0583 99.3031 63.3063 99.3031 61.145C99.3031 58.9838 97.5511 57.2318 95.3898 57.2318C93.2286 57.2318 91.4766 58.9838 91.4766 61.145C91.4766 63.3063 93.2286 65.0583 95.3898 65.0583Z" fill="#0DBA38"/>
<path d="M321.871 85.603H69.4646C66.2228 85.603 63.5947 88.2311 63.5947 91.4729V253.385C63.5947 256.627 66.2228 259.255 69.4646 259.255H321.871C325.113 259.255 327.741 256.627 327.741 253.385V91.4729C327.741 88.2311 325.113 85.603 321.871 85.603Z" fill="#1D1B22"/>
<path d="M215.724 102.724H77.7804C75.349 102.724 73.3779 104.695 73.3779 107.126C73.3779 109.557 75.349 111.529 77.7804 111.529H215.724C218.155 111.529 220.126 109.557 220.126 107.126C220.126 104.695 218.155 102.724 215.724 102.724Z" fill="#41464E"/>
<path d="M191.266 122.29H77.7804C75.349 122.29 73.3779 124.261 73.3779 126.692C73.3779 129.124 75.349 131.095 77.7804 131.095H191.266C193.697 131.095 195.668 129.124 195.668 126.692C195.668 124.261 193.697 122.29 191.266 122.29Z" fill="#41464E"/>
<path d="M240.182 141.856H77.7804C75.349 141.856 73.3779 143.827 73.3779 146.259C73.3779 148.69 75.349 150.661 77.7804 150.661H240.182C242.613 150.661 244.584 148.69 244.584 146.259C244.584 143.827 242.613 141.856 240.182 141.856Z" fill="#41464E"/>
<path d="M166.808 161.423H77.7804C75.349 161.423 73.3779 163.394 73.3779 165.825C73.3779 168.257 75.349 170.228 77.7804 170.228H166.808C169.239 170.228 171.21 168.257 171.21 165.825C171.21 163.394 169.239 161.423 166.808 161.423Z" fill="#0DBA38"/>
<path d="M205.94 180.989H77.7804C75.349 180.989 73.3779 182.96 73.3779 185.392C73.3779 187.823 75.349 189.794 77.7804 189.794H205.94C208.372 189.794 210.343 187.823 210.343 185.392C210.343 182.96 208.372 180.989 205.94 180.989Z" fill="#41464E"/>
<path d="M225.507 200.556H77.7804C75.349 200.556 73.3779 202.527 73.3779 204.958C73.3779 207.39 75.349 209.361 77.7804 209.361H225.507C227.938 209.361 229.909 207.39 229.909 204.958C229.909 202.527 227.938 200.556 225.507 200.556Z" fill="#41464E"/>
<path d="M315.023 225.014H76.3129C74.692 225.014 73.3779 226.328 73.3779 227.949C73.3779 229.57 74.692 230.884 76.3129 230.884H315.023C316.644 230.884 317.958 229.57 317.958 227.949C317.958 226.328 316.644 225.014 315.023 225.014Z" fill="#41464E"/>
<path d="M241.649 225.014H76.3129C74.692 225.014 73.3779 226.328 73.3779 227.949C73.3779 229.57 74.692 230.884 76.3129 230.884H241.649C243.27 230.884 244.584 229.57 244.584 227.949C244.584 226.328 243.27 225.014 241.649 225.014Z" fill="#A099FF"/>
</g>
<defs>
<clipPath id="clip0_25_1045">
<rect width="391.336" height="313.062" fill="white"/>
</clipPath>
</defs>
</svg>
