<svg width="411" height="329" viewBox="0 0 411 329" fill="none" xmlns="http://www.w3.org/2000/svg">
<g clip-path="url(#clip0_2001_601)">
<path d="M410.664 0H0V328.531H410.664V0Z" fill="#16141C"/>
<path d="M359.331 51.333H51.333C45.6629 51.333 41.0664 55.9295 41.0664 61.5996V266.932C41.0664 272.602 45.6629 277.198 51.333 277.198H359.331C365.001 277.198 369.598 272.602 369.598 266.932V61.5996C369.598 55.9295 365.001 51.333 359.331 51.333Z" fill="#1D1B22"/>
<path d="M359.331 51.333H51.333C45.6629 51.333 41.0664 55.9295 41.0664 61.5996V66.7329C41.0664 72.403 45.6629 76.9995 51.333 76.9995H359.331C365.001 76.9995 369.598 72.403 369.598 66.7329V61.5996C369.598 55.9295 365.001 51.333 359.331 51.333Z" fill="#41464E"/>
<path d="M369.598 64.1663H41.0664V76.9995H369.598V64.1663Z" fill="#41464E"/>
<path d="M56.466 68.2729C58.7341 68.2729 60.5727 66.4342 60.5727 64.1662C60.5727 61.8982 58.7341 60.0596 56.466 60.0596C54.198 60.0596 52.3594 61.8982 52.3594 64.1662C52.3594 66.4342 54.198 68.2729 56.466 68.2729Z" fill="#E74646"/>
<path d="M71.8664 68.2729C74.1344 68.2729 75.973 66.4342 75.973 64.1662C75.973 61.8982 74.1344 60.0596 71.8664 60.0596C69.5984 60.0596 67.7598 61.8982 67.7598 64.1662C67.7598 66.4342 69.5984 68.2729 71.8664 68.2729Z" fill="#FCB23B"/>
<path d="M87.2658 68.2729C89.5339 68.2729 91.3725 66.4342 91.3725 64.1662C91.3725 61.8982 89.5339 60.0596 87.2658 60.0596C84.9978 60.0596 83.1592 61.8982 83.1592 64.1662C83.1592 66.4342 84.9978 68.2729 87.2658 68.2729Z" fill="#0DBA38"/>
<path d="M357.598 76.9995H53.0664C46.439 76.9995 41.0664 82.3721 41.0664 88.9995V265.198C41.0664 271.826 46.439 277.198 53.0664 277.198H357.598C364.225 277.198 369.598 271.826 369.598 265.198V88.9995C369.598 82.3721 364.225 76.9995 357.598 76.9995Z" fill="#1D1B22"/>
<path d="M64.6791 97.5327H58.5191C57.3851 97.5327 56.4658 98.452 56.4658 99.586V105.746C56.4658 106.88 57.3851 107.799 58.5191 107.799H64.6791C65.8131 107.799 66.7324 106.88 66.7324 105.746V99.586C66.7324 98.452 65.8131 97.5327 64.6791 97.5327Z" fill="#0DBA38"/>
<path opacity="0.8" d="M216.112 97.5327H76.4859C75.3519 97.5327 74.4326 98.452 74.4326 99.586V105.746C74.4326 106.88 75.3519 107.799 76.4859 107.799H216.112C217.246 107.799 218.165 106.88 218.165 105.746V99.586C218.165 98.452 217.246 97.5327 216.112 97.5327Z" fill="#387FFB"/>
<path opacity="0.5" d="M185.312 123.199H76.4859C75.3519 123.199 74.4326 124.119 74.4326 125.253V129.359C74.4326 130.493 75.3519 131.413 76.4859 131.413H185.312C186.446 131.413 187.365 130.493 187.365 129.359V125.253C187.365 124.119 186.446 123.199 185.312 123.199Z" fill="#999999"/>
<path opacity="0.5" d="M164.779 141.166H76.4859C75.3519 141.166 74.4326 142.085 74.4326 143.219V147.326C74.4326 148.46 75.3519 149.379 76.4859 149.379H164.779C165.913 149.379 166.832 148.46 166.832 147.326V143.219C166.832 142.085 165.913 141.166 164.779 141.166Z" fill="#999999"/>
<path opacity="0.5" d="M195.579 159.132H76.4859C75.3519 159.132 74.4326 160.052 74.4326 161.186V165.292C74.4326 166.426 75.3519 167.346 76.4859 167.346H195.579C196.713 167.346 197.632 166.426 197.632 165.292V161.186C197.632 160.052 196.713 159.132 195.579 159.132Z" fill="#999999"/>
<path opacity="0.8" d="M86.7525 184.799H76.4859C75.3519 184.799 74.4326 185.718 74.4326 186.852V190.959C74.4326 192.093 75.3519 193.012 76.4859 193.012H86.7525C87.8866 193.012 88.8059 192.093 88.8059 190.959V186.852C88.8059 185.718 87.8866 184.799 86.7525 184.799Z" fill="#0DBA38"/>
<path opacity="0.4" d="M195.579 184.799H97.0191C95.8851 184.799 94.9658 185.718 94.9658 186.852V190.959C94.9658 192.093 95.8851 193.012 97.0191 193.012H195.579C196.713 193.012 197.632 192.093 197.632 190.959V186.852C197.632 185.718 196.713 184.799 195.579 184.799Z" fill="#0DBA38"/>
<path opacity="0.9" d="M287.465 143.732L300.298 169.399L328.531 174.532L307.998 195.065L313.131 223.299L287.465 210.465L261.798 223.299L266.932 195.065L246.398 174.532L274.632 169.399L287.465 143.732Z" fill="#FCB23B"/>
</g>
<defs>
<clipPath id="clip0_2001_601">
<rect width="410.664" height="328.531" fill="white"/>
</clipPath>
</defs>
</svg>
