<svg width="392" height="314" viewBox="0 0 392 314" fill="none" xmlns="http://www.w3.org/2000/svg">
<g clip-path="url(#clip0_25_926)">
<path d="M391.332 0H0.00390625V313.062H391.332V0Z" fill="url(#paint0_linear_25_926)"/>
<path opacity="0.95" d="M308.175 53.8076H83.1611C77.758 53.8076 73.3779 58.1877 73.3779 63.5908V249.472C73.3779 254.875 77.758 259.255 83.1611 259.255H308.175C313.578 259.255 317.958 254.875 317.958 249.472V63.5908C317.958 58.1877 313.578 53.8076 308.175 53.8076Z" fill="white"/>
<path d="M295.946 83.1572H95.3901C91.3378 83.1572 88.0527 86.4423 88.0527 90.4946C88.0527 94.547 91.3378 97.832 95.3901 97.832H295.946C299.998 97.832 303.283 94.547 303.283 90.4946C303.283 86.4423 299.998 83.1572 295.946 83.1572Z" fill="#E6E6E6"/>
<path d="M242.138 83.1572H95.3901C91.3378 83.1572 88.0527 86.4423 88.0527 90.4946C88.0527 94.547 91.3378 97.832 95.3901 97.832H242.138C246.191 97.832 249.476 94.547 249.476 90.4946C249.476 86.4423 246.191 83.1572 242.138 83.1572Z" fill="#0DBA38"/>
<path d="M295.946 114.953H95.3901C91.3378 114.953 88.0527 118.238 88.0527 122.29C88.0527 126.342 91.3378 129.627 95.3901 129.627H295.946C299.998 129.627 303.283 126.342 303.283 122.29C303.283 118.238 299.998 114.953 295.946 114.953Z" fill="#E6E6E6"/>
<path d="M188.331 114.953H95.3901C91.3378 114.953 88.0527 118.238 88.0527 122.29C88.0527 126.342 91.3378 129.627 95.3901 129.627H188.331C192.383 129.627 195.668 126.342 195.668 122.29C195.668 118.238 192.383 114.953 188.331 114.953Z" fill="#0086E6"/>
<path d="M295.946 146.748H95.3901C91.3378 146.748 88.0527 150.033 88.0527 154.085C88.0527 158.138 91.3378 161.423 95.3901 161.423H295.946C299.998 161.423 303.283 158.138 303.283 154.085C303.283 150.033 299.998 146.748 295.946 146.748Z" fill="#E6E6E6"/>
<path d="M266.596 146.748H95.3901C91.3378 146.748 88.0527 150.033 88.0527 154.085C88.0527 158.138 91.3378 161.423 95.3901 161.423H266.596C270.649 161.423 273.934 158.138 273.934 154.085C273.934 150.033 270.649 146.748 266.596 146.748Z" fill="#A099FF"/>
<path d="M295.946 178.543H95.3901C91.3378 178.543 88.0527 181.829 88.0527 185.881C88.0527 189.933 91.3378 193.218 95.3901 193.218H295.946C299.998 193.218 303.283 189.933 303.283 185.881C303.283 181.829 299.998 178.543 295.946 178.543Z" fill="#E6E6E6"/>
<path d="M154.089 178.543H95.3901C91.3378 178.543 88.0527 181.829 88.0527 185.881C88.0527 189.933 91.3378 193.218 95.3901 193.218H154.089C158.142 193.218 161.427 189.933 161.427 185.881C161.427 181.829 158.142 178.543 154.089 178.543Z" fill="#E74646"/>
<path d="M132.077 210.339H92.9443C90.2428 210.339 88.0527 212.529 88.0527 215.23V225.014C88.0527 227.715 90.2428 229.905 92.9443 229.905H132.077C134.779 229.905 136.969 227.715 136.969 225.014V215.23C136.969 212.529 134.779 210.339 132.077 210.339Z" fill="#24292E"/>
<path d="M190.776 210.339H151.644C148.942 210.339 146.752 212.529 146.752 215.23V225.014C146.752 227.715 148.942 229.905 151.644 229.905H190.776C193.478 229.905 195.668 227.715 195.668 225.014V215.23C195.668 212.529 193.478 210.339 190.776 210.339Z" fill="#24292E"/>
<path d="M249.476 210.339H210.343C207.641 210.339 205.451 212.529 205.451 215.23V225.014C205.451 227.715 207.641 229.905 210.343 229.905H249.476C252.177 229.905 254.367 227.715 254.367 225.014V215.23C254.367 212.529 252.177 210.339 249.476 210.339Z" fill="#24292E"/>
</g>
<defs>
<linearGradient id="paint0_linear_25_926" x1="0.00390625" y1="0" x2="39132.8" y2="0" gradientUnits="userSpaceOnUse">
<stop stop-color="#0DBA38"/>
<stop offset="1" stop-color="#0086E6"/>
</linearGradient>
<clipPath id="clip0_25_926">
<rect width="391.336" height="313.062" fill="white"/>
</clipPath>
</defs>
</svg>
