<svg width="392" height="314" viewBox="0 0 392 314" fill="none" xmlns="http://www.w3.org/2000/svg">
<g clip-path="url(#clip0_25_1155)">
<path d="M391.332 0H0.00390625V313.062H391.332V0Z" fill="url(#paint0_linear_25_1155)"/>
<path opacity="0.9" d="M97.8359 205.447C124.852 205.447 146.752 183.547 146.752 156.531C146.752 129.516 124.852 107.615 97.8359 107.615C70.8204 107.615 48.9199 129.516 48.9199 156.531C48.9199 183.547 70.8204 205.447 97.8359 205.447Z" fill="white"/>
<path opacity="0.9" d="M195.668 205.447C222.684 205.447 244.584 183.547 244.584 156.531C244.584 129.516 222.684 107.615 195.668 107.615C168.652 107.615 146.752 129.516 146.752 156.531C146.752 183.547 168.652 205.447 195.668 205.447Z" fill="white"/>
<path opacity="0.9" d="M293.5 205.447C320.516 205.447 342.416 183.547 342.416 156.531C342.416 129.516 320.516 107.615 293.5 107.615C266.484 107.615 244.584 129.516 244.584 156.531C244.584 183.547 266.484 205.447 293.5 205.447Z" fill="white"/>
<path d="M163.873 149.194H154.089C150.037 149.194 146.752 152.479 146.752 156.531C146.752 160.584 150.037 163.869 154.089 163.869H163.873C167.925 163.869 171.21 160.584 171.21 156.531C171.21 152.479 167.925 149.194 163.873 149.194Z" fill="white" fill-opacity="0.5"/>
<path d="M261.705 149.194H251.921C247.869 149.194 244.584 152.479 244.584 156.531C244.584 160.584 247.869 163.869 251.921 163.869H261.705C265.757 163.869 269.042 160.584 269.042 156.531C269.042 152.479 265.757 149.194 261.705 149.194Z" fill="white" fill-opacity="0.5"/>
<path d="M97.8364 178.543C109.993 178.543 119.849 168.688 119.849 156.531C119.849 144.374 109.993 134.519 97.8364 134.519C85.6794 134.519 75.8242 144.374 75.8242 156.531C75.8242 168.688 85.6794 178.543 97.8364 178.543Z" fill="#0DBA38"/>
<path d="M195.668 178.543C207.825 178.543 217.681 168.688 217.681 156.531C217.681 144.374 207.825 134.519 195.668 134.519C183.511 134.519 173.656 144.374 173.656 156.531C173.656 168.688 183.511 178.543 195.668 178.543Z" fill="#0086E6"/>
<path d="M293.5 178.543C305.657 178.543 315.513 168.688 315.513 156.531C315.513 144.374 305.657 134.519 293.5 134.519C281.343 134.519 271.488 144.374 271.488 156.531C271.488 168.688 281.343 178.543 293.5 178.543Z" fill="#E74646"/>
</g>
<defs>
<linearGradient id="paint0_linear_25_1155" x1="0.00390625" y1="0" x2="30542.7" y2="38178.4" gradientUnits="userSpaceOnUse">
<stop stop-color="#0086E6"/>
<stop offset="1" stop-color="#0DBA38"/>
</linearGradient>
<clipPath id="clip0_25_1155">
<rect width="391.336" height="313.062" fill="white"/>
</clipPath>
</defs>
</svg>
