<svg width="411" height="329" viewBox="0 0 411 329" fill="none" xmlns="http://www.w3.org/2000/svg">
<g clip-path="url(#clip0_32_1227)">
<path d="M410.664 0H0V328.531H410.664V0Z" fill="#1D1B22"/>
<path opacity="0.4" d="M119.093 61.5996H34.9064C32.6384 61.5996 30.7998 63.4382 30.7998 65.7063V78.0262C30.7998 80.2942 32.6384 82.1328 34.9064 82.1328H119.093C121.361 82.1328 123.199 80.2942 123.199 78.0262V65.7063C123.199 63.4382 121.361 61.5996 119.093 61.5996Z" fill="#E74646"/>
<path d="M42.0729 75.7063L43.2979 68.2397H44.027L42.8021 75.7063H42.0729ZM38.675 73.6355L38.7917 72.9063H44.3625L44.2458 73.6355H38.675ZM39.4479 75.7063L40.6729 68.2397H41.4021L40.1771 75.7063H39.4479ZM39.1125 71.0397L39.2292 70.3105H44.8L44.6833 71.0397H39.1125ZM45.8809 75.7063V68.2397H50.358V69.0418H46.7851V71.5647H50.0226V72.3667H46.7851V75.7063H45.8809ZM51.9066 75.7063V68.2397H56.3836V69.0418H52.8107V71.5647H56.0482V72.3667H52.8107V75.7063H51.9066ZM60.1342 75.8084C59.7065 75.8084 59.3212 75.7233 58.9785 75.5532C58.6358 75.383 58.3612 75.1497 58.1546 74.8532C57.948 74.5567 57.8349 74.2188 57.8155 73.8396H58.6905C58.7245 74.1775 58.8776 74.457 59.1499 74.6782C59.4245 74.8969 59.7526 75.0063 60.1342 75.0063C60.4405 75.0063 60.7127 74.9346 60.9509 74.7912C61.1915 74.6478 61.3799 74.4509 61.516 74.2006C61.6545 73.9478 61.7238 73.6622 61.7238 73.3438C61.7238 73.0181 61.6521 72.7277 61.5087 72.4725C61.3677 72.2148 61.1733 72.0119 60.9254 71.8636C60.6775 71.7154 60.3943 71.64 60.0759 71.6376C59.8474 71.6351 59.6129 71.6704 59.3723 71.7433C59.1316 71.8138 58.9336 71.9049 58.778 72.0167L57.9322 71.9147L58.3842 68.2397H62.2634V69.0418H59.1426L58.8801 71.2438H58.9238C59.077 71.1223 59.269 71.0214 59.4999 70.9412C59.7308 70.861 59.9714 70.8209 60.2217 70.8209C60.6787 70.8209 61.0858 70.9303 61.4431 71.149C61.8028 71.3654 62.0847 71.6619 62.2889 72.0386C62.4955 72.4153 62.5988 72.8456 62.5988 73.3292C62.5988 73.8056 62.4919 74.231 62.278 74.6053C62.0665 74.9771 61.7749 75.2712 61.403 75.4876C61.0311 75.7014 60.6082 75.8084 60.1342 75.8084ZM64.2804 75.7063L67.62 69.1001V69.0418H63.77V68.2397H68.5533V69.0855L65.2283 75.7063H64.2804ZM72.2648 75.8084C71.7835 75.8084 71.3545 75.7257 70.9778 75.5605C70.6035 75.3952 70.3057 75.1655 70.0846 74.8714C69.8658 74.5749 69.7467 74.231 69.7273 73.8396H70.646C70.6655 74.0803 70.7481 74.2881 70.8939 74.4631C71.0398 74.6356 71.2306 74.7693 71.4663 74.8641C71.7021 74.9589 71.9634 75.0063 72.2502 75.0063C72.571 75.0063 72.8554 74.9504 73.1033 74.8386C73.3512 74.7268 73.5457 74.5712 73.6866 74.3719C73.8276 74.1726 73.8981 73.9417 73.8981 73.6792C73.8981 73.4046 73.83 73.1627 73.6939 72.9537C73.5578 72.7423 73.3585 72.577 73.096 72.4579C72.8335 72.3388 72.5127 72.2792 72.1335 72.2792H71.5356V71.4772H72.1335C72.43 71.4772 72.6901 71.4237 72.9137 71.3167C73.1398 71.2098 73.316 71.0591 73.4424 70.8647C73.5712 70.6702 73.6356 70.4417 73.6356 70.1793C73.6356 69.9265 73.5797 69.7065 73.4679 69.5194C73.3561 69.3322 73.1981 69.1864 72.9939 69.0819C72.7922 68.9773 72.554 68.9251 72.2793 68.9251C72.0217 68.9251 71.7787 68.9725 71.5502 69.0673C71.3241 69.1596 71.1394 69.2945 70.996 69.472C70.8526 69.647 70.7748 69.8584 70.7627 70.1063H69.8877C69.9023 69.715 70.0202 69.3723 70.2413 69.0782C70.4625 68.7817 70.7517 68.5508 71.109 68.3855C71.4688 68.2202 71.8637 68.1376 72.2939 68.1376C72.7557 68.1376 73.1519 68.2312 73.4825 68.4183C73.813 68.603 74.067 68.8473 74.2444 69.1511C74.4219 69.4549 74.5106 69.7831 74.5106 70.1355C74.5106 70.556 74.4 70.9145 74.1788 71.211C73.9601 71.5075 73.6623 71.7129 73.2856 71.8272V71.8855C73.7571 71.9633 74.1253 72.1638 74.3903 72.487C74.6552 72.8079 74.7877 73.2053 74.7877 73.6792C74.7877 74.0851 74.6771 74.4497 74.4559 74.773C74.2371 75.0938 73.9382 75.3466 73.559 75.5313C73.1799 75.716 72.7484 75.8084 72.2648 75.8084ZM78.8017 75.8084C78.3205 75.8084 77.8915 75.7257 77.5147 75.5605C77.1404 75.3952 76.8427 75.1655 76.6215 74.8714C76.4028 74.5749 76.2837 74.231 76.2642 73.8396H77.183C77.2024 74.0803 77.285 74.2881 77.4309 74.4631C77.5767 74.6356 77.7675 74.7693 78.0033 74.8641C78.239 74.9589 78.5003 75.0063 78.7871 75.0063C79.1079 75.0063 79.3923 74.9504 79.6402 74.8386C79.8882 74.7268 80.0826 74.5712 80.2236 74.3719C80.3645 74.1726 80.435 73.9417 80.435 73.6792C80.435 73.4046 80.367 73.1627 80.2309 72.9537C80.0947 72.7423 79.8954 72.577 79.6329 72.4579C79.3704 72.3388 79.0496 72.2792 78.6704 72.2792H78.0725V71.4772H78.6704C78.967 71.4772 79.227 71.4237 79.4507 71.3167C79.6767 71.2098 79.8529 71.0591 79.9793 70.8647C80.1081 70.6702 80.1725 70.4417 80.1725 70.1793C80.1725 69.9265 80.1166 69.7065 80.0048 69.5194C79.893 69.3322 79.735 69.1864 79.5309 69.0819C79.3291 68.9773 79.0909 68.9251 78.8163 68.9251C78.5586 68.9251 78.3156 68.9725 78.0871 69.0673C77.8611 69.1596 77.6764 69.2945 77.533 69.472C77.3896 69.647 77.3118 69.8584 77.2996 70.1063H76.4246C76.4392 69.715 76.5571 69.3723 76.7783 69.0782C76.9995 68.7817 77.2887 68.5508 77.646 68.3855C78.0057 68.2202 78.4007 68.1376 78.8309 68.1376C79.2927 68.1376 79.6888 68.2312 80.0194 68.4183C80.35 68.603 80.6039 68.8473 80.7814 69.1511C80.9588 69.4549 81.0475 69.7831 81.0475 70.1355C81.0475 70.556 80.9369 70.9145 80.7157 71.211C80.497 71.5075 80.1993 71.7129 79.8225 71.8272V71.8855C80.2941 71.9633 80.6623 72.1638 80.9272 72.487C81.1921 72.8079 81.3246 73.2053 81.3246 73.6792C81.3246 74.0851 81.214 74.4497 80.9928 74.773C80.7741 75.0938 80.4751 75.3466 80.096 75.5313C79.7168 75.716 79.2854 75.8084 78.8017 75.8084Z" fill="white"/>
<path d="M112.932 78.0262C116.334 78.0262 119.092 75.2683 119.092 71.8663C119.092 68.4642 116.334 65.7063 112.932 65.7063C109.53 65.7063 106.772 68.4642 106.772 71.8663C106.772 75.2683 109.53 78.0262 112.932 78.0262Z" fill="#E74646"/>
<path d="M111.833 68.7596L111.719 72.9421H110.652L110.535 68.7596H111.833ZM111.185 74.8087C110.993 74.8087 110.828 74.7407 110.69 74.6046C110.552 74.4665 110.484 74.3012 110.485 74.1087C110.484 73.9182 110.552 73.7549 110.69 73.6188C110.828 73.4826 110.993 73.4146 111.185 73.4146C111.37 73.4146 111.533 73.4826 111.673 73.6188C111.813 73.7549 111.883 73.9182 111.885 74.1087C111.883 74.2371 111.849 74.3547 111.783 74.4617C111.719 74.5667 111.635 74.6512 111.53 74.7154C111.425 74.7776 111.31 74.8087 111.185 74.8087Z" fill="white"/>
<path opacity="0.4" d="M119.093 102.666H34.9064C32.6384 102.666 30.7998 104.505 30.7998 106.773V119.093C30.7998 121.361 32.6384 123.199 34.9064 123.199H119.093C121.361 123.199 123.199 121.361 123.199 119.093V106.773C123.199 104.505 121.361 102.666 119.093 102.666Z" fill="#E74646"/>
<path d="M41.8979 109.306V116.773H40.9937V110.254H40.95L39.1271 111.464V110.546L40.9937 109.306H41.8979ZM46.5244 116.875C46.2182 116.87 45.9119 116.812 45.6057 116.7C45.2994 116.588 45.0199 116.4 44.7671 116.135C44.5144 115.867 44.3114 115.506 44.1583 115.052C44.0052 114.595 43.9286 114.021 43.9286 113.331C43.9286 112.67 43.9906 112.084 44.1145 111.574C44.2385 111.061 44.4184 110.63 44.6541 110.28C44.8899 109.927 45.1743 109.66 45.5072 109.477C45.8427 109.295 46.2206 109.204 46.6411 109.204C47.0591 109.204 47.431 109.288 47.7567 109.456C48.0848 109.621 48.3522 109.852 48.5588 110.148C48.7654 110.445 48.8991 110.786 48.9598 111.173H48.0703C47.9876 110.837 47.8272 110.559 47.589 110.338C47.3508 110.117 47.0348 110.006 46.6411 110.006C46.0626 110.006 45.6069 110.258 45.2739 110.761C44.9434 111.264 44.7769 111.97 44.7744 112.879H44.8328C44.9689 112.672 45.1305 112.496 45.3177 112.35C45.5072 112.202 45.7163 112.088 45.9447 112.008C46.1732 111.927 46.4151 111.887 46.6703 111.887C47.098 111.887 47.4894 111.994 47.8442 112.208C48.1991 112.42 48.4834 112.712 48.6973 113.087C48.9112 113.459 49.0182 113.885 49.0182 114.366C49.0182 114.828 48.9149 115.251 48.7083 115.635C48.5017 116.017 48.2112 116.321 47.8369 116.547C47.465 116.77 47.0276 116.88 46.5244 116.875ZM46.5244 116.073C46.8307 116.073 47.1053 115.996 47.3484 115.843C47.5939 115.69 47.7871 115.485 47.9281 115.227C48.0715 114.969 48.1432 114.682 48.1432 114.366C48.1432 114.058 48.0739 113.777 47.9354 113.524C47.7992 113.269 47.6109 113.066 47.3703 112.915C47.1321 112.765 46.8598 112.689 46.5536 112.689C46.3227 112.689 46.1076 112.736 45.9083 112.828C45.709 112.918 45.534 113.042 45.3833 113.2C45.235 113.358 45.1184 113.539 45.0333 113.743C44.9482 113.945 44.9057 114.157 44.9057 114.381C44.9057 114.678 44.975 114.955 45.1135 115.212C45.2545 115.47 45.4465 115.678 45.6895 115.836C45.935 115.994 46.2133 116.073 46.5244 116.073ZM50.4665 118.873V111.173H51.2977V112.062H51.3998C51.463 111.965 51.5505 111.841 51.6623 111.69C51.7765 111.537 51.9394 111.401 52.1508 111.282C52.3647 111.161 52.6539 111.1 53.0185 111.1C53.4901 111.1 53.9057 111.218 54.2654 111.453C54.6251 111.689 54.9058 112.023 55.1076 112.456C55.3093 112.889 55.4102 113.399 55.4102 113.987C55.4102 114.58 55.3093 115.094 55.1076 115.529C54.9058 115.962 54.6263 116.298 54.269 116.536C53.9118 116.771 53.4998 116.889 53.0331 116.889C52.6734 116.889 52.3854 116.83 52.1691 116.711C51.9527 116.589 51.7862 116.452 51.6696 116.299C51.5529 116.143 51.463 116.014 51.3998 115.912H51.3269V118.873H50.4665ZM51.3123 113.973C51.3123 114.396 51.3743 114.769 51.4982 115.092C51.6222 115.413 51.8033 115.664 52.0415 115.847C52.2796 116.027 52.5713 116.116 52.9164 116.116C53.2762 116.116 53.5763 116.022 53.817 115.832C54.06 115.64 54.2423 115.382 54.3638 115.059C54.4878 114.733 54.5498 114.371 54.5498 113.973C54.5498 113.579 54.489 113.224 54.3675 112.908C54.2484 112.59 54.0673 112.338 53.8243 112.153C53.5836 111.966 53.281 111.873 52.9164 111.873C52.5664 111.873 52.2724 111.961 52.0342 112.139C51.796 112.314 51.6161 112.559 51.4946 112.875C51.3731 113.189 51.3123 113.555 51.3123 113.973ZM57.1337 111.173L58.4754 113.462L59.8171 111.173H60.8087L59.0004 113.973L60.8087 116.773H59.8171L58.4754 114.6L57.1337 116.773H56.1421L57.9212 113.973L56.1421 111.173H57.1337Z" fill="white"/>
<path d="M112.932 119.093C116.334 119.093 119.092 116.335 119.092 112.933C119.092 109.531 116.334 106.773 112.932 106.773C109.53 106.773 106.772 109.531 106.772 112.933C106.772 116.335 109.53 119.093 112.932 119.093Z" fill="#E74646"/>
<path d="M111.833 109.826L111.719 114.008H110.652L110.535 109.826H111.833ZM111.185 115.875C110.993 115.875 110.828 115.807 110.69 115.671C110.552 115.533 110.484 115.368 110.485 115.175C110.484 114.985 110.552 114.821 110.69 114.685C110.828 114.549 110.993 114.481 111.185 114.481C111.37 114.481 111.533 114.549 111.673 114.685C111.813 114.821 111.883 114.985 111.885 115.175C111.883 115.303 111.849 115.421 111.783 115.528C111.719 115.633 111.635 115.718 111.53 115.782C111.425 115.844 111.31 115.875 111.185 115.875Z" fill="white"/>
<path opacity="0.4" d="M119.093 143.732H34.9064C32.6384 143.732 30.7998 145.571 30.7998 147.839V160.159C30.7998 162.427 32.6384 164.266 34.9064 164.266H119.093C121.361 164.266 123.199 162.427 123.199 160.159V147.839C123.199 145.571 121.361 143.732 119.093 143.732Z" fill="#E74646"/>
<path d="M41.8979 150.372V157.839H40.9937V151.32H40.95L39.1271 152.531V151.612L40.9937 150.372H41.8979ZM44.0453 157.839V157.183L46.5098 154.485C46.7991 154.169 47.0373 153.894 47.2244 153.661C47.4116 153.425 47.5501 153.204 47.64 152.997C47.7324 152.788 47.7786 152.57 47.7786 152.341C47.7786 152.079 47.7154 151.851 47.589 151.659C47.465 151.467 47.2949 151.319 47.0786 151.215C46.8623 151.11 46.6192 151.058 46.3494 151.058C46.0626 151.058 45.8123 151.117 45.5984 151.237C45.3869 151.353 45.2229 151.517 45.1062 151.729C44.992 151.94 44.9349 152.188 44.9349 152.472H44.0744C44.0744 152.035 44.1753 151.651 44.377 151.32C44.5788 150.99 44.8534 150.732 45.201 150.547C45.551 150.363 45.9435 150.27 46.3786 150.27C46.8161 150.27 47.2038 150.363 47.5416 150.547C47.8795 150.732 48.1444 150.981 48.3364 151.295C48.5284 151.608 48.6244 151.957 48.6244 152.341C48.6244 152.616 48.5746 152.884 48.4749 153.147C48.3777 153.407 48.2076 153.697 47.9645 154.018C47.7239 154.337 47.3897 154.726 46.9619 155.185L45.2849 156.979V157.037H48.7557V157.839H44.0453Z" fill="white"/>
<path d="M112.932 160.159C116.334 160.159 119.092 157.401 119.092 153.999C119.092 150.597 116.334 147.839 112.932 147.839C109.53 147.839 106.772 150.597 106.772 153.999C106.772 157.401 109.53 160.159 112.932 160.159Z" fill="#E74646"/>
<path d="M111.833 150.892L111.719 155.075H110.652L110.535 150.892H111.833ZM111.185 156.942C110.993 156.942 110.828 156.874 110.69 156.737C110.552 156.599 110.484 156.434 110.485 156.242C110.484 156.051 110.552 155.888 110.69 155.752C110.828 155.615 110.993 155.547 111.185 155.547C111.37 155.547 111.533 155.615 111.673 155.752C111.813 155.888 111.883 156.051 111.885 156.242C111.883 156.37 111.849 156.488 111.783 156.594C111.719 156.699 111.635 156.784 111.53 156.848C111.425 156.91 111.31 156.942 111.185 156.942Z" fill="white"/>
<path opacity="0.4" d="M119.093 215.599H34.9064C32.6384 215.599 30.7998 217.437 30.7998 219.705V232.025C30.7998 234.293 32.6384 236.132 34.9064 236.132H119.093C121.361 236.132 123.199 234.293 123.199 232.025V219.705C123.199 217.437 121.361 215.599 119.093 215.599Z" fill="#E74646"/>
<path d="M39.4042 229.705V222.239H40.2646V224.995H40.3375C40.4007 224.898 40.4882 224.774 40.6 224.623C40.7142 224.47 40.8771 224.334 41.0885 224.215C41.3024 224.093 41.5916 224.032 41.9562 224.032C42.4278 224.032 42.8434 224.15 43.2031 224.386C43.5628 224.622 43.8435 224.956 44.0453 225.389C44.247 225.821 44.3479 226.332 44.3479 226.92C44.3479 227.513 44.247 228.027 44.0453 228.462C43.8435 228.895 43.564 229.23 43.2067 229.468C42.8495 229.704 42.4375 229.822 41.9708 229.822C41.6111 229.822 41.3231 229.762 41.1068 229.643C40.8904 229.522 40.7239 229.384 40.6073 229.231C40.4906 229.076 40.4007 228.947 40.3375 228.845H40.2354V229.705H39.4042ZM40.25 226.905C40.25 227.328 40.312 227.701 40.4359 228.025C40.5599 228.345 40.741 228.597 40.9792 228.779C41.2173 228.959 41.509 229.049 41.8541 229.049C42.2139 229.049 42.514 228.954 42.7547 228.765C42.9977 228.573 43.18 228.315 43.3015 227.992C43.4255 227.666 43.4875 227.304 43.4875 226.905C43.4875 226.512 43.4267 226.157 43.3052 225.841C43.1861 225.522 43.005 225.271 42.762 225.086C42.5213 224.899 42.2187 224.805 41.8541 224.805C41.5041 224.805 41.2101 224.894 40.9719 225.071C40.7337 225.246 40.5538 225.492 40.4323 225.808C40.3108 226.121 40.25 226.487 40.25 226.905ZM47.939 229.822C47.4335 229.822 46.9899 229.702 46.6083 229.461C46.2291 229.22 45.9326 228.884 45.7187 228.451C45.5072 228.019 45.4015 227.513 45.4015 226.935C45.4015 226.351 45.5072 225.842 45.7187 225.407C45.9326 224.972 46.2291 224.634 46.6083 224.393C46.9899 224.153 47.4335 224.032 47.939 224.032C48.4446 224.032 48.8869 224.153 49.2661 224.393C49.6477 224.634 49.9442 224.972 50.1557 225.407C50.3695 225.842 50.4765 226.351 50.4765 226.935C50.4765 227.513 50.3695 228.019 50.1557 228.451C49.9442 228.884 49.6477 229.22 49.2661 229.461C48.8869 229.702 48.4446 229.822 47.939 229.822ZM47.939 229.049C48.323 229.049 48.639 228.951 48.8869 228.754C49.1348 228.557 49.3183 228.298 49.4374 227.977C49.5565 227.656 49.6161 227.309 49.6161 226.935C49.6161 226.56 49.5565 226.211 49.4374 225.888C49.3183 225.565 49.1348 225.304 48.8869 225.104C48.639 224.905 48.323 224.805 47.939 224.805C47.555 224.805 47.239 224.905 46.9911 225.104C46.7432 225.304 46.5597 225.565 46.4406 225.888C46.3215 226.211 46.2619 226.56 46.2619 226.935C46.2619 227.309 46.3215 227.656 46.4406 227.977C46.5597 228.298 46.7432 228.557 46.9911 228.754C47.239 228.951 47.555 229.049 47.939 229.049ZM52.6503 222.239V229.705H51.7899V222.239H52.6503ZM56.3408 229.822C55.8741 229.822 55.4621 229.704 55.1048 229.468C54.7476 229.23 54.468 228.895 54.2663 228.462C54.0646 228.027 53.9637 227.513 53.9637 226.92C53.9637 226.332 54.0646 225.821 54.2663 225.389C54.468 224.956 54.7488 224.622 55.1085 224.386C55.4682 224.15 55.8838 224.032 56.3554 224.032C56.7199 224.032 57.008 224.093 57.2194 224.215C57.4333 224.334 57.5961 224.47 57.708 224.623C57.8222 224.774 57.9109 224.898 57.9741 224.995H58.047V222.239H58.9074V229.705H58.0762V228.845H57.9741C57.9109 228.947 57.821 229.076 57.7043 229.231C57.5876 229.384 57.4211 229.522 57.2048 229.643C56.9885 229.762 56.7005 229.822 56.3408 229.822ZM56.4574 229.049C56.8026 229.049 57.0942 228.959 57.3324 228.779C57.5706 228.597 57.7517 228.345 57.8757 228.025C57.9996 227.701 58.0616 227.328 58.0616 226.905C58.0616 226.487 58.0008 226.121 57.8793 225.808C57.7578 225.492 57.5779 225.246 57.3397 225.071C57.1015 224.894 56.8074 224.805 56.4574 224.805C56.0929 224.805 55.789 224.899 55.546 225.086C55.3054 225.271 55.1243 225.522 55.0028 225.841C54.8837 226.157 54.8241 226.512 54.8241 226.905C54.8241 227.304 54.8849 227.666 55.0064 227.992C55.1304 228.315 55.3127 228.573 55.5533 228.765C55.7963 228.954 56.0977 229.049 56.4574 229.049Z" fill="white"/>
<path d="M112.932 232.025C116.334 232.025 119.092 229.267 119.092 225.865C119.092 222.463 116.334 219.705 112.932 219.705C109.53 219.705 106.772 222.463 106.772 225.865C106.772 229.267 109.53 232.025 112.932 232.025Z" fill="#E74646"/>
<path d="M111.833 222.759L111.719 226.941H110.652L110.535 222.759H111.833ZM111.185 228.808C110.993 228.808 110.828 228.74 110.69 228.604C110.552 228.466 110.484 228.3 110.485 228.108C110.484 227.917 110.552 227.754 110.69 227.618C110.828 227.482 110.993 227.414 111.185 227.414C111.37 227.414 111.533 227.482 111.673 227.618C111.813 227.754 111.883 227.917 111.885 228.108C111.883 228.236 111.849 228.354 111.783 228.461C111.719 228.566 111.635 228.65 111.53 228.714C111.425 228.777 111.31 228.808 111.185 228.808Z" fill="white"/>
<path opacity="0.9" d="M205.332 184.799C222.342 184.799 236.132 171.009 236.132 153.999C236.132 136.989 222.342 123.199 205.332 123.199C188.322 123.199 174.532 136.989 174.532 153.999C174.532 171.009 188.322 184.799 205.332 184.799Z" fill="#0DBA38"/>
<path d="M192.499 156.999L200.199 164.699L218.166 141.599" stroke="white" stroke-width="4.10664" stroke-linecap="round" stroke-linejoin="round"/>
<path opacity="0.4" d="M375.758 61.5996H291.571C289.303 61.5996 287.465 63.4382 287.465 65.7063V78.0262C287.465 80.2942 289.303 82.1328 291.571 82.1328H375.758C378.026 82.1328 379.864 80.2942 379.864 78.0262V65.7063C379.864 63.4382 378.026 61.5996 375.758 61.5996Z" fill="#0DBA38"/>
<path d="M297.843 76.5729V68.173H298.381V76.5729H297.843ZM299.654 70.6929C299.614 70.3604 299.455 70.1023 299.175 69.9186C298.895 69.7348 298.551 69.6429 298.144 69.6429C297.847 69.6429 297.587 69.6911 297.363 69.7873C297.143 69.8836 296.97 70.0159 296.845 70.1844C296.723 70.3528 296.661 70.5442 296.661 70.7586C296.661 70.9379 296.704 71.0922 296.789 71.2212C296.877 71.3481 296.988 71.4542 297.124 71.5395C297.26 71.6226 297.402 71.6915 297.55 71.7462C297.699 71.7987 297.836 71.8414 297.961 71.8742L298.643 72.0579C298.818 72.1039 299.013 72.1673 299.227 72.2482C299.444 72.3292 299.65 72.4396 299.847 72.5796C300.046 72.7175 300.21 72.8946 300.34 73.1112C300.469 73.3278 300.533 73.5935 300.533 73.9085C300.533 74.2717 300.438 74.5998 300.248 74.8929C300.06 75.186 299.784 75.419 299.421 75.5918C299.06 75.7646 298.621 75.851 298.105 75.851C297.624 75.851 297.207 75.7734 296.855 75.6181C296.505 75.4628 296.229 75.2462 296.028 74.9684C295.829 74.6906 295.716 74.3679 295.69 74.0004H296.53C296.552 74.2542 296.637 74.4642 296.786 74.6304C296.937 74.7945 297.127 74.917 297.357 74.9979C297.589 75.0767 297.838 75.116 298.105 75.116C298.416 75.116 298.695 75.0657 298.942 74.9651C299.189 74.8623 299.385 74.7201 299.529 74.5385C299.673 74.3548 299.746 74.1404 299.746 73.8954C299.746 73.6723 299.683 73.4907 299.559 73.3507C299.434 73.2107 299.27 73.097 299.066 73.0095C298.863 72.922 298.643 72.8454 298.407 72.7798L297.58 72.5436C297.055 72.3926 296.639 72.1772 296.333 71.8972C296.027 71.6172 295.874 71.2508 295.874 70.7979C295.874 70.4217 295.976 70.0936 296.179 69.8136C296.385 69.5314 296.66 69.3126 297.006 69.1573C297.354 68.9998 297.742 68.9211 298.171 68.9211C298.604 68.9211 298.989 68.9987 299.326 69.154C299.663 69.3072 299.929 69.5172 300.126 69.784C300.325 70.0509 300.43 70.3539 300.441 70.6929H299.654ZM303.814 75.8379C303.341 75.8379 302.934 75.7263 302.593 75.5032C302.252 75.2801 301.989 74.9728 301.805 74.5812C301.622 74.1896 301.53 73.7423 301.53 73.2392C301.53 72.7273 301.624 72.2756 301.812 71.884C302.002 71.4903 302.267 71.1829 302.606 70.962C302.947 70.7389 303.345 70.6273 303.8 70.6273C304.155 70.6273 304.474 70.6929 304.759 70.8242C305.043 70.9554 305.276 71.1392 305.457 71.3754C305.639 71.6117 305.752 71.8873 305.795 72.2023H305.021C304.962 71.9726 304.831 71.7692 304.627 71.592C304.426 71.4126 304.155 71.3229 303.814 71.3229C303.512 71.3229 303.247 71.4017 303.019 71.5592C302.794 71.7145 302.618 71.9343 302.491 72.2187C302.367 72.5009 302.304 72.8323 302.304 73.2129C302.304 73.6023 302.365 73.9414 302.488 74.2301C302.613 74.5189 302.788 74.7431 303.013 74.9028C303.24 75.0624 303.507 75.1423 303.814 75.1423C304.015 75.1423 304.197 75.1073 304.362 75.0373C304.526 74.9673 304.664 74.8667 304.778 74.7354C304.892 74.6042 304.973 74.4467 305.021 74.2629H305.795C305.752 74.5604 305.643 74.8284 305.471 75.0668C305.3 75.3031 305.074 75.4912 304.791 75.6312C304.511 75.769 304.185 75.8379 303.814 75.8379ZM308.975 75.8379C308.52 75.8379 308.121 75.7296 307.777 75.5131C307.436 75.2965 307.169 74.9935 306.977 74.6042C306.786 74.2148 306.691 73.7598 306.691 73.2392C306.691 72.7142 306.786 72.2559 306.977 71.8643C307.169 71.4728 307.436 71.1687 307.777 70.9522C308.121 70.7356 308.52 70.6273 308.975 70.6273C309.43 70.6273 309.828 70.7356 310.169 70.9522C310.513 71.1687 310.78 71.4728 310.97 71.8643C311.162 72.2559 311.259 72.7142 311.259 73.2392C311.259 73.7598 311.162 74.2148 310.97 74.6042C310.78 74.9935 310.513 75.2965 310.169 75.5131C309.828 75.7296 309.43 75.8379 308.975 75.8379ZM308.975 75.1423C309.321 75.1423 309.605 75.0537 309.828 74.8765C310.051 74.6993 310.216 74.4664 310.323 74.1776C310.431 73.8889 310.484 73.576 310.484 73.2392C310.484 72.9023 310.431 72.5884 310.323 72.2975C310.216 72.0065 310.051 71.7714 309.828 71.592C309.605 71.4126 309.321 71.3229 308.975 71.3229C308.629 71.3229 308.345 71.4126 308.122 71.592C307.899 71.7714 307.734 72.0065 307.626 72.2975C307.519 72.5884 307.466 72.9023 307.466 73.2392C307.466 73.576 307.519 73.8889 307.626 74.1776C307.734 74.4664 307.899 74.6993 308.122 74.8765C308.345 75.0537 308.629 75.1423 308.975 75.1423ZM313.215 69.013V75.7329H312.441V69.013H313.215ZM316.681 75.8379C316.226 75.8379 315.827 75.7296 315.483 75.5131C315.142 75.2965 314.875 74.9935 314.683 74.6042C314.492 74.2148 314.397 73.7598 314.397 73.2392C314.397 72.7142 314.492 72.2559 314.683 71.8643C314.875 71.4728 315.142 71.1687 315.483 70.9522C315.827 70.7356 316.226 70.6273 316.681 70.6273C317.136 70.6273 317.534 70.7356 317.875 70.9522C318.219 71.1687 318.486 71.4728 318.676 71.8643C318.868 72.2559 318.965 72.7142 318.965 73.2392C318.965 73.7598 318.868 74.2148 318.676 74.6042C318.486 74.9935 318.219 75.2965 317.875 75.5131C317.534 75.7296 317.136 75.8379 316.681 75.8379ZM316.681 75.1423C317.027 75.1423 317.311 75.0537 317.534 74.8765C317.757 74.6993 317.922 74.4664 318.029 74.1776C318.137 73.8889 318.19 73.576 318.19 73.2392C318.19 72.9023 318.137 72.5884 318.029 72.2975C317.922 72.0065 317.757 71.7714 317.534 71.592C317.311 71.4126 317.027 71.3229 316.681 71.3229C316.335 71.3229 316.051 71.4126 315.828 71.592C315.605 71.7714 315.439 72.0065 315.332 72.2975C315.225 72.5884 315.172 72.9023 315.172 73.2392C315.172 73.576 315.225 73.8889 315.332 74.1776C315.439 74.4664 315.605 74.6993 315.828 74.8765C316.051 75.0537 316.335 75.1423 316.681 75.1423ZM320.147 75.7329V70.6929H320.895V71.4542H320.947C321.039 71.2048 321.205 71.0025 321.446 70.8472C321.687 70.6918 321.958 70.6142 322.26 70.6142C322.317 70.6142 322.388 70.6153 322.473 70.6175C322.558 70.6197 322.623 70.6229 322.667 70.6273V71.4148C322.64 71.4082 322.58 71.3984 322.486 71.3853C322.394 71.37 322.297 71.3623 322.194 71.3623C321.949 71.3623 321.73 71.4137 321.538 71.5165C321.348 71.6172 321.197 71.7572 321.085 71.9365C320.976 72.1137 320.921 72.3161 320.921 72.5436V75.7329H320.147ZM326.102 72.4911V73.2129H323.162V72.4911H326.102ZM327.465 75.7329V70.6929H328.213V71.4542H328.265C328.357 71.2048 328.523 71.0025 328.764 70.8472C329.005 70.6918 329.276 70.6142 329.578 70.6142C329.635 70.6142 329.706 70.6153 329.791 70.6175C329.876 70.6197 329.941 70.6229 329.985 70.6273V71.4148C329.958 71.4082 329.898 71.3984 329.804 71.3853C329.712 71.37 329.615 71.3623 329.512 71.3623C329.267 71.3623 329.048 71.4137 328.856 71.5165C328.666 71.6172 328.515 71.7572 328.403 71.9365C328.294 72.1137 328.239 72.3161 328.239 72.5436V75.7329H327.465ZM332.862 75.8379C332.377 75.8379 331.958 75.7307 331.606 75.5163C331.256 75.2998 330.985 74.9979 330.795 74.6107C330.607 74.2214 330.513 73.7685 330.513 73.2523C330.513 72.7361 330.607 72.2811 330.795 71.8873C330.985 71.4914 331.25 71.1829 331.589 70.962C331.93 70.7389 332.329 70.6273 332.784 70.6273C333.046 70.6273 333.305 70.6711 333.561 70.7586C333.817 70.8461 334.05 70.9883 334.26 71.1851C334.47 71.3798 334.637 71.6379 334.762 71.9595C334.887 72.2811 334.949 72.677 334.949 73.1473V73.4754H331.064V72.8061H334.162C334.162 72.5217 334.105 72.2679 333.991 72.0448C333.879 71.8217 333.72 71.6456 333.512 71.5165C333.306 71.3875 333.064 71.3229 332.784 71.3229C332.475 71.3229 332.208 71.3995 331.983 71.5526C331.76 71.7036 331.588 71.9004 331.468 72.1432C331.347 72.3861 331.287 72.6464 331.287 72.9242V73.3704C331.287 73.751 331.353 74.0737 331.484 74.3384C331.618 74.6009 331.802 74.801 332.039 74.9389C332.275 75.0745 332.549 75.1423 332.862 75.1423C333.066 75.1423 333.249 75.1139 333.414 75.057C333.58 74.9979 333.723 74.9104 333.843 74.7945C333.964 74.6764 334.057 74.5298 334.122 74.3548L334.87 74.5648C334.792 74.8185 334.659 75.0417 334.473 75.2342C334.287 75.4245 334.058 75.5732 333.784 75.6804C333.511 75.7854 333.204 75.8379 332.862 75.8379ZM338.03 75.8379C337.61 75.8379 337.239 75.7318 336.918 75.5196C336.596 75.3053 336.345 75.0034 336.163 74.614C335.982 74.2225 335.891 73.7598 335.891 73.2261C335.891 72.6967 335.982 72.2373 336.163 71.8479C336.345 71.4586 336.597 71.1578 336.921 70.9456C337.245 70.7334 337.619 70.6273 338.043 70.6273C338.371 70.6273 338.631 70.682 338.821 70.7914C339.013 70.8986 339.16 71.0211 339.261 71.1589C339.363 71.2945 339.443 71.4061 339.5 71.4936H339.566V69.013H340.34V75.7329H339.592V74.9585H339.5C339.443 75.0504 339.362 75.1664 339.257 75.3064C339.152 75.4442 339.003 75.5678 338.808 75.6771C338.613 75.7843 338.354 75.8379 338.03 75.8379ZM338.135 75.1423C338.446 75.1423 338.708 75.0614 338.923 74.8995C339.137 74.7354 339.3 74.509 339.412 74.2203C339.523 73.9293 339.579 73.5935 339.579 73.2129C339.579 72.8367 339.524 72.5075 339.415 72.2253C339.306 71.9409 339.144 71.72 338.929 71.5625C338.715 71.4028 338.45 71.3229 338.135 71.3229C337.807 71.3229 337.534 71.4072 337.315 71.5756C337.098 71.7418 336.935 71.9682 336.826 72.2548C336.719 72.5392 336.665 72.8586 336.665 73.2129C336.665 73.5717 336.72 73.8976 336.829 74.1907C336.941 74.4817 337.105 74.7135 337.321 74.8864C337.54 75.057 337.811 75.1423 338.135 75.1423Z" fill="white"/>
<path d="M369.597 78.0262C373 78.0262 375.757 75.2683 375.757 71.8663C375.757 68.4642 373 65.7063 369.597 65.7063C366.195 65.7063 363.438 68.4642 363.438 71.8663C363.438 75.2683 366.195 78.0262 369.597 78.0262Z" fill="#0DBA38"/>
<path d="M367.404 72.401L368.329 71.4724L369.848 72.9654L373.218 69.6087L374.15 70.5373L369.848 74.816L367.404 72.401Z" fill="white"/>
<path opacity="0.4" d="M375.758 102.666H291.571C289.303 102.666 287.465 104.505 287.465 106.773V119.093C287.465 121.361 289.303 123.199 291.571 123.199H375.758C378.026 123.199 379.864 121.361 379.864 119.093V106.773C379.864 104.505 378.026 102.666 375.758 102.666Z" fill="#0DBA38"/>
<path d="M297.843 117.639V109.239H298.381V117.639H297.843ZM299.654 111.759C299.614 111.427 299.455 111.169 299.175 110.985C298.895 110.801 298.551 110.709 298.144 110.709C297.847 110.709 297.587 110.757 297.363 110.854C297.143 110.95 296.97 111.082 296.845 111.251C296.723 111.419 296.661 111.611 296.661 111.825C296.661 112.004 296.704 112.159 296.789 112.288C296.877 112.415 296.988 112.521 297.124 112.606C297.26 112.689 297.402 112.758 297.55 112.813C297.699 112.865 297.836 112.908 297.961 112.941L298.643 113.124C298.818 113.17 299.013 113.234 299.227 113.315C299.444 113.396 299.65 113.506 299.847 113.646C300.046 113.784 300.21 113.961 300.34 114.178C300.469 114.394 300.533 114.66 300.533 114.975C300.533 115.338 300.438 115.666 300.248 115.959C300.06 116.252 299.784 116.485 299.421 116.658C299.06 116.831 298.621 116.917 298.105 116.917C297.624 116.917 297.207 116.84 296.855 116.684C296.505 116.529 296.229 116.313 296.028 116.035C295.829 115.757 295.716 115.434 295.69 115.067H296.53C296.552 115.321 296.637 115.531 296.786 115.697C296.937 115.861 297.127 115.983 297.357 116.064C297.589 116.143 297.838 116.182 298.105 116.182C298.416 116.182 298.695 116.132 298.942 116.032C299.189 115.929 299.385 115.787 299.529 115.605C299.673 115.421 299.746 115.207 299.746 114.962C299.746 114.739 299.683 114.557 299.559 114.417C299.434 114.277 299.27 114.163 299.066 114.076C298.863 113.988 298.643 113.912 298.407 113.846L297.58 113.61C297.055 113.459 296.639 113.244 296.333 112.964C296.027 112.684 295.874 112.317 295.874 111.864C295.874 111.488 295.976 111.16 296.179 110.88C296.385 110.598 296.66 110.379 297.006 110.224C297.354 110.066 297.742 109.987 298.171 109.987C298.604 109.987 298.989 110.065 299.326 110.22C299.663 110.374 299.929 110.584 300.126 110.85C300.325 111.117 300.43 111.42 300.441 111.759H299.654ZM305.336 112.888L304.64 113.085C304.597 112.969 304.532 112.856 304.447 112.747C304.364 112.635 304.25 112.544 304.106 112.471C303.961 112.399 303.776 112.363 303.551 112.363C303.243 112.363 302.986 112.434 302.78 112.576C302.577 112.716 302.475 112.895 302.475 113.111C302.475 113.304 302.545 113.456 302.685 113.567C302.825 113.679 303.044 113.772 303.341 113.846L304.089 114.03C304.54 114.139 304.876 114.307 305.096 114.532C305.317 114.755 305.428 115.043 305.428 115.395C305.428 115.684 305.345 115.942 305.179 116.169C305.014 116.397 304.785 116.576 304.489 116.707C304.194 116.839 303.851 116.904 303.459 116.904C302.945 116.904 302.52 116.793 302.183 116.57C301.846 116.347 301.633 116.021 301.543 115.592L302.278 115.408C302.348 115.679 302.48 115.883 302.675 116.018C302.872 116.154 303.129 116.222 303.446 116.222C303.807 116.222 304.094 116.145 304.306 115.992C304.52 115.837 304.627 115.651 304.627 115.434C304.627 115.259 304.566 115.113 304.444 114.995C304.321 114.874 304.133 114.785 303.879 114.726L303.039 114.529C302.578 114.419 302.239 114.25 302.022 114.02C301.808 113.788 301.7 113.498 301.7 113.151C301.7 112.866 301.78 112.615 301.94 112.396C302.102 112.177 302.322 112.005 302.599 111.881C302.879 111.756 303.197 111.694 303.551 111.694C304.05 111.694 304.441 111.803 304.726 112.022C305.012 112.241 305.216 112.529 305.336 112.888ZM306.594 116.799V111.759H307.368V116.799H306.594ZM306.987 110.919C306.836 110.919 306.706 110.868 306.597 110.765C306.49 110.662 306.436 110.539 306.436 110.394C306.436 110.25 306.49 110.126 306.597 110.024C306.706 109.921 306.836 109.869 306.987 109.869C307.138 109.869 307.267 109.921 307.374 110.024C307.484 110.126 307.539 110.25 307.539 110.394C307.539 110.539 307.484 110.662 307.374 110.765C307.267 110.868 307.138 110.919 306.987 110.919ZM308.642 116.799V116.209L311.503 112.534V112.481H308.734V111.759H312.501V112.376L309.718 116.025V116.077H312.592V116.799H308.642ZM315.754 116.904C315.268 116.904 314.849 116.797 314.497 116.583C314.147 116.366 313.877 116.064 313.687 115.677C313.499 115.288 313.405 114.835 313.405 114.319C313.405 113.802 313.499 113.347 313.687 112.954C313.877 112.558 314.142 112.249 314.481 112.028C314.822 111.805 315.22 111.694 315.675 111.694C315.938 111.694 316.197 111.737 316.453 111.825C316.709 111.912 316.942 112.055 317.152 112.252C317.362 112.446 317.529 112.704 317.654 113.026C317.778 113.347 317.841 113.743 317.841 114.214V114.542H313.956V113.872H317.053C317.053 113.588 316.996 113.334 316.883 113.111C316.771 112.888 316.611 112.712 316.404 112.583C316.198 112.454 315.955 112.389 315.675 112.389C315.367 112.389 315.1 112.466 314.875 112.619C314.651 112.77 314.48 112.967 314.359 113.21C314.239 113.452 314.179 113.713 314.179 113.991V114.437C314.179 114.817 314.245 115.14 314.376 115.405C314.509 115.667 314.694 115.867 314.93 116.005C315.167 116.141 315.441 116.209 315.754 116.209C315.957 116.209 316.141 116.18 316.305 116.123C316.471 116.064 316.615 115.977 316.735 115.861C316.855 115.743 316.948 115.596 317.014 115.421L317.762 115.631C317.683 115.885 317.551 116.108 317.365 116.301C317.179 116.491 316.949 116.64 316.676 116.747C316.403 116.852 316.095 116.904 315.754 116.904ZM321.906 113.557V114.279H318.966V113.557H321.906ZM323.269 116.799V111.759H324.017V112.547H324.083C324.188 112.278 324.357 112.069 324.591 111.92C324.825 111.769 325.106 111.694 325.434 111.694C325.767 111.694 326.044 111.769 326.265 111.92C326.488 112.069 326.662 112.278 326.786 112.547H326.839C326.968 112.287 327.161 112.08 327.42 111.927C327.678 111.771 327.987 111.694 328.348 111.694C328.799 111.694 329.167 111.835 329.454 112.117C329.74 112.397 329.884 112.833 329.884 113.426V116.799H329.109V113.426C329.109 113.054 329.008 112.789 328.804 112.629C328.601 112.469 328.361 112.389 328.086 112.389C327.731 112.389 327.457 112.497 327.262 112.711C327.067 112.923 326.97 113.192 326.97 113.518V116.799H326.182V113.347C326.182 113.061 326.09 112.83 325.904 112.655C325.718 112.478 325.478 112.389 325.185 112.389C324.984 112.389 324.796 112.443 324.621 112.55C324.448 112.657 324.308 112.806 324.201 112.996C324.096 113.184 324.043 113.402 324.043 113.649V116.799H323.269ZM333.203 116.904C332.783 116.904 332.412 116.798 332.09 116.586C331.769 116.372 331.517 116.07 331.336 115.68C331.154 115.289 331.063 114.826 331.063 114.292C331.063 113.763 331.154 113.304 331.336 112.914C331.517 112.525 331.77 112.224 332.094 112.012C332.417 111.8 332.791 111.694 333.216 111.694C333.544 111.694 333.803 111.748 333.993 111.858C334.186 111.965 334.333 112.087 334.433 112.225C334.536 112.361 334.616 112.472 334.673 112.56H334.738V110.079H335.513V116.799H334.765V116.025H334.673C334.616 116.117 334.535 116.233 334.43 116.373C334.325 116.511 334.175 116.634 333.98 116.744C333.786 116.851 333.526 116.904 333.203 116.904ZM333.308 116.209C333.618 116.209 333.881 116.128 334.095 115.966C334.31 115.802 334.473 115.575 334.584 115.287C334.696 114.996 334.751 114.66 334.751 114.279C334.751 113.903 334.697 113.574 334.587 113.292C334.478 113.007 334.316 112.786 334.102 112.629C333.887 112.469 333.623 112.389 333.308 112.389C332.98 112.389 332.706 112.474 332.487 112.642C332.271 112.808 332.108 113.035 331.998 113.321C331.891 113.606 331.838 113.925 331.838 114.279C331.838 114.638 331.892 114.964 332.002 115.257C332.113 115.548 332.277 115.78 332.494 115.953C332.713 116.123 332.984 116.209 333.308 116.209Z" fill="white"/>
<path d="M369.597 119.093C373 119.093 375.757 116.335 375.757 112.933C375.757 109.531 373 106.773 369.597 106.773C366.195 106.773 363.438 109.531 363.438 112.933C363.438 116.335 366.195 119.093 369.597 119.093Z" fill="#0DBA38"/>
<path d="M367.404 113.467L368.329 112.539L369.848 114.032L373.218 110.675L374.15 111.604L369.848 115.882L367.404 113.467Z" fill="white"/>
<path opacity="0.4" d="M375.758 143.732H291.571C289.303 143.732 287.465 145.571 287.465 147.839V160.159C287.465 162.427 289.303 164.266 291.571 164.266H375.758C378.026 164.266 379.864 162.427 379.864 160.159V147.839C379.864 145.571 378.026 143.732 375.758 143.732Z" fill="#0DBA38"/>
<path d="M297.843 158.706V150.306H298.381V158.706H297.843ZM299.654 152.826C299.614 152.493 299.455 152.235 299.175 152.051C298.895 151.868 298.551 151.776 298.144 151.776C297.847 151.776 297.587 151.824 297.363 151.92C297.143 152.016 296.97 152.149 296.845 152.317C296.723 152.486 296.661 152.677 296.661 152.891C296.661 153.071 296.704 153.225 296.789 153.354C296.877 153.481 296.988 153.587 297.124 153.672C297.26 153.755 297.402 153.824 297.55 153.879C297.699 153.932 297.836 153.974 297.961 154.007L298.643 154.191C298.818 154.237 299.013 154.3 299.227 154.381C299.444 154.462 299.65 154.572 299.847 154.712C300.046 154.85 300.21 155.027 300.34 155.244C300.469 155.461 300.533 155.726 300.533 156.041C300.533 156.404 300.438 156.733 300.248 157.026C300.06 157.319 299.784 157.552 299.421 157.725C299.06 157.897 298.621 157.984 298.105 157.984C297.624 157.984 297.207 157.906 296.855 157.751C296.505 157.596 296.229 157.379 296.028 157.101C295.829 156.823 295.716 156.501 295.69 156.133H296.53C296.552 156.387 296.637 156.597 296.786 156.763C296.937 156.927 297.127 157.05 297.357 157.131C297.589 157.209 297.838 157.249 298.105 157.249C298.416 157.249 298.695 157.199 298.942 157.098C299.189 156.995 299.385 156.853 299.529 156.671C299.673 156.488 299.746 156.273 299.746 156.028C299.746 155.805 299.683 155.624 299.559 155.484C299.434 155.344 299.27 155.23 299.066 155.142C298.863 155.055 298.643 154.978 298.407 154.913L297.58 154.676C297.055 154.525 296.639 154.31 296.333 154.03C296.027 153.75 295.874 153.384 295.874 152.931C295.874 152.555 295.976 152.226 296.179 151.946C296.385 151.664 296.66 151.445 297.006 151.29C297.354 151.133 297.742 151.054 298.171 151.054C298.604 151.054 298.989 151.132 299.326 151.287C299.663 151.44 299.929 151.65 300.126 151.917C300.325 152.184 300.43 152.487 300.441 152.826H299.654ZM305.336 153.954L304.64 154.151C304.597 154.035 304.532 153.923 304.447 153.813C304.364 153.702 304.25 153.61 304.106 153.538C303.961 153.466 303.776 153.43 303.551 153.43C303.243 153.43 302.986 153.501 302.78 153.643C302.577 153.783 302.475 153.961 302.475 154.178C302.475 154.37 302.545 154.522 302.685 154.634C302.825 154.745 303.044 154.838 303.341 154.913L304.089 155.096C304.54 155.206 304.876 155.373 305.096 155.598C305.317 155.822 305.428 156.109 305.428 156.461C305.428 156.75 305.345 157.008 305.179 157.236C305.014 157.463 304.785 157.643 304.489 157.774C304.194 157.905 303.851 157.971 303.459 157.971C302.945 157.971 302.52 157.859 302.183 157.636C301.846 157.413 301.633 157.087 301.543 156.658L302.278 156.474C302.348 156.746 302.48 156.949 302.675 157.085C302.872 157.22 303.129 157.288 303.446 157.288C303.807 157.288 304.094 157.212 304.306 157.059C304.52 156.903 304.627 156.717 304.627 156.501C304.627 156.326 304.566 156.179 304.444 156.061C304.321 155.941 304.133 155.851 303.879 155.792L303.039 155.595C302.578 155.486 302.239 155.316 302.022 155.087C301.808 154.855 301.7 154.565 301.7 154.217C301.7 153.933 301.78 153.681 301.94 153.462C302.102 153.244 302.322 153.072 302.599 152.947C302.879 152.822 303.197 152.76 303.551 152.76C304.05 152.76 304.441 152.87 304.726 153.088C305.012 153.307 305.216 153.596 305.336 153.954ZM306.594 159.756V152.826H307.342V153.626H307.434C307.49 153.539 307.569 153.427 307.67 153.292C307.773 153.154 307.919 153.031 308.109 152.924C308.302 152.815 308.562 152.76 308.89 152.76C309.315 152.76 309.689 152.866 310.013 153.078C310.336 153.291 310.589 153.591 310.771 153.981C310.952 154.37 311.043 154.829 311.043 155.359C311.043 155.893 310.952 156.355 310.771 156.747C310.589 157.136 310.337 157.438 310.016 157.652C309.694 157.865 309.324 157.971 308.904 157.971C308.58 157.971 308.321 157.917 308.126 157.81C307.931 157.701 307.781 157.577 307.676 157.439C307.571 157.299 307.49 157.183 307.434 157.091H307.368V159.756H306.594ZM307.355 155.346C307.355 155.726 307.411 156.062 307.522 156.353C307.634 156.642 307.797 156.868 308.011 157.032C308.225 157.194 308.488 157.275 308.799 157.275C309.122 157.275 309.392 157.19 309.609 157.019C309.828 156.846 309.992 156.614 310.101 156.324C310.213 156.03 310.269 155.704 310.269 155.346C310.269 154.991 310.214 154.672 310.104 154.388C309.997 154.101 309.834 153.875 309.616 153.708C309.399 153.54 309.127 153.456 308.799 153.456C308.484 153.456 308.219 153.536 308.004 153.695C307.79 153.853 307.628 154.074 307.519 154.358C307.409 154.64 307.355 154.969 307.355 155.346ZM313.707 157.984C313.388 157.984 313.098 157.924 312.838 157.803C312.577 157.681 312.371 157.505 312.218 157.275C312.064 157.043 311.988 156.763 311.988 156.435C311.988 156.146 312.045 155.912 312.159 155.733C312.272 155.551 312.424 155.409 312.615 155.306C312.805 155.204 313.015 155.127 313.245 155.077C313.476 155.024 313.709 154.983 313.944 154.952C314.25 154.913 314.498 154.883 314.688 154.863C314.881 154.842 315.021 154.805 315.108 154.755C315.198 154.705 315.243 154.617 315.243 154.493V154.466C315.243 154.143 315.154 153.891 314.977 153.712C314.802 153.532 314.536 153.443 314.18 153.443C313.81 153.443 313.52 153.524 313.31 153.685C313.1 153.847 312.953 154.02 312.867 154.204L312.132 153.941C312.264 153.635 312.439 153.397 312.657 153.226C312.878 153.053 313.119 152.933 313.379 152.865C313.642 152.795 313.9 152.76 314.154 152.76C314.315 152.76 314.501 152.78 314.711 152.819C314.924 152.856 315.128 152.934 315.325 153.052C315.524 153.17 315.689 153.349 315.82 153.587C315.952 153.825 316.017 154.145 316.017 154.545V157.866H315.243V157.183H315.204C315.151 157.293 315.064 157.41 314.941 157.534C314.819 157.659 314.656 157.765 314.452 157.853C314.249 157.94 314 157.984 313.707 157.984ZM313.825 157.288C314.132 157.288 314.39 157.228 314.6 157.108C314.812 156.987 314.972 156.832 315.079 156.642C315.188 156.452 315.243 156.251 315.243 156.041V155.333C315.21 155.372 315.138 155.408 315.026 155.441C314.917 155.472 314.79 155.499 314.646 155.523C314.504 155.545 314.365 155.564 314.229 155.582C314.096 155.597 313.987 155.61 313.904 155.621C313.703 155.648 313.515 155.69 313.34 155.749C313.167 155.806 313.027 155.893 312.92 156.009C312.815 156.122 312.762 156.278 312.762 156.474C312.762 156.744 312.862 156.947 313.061 157.085C313.262 157.22 313.517 157.288 313.825 157.288ZM319.478 157.971C319.006 157.971 318.599 157.859 318.258 157.636C317.916 157.413 317.654 157.106 317.47 156.714C317.286 156.322 317.194 155.875 317.194 155.372C317.194 154.86 317.288 154.408 317.477 154.017C317.667 153.623 317.932 153.316 318.271 153.095C318.612 152.872 319.01 152.76 319.465 152.76C319.819 152.76 320.139 152.826 320.423 152.957C320.707 153.088 320.94 153.272 321.122 153.508C321.304 153.744 321.416 154.02 321.46 154.335H320.686C320.627 154.105 320.495 153.902 320.292 153.725C320.091 153.545 319.819 153.456 319.478 153.456C319.176 153.456 318.912 153.534 318.684 153.692C318.459 153.847 318.283 154.067 318.156 154.352C318.031 154.634 317.969 154.965 317.969 155.346C317.969 155.735 318.03 156.074 318.153 156.363C318.277 156.652 318.452 156.876 318.678 157.036C318.905 157.195 319.172 157.275 319.478 157.275C319.679 157.275 319.862 157.24 320.026 157.17C320.19 157.1 320.329 156.999 320.443 156.868C320.557 156.737 320.637 156.579 320.686 156.396H321.46C321.416 156.693 321.308 156.961 321.135 157.2C320.965 157.436 320.738 157.624 320.456 157.764C320.176 157.902 319.85 157.971 319.478 157.971ZM322.592 157.866V152.826H323.366V157.866H322.592ZM322.986 151.986C322.835 151.986 322.705 151.934 322.595 151.832C322.488 151.729 322.435 151.605 322.435 151.461C322.435 151.316 322.488 151.193 322.595 151.09C322.705 150.987 322.835 150.936 322.986 150.936C323.137 150.936 323.266 150.987 323.373 151.09C323.482 151.193 323.537 151.316 323.537 151.461C323.537 151.605 323.482 151.729 323.373 151.832C323.266 151.934 323.137 151.986 322.986 151.986ZM325.559 154.834V157.866H324.785V152.826H325.533V153.613H325.598C325.717 153.357 325.896 153.152 326.137 152.996C326.377 152.839 326.688 152.76 327.068 152.76C327.41 152.76 327.708 152.83 327.964 152.97C328.22 153.108 328.419 153.318 328.561 153.6C328.704 153.88 328.775 154.234 328.775 154.663V157.866H328V154.716C328 154.32 327.897 154.011 327.692 153.79C327.486 153.567 327.204 153.456 326.845 153.456C326.598 153.456 326.377 153.509 326.182 153.617C325.99 153.724 325.838 153.88 325.726 154.086C325.615 154.291 325.559 154.541 325.559 154.834ZM332.224 159.861C331.85 159.861 331.528 159.813 331.259 159.716C330.99 159.622 330.766 159.498 330.587 159.342C330.41 159.189 330.268 159.025 330.163 158.85L330.78 158.417C330.85 158.509 330.939 158.614 331.046 158.732C331.153 158.852 331.3 158.956 331.486 159.044C331.674 159.133 331.92 159.178 332.224 159.178C332.631 159.178 332.967 159.08 333.231 158.883C333.496 158.686 333.628 158.378 333.628 157.958V156.934H333.563C333.506 157.026 333.425 157.139 333.32 157.275C333.217 157.409 333.068 157.528 332.874 157.633C332.681 157.736 332.421 157.787 332.093 157.787C331.686 157.787 331.321 157.691 330.997 157.498C330.675 157.306 330.42 157.026 330.232 156.658C330.046 156.291 329.953 155.844 329.953 155.319C329.953 154.803 330.044 154.354 330.226 153.971C330.407 153.586 330.66 153.288 330.984 153.078C331.308 152.866 331.682 152.76 332.106 152.76C332.434 152.76 332.694 152.815 332.887 152.924C333.082 153.031 333.23 153.154 333.333 153.292C333.438 153.427 333.519 153.539 333.576 153.626H333.655V152.826H334.403V158.01C334.403 158.443 334.304 158.795 334.107 159.067C333.913 159.34 333.65 159.54 333.32 159.667C332.992 159.796 332.627 159.861 332.224 159.861ZM332.198 157.091C332.508 157.091 332.771 157.02 332.985 156.878C333.2 156.736 333.363 156.531 333.474 156.264C333.586 155.998 333.642 155.678 333.642 155.306C333.642 154.943 333.587 154.623 333.477 154.345C333.368 154.067 333.206 153.849 332.992 153.692C332.777 153.534 332.513 153.456 332.198 153.456C331.87 153.456 331.596 153.539 331.378 153.705C331.161 153.871 330.998 154.094 330.889 154.374C330.781 154.654 330.728 154.965 330.728 155.306C330.728 155.656 330.783 155.966 330.892 156.235C331.003 156.502 331.168 156.712 331.384 156.865C331.603 157.016 331.874 157.091 332.198 157.091Z" fill="white"/>
<path d="M369.597 160.159C373 160.159 375.757 157.401 375.757 153.999C375.757 150.597 373 147.839 369.597 147.839C366.195 147.839 363.438 150.597 363.438 153.999C363.438 157.401 366.195 160.159 369.597 160.159Z" fill="#0DBA38"/>
<path d="M367.404 154.534L368.329 153.605L369.848 155.098L373.218 151.742L374.15 152.67L369.848 156.949L367.404 154.534Z" fill="white"/>
<path opacity="0.4" d="M375.758 215.599H291.571C289.303 215.599 287.465 217.437 287.465 219.705V232.025C287.465 234.293 289.303 236.132 291.571 236.132H375.758C378.026 236.132 379.864 234.293 379.864 232.025V219.705C379.864 217.437 378.026 215.599 375.758 215.599Z" fill="#0DBA38"/>
<path d="M297.843 230.572V222.172H298.381V230.572H297.843ZM299.654 224.692C299.614 224.359 299.455 224.101 299.175 223.918C298.895 223.734 298.551 223.642 298.144 223.642C297.847 223.642 297.587 223.69 297.363 223.786C297.143 223.883 296.97 224.015 296.845 224.183C296.723 224.352 296.661 224.543 296.661 224.758C296.661 224.937 296.704 225.091 296.789 225.22C296.877 225.347 296.988 225.453 297.124 225.539C297.26 225.622 297.402 225.691 297.55 225.745C297.699 225.798 297.836 225.84 297.961 225.873L298.643 226.057C298.818 226.103 299.013 226.166 299.227 226.247C299.444 226.328 299.65 226.439 299.847 226.579C300.046 226.716 300.21 226.894 300.34 227.11C300.469 227.327 300.533 227.593 300.533 227.908C300.533 228.271 300.438 228.599 300.248 228.892C300.06 229.185 299.784 229.418 299.421 229.591C299.06 229.764 298.621 229.85 298.105 229.85C297.624 229.85 297.207 229.772 296.855 229.617C296.505 229.462 296.229 229.245 296.028 228.967C295.829 228.69 295.716 228.367 295.69 227.999H296.53C296.552 228.253 296.637 228.463 296.786 228.629C296.937 228.794 297.127 228.916 297.357 228.997C297.589 229.076 297.838 229.115 298.105 229.115C298.416 229.115 298.695 229.065 298.942 228.964C299.189 228.861 299.385 228.719 299.529 228.538C299.673 228.354 299.746 228.139 299.746 227.894C299.746 227.671 299.683 227.49 299.559 227.35C299.434 227.21 299.27 227.096 299.066 227.009C298.863 226.921 298.643 226.844 298.407 226.779L297.58 226.543C297.055 226.392 296.639 226.176 296.333 225.896C296.027 225.616 295.874 225.25 295.874 224.797C295.874 224.421 295.976 224.093 296.179 223.813C296.385 223.53 296.66 223.312 297.006 223.156C297.354 222.999 297.742 222.92 298.171 222.92C298.604 222.92 298.989 222.998 299.326 223.153C299.663 223.306 299.929 223.516 300.126 223.783C300.325 224.05 300.43 224.353 300.441 224.692H299.654ZM302.908 229.732L301.372 224.692H302.186L303.275 228.551H303.328L304.404 224.692H305.231L306.294 228.538H306.347L307.436 224.692H308.25L306.714 229.732H305.953L304.85 225.86H304.772L303.669 229.732H302.908ZM311.215 229.837C310.73 229.837 310.311 229.73 309.958 229.515C309.608 229.299 309.338 228.997 309.148 228.61C308.96 228.22 308.866 227.768 308.866 227.251C308.866 226.735 308.96 226.28 309.148 225.886C309.338 225.49 309.603 225.182 309.942 224.961C310.283 224.738 310.681 224.626 311.136 224.626C311.399 224.626 311.658 224.67 311.914 224.758C312.17 224.845 312.403 224.987 312.613 225.184C312.823 225.379 312.99 225.637 313.115 225.959C313.24 226.28 313.302 226.676 313.302 227.146V227.474H309.417V226.805H312.515C312.515 226.521 312.458 226.267 312.344 226.044C312.232 225.821 312.073 225.645 311.865 225.516C311.659 225.386 311.416 225.322 311.136 225.322C310.828 225.322 310.561 225.399 310.336 225.552C310.113 225.703 309.941 225.899 309.821 226.142C309.7 226.385 309.64 226.645 309.64 226.923V227.369C309.64 227.75 309.706 228.073 309.837 228.337C309.97 228.6 310.155 228.8 310.392 228.938C310.628 229.074 310.902 229.141 311.215 229.141C311.419 229.141 311.602 229.113 311.766 229.056C311.933 228.997 312.076 228.909 312.196 228.794C312.317 228.675 312.41 228.529 312.475 228.354L313.223 228.564C313.145 228.818 313.012 229.041 312.826 229.233C312.64 229.423 312.411 229.572 312.137 229.679C311.864 229.784 311.556 229.837 311.215 229.837ZM314.48 229.732V224.692H315.254V229.732H314.48ZM314.874 223.852C314.723 223.852 314.593 223.801 314.483 223.698C314.376 223.595 314.322 223.471 314.322 223.327C314.322 223.183 314.376 223.059 314.483 222.956C314.593 222.853 314.723 222.802 314.874 222.802C315.025 222.802 315.154 222.853 315.261 222.956C315.37 223.059 315.425 223.183 315.425 223.327C315.425 223.471 315.37 223.595 315.261 223.698C315.154 223.801 315.025 223.852 314.874 223.852ZM318.707 231.727C318.333 231.727 318.011 231.679 317.742 231.583C317.473 231.488 317.249 231.364 317.07 231.208C316.893 231.055 316.751 230.891 316.646 230.716L317.263 230.283C317.333 230.375 317.422 230.48 317.529 230.598C317.636 230.718 317.783 230.822 317.969 230.91C318.157 231 318.403 231.044 318.707 231.044C319.114 231.044 319.45 230.946 319.714 230.749C319.979 230.552 320.111 230.244 320.111 229.824V228.8H320.046C319.989 228.892 319.908 229.006 319.803 229.141C319.7 229.275 319.551 229.394 319.357 229.499C319.164 229.602 318.904 229.653 318.576 229.653C318.169 229.653 317.804 229.557 317.48 229.364C317.158 229.172 316.903 228.892 316.715 228.524C316.529 228.157 316.436 227.711 316.436 227.186C316.436 226.669 316.527 226.22 316.709 225.837C316.89 225.452 317.143 225.155 317.467 224.945C317.79 224.732 318.165 224.626 318.589 224.626C318.917 224.626 319.177 224.681 319.37 224.79C319.565 224.898 319.713 225.02 319.816 225.158C319.921 225.294 320.002 225.405 320.059 225.493H320.138V224.692H320.886V229.876C320.886 230.309 320.787 230.662 320.59 230.933C320.396 231.206 320.133 231.406 319.803 231.533C319.475 231.662 319.11 231.727 318.707 231.727ZM318.681 228.958C318.991 228.958 319.254 228.886 319.468 228.744C319.683 228.602 319.846 228.398 319.957 228.131C320.069 227.864 320.125 227.544 320.125 227.173C320.125 226.809 320.07 226.489 319.96 226.211C319.851 225.933 319.689 225.716 319.475 225.558C319.26 225.401 318.996 225.322 318.681 225.322C318.353 225.322 318.079 225.405 317.86 225.571C317.644 225.738 317.481 225.961 317.372 226.241C317.264 226.521 317.211 226.831 317.211 227.173C317.211 227.523 317.265 227.832 317.375 228.101C317.486 228.368 317.65 228.578 317.867 228.731C318.086 228.882 318.357 228.958 318.681 228.958ZM323.078 226.7V229.732H322.303V223.012H323.078V225.479H323.143C323.261 225.219 323.439 225.012 323.675 224.859C323.913 224.704 324.23 224.626 324.626 224.626C324.97 224.626 325.271 224.695 325.529 224.833C325.787 224.969 325.987 225.178 326.129 225.46C326.274 225.74 326.346 226.096 326.346 226.529V229.732H325.571V226.582C325.571 226.182 325.467 225.872 325.26 225.653C325.054 225.432 324.769 225.322 324.403 225.322C324.15 225.322 323.922 225.376 323.721 225.483C323.522 225.59 323.364 225.746 323.248 225.952C323.135 226.158 323.078 226.407 323.078 226.7ZM329.954 224.692V225.348H327.342V224.692H329.954ZM328.104 223.484H328.878V228.288C328.878 228.507 328.91 228.671 328.973 228.78C329.039 228.888 329.122 228.96 329.223 228.997C329.325 229.032 329.434 229.049 329.547 229.049C329.633 229.049 329.703 229.045 329.757 229.036C329.812 229.025 329.856 229.017 329.889 229.01L330.046 229.706C329.994 229.725 329.92 229.745 329.826 229.765C329.732 229.787 329.613 229.798 329.469 229.798C329.25 229.798 329.036 229.751 328.826 229.656C328.618 229.562 328.445 229.419 328.307 229.227C328.171 229.034 328.104 228.791 328.104 228.498V223.484ZM333.826 226.49V227.212H330.886V226.49H333.826ZM335.294 229.732V223.012H336.068V225.493H336.134C336.191 225.405 336.269 225.294 336.37 225.158C336.473 225.02 336.619 224.898 336.81 224.79C337.002 224.681 337.262 224.626 337.591 224.626C338.015 224.626 338.389 224.732 338.713 224.945C339.036 225.157 339.289 225.458 339.471 225.847C339.652 226.236 339.743 226.696 339.743 227.225C339.743 227.759 339.652 228.221 339.471 228.613C339.289 229.002 339.038 229.304 338.716 229.519C338.394 229.731 338.024 229.837 337.604 229.837C337.28 229.837 337.021 229.783 336.826 229.676C336.631 229.567 336.481 229.443 336.376 229.305C336.271 229.165 336.191 229.049 336.134 228.958H336.042V229.732H335.294ZM336.055 227.212C336.055 227.593 336.111 227.928 336.222 228.219C336.334 228.508 336.497 228.734 336.711 228.899C336.926 229.06 337.188 229.141 337.499 229.141C337.822 229.141 338.093 229.056 338.309 228.885C338.528 228.713 338.692 228.481 338.801 228.19C338.913 227.897 338.969 227.571 338.969 227.212C338.969 226.858 338.914 226.538 338.805 226.254C338.697 225.967 338.534 225.741 338.316 225.575C338.099 225.406 337.827 225.322 337.499 225.322C337.184 225.322 336.919 225.402 336.705 225.561C336.49 225.719 336.328 225.94 336.219 226.224C336.11 226.506 336.055 226.836 336.055 227.212Z" fill="white"/>
<path d="M369.597 232.025C373 232.025 375.757 229.267 375.757 225.865C375.757 222.463 373 219.705 369.597 219.705C366.195 219.705 363.438 222.463 363.438 225.865C363.438 229.267 366.195 232.025 369.597 232.025Z" fill="#0DBA38"/>
<path d="M367.404 226.4L368.329 225.471L369.848 226.964L373.218 223.608L374.15 224.536L369.848 228.815L367.404 226.4Z" fill="white"/>
<g opacity="0.6">
<path d="M128.332 71.8662L159.132 102.666Z" fill="black"/>
<path d="M128.332 71.8662L159.132 102.666" stroke="#FCB23B" stroke-width="1.53999"/>
</g>
<g opacity="0.6">
<path d="M128.332 112.933L159.132 133.466Z" fill="black"/>
<path d="M128.332 112.933L159.132 133.466" stroke="#FCB23B" stroke-width="1.53999"/>
</g>
<g opacity="0.6">
<path d="M128.332 153.999H159.132Z" fill="black"/>
<path d="M128.332 153.999H159.132" stroke="#FCB23B" stroke-width="1.53999"/>
</g>
<g opacity="0.6">
<path d="M128.332 225.865L159.132 184.799Z" fill="black"/>
<path d="M128.332 225.865L159.132 184.799" stroke="#FCB23B" stroke-width="1.53999"/>
</g>
<g opacity="0.6">
<path d="M251.531 102.666L282.331 71.8662Z" fill="black"/>
<path d="M251.531 102.666L282.331 71.8662" stroke="#FCB23B" stroke-width="1.53999"/>
</g>
<g opacity="0.6">
<path d="M251.531 133.466L282.331 112.933Z" fill="black"/>
<path d="M251.531 133.466L282.331 112.933" stroke="#FCB23B" stroke-width="1.53999"/>
</g>
<g opacity="0.6">
<path d="M251.531 153.999H282.331Z" fill="black"/>
<path d="M251.531 153.999H282.331" stroke="#FCB23B" stroke-width="1.53999"/>
</g>
<g opacity="0.6">
<path d="M251.531 184.799L282.331 225.865Z" fill="black"/>
<path d="M251.531 184.799L282.331 225.865" stroke="#FCB23B" stroke-width="1.53999"/>
</g>
</g>
<defs>
<clipPath id="clip0_32_1227">
<rect width="410.664" height="328.531" fill="white"/>
</clipPath>
</defs>
</svg>
