<svg width="392" height="314" viewBox="0 0 392 314" fill="none" xmlns="http://www.w3.org/2000/svg">
<g clip-path="url(#clip0_25_997)">
<path d="M391.332 0H0.00390625V313.062H391.332V0Z" fill="#0086E6"/>
<path d="M342.416 53.8076H48.9199C43.5168 53.8076 39.1367 58.1877 39.1367 63.5908V249.472C39.1367 254.875 43.5168 259.255 48.9199 259.255H342.416C347.819 259.255 352.199 254.875 352.199 249.472V63.5908C352.199 58.1877 347.819 53.8076 342.416 53.8076Z" fill="#24292E"/>
<path d="M53.8117 77.2873C55.973 77.2873 57.725 75.5353 57.725 73.374C57.725 71.2128 55.973 69.4607 53.8117 69.4607C51.6505 69.4607 49.8984 71.2128 49.8984 73.374C49.8984 75.5353 51.6505 77.2873 53.8117 77.2873Z" fill="#E74646"/>
<path d="M66.0402 77.2873C68.2015 77.2873 69.9535 75.5353 69.9535 73.374C69.9535 71.2128 68.2015 69.4607 66.0402 69.4607C63.879 69.4607 62.127 71.2128 62.127 73.374C62.127 75.5353 63.879 77.2873 66.0402 77.2873Z" fill="#FCB23B"/>
<path d="M78.2697 77.2873C80.431 77.2873 82.183 75.5353 82.183 73.374C82.183 71.2128 80.431 69.4607 78.2697 69.4607C76.1085 69.4607 74.3564 71.2128 74.3564 73.374C74.3564 75.5353 76.1085 77.2873 78.2697 77.2873Z" fill="#0DBA38"/>
<path d="M184.906 95.3862H54.7898C51.548 95.3862 48.9199 98.0143 48.9199 101.256V241.156C48.9199 244.398 51.548 247.026 54.7898 247.026H184.906C188.148 247.026 190.776 244.398 190.776 241.156V101.256C190.776 98.0143 188.148 95.3862 184.906 95.3862Z" fill="white"/>
<path d="M178.547 112.507H61.1489C59.7981 112.507 58.7031 113.602 58.7031 114.953V120.823C58.7031 122.173 59.7981 123.268 61.1489 123.268H178.547C179.898 123.268 180.993 122.173 180.993 120.823V114.953C180.993 113.602 179.898 112.507 178.547 112.507Z" fill="#D6D6D6"/>
<path d="M154.089 132.073H61.1489C59.7981 132.073 58.7031 133.168 58.7031 134.519V140.389C58.7031 141.74 59.7981 142.835 61.1489 142.835H154.089C155.44 142.835 156.535 141.74 156.535 140.389V134.519C156.535 133.168 155.44 132.073 154.089 132.073Z" fill="#E6E6E6"/>
<path d="M163.873 151.64H61.1489C59.7981 151.64 58.7031 152.735 58.7031 154.085V159.955C58.7031 161.306 59.7981 162.401 61.1489 162.401H163.873C165.223 162.401 166.318 161.306 166.318 159.955V154.085C166.318 152.735 165.223 151.64 163.873 151.64Z" fill="#D6D6D6"/>
<path d="M144.306 171.206H61.1489C59.7981 171.206 58.7031 172.301 58.7031 173.652V179.522C58.7031 180.873 59.7981 181.968 61.1489 181.968H144.306C145.657 181.968 146.752 180.873 146.752 179.522V173.652C146.752 172.301 145.657 171.206 144.306 171.206Z" fill="#E6E6E6"/>
<path d="M336.546 95.3862H206.429C203.188 95.3862 200.56 98.0143 200.56 101.256V241.156C200.56 244.398 203.188 247.026 206.429 247.026H336.546C339.788 247.026 342.416 244.398 342.416 241.156V101.256C342.416 98.0143 339.788 95.3862 336.546 95.3862Z" fill="#F2F2F2"/>
<path d="M330.187 112.507H212.789C211.438 112.507 210.343 113.602 210.343 114.953V120.823C210.343 122.173 211.438 123.268 212.789 123.268H330.187C331.538 123.268 332.633 122.173 332.633 120.823V114.953C332.633 113.602 331.538 112.507 330.187 112.507Z" fill="#0DBA38"/>
<path d="M305.729 132.073H212.789C211.438 132.073 210.343 133.168 210.343 134.519V140.389C210.343 141.74 211.438 142.835 212.789 142.835H305.729C307.08 142.835 308.175 141.74 308.175 140.389V134.519C308.175 133.168 307.08 132.073 305.729 132.073Z" fill="#D6D6D6"/>
<path d="M315.512 151.64H212.789C211.438 151.64 210.343 152.735 210.343 154.085V159.955C210.343 161.306 211.438 162.401 212.789 162.401H315.512C316.863 162.401 317.958 161.306 317.958 159.955V154.085C317.958 152.735 316.863 151.64 315.512 151.64Z" fill="#E74646"/>
<path d="M295.946 171.206H212.789C211.438 171.206 210.343 172.301 210.343 173.652V179.522C210.343 180.873 211.438 181.968 212.789 181.968H295.946C297.297 181.968 298.392 180.873 298.392 179.522V173.652C298.392 172.301 297.297 171.206 295.946 171.206Z" fill="#D6D6D6"/>
</g>
<defs>
<clipPath id="clip0_25_997">
<rect width="391.336" height="313.062" fill="white"/>
</clipPath>
</defs>
</svg>
