<svg width="392" height="314" viewBox="0 0 392 314" fill="none" xmlns="http://www.w3.org/2000/svg">
<g clip-path="url(#clip0_37_589)">
<path d="M391.328 0H0V313.062H391.328V0Z" fill="#16141C"/>
<path d="M357.087 56.2534H34.2412C28.8381 56.2534 24.458 60.6335 24.458 66.0366V134.519C24.458 139.922 28.8381 144.302 34.2412 144.302H357.087C362.49 144.302 366.87 139.922 366.87 134.519V66.0366C366.87 60.6335 362.49 56.2534 357.087 56.2534Z" fill="#1560E3"/>
<path opacity="0.3" d="M106.637 75.8198H49.8943C46.6525 75.8198 44.0244 78.4479 44.0244 81.6897V118.866C44.0244 122.108 46.6525 124.736 49.8943 124.736H106.637C109.879 124.736 112.507 122.108 112.507 118.866V81.6897C112.507 78.4479 109.879 75.8198 106.637 75.8198Z" fill="white"/>
<path opacity="0.3" d="M189.794 75.8198H133.052C129.81 75.8198 127.182 78.4479 127.182 81.6897V118.866C127.182 122.108 129.81 124.736 133.052 124.736H189.794C193.036 124.736 195.664 122.108 195.664 118.866V81.6897C195.664 78.4479 193.036 75.8198 189.794 75.8198Z" fill="white"/>
<path opacity="0.3" d="M272.951 75.8198H216.209C212.967 75.8198 210.339 78.4479 210.339 81.6897V118.866C210.339 122.108 212.967 124.736 216.209 124.736H272.951C276.193 124.736 278.821 122.108 278.821 118.866V81.6897C278.821 78.4479 276.193 75.8198 272.951 75.8198Z" fill="white"/>
<path opacity="0.3" d="M336.542 75.8198H299.366C296.124 75.8198 293.496 78.4479 293.496 81.6897V118.866C293.496 122.108 296.124 124.736 299.366 124.736H336.542C339.784 124.736 342.412 122.108 342.412 118.866V81.6897C342.412 78.4479 339.784 75.8198 336.542 75.8198Z" fill="white"/>
<path opacity="0.9" d="M357.087 168.76H34.2412C28.8381 168.76 24.458 173.14 24.458 178.543V247.026C24.458 252.429 28.8381 256.809 34.2412 256.809H357.087C362.49 256.809 366.87 252.429 366.87 247.026V178.543C366.87 173.14 362.49 168.76 357.087 168.76Z" fill="url(#paint0_linear_37_589)"/>
<path opacity="0.3" d="M68.4819 229.905C77.9374 229.905 85.6025 222.24 85.6025 212.785C85.6025 203.329 77.9374 195.664 68.4819 195.664C59.0265 195.664 51.3613 203.329 51.3613 212.785C51.3613 222.24 59.0265 229.905 68.4819 229.905Z" fill="white"/>
<path opacity="0.3" d="M117.398 229.905C126.853 229.905 134.519 222.24 134.519 212.785C134.519 203.329 126.853 195.664 117.398 195.664C107.943 195.664 100.277 203.329 100.277 212.785C100.277 222.24 107.943 229.905 117.398 229.905Z" fill="white"/>
<path opacity="0.3" d="M166.314 229.905C175.769 229.905 183.435 222.24 183.435 212.785C183.435 203.329 175.769 195.664 166.314 195.664C156.859 195.664 149.193 203.329 149.193 212.785C149.193 222.24 156.859 229.905 166.314 229.905Z" fill="white"/>
<path opacity="0.3" d="M215.23 229.905C224.685 229.905 232.351 222.24 232.351 212.785C232.351 203.329 224.685 195.664 215.23 195.664C205.775 195.664 198.109 203.329 198.109 212.785C198.109 222.24 205.775 229.905 215.23 229.905Z" fill="white"/>
<path opacity="0.3" d="M264.146 229.905C273.601 229.905 281.267 222.24 281.267 212.785C281.267 203.329 273.601 195.664 264.146 195.664C254.691 195.664 247.025 203.329 247.025 212.785C247.025 222.24 254.691 229.905 264.146 229.905Z" fill="white"/>
<path opacity="0.3" d="M313.062 229.905C322.517 229.905 330.183 222.24 330.183 212.785C330.183 203.329 322.517 195.664 313.062 195.664C303.607 195.664 295.941 203.329 295.941 212.785C295.941 222.24 303.607 229.905 313.062 229.905Z" fill="white"/>
<path opacity="0.6" d="M78.2656 144.302L68.4824 168.76" stroke="#FCB23B" stroke-width="1.46748"/>
<path opacity="0.6" d="M161.423 144.302L166.314 168.76" stroke="#FCB23B" stroke-width="1.46748"/>
<path opacity="0.6" d="M244.58 144.302L215.23 168.76" stroke="#FCB23B" stroke-width="1.46748"/>
<path opacity="0.6" d="M317.954 144.302L313.062 168.76" stroke="#FCB23B" stroke-width="1.46748"/>
</g>
<defs>
<linearGradient id="paint0_linear_37_589" x1="24.458" y1="168.76" x2="24.458" y2="8973.64" gradientUnits="userSpaceOnUse">
<stop stop-color="#A099FF"/>
<stop offset="1" stop-color="#6415FF"/>
</linearGradient>
<clipPath id="clip0_37_589">
<rect width="391.328" height="313.062" fill="white"/>
</clipPath>
</defs>
</svg>
