<svg width="411" height="329" viewBox="0 0 411 329" fill="none" xmlns="http://www.w3.org/2000/svg">
<g clip-path="url(#clip0_33_1912)">
<path d="M410.664 0H0V328.531H410.664V0Z" fill="#16141C"/>
<path opacity="0.6" d="M63.1316 63.7663L30.9964 70.5969C28.7779 71.0684 27.3618 73.2491 27.8333 75.4676L34.6639 107.603C35.1354 109.821 37.3161 111.237 39.5346 110.766L71.6698 103.935C73.8883 103.464 75.3044 101.283 74.8329 99.0646L68.0023 66.9294C67.5308 64.7109 65.3501 63.2948 63.1316 63.7663Z" fill="#E74646"/>
<path opacity="0.5" d="M56.4658 164.266C67.806 164.266 76.999 155.073 76.999 143.732C76.999 132.392 67.806 123.199 56.4658 123.199C45.1256 123.199 35.9326 132.392 35.9326 143.732C35.9326 155.073 45.1256 164.266 56.4658 164.266Z" fill="#E74646"/>
<path opacity="0.6" d="M74.8263 198.216L32.1262 192.215C29.8803 191.899 27.8037 193.464 27.488 195.71L24.3446 218.077C24.029 220.323 25.5938 222.399 27.8397 222.715L70.5398 228.716C72.7858 229.032 74.8624 227.467 75.178 225.221L78.3215 202.854C78.6371 200.608 77.0723 198.531 74.8263 198.216Z" fill="#E74646"/>
<path opacity="0.5" d="M71.866 274.632C81.7886 274.632 89.8325 266.588 89.8325 256.665C89.8325 246.742 81.7886 238.698 71.866 238.698C61.9433 238.698 53.8994 246.742 53.8994 256.665C53.8994 266.588 61.9433 274.632 71.866 274.632Z" fill="#E74646"/>
<path opacity="0.9" d="M205.332 88.0659L236.132 118.066V210.465L205.332 240.465L174.532 210.465V118.066L205.332 88.0659Z" fill="url(#paint0_linear_33_1912)"/>
<path opacity="0.8" d="M324.425 71.8662H291.571C289.303 71.8662 287.465 73.7048 287.465 75.9729V108.826C287.465 111.094 289.303 112.933 291.571 112.933H324.425C326.693 112.933 328.531 111.094 328.531 108.826V75.9729C328.531 73.7048 326.693 71.8662 324.425 71.8662Z" fill="#0DBA38"/>
<path opacity="0.8" d="M324.425 128.333H291.571C289.303 128.333 287.465 130.171 287.465 132.439V165.292C287.465 167.56 289.303 169.399 291.571 169.399H324.425C326.693 169.399 328.531 167.56 328.531 165.292V132.439C328.531 130.171 326.693 128.333 324.425 128.333Z" fill="#0DBA38"/>
<path opacity="0.8" d="M324.425 184.799H291.571C289.303 184.799 287.465 186.637 287.465 188.905V221.759C287.465 224.027 289.303 225.865 291.571 225.865H324.425C326.693 225.865 328.531 224.027 328.531 221.759V188.905C328.531 186.637 326.693 184.799 324.425 184.799Z" fill="#0DBA38"/>
<path opacity="0.8" d="M324.425 241.265H291.571C289.303 241.265 287.465 243.104 287.465 245.372V278.225C287.465 280.493 289.303 282.332 291.571 282.332H324.425C326.693 282.332 328.531 280.493 328.531 278.225V245.372C328.531 243.104 326.693 241.265 324.425 241.265Z" fill="#0DBA38"/>
</g>
<defs>
<linearGradient id="paint0_linear_33_1912" x1="174.532" y1="97.5327" x2="174.532" y2="14470.8" gradientUnits="userSpaceOnUse">
<stop stop-color="#0086E6"/>
<stop offset="1" stop-color="#0DBA38"/>
</linearGradient>
<clipPath id="clip0_33_1912">
<rect width="410.664" height="328.531" fill="white"/>
</clipPath>
</defs>
</svg>
