<svg width="392" height="314" viewBox="0 0 392 314" fill="none" xmlns="http://www.w3.org/2000/svg">
<g clip-path="url(#clip0_25_953)">
<path d="M391.328 0H0V313.062H391.328V0Z" fill="#0DBA38"/>
<path d="M180.989 39.1328H39.1328C33.7297 39.1328 29.3496 43.5129 29.3496 48.916V264.146C29.3496 269.55 33.7297 273.93 39.1328 273.93H180.989C186.392 273.93 190.772 269.55 190.772 264.146V48.916C190.772 43.5129 186.392 39.1328 180.989 39.1328Z" fill="black" fill-opacity="0.15"/>
<path d="M352.195 39.1328H210.339C204.936 39.1328 200.556 43.5129 200.556 48.916V141.856C200.556 147.26 204.936 151.64 210.339 151.64H352.195C357.598 151.64 361.979 147.26 361.979 141.856V48.916C361.979 43.5129 357.598 39.1328 352.195 39.1328Z" fill="black" fill-opacity="0.2"/>
<path d="M269.038 161.423H210.339C204.936 161.423 200.556 165.803 200.556 171.206V264.146C200.556 269.55 204.936 273.93 210.339 273.93H269.038C274.441 273.93 278.821 269.55 278.821 264.146V171.206C278.821 165.803 274.441 161.423 269.038 161.423Z" fill="black" fill-opacity="0.15"/>
<path d="M352.195 161.423H293.496C288.093 161.423 283.713 165.803 283.713 171.206V264.146C283.713 269.55 288.093 273.93 293.496 273.93H352.195C357.598 273.93 361.979 269.55 361.979 264.146V171.206C361.979 165.803 357.598 161.423 352.195 161.423Z" fill="black" fill-opacity="0.2"/>
</g>
<defs>
<clipPath id="clip0_25_953">
<rect width="391.328" height="313.062" fill="white"/>
</clipPath>
</defs>
</svg>
