<svg width="392" height="314" viewBox="0 0 392 314" fill="none" xmlns="http://www.w3.org/2000/svg">
<g clip-path="url(#clip0_25_1089)">
<path d="M391.332 0H0.00390625V313.062H391.332V0Z" fill="#0086E6"/>
<path d="M306.218 39.1328H85.1178C78.634 39.1328 73.3779 44.3889 73.3779 50.8727V262.19C73.3779 268.674 78.634 273.93 85.1178 273.93H306.218C312.702 273.93 317.958 268.674 317.958 262.19V50.8727C317.958 44.3889 312.702 39.1328 306.218 39.1328Z" fill="#24292E"/>
<path d="M90.4982 67.5041C92.6595 67.5041 94.4115 65.7521 94.4115 63.5908C94.4115 61.4296 92.6595 59.6776 90.4982 59.6776C88.337 59.6776 86.585 61.4296 86.585 63.5908C86.585 65.7521 88.337 67.5041 90.4982 67.5041Z" fill="#E74646"/>
<path d="M105.173 67.5041C107.334 67.5041 109.086 65.7521 109.086 63.5908C109.086 61.4296 107.334 59.6776 105.173 59.6776C103.012 59.6776 101.26 61.4296 101.26 63.5908C101.26 65.7521 103.012 67.5041 105.173 67.5041Z" fill="#FCB23B"/>
<path d="M119.848 67.5041C122.009 67.5041 123.761 65.7521 123.761 63.5908C123.761 61.4296 122.009 59.6776 119.848 59.6776C117.687 59.6776 115.935 61.4296 115.935 63.5908C115.935 65.7521 117.687 67.5041 119.848 67.5041Z" fill="#0DBA38"/>
<path d="M189.798 88.0488H93.9227C90.6808 88.0488 88.0527 90.6769 88.0527 93.9187V250.939C88.0527 254.181 90.6808 256.809 93.9227 256.809H189.798C193.04 256.809 195.668 254.181 195.668 250.939V93.9187C195.668 90.6769 193.04 88.0488 189.798 88.0488Z" fill="white"/>
<path d="M302.305 88.0488H211.321C208.079 88.0488 205.451 90.6769 205.451 93.9187V250.939C205.451 254.181 208.079 256.809 211.321 256.809H302.305C305.547 256.809 308.175 254.181 308.175 250.939V93.9187C308.175 90.6769 305.547 88.0488 302.305 88.0488Z" fill="#E6E6E6"/>
<path d="M178.547 107.615H105.173C101.121 107.615 97.8359 110.9 97.8359 114.953C97.8359 119.005 101.121 122.29 105.173 122.29H178.547C182.6 122.29 185.885 119.005 185.885 114.953C185.885 110.9 182.6 107.615 178.547 107.615Z" fill="#0086E6"/>
<path d="M158.981 134.519H105.173C101.121 134.519 97.8359 137.804 97.8359 141.856C97.8359 145.909 101.121 149.194 105.173 149.194H158.981C163.033 149.194 166.318 145.909 166.318 141.856C166.318 137.804 163.033 134.519 158.981 134.519Z" fill="#A099FF"/>
<path d="M168.764 161.423H105.173C101.121 161.423 97.8359 164.708 97.8359 168.76C97.8359 172.813 101.121 176.098 105.173 176.098H168.764C172.816 176.098 176.102 172.813 176.102 168.76C176.102 164.708 172.816 161.423 168.764 161.423Z" fill="#0DBA38"/>
<path d="M149.198 188.327H105.173C101.121 188.327 97.8359 191.612 97.8359 195.664C97.8359 199.716 101.121 203.001 105.173 203.001H149.198C153.25 203.001 156.535 199.716 156.535 195.664C156.535 191.612 153.25 188.327 149.198 188.327Z" fill="#FFDD9E"/>
<path d="M134.523 215.23H105.173C101.121 215.23 97.8359 218.516 97.8359 222.568C97.8359 226.62 101.121 229.905 105.173 229.905H134.523C138.575 229.905 141.86 226.62 141.86 222.568C141.86 218.516 138.575 215.23 134.523 215.23Z" fill="#E74646"/>
<path d="M291.054 107.615H222.572C218.519 107.615 215.234 110.9 215.234 114.953C215.234 119.005 218.519 122.29 222.572 122.29H291.054C295.107 122.29 298.392 119.005 298.392 114.953C298.392 110.9 295.107 107.615 291.054 107.615Z" fill="#D6D6D6"/>
<path d="M281.271 134.519H222.572C218.519 134.519 215.234 137.804 215.234 141.856C215.234 145.909 218.519 149.194 222.572 149.194H281.271C285.323 149.194 288.608 145.909 288.608 141.856C288.608 137.804 285.323 134.519 281.271 134.519Z" fill="#D6D6D6"/>
<path d="M271.488 161.423H222.572C218.519 161.423 215.234 164.708 215.234 168.76C215.234 172.813 218.519 176.098 222.572 176.098H271.488C275.54 176.098 278.825 172.813 278.825 168.76C278.825 164.708 275.54 161.423 271.488 161.423Z" fill="#D6D6D6"/>
</g>
<defs>
<clipPath id="clip0_25_1089">
<rect width="391.336" height="313.062" fill="white"/>
</clipPath>
</defs>
</svg>
