<svg width="411" height="329" viewBox="0 0 411 329" fill="none" xmlns="http://www.w3.org/2000/svg">
<g clip-path="url(#clip0_27_510)">
<path d="M410.664 0H0V328.531H410.664V0Z" fill="#16141C"/>
<path opacity="0.3" d="M61.5996 133.466C78.6099 133.466 92.3994 119.676 92.3994 102.666C92.3994 85.6558 78.6099 71.8662 61.5996 71.8662C44.5893 71.8662 30.7998 85.6558 30.7998 102.666C30.7998 119.676 44.5893 133.466 61.5996 133.466Z" fill="#E74646"/>
<path opacity="0.6" d="M61.5994 120.633C71.522 120.633 79.5659 112.589 79.5659 102.666C79.5659 92.7434 71.522 84.6995 61.5994 84.6995C51.6767 84.6995 43.6328 92.7434 43.6328 102.666C43.6328 112.589 51.6767 120.633 61.5994 120.633Z" fill="#E74646"/>
<path opacity="0.3" d="M105.49 47.14L33.5932 66.4047C28.8009 67.6888 25.957 72.6146 27.2411 77.4069C28.5251 82.1992 33.451 85.0431 38.2433 83.7591L110.14 64.4944C114.932 63.2103 117.776 58.2845 116.492 53.4922C115.208 48.6999 110.282 45.856 105.49 47.14Z" fill="#666666"/>
<path opacity="0.3" d="M110.139 133.138L38.2426 113.873C33.4503 112.589 28.5245 115.433 27.2404 120.225C25.9563 125.017 28.8002 129.943 33.5925 131.227L105.489 150.492C110.281 151.776 115.207 148.932 116.491 144.14C117.775 139.348 114.932 134.422 110.139 133.138Z" fill="#666666"/>
<path opacity="0.3" d="M106.957 188.739L33.6554 201.664C28.7694 202.526 25.507 207.185 26.3685 212.071C27.23 216.957 31.8893 220.22 36.7753 219.358L110.077 206.433C114.963 205.571 118.226 200.912 117.364 196.026C116.503 191.14 111.843 187.878 106.957 188.739Z" fill="#666666"/>
<path opacity="0.3" d="M110.137 264.599L37.3309 249.124C32.478 248.092 27.7077 251.19 26.6762 256.043C25.6447 260.896 28.7426 265.666 33.5955 266.698L106.402 282.173C111.255 283.205 116.025 280.107 117.056 275.254C118.088 270.401 114.99 265.631 110.137 264.599Z" fill="#666666"/>
<path opacity="0.4" d="M218.165 76.9995H151.432C147.18 76.9995 143.732 80.4469 143.732 84.6995C143.732 88.952 147.18 92.3994 151.432 92.3994H218.165C222.418 92.3994 225.865 88.952 225.865 84.6995C225.865 80.4469 222.418 76.9995 218.165 76.9995Z" fill="#999999"/>
<path opacity="0.5" d="M218.165 138.599H151.432C147.18 138.599 143.732 142.047 143.732 146.299C143.732 150.552 147.18 153.999 151.432 153.999H218.165C222.418 153.999 225.865 150.552 225.865 146.299C225.865 142.047 222.418 138.599 218.165 138.599Z" fill="#999999"/>
<path opacity="0.4" d="M218.165 200.199H151.432C147.18 200.199 143.732 203.646 143.732 207.899C143.732 212.151 147.18 215.599 151.432 215.599H218.165C222.418 215.599 225.865 212.151 225.865 207.899C225.865 203.646 222.418 200.199 218.165 200.199Z" fill="#999999"/>
<path d="M349.064 128.333H282.332C262.486 128.333 246.398 144.42 246.398 164.266C246.398 184.111 262.486 200.199 282.332 200.199H349.064C368.91 200.199 384.998 184.111 384.998 164.266C384.998 144.42 368.91 128.333 349.064 128.333Z" fill="url(#paint0_linear_27_510)"/>
<path opacity="0.8" d="M354.198 148.866H277.199C268.694 148.866 261.799 155.76 261.799 164.266C261.799 172.771 268.694 179.666 277.199 179.666H354.198C362.703 179.666 369.598 172.771 369.598 164.266C369.598 155.76 362.703 148.866 354.198 148.866Z" fill="#0DBA38"/>
<path opacity="0.4" d="M349.065 187.365C361.822 187.365 372.165 177.023 372.165 164.266C372.165 151.508 361.822 141.166 349.065 141.166C336.307 141.166 325.965 151.508 325.965 164.266C325.965 177.023 336.307 187.365 349.065 187.365Z" fill="#0DBA38"/>
<path opacity="0.8" d="M349.065 177.099C356.152 177.099 361.898 171.353 361.898 164.266C361.898 157.178 356.152 151.432 349.065 151.432C341.977 151.432 336.231 157.178 336.231 164.266C336.231 171.353 341.977 177.099 349.065 177.099Z" fill="#0DBA38"/>
</g>
<defs>
<linearGradient id="paint0_linear_27_510" x1="246.398" y1="128.333" x2="14106.3" y2="128.333" gradientUnits="userSpaceOnUse">
<stop stop-color="#FCB23B" stop-opacity="0.6"/>
<stop offset="1" stop-color="#FFDD9E" stop-opacity="0.9"/>
</linearGradient>
<clipPath id="clip0_27_510">
<rect width="410.664" height="328.531" fill="white"/>
</clipPath>
</defs>
</svg>
