<svg width="392" height="314" viewBox="0 0 392 314" fill="none" xmlns="http://www.w3.org/2000/svg">
<g clip-path="url(#clip0_25_1200)">
<path d="M391.332 0H0.00390625V313.062H391.332V0Z" fill="#16141C"/>
<path d="M97.8359 97.832L195.668 136.965" stroke="#FFDD9E" stroke-opacity="0.3" stroke-width="1.46748"/>
<path d="M195.668 136.965L293.5 97.832" stroke="#FFDD9E" stroke-opacity="0.3" stroke-width="1.46748"/>
<path d="M97.8359 97.832L122.294 205.447" stroke="#FFDD9E" stroke-opacity="0.3" stroke-width="1.46748"/>
<path d="M293.5 97.832L269.042 205.447" stroke="#FFDD9E" stroke-opacity="0.3" stroke-width="1.46748"/>
<path d="M122.294 205.447L195.668 136.965" stroke="#FFDD9E" stroke-opacity="0.3" stroke-width="1.46748"/>
<path d="M269.042 205.447L195.668 136.965" stroke="#FFDD9E" stroke-opacity="0.3" stroke-width="1.46748"/>
<path d="M122.294 205.447H269.042" stroke="#FFDD9E" stroke-opacity="0.3" stroke-width="1.46748"/>
<path opacity="0.9" d="M97.8359 122.29C111.344 122.29 122.294 111.34 122.294 97.832C122.294 84.3242 111.344 73.374 97.8359 73.374C84.3282 73.374 73.3779 84.3242 73.3779 97.832C73.3779 111.34 84.3282 122.29 97.8359 122.29Z" fill="#0086E6"/>
<path opacity="0.9" d="M293.5 122.29C307.008 122.29 317.958 111.34 317.958 97.832C317.958 84.3242 307.008 73.374 293.5 73.374C279.992 73.374 269.042 84.3242 269.042 97.832C269.042 111.34 279.992 122.29 293.5 122.29Z" fill="#A099FF"/>
<path opacity="0.9" d="M122.294 225.014C133.1 225.014 141.86 216.253 141.86 205.447C141.86 194.641 133.1 185.881 122.294 185.881C111.488 185.881 102.728 194.641 102.728 205.447C102.728 216.253 111.488 225.014 122.294 225.014Z" fill="#0DBA38"/>
<path opacity="0.9" d="M269.042 225.014C279.848 225.014 288.608 216.253 288.608 205.447C288.608 194.641 279.848 185.881 269.042 185.881C258.236 185.881 249.476 194.641 249.476 205.447C249.476 216.253 258.236 225.014 269.042 225.014Z" fill="#FFDD9E"/>
<path opacity="0.95" d="M195.668 171.206C214.579 171.206 229.909 155.876 229.909 136.965C229.909 118.054 214.579 102.724 195.668 102.724C176.757 102.724 161.427 118.054 161.427 136.965C161.427 155.876 176.757 171.206 195.668 171.206Z" fill="#FFD3D9"/>
<path opacity="0.7" d="M58.7036 75.8198C65.4575 75.8198 70.9326 70.3447 70.9326 63.5908C70.9326 56.8369 65.4575 51.3618 58.7036 51.3618C51.9497 51.3618 46.4746 56.8369 46.4746 63.5908C46.4746 70.3447 51.9497 75.8198 58.7036 75.8198Z" fill="#E74646"/>
<path opacity="0.7" d="M332.633 75.8198C339.387 75.8198 344.862 70.3447 344.862 63.5908C344.862 56.8369 339.387 51.3618 332.633 51.3618C325.879 51.3618 320.404 56.8369 320.404 63.5908C320.404 70.3447 325.879 75.8198 332.633 75.8198Z" fill="#0086E6"/>
<path opacity="0.7" d="M73.3779 259.255C81.4826 259.255 88.0527 252.685 88.0527 244.58C88.0527 236.475 81.4826 229.905 73.3779 229.905C65.2733 229.905 58.7031 236.475 58.7031 244.58C58.7031 252.685 65.2733 259.255 73.3779 259.255Z" fill="#A099FF"/>
<path opacity="0.7" d="M317.958 259.255C326.063 259.255 332.633 252.685 332.633 244.58C332.633 236.475 326.063 229.905 317.958 229.905C309.853 229.905 303.283 236.475 303.283 244.58C303.283 252.685 309.853 259.255 317.958 259.255Z" fill="#0DBA38"/>
<path opacity="0.6" d="M195.668 58.6992C201.071 58.6992 205.451 54.3191 205.451 48.916C205.451 43.5129 201.071 39.1328 195.668 39.1328C190.265 39.1328 185.885 43.5129 185.885 48.916C185.885 54.3191 190.265 58.6992 195.668 58.6992Z" fill="#FFDD9E"/>
<path opacity="0.6" d="M195.668 266.592C202.422 266.592 207.897 261.117 207.897 254.363C207.897 247.609 202.422 242.134 195.668 242.134C188.915 242.134 183.439 247.609 183.439 254.363C183.439 261.117 188.915 266.592 195.668 266.592Z" fill="#0086E6"/>
</g>
<defs>
<clipPath id="clip0_25_1200">
<rect width="391.336" height="313.062" fill="white"/>
</clipPath>
</defs>
</svg>
