<svg width="392" height="314" viewBox="0 0 392 314" fill="none" xmlns="http://www.w3.org/2000/svg">
<g clip-path="url(#clip0_25_1034)">
<path d="M391.332 0H0.00390625V313.062H391.332V0Z" fill="#24292E"/>
<path d="M106.641 53.8076H54.7898C51.548 53.8076 48.9199 56.4357 48.9199 59.6775V140.878C48.9199 144.12 51.548 146.748 54.7898 146.748H106.641C109.883 146.748 112.511 144.12 112.511 140.878V59.6775C112.511 56.4357 109.883 53.8076 106.641 53.8076Z" fill="#0DBA38"/>
<path d="M180.015 53.8076H128.164C124.922 53.8076 122.294 56.4357 122.294 59.6775V140.878C122.294 144.12 124.922 146.748 128.164 146.748H180.015C183.257 146.748 185.885 144.12 185.885 140.878V59.6775C185.885 56.4357 183.257 53.8076 180.015 53.8076Z" fill="#0DBA38"/>
<path d="M253.389 53.8076H201.538C198.296 53.8076 195.668 56.4357 195.668 59.6775V140.878C195.668 144.12 198.296 146.748 201.538 146.748H253.389C256.631 146.748 259.259 144.12 259.259 140.878V59.6775C259.259 56.4357 256.631 53.8076 253.389 53.8076Z" fill="#E74646"/>
<path d="M326.763 53.8076H274.912C271.67 53.8076 269.042 56.4357 269.042 59.6775V140.878C269.042 144.12 271.67 146.748 274.912 146.748H326.763C330.005 146.748 332.633 144.12 332.633 140.878V59.6775C332.633 56.4357 330.005 53.8076 326.763 53.8076Z" fill="#0DBA38"/>
<path d="M106.641 161.423H54.7898C51.548 161.423 48.9199 164.051 48.9199 167.293V248.493C48.9199 251.735 51.548 254.363 54.7898 254.363H106.641C109.883 254.363 112.511 251.735 112.511 248.493V167.293C112.511 164.051 109.883 161.423 106.641 161.423Z" fill="#0DBA38"/>
<path d="M180.015 161.423H128.164C124.922 161.423 122.294 164.051 122.294 167.293V248.493C122.294 251.735 124.922 254.363 128.164 254.363H180.015C183.257 254.363 185.885 251.735 185.885 248.493V167.293C185.885 164.051 183.257 161.423 180.015 161.423Z" fill="#0086E6"/>
<path d="M253.389 161.423H201.538C198.296 161.423 195.668 164.051 195.668 167.293V248.493C195.668 251.735 198.296 254.363 201.538 254.363H253.389C256.631 254.363 259.259 251.735 259.259 248.493V167.293C259.259 164.051 256.631 161.423 253.389 161.423Z" fill="#0DBA38"/>
<path d="M326.763 161.423H274.912C271.67 161.423 269.042 164.051 269.042 167.293V248.493C269.042 251.735 271.67 254.363 274.912 254.363H326.763C330.005 254.363 332.633 251.735 332.633 248.493V167.293C332.633 164.051 330.005 161.423 326.763 161.423Z" fill="#0DBA38"/>
</g>
<defs>
<clipPath id="clip0_25_1034">
<rect width="391.336" height="313.062" fill="white"/>
</clipPath>
</defs>
</svg>
