<svg width="392" height="314" viewBox="0 0 392 314" fill="none" xmlns="http://www.w3.org/2000/svg">
<g clip-path="url(#clip0_25_1014)">
<path d="M391.332 0H0.00390625V313.062H391.332V0Z" fill="url(#paint0_linear_25_1014)"/>
<path d="M330.676 29.3496H60.6598C54.176 29.3496 48.9199 34.6057 48.9199 41.0895V271.973C48.9199 278.457 54.176 283.713 60.6598 283.713H330.676C337.16 283.713 342.416 278.457 342.416 271.973V41.0895C342.416 34.6057 337.16 29.3496 330.676 29.3496Z" fill="#24292E"/>
<path d="M66.0402 55.2751C68.2015 55.2751 69.9535 53.5231 69.9535 51.3618C69.9535 49.2006 68.2015 47.4485 66.0402 47.4485C63.879 47.4485 62.127 49.2006 62.127 51.3618C62.127 53.5231 63.879 55.2751 66.0402 55.2751Z" fill="#E74646"/>
<path d="M80.715 55.2751C82.8763 55.2751 84.6283 53.5231 84.6283 51.3618C84.6283 49.2006 82.8763 47.4485 80.715 47.4485C78.5538 47.4485 76.8018 49.2006 76.8018 51.3618C76.8018 53.5231 78.5538 55.2751 80.715 55.2751Z" fill="#FCB23B"/>
<path d="M95.3898 55.2751C97.5511 55.2751 99.3031 53.5231 99.3031 51.3618C99.3031 49.2006 97.5511 47.4485 95.3898 47.4485C93.2286 47.4485 91.4766 49.2006 91.4766 51.3618C91.4766 53.5231 93.2286 55.2751 95.3898 55.2751Z" fill="#0DBA38"/>
<path d="M321.871 75.8198H69.4646C66.2228 75.8198 63.5947 78.4479 63.5947 81.6897V263.168C63.5947 266.41 66.2228 269.038 69.4646 269.038H321.871C325.113 269.038 327.741 266.41 327.741 263.168V81.6897C327.741 78.4479 325.113 75.8198 321.871 75.8198Z" fill="white"/>
<path d="M309.153 95.3862H228.931C224.068 95.3862 220.126 99.3283 220.126 104.191V123.268C220.126 128.131 224.068 132.073 228.931 132.073H309.153C314.016 132.073 317.958 128.131 317.958 123.268V104.191C317.958 99.3283 314.016 95.3862 309.153 95.3862Z" fill="#0086E6"/>
<path d="M211.321 146.748H82.1828C77.32 146.748 73.3779 150.69 73.3779 155.553V174.63C73.3779 179.493 77.32 183.435 82.1828 183.435H211.321C216.184 183.435 220.126 179.493 220.126 174.63V155.553C220.126 150.69 216.184 146.748 211.321 146.748Z" fill="#E6E6E6"/>
<path d="M186.863 198.11H82.1828C77.32 198.11 73.3779 202.052 73.3779 206.915V225.992C73.3779 230.855 77.32 234.797 82.1828 234.797H186.863C191.726 234.797 195.668 230.855 195.668 225.992V206.915C195.668 202.052 191.726 198.11 186.863 198.11Z" fill="#E6E6E6"/>
</g>
<defs>
<linearGradient id="paint0_linear_25_1014" x1="0.00390625" y1="0" x2="0.00390625" y2="31306.3" gradientUnits="userSpaceOnUse">
<stop stop-color="#FFDD9E"/>
<stop offset="1" stop-color="#FCB23B"/>
</linearGradient>
<clipPath id="clip0_25_1014">
<rect width="391.336" height="313.062" fill="white"/>
</clipPath>
</defs>
</svg>
