<svg width="411" height="329" viewBox="0 0 411 329" fill="none" xmlns="http://www.w3.org/2000/svg">
<g clip-path="url(#clip0_32_1273)">
<path d="M410.664 0H0V328.531H410.664V0Z" fill="#DFDFDF"/>
<path d="M153.999 76.9995H51.333C45.6629 76.9995 41.0664 81.596 41.0664 87.2661V241.265C41.0664 246.935 45.6629 251.532 51.333 251.532H153.999C159.669 251.532 164.266 246.935 164.266 241.265V87.2661C164.266 81.596 159.669 76.9995 153.999 76.9995Z" fill="white" stroke="#CCCCCC" stroke-width="1.02666"/>
<path d="M145.785 97.5327H59.5458C57.8448 97.5327 56.4658 98.9117 56.4658 100.613V109.853C56.4658 111.554 57.8448 112.933 59.5458 112.933H145.785C147.486 112.933 148.865 111.554 148.865 109.853V100.613C148.865 98.9117 147.486 97.5327 145.785 97.5327Z" fill="#E8E8E8"/>
<path d="M68.5699 99.5462V102.626H67.6074V99.5462H68.5699ZM70.8099 99.5462V102.626H69.8474V99.5462H70.8099ZM72.7863 108.506V99.5462H73.8713V103.536H78.6488V99.5462H79.7337V108.506H78.6488V104.499H73.8713V108.506H72.7863ZM84.5834 108.646C83.9359 108.646 83.3774 108.503 82.9078 108.217C82.4411 107.929 82.0809 107.526 81.8272 107.01C81.5763 106.491 81.4509 105.887 81.4509 105.199C81.4509 104.51 81.5763 103.904 81.8272 103.379C82.0809 102.851 82.4338 102.439 82.8859 102.145C83.3409 101.847 83.8717 101.699 84.4784 101.699C84.8284 101.699 85.174 101.757 85.5153 101.874C85.8565 101.99 86.1671 102.18 86.4471 102.442C86.7271 102.702 86.9503 103.046 87.1165 103.475C87.2828 103.904 87.3659 104.432 87.3659 105.059V105.496H82.1859V104.604H86.3159C86.3159 104.224 86.2401 103.886 86.0884 103.589C85.9396 103.291 85.7267 103.056 85.4496 102.884C85.1755 102.712 84.8517 102.626 84.4784 102.626C84.0672 102.626 83.7113 102.728 83.4109 102.932C83.1134 103.134 82.8845 103.396 82.724 103.72C82.5636 104.044 82.4834 104.391 82.4834 104.761V105.356C82.4834 105.864 82.5709 106.294 82.7459 106.647C82.9238 106.997 83.1703 107.264 83.4853 107.447C83.8003 107.628 84.1663 107.719 84.5834 107.719C84.8547 107.719 85.0996 107.681 85.3184 107.605C85.5401 107.526 85.7311 107.409 85.8915 107.255C86.0519 107.097 86.1759 106.902 86.2634 106.669L87.2609 106.949C87.1559 107.287 86.9794 107.584 86.7315 107.841C86.4836 108.095 86.1774 108.293 85.8128 108.436C85.4482 108.576 85.0384 108.646 84.5834 108.646ZM89.969 99.5462V108.506H88.9365V99.5462H89.969ZM92.8926 99.5462V108.506H91.8601V99.5462H92.8926ZM97.5136 108.646C96.907 108.646 96.3747 108.502 95.9168 108.213C95.4618 107.924 95.1059 107.52 94.8493 107.001C94.5955 106.482 94.4687 105.875 94.4687 105.181C94.4687 104.481 94.5955 103.87 94.8493 103.348C95.1059 102.826 95.4618 102.421 95.9168 102.132C96.3747 101.843 96.907 101.699 97.5136 101.699C98.1203 101.699 98.6511 101.843 99.1061 102.132C99.564 102.421 99.9199 102.826 100.174 103.348C100.43 103.87 100.559 104.481 100.559 105.181C100.559 105.875 100.43 106.482 100.174 107.001C99.9199 107.52 99.564 107.924 99.1061 108.213C98.6511 108.502 98.1203 108.646 97.5136 108.646ZM97.5136 107.719C97.9745 107.719 98.3536 107.6 98.6511 107.364C98.9486 107.128 99.1688 106.817 99.3117 106.432C99.4547 106.047 99.5261 105.63 99.5261 105.181C99.5261 104.732 99.4547 104.313 99.3117 103.926C99.1688 103.538 98.9486 103.224 98.6511 102.985C98.3536 102.746 97.9745 102.626 97.5136 102.626C97.0528 102.626 96.6736 102.746 96.3761 102.985C96.0786 103.224 95.8584 103.538 95.7155 103.926C95.5726 104.313 95.5011 104.732 95.5011 105.181C95.5011 105.63 95.5726 106.047 95.7155 106.432C95.8584 106.817 96.0786 107.128 96.3761 107.364C96.6736 107.6 97.0528 107.719 97.5136 107.719ZM103.027 99.5462V102.626H102.065V99.5462H103.027ZM105.267 99.5462V102.626H104.305V99.5462H105.267Z" fill="#666666"/>
<path d="M145.785 128.333H59.5458C57.8448 128.333 56.4658 129.711 56.4658 131.413V140.652C56.4658 142.353 57.8448 143.732 59.5458 143.732H145.785C147.486 143.732 148.865 142.353 148.865 140.652V131.413C148.865 129.711 147.486 128.333 145.785 128.333Z" fill="#E8E8E8"/>
<path d="M68.5699 130.346V133.426H67.6074V130.346H68.5699ZM72.176 139.306L69.726 130.346H70.8285L72.701 137.643H72.7885L74.696 130.346H75.921L77.8284 137.643H77.9159L79.7884 130.346H80.8909L78.4409 139.306H77.3209L75.3435 132.166H75.2735L73.296 139.306H72.176ZM84.2072 139.446C83.6005 139.446 83.0682 139.302 82.6103 139.013C82.1553 138.724 81.7995 138.32 81.5428 137.801C81.289 137.282 81.1622 136.675 81.1622 135.981C81.1622 135.281 81.289 134.67 81.5428 134.148C81.7995 133.626 82.1553 133.22 82.6103 132.932C83.0682 132.643 83.6005 132.498 84.2072 132.498C84.8138 132.498 85.3446 132.643 85.7996 132.932C86.2576 133.22 86.6134 133.626 86.8671 134.148C87.1238 134.67 87.2521 135.281 87.2521 135.981C87.2521 136.675 87.1238 137.282 86.8671 137.801C86.6134 138.32 86.2576 138.724 85.7996 139.013C85.3446 139.302 84.8138 139.446 84.2072 139.446ZM84.2072 138.518C84.668 138.518 85.0472 138.4 85.3446 138.164C85.6421 137.928 85.8624 137.617 86.0053 137.232C86.1482 136.847 86.2196 136.43 86.2196 135.981C86.2196 135.532 86.1482 135.113 86.0053 134.725C85.8624 134.337 85.6421 134.024 85.3446 133.785C85.0472 133.546 84.668 133.426 84.2072 133.426C83.7463 133.426 83.3672 133.546 83.0697 133.785C82.7722 134.024 82.552 134.337 82.409 134.725C82.2661 135.113 82.1947 135.532 82.1947 135.981C82.1947 136.43 82.2661 136.847 82.409 137.232C82.552 137.617 82.7722 137.928 83.0697 138.164C83.3672 138.4 83.7463 138.518 84.2072 138.518ZM88.8282 139.306V132.586H89.8257V133.601H89.8957C90.0182 133.268 90.2399 132.999 90.5607 132.792C90.8815 132.584 91.2432 132.481 91.6457 132.481C91.7215 132.481 91.8163 132.482 91.9301 132.485C92.0438 132.488 92.1299 132.493 92.1882 132.498V133.548C92.1532 133.54 92.073 133.527 91.9476 133.509C91.8251 133.489 91.6953 133.478 91.5582 133.478C91.2315 133.478 90.9399 133.547 90.6832 133.684C90.4295 133.818 90.2282 134.005 90.0795 134.244C89.9336 134.48 89.8607 134.75 89.8607 135.053V139.306H88.8282ZM94.4446 130.346V139.306H93.4121V130.346H94.4446ZM98.8732 139.446C98.3132 139.446 97.8188 139.304 97.39 139.022C96.9613 138.736 96.6259 138.333 96.3838 137.814C96.1417 137.292 96.0207 136.675 96.0207 135.963C96.0207 135.258 96.1417 134.645 96.3838 134.126C96.6259 133.607 96.9628 133.206 97.3944 132.923C97.8261 132.64 98.3248 132.498 98.8907 132.498C99.3282 132.498 99.6738 132.571 99.9275 132.717C100.184 132.86 100.38 133.023 100.514 133.207C100.651 133.388 100.757 133.537 100.833 133.653H100.921V130.346H101.953V139.306H100.956V138.273H100.833C100.757 138.396 100.649 138.55 100.509 138.737C100.369 138.921 100.17 139.086 99.91 139.232C99.6504 139.374 99.3048 139.446 98.8732 139.446ZM99.0132 138.518C99.4273 138.518 99.7773 138.41 100.063 138.195C100.349 137.976 100.566 137.674 100.715 137.289C100.864 136.901 100.938 136.453 100.938 135.946C100.938 135.444 100.865 135.005 100.719 134.629C100.574 134.25 100.358 133.955 100.072 133.745C99.7861 133.532 99.4332 133.426 99.0132 133.426C98.5757 133.426 98.2111 133.538 97.9194 133.763C97.6307 133.984 97.4134 134.286 97.2675 134.668C97.1246 135.048 97.0532 135.473 97.0532 135.946C97.0532 136.424 97.1261 136.859 97.2719 137.25C97.4207 137.638 97.6394 137.947 97.9282 138.177C98.2198 138.405 98.5815 138.518 99.0132 138.518ZM104.88 130.346V133.426H103.918V130.346H104.88Z" fill="#666666"/>
<path d="M145.785 159.132H59.5458C57.8448 159.132 56.4658 160.511 56.4658 162.212V171.452C56.4658 173.153 57.8448 174.532 59.5458 174.532H145.785C147.486 174.532 148.865 173.153 148.865 171.452V162.212C148.865 160.511 147.486 159.132 145.785 159.132Z" fill="#E8E8E8"/>
<path d="M68.5699 161.146V164.226H67.6074V161.146H68.5699ZM70.8099 161.146V164.226H69.8474V161.146H70.8099ZM76.0413 167.306H77.2313L78.2288 168.618L78.4913 168.968L79.9787 170.946H78.7888L77.8088 169.633L77.5638 169.301L76.0413 167.306ZM80.3462 165.626C80.3462 166.571 80.1756 167.387 79.8344 168.076C79.4931 168.764 79.025 169.295 78.43 169.668C77.835 170.042 77.1554 170.228 76.3913 170.228C75.6271 170.228 74.9475 170.042 74.3525 169.668C73.7575 169.295 73.2894 168.764 72.9482 168.076C72.6069 167.387 72.4363 166.571 72.4363 165.626C72.4363 164.681 72.6069 163.864 72.9482 163.176C73.2894 162.487 73.7575 161.957 74.3525 161.583C74.9475 161.21 75.6271 161.023 76.3913 161.023C77.1554 161.023 77.835 161.21 78.43 161.583C79.025 161.957 79.4931 162.487 79.8344 163.176C80.1756 163.864 80.3462 164.681 80.3462 165.626ZM79.2962 165.626C79.2962 164.85 79.1665 164.195 78.9069 163.661C78.6502 163.128 78.3017 162.724 77.8613 162.45C77.4238 162.175 76.9338 162.038 76.3913 162.038C75.8488 162.038 75.3573 162.175 74.9169 162.45C74.4794 162.724 74.1309 163.128 73.8713 163.661C73.6146 164.195 73.4863 164.85 73.4863 165.626C73.4863 166.402 73.6146 167.056 73.8713 167.59C74.1309 168.124 74.4794 168.528 74.9169 168.802C75.3573 169.076 75.8488 169.213 76.3913 169.213C76.9338 169.213 77.4238 169.076 77.8613 168.802C78.3017 168.528 78.6502 168.124 78.9069 167.59C79.1665 167.056 79.2962 166.402 79.2962 165.626ZM86.2656 167.358V163.386H87.2981V170.106H86.2656V168.968H86.1956C86.0381 169.309 85.7931 169.6 85.4606 169.839C85.1281 170.075 84.7081 170.193 84.2006 170.193C83.7806 170.193 83.4073 170.101 83.0806 169.918C82.7539 169.731 82.4973 169.451 82.3106 169.078C82.1239 168.701 82.0306 168.227 82.0306 167.656V163.386H83.0631V167.586C83.0631 168.076 83.2002 168.467 83.4743 168.758C83.7514 169.05 84.1043 169.196 84.5331 169.196C84.7898 169.196 85.0508 169.13 85.3162 168.999C85.5845 168.868 85.8091 168.666 85.99 168.395C86.1737 168.124 86.2656 167.778 86.2656 167.358ZM91.9191 170.246C91.3125 170.246 90.7802 170.101 90.3223 169.813C89.8673 169.524 89.5114 169.12 89.2548 168.601C89.001 168.082 88.8742 167.475 88.8742 166.781C88.8742 166.081 89.001 165.47 89.2548 164.948C89.5114 164.426 89.8673 164.02 90.3223 163.731C90.7802 163.443 91.3125 163.298 91.9191 163.298C92.5258 163.298 93.0566 163.443 93.5116 163.731C93.9695 164.02 94.3254 164.426 94.5791 164.948C94.8358 165.47 94.9641 166.081 94.9641 166.781C94.9641 167.475 94.8358 168.082 94.5791 168.601C94.3254 169.12 93.9695 169.524 93.5116 169.813C93.0566 170.101 92.5258 170.246 91.9191 170.246ZM91.9191 169.318C92.38 169.318 92.7591 169.2 93.0566 168.964C93.3541 168.728 93.5743 168.417 93.7173 168.032C93.8602 167.647 93.9316 167.23 93.9316 166.781C93.9316 166.332 93.8602 165.913 93.7173 165.525C93.5743 165.137 93.3541 164.824 93.0566 164.584C92.7591 164.345 92.38 164.226 91.9191 164.226C91.4583 164.226 91.0791 164.345 90.7816 164.584C90.4841 164.824 90.2639 165.137 90.121 165.525C89.9781 165.913 89.9067 166.332 89.9067 166.781C89.9067 167.23 89.9781 167.647 90.121 168.032C90.2639 168.417 90.4841 168.728 90.7816 168.964C91.0791 169.2 91.4583 169.318 91.9191 169.318ZM99.4627 163.386V164.261H95.9802V163.386H99.4627ZM96.9952 161.776H98.0277V168.181C98.0277 168.472 98.07 168.691 98.1546 168.837C98.2421 168.98 98.3529 169.076 98.4871 169.126C98.6241 169.172 98.7685 169.196 98.9202 169.196C99.0339 169.196 99.1273 169.19 99.2002 169.178C99.2731 169.164 99.3314 169.152 99.3752 169.143L99.5852 170.071C99.5152 170.097 99.4175 170.123 99.2921 170.149C99.1666 170.179 99.0077 170.193 98.8152 170.193C98.5235 170.193 98.2377 170.131 97.9577 170.005C97.6806 169.88 97.4502 169.689 97.2664 169.432C97.0856 169.175 96.9952 168.852 96.9952 168.461V161.776ZM103.761 170.246C103.114 170.246 102.555 170.103 102.085 169.817C101.619 169.528 101.259 169.126 101.005 168.609C100.754 168.09 100.629 167.487 100.629 166.798C100.629 166.11 100.754 165.503 101.005 164.978C101.259 164.45 101.612 164.039 102.064 163.745C102.519 163.447 103.049 163.298 103.656 163.298C104.006 163.298 104.352 163.357 104.693 163.473C105.034 163.59 105.345 163.78 105.625 164.042C105.905 164.302 106.128 164.646 106.294 165.074C106.46 165.503 106.544 166.031 106.544 166.658V167.096H101.364V166.203H105.494C105.494 165.824 105.418 165.486 105.266 165.188C105.117 164.891 104.904 164.656 104.627 164.484C104.353 164.312 104.029 164.226 103.656 164.226C103.245 164.226 102.889 164.328 102.589 164.532C102.291 164.733 102.062 164.996 101.902 165.319C101.741 165.643 101.661 165.99 101.661 166.361V166.956C101.661 167.463 101.749 167.893 101.924 168.246C102.102 168.596 102.348 168.863 102.663 169.047C102.978 169.228 103.344 169.318 103.761 169.318C104.032 169.318 104.277 169.28 104.496 169.204C104.718 169.126 104.909 169.009 105.069 168.854C105.23 168.697 105.354 168.502 105.441 168.268L106.439 168.548C106.334 168.887 106.157 169.184 105.909 169.441C105.661 169.694 105.355 169.893 104.99 170.036C104.626 170.176 104.216 170.246 103.761 170.246ZM109.007 161.146V164.226H108.044V161.146H109.007ZM111.247 161.146V164.226H110.284V161.146H111.247Z" fill="#666666"/>
<path d="M145.785 189.932H59.5458C57.8448 189.932 56.4658 191.311 56.4658 193.012V202.252C56.4658 203.953 57.8448 205.332 59.5458 205.332H145.785C147.486 205.332 148.865 203.953 148.865 202.252V193.012C148.865 191.311 147.486 189.932 145.785 189.932Z" fill="#E8E8E8"/>
<path d="M68.5699 191.946V195.026H67.6074V191.946H68.5699ZM70.0585 192.908V191.946H76.7785V192.908H73.961V200.906H72.876V192.908H70.0585ZM80.1559 201.046C79.5084 201.046 78.9499 200.903 78.4803 200.617C78.0137 200.328 77.6534 199.926 77.3997 199.409C77.1489 198.89 77.0235 198.286 77.0235 197.598C77.0235 196.91 77.1489 196.303 77.3997 195.778C77.6534 195.25 78.0064 194.839 78.4584 194.544C78.9134 194.247 79.4443 194.098 80.0509 194.098C80.4009 194.098 80.7466 194.156 81.0878 194.273C81.429 194.39 81.7397 194.579 82.0197 194.842C82.2997 195.101 82.5228 195.446 82.689 195.874C82.8553 196.303 82.9384 196.831 82.9384 197.458V197.896H77.7584V197.003H81.8884C81.8884 196.624 81.8126 196.286 81.6609 195.988C81.5122 195.691 81.2993 195.456 81.0222 195.284C80.748 195.112 80.4243 195.026 80.0509 195.026C79.6397 195.026 79.2839 195.128 78.9834 195.332C78.6859 195.533 78.457 195.796 78.2966 196.119C78.1362 196.443 78.0559 196.79 78.0559 197.161V197.756C78.0559 198.263 78.1434 198.693 78.3184 199.046C78.4964 199.396 78.7428 199.663 79.0578 199.847C79.3728 200.028 79.7389 200.118 80.1559 200.118C80.4272 200.118 80.6722 200.08 80.8909 200.004C81.1126 199.926 81.3036 199.809 81.464 199.654C81.6245 199.497 81.7484 199.301 81.8359 199.068L82.8334 199.348C82.7284 199.686 82.552 199.984 82.304 200.241C82.0561 200.494 81.7499 200.693 81.3853 200.836C81.0207 200.976 80.6109 201.046 80.1559 201.046ZM85.0986 194.186L86.7085 196.933L88.3185 194.186H89.5085L87.3385 197.546L89.5085 200.906H88.3185L86.7085 198.298L85.0986 200.906H83.9086L86.0436 197.546L83.9086 194.186H85.0986ZM93.9043 194.186V195.061H90.4218V194.186H93.9043ZM91.4368 192.576H92.4693V198.981C92.4693 199.272 92.5116 199.491 92.5962 199.637C92.6837 199.78 92.7945 199.876 92.9287 199.926C93.0657 199.972 93.2101 199.996 93.3618 199.996C93.4755 199.996 93.5689 199.99 93.6418 199.978C93.7147 199.963 93.773 199.952 93.8168 199.943L94.0268 200.871C93.9568 200.897 93.8591 200.923 93.7337 200.949C93.6082 200.978 93.4493 200.993 93.2568 200.993C92.9651 200.993 92.6793 200.93 92.3993 200.805C92.1222 200.679 91.8918 200.488 91.708 200.232C91.5272 199.975 91.4368 199.651 91.4368 199.261V192.576ZM96.3499 191.946V195.026H95.3874V191.946H96.3499Z" fill="#666666"/>
<path opacity="0.3" d="M102.666 233.565C108.336 233.565 112.933 228.969 112.933 223.299C112.933 217.628 108.336 213.032 102.666 213.032C96.9959 213.032 92.3994 217.628 92.3994 223.299C92.3994 228.969 96.9959 233.565 102.666 233.565Z" fill="#FCB23B"/>
<path d="M97.3993 227.139L102.343 218.739L107.287 227.139H97.3993ZM102.343 226.158C102.54 226.158 102.706 226.089 102.843 225.95C102.981 225.812 103.05 225.645 103.05 225.451C103.05 225.254 102.981 225.086 102.843 224.948C102.706 224.809 102.54 224.74 102.343 224.74C102.149 224.74 101.982 224.809 101.844 224.948C101.705 225.086 101.636 225.254 101.636 225.451C101.636 225.645 101.705 225.812 101.844 225.95C101.982 226.089 102.149 226.158 102.343 226.158ZM101.796 223.981H102.89L102.941 221.539H101.745L101.796 223.981Z" fill="#FCB23B"/>
<path d="M219.705 128.333H190.959C187.557 128.333 184.799 131.09 184.799 134.492V194.039C184.799 197.441 187.557 200.199 190.959 200.199H219.705C223.107 200.199 225.865 197.441 225.865 194.039V134.492C225.865 131.09 223.107 128.333 219.705 128.333Z" fill="url(#paint0_linear_32_1273)"/>
<path opacity="0.8" d="M205.332 152.972C207.6 152.972 209.439 151.134 209.439 148.866C209.439 146.598 207.6 144.759 205.332 144.759C203.064 144.759 201.226 146.598 201.226 148.866C201.226 151.134 203.064 152.972 205.332 152.972Z" fill="white"/>
<path opacity="0.8" d="M205.332 168.372C207.6 168.372 209.439 166.534 209.439 164.266C209.439 161.998 207.6 160.159 205.332 160.159C203.064 160.159 201.226 161.998 201.226 164.266C201.226 166.534 203.064 168.372 205.332 168.372Z" fill="white"/>
<path opacity="0.8" d="M205.332 183.772C207.6 183.772 209.439 181.934 209.439 179.665C209.439 177.397 207.6 175.559 205.332 175.559C203.064 175.559 201.226 177.397 201.226 179.665C201.226 181.934 203.064 183.772 205.332 183.772Z" fill="white"/>
<path d="M359.331 76.9995H256.665C250.995 76.9995 246.398 81.596 246.398 87.2661V241.265C246.398 246.935 250.995 251.532 256.665 251.532H359.331C365.001 251.532 369.598 246.935 369.598 241.265V87.2661C369.598 81.596 365.001 76.9995 359.331 76.9995Z" fill="white" stroke="#0DBA38" stroke-width="1.53999"/>
<path d="M351.118 97.5327H264.879C263.178 97.5327 261.799 98.9117 261.799 100.613V109.853C261.799 111.554 263.178 112.933 264.879 112.933H351.118C352.819 112.933 354.198 111.554 354.198 109.853V100.613C354.198 98.9117 352.819 97.5327 351.118 97.5327Z" fill="#E8F5E9"/>
<path d="M272.659 102.346V101.559C272.659 101.319 272.702 101.066 272.786 100.797C272.874 100.526 272.999 100.265 273.163 100.014C273.329 99.7605 273.529 99.5403 273.762 99.3537L274.322 99.8087C274.138 100.071 273.978 100.345 273.841 100.631C273.707 100.914 273.639 101.217 273.639 101.541V102.346H272.659ZM274.899 102.346V101.559C274.899 101.319 274.942 101.066 275.026 100.797C275.114 100.526 275.239 100.265 275.403 100.014C275.569 99.7605 275.769 99.5403 276.002 99.3537L276.562 99.8087C276.378 100.071 276.218 100.345 276.081 100.631C275.947 100.914 275.879 101.217 275.879 101.541V102.346H274.899ZM277.842 108.506V99.5462H278.927V103.536H283.704V99.5462H284.789V108.506H283.704V104.499H278.927V108.506H277.842ZM289.639 108.646C288.991 108.646 288.433 108.503 287.963 108.217C287.496 107.929 287.136 107.526 286.882 107.01C286.632 106.491 286.506 105.887 286.506 105.199C286.506 104.51 286.632 103.904 286.882 103.379C287.136 102.851 287.489 102.439 287.941 102.145C288.396 101.847 288.927 101.699 289.534 101.699C289.884 101.699 290.229 101.757 290.571 101.874C290.912 101.99 291.222 102.18 291.502 102.442C291.782 102.702 292.006 103.046 292.172 103.475C292.338 103.904 292.421 104.432 292.421 105.059V105.496H287.241V104.604H291.371C291.371 104.224 291.295 103.886 291.144 103.589C290.995 103.291 290.782 103.056 290.505 102.884C290.231 102.712 289.907 102.626 289.534 102.626C289.122 102.626 288.767 102.728 288.466 102.932C288.169 103.134 287.94 103.396 287.779 103.72C287.619 104.044 287.539 104.391 287.539 104.761V105.356C287.539 105.864 287.626 106.294 287.801 106.647C287.979 106.997 288.226 107.264 288.541 107.447C288.856 107.628 289.222 107.719 289.639 107.719C289.91 107.719 290.155 107.681 290.374 107.605C290.595 107.526 290.786 107.409 290.947 107.255C291.107 107.097 291.231 106.902 291.319 106.669L292.316 106.949C292.211 107.287 292.035 107.584 291.787 107.841C291.539 108.095 291.233 108.293 290.868 108.436C290.504 108.576 290.094 108.646 289.639 108.646ZM295.024 99.5462V108.506H293.992V99.5462H295.024ZM297.948 99.5462V108.506H296.915V99.5462H297.948ZM302.569 108.646C301.962 108.646 301.43 108.502 300.972 108.213C300.517 107.924 300.161 107.52 299.905 107.001C299.651 106.482 299.524 105.875 299.524 105.181C299.524 104.481 299.651 103.87 299.905 103.348C300.161 102.826 300.517 102.421 300.972 102.132C301.43 101.843 301.962 101.699 302.569 101.699C303.176 101.699 303.706 101.843 304.161 102.132C304.619 102.421 304.975 102.826 305.229 103.348C305.486 103.87 305.614 104.481 305.614 105.181C305.614 105.875 305.486 106.482 305.229 107.001C304.975 107.52 304.619 107.924 304.161 108.213C303.706 108.502 303.176 108.646 302.569 108.646ZM302.569 107.719C303.03 107.719 303.409 107.6 303.706 107.364C304.004 107.128 304.224 106.817 304.367 106.432C304.51 106.047 304.581 105.63 304.581 105.181C304.581 104.732 304.51 104.313 304.367 103.926C304.224 103.538 304.004 103.224 303.706 102.985C303.409 102.746 303.03 102.626 302.569 102.626C302.108 102.626 301.729 102.746 301.431 102.985C301.134 103.224 300.914 103.538 300.771 103.926C300.628 104.313 300.556 104.732 300.556 105.181C300.556 105.63 300.628 106.047 300.771 106.432C300.914 106.817 301.134 107.128 301.431 107.364C301.729 107.6 302.108 107.719 302.569 107.719ZM308.1 99.5462V100.334C308.1 100.573 308.056 100.828 307.969 101.099C307.884 101.368 307.759 101.629 307.593 101.882C307.429 102.133 307.231 102.352 306.998 102.539L306.438 102.084C306.621 101.821 306.78 101.548 306.914 101.266C307.051 100.98 307.12 100.675 307.12 100.351V99.5462H308.1ZM310.34 99.5462V100.334C310.34 100.573 310.296 100.828 310.209 101.099C310.124 101.368 309.999 101.629 309.832 101.882C309.669 102.133 309.471 102.352 309.237 102.539L308.678 102.084C308.861 101.821 309.02 101.548 309.154 101.266C309.291 100.98 309.36 100.675 309.36 100.351V99.5462H310.34Z" fill="#0DBA38"/>
<path d="M351.118 128.333H264.879C263.178 128.333 261.799 129.711 261.799 131.413V140.652C261.799 142.353 263.178 143.732 264.879 143.732H351.118C352.819 143.732 354.198 142.353 354.198 140.652V131.413C354.198 129.711 352.819 128.333 351.118 128.333Z" fill="#E8F5E9"/>
<path d="M272.659 133.146V132.358C272.659 132.119 272.702 131.866 272.786 131.597C272.874 131.326 272.999 131.065 273.163 130.814C273.329 130.56 273.529 130.34 273.762 130.153L274.322 130.608C274.138 130.871 273.978 131.145 273.841 131.431C273.707 131.714 273.639 132.017 273.639 132.341V133.146H272.659ZM277.231 139.306L274.781 130.346H275.884L277.756 137.643H277.844L279.751 130.346H280.976L282.884 137.643H282.971L284.844 130.346H285.946L283.496 139.306H282.376L280.399 132.166H280.329L278.351 139.306H277.231ZM289.262 139.446C288.656 139.446 288.124 139.302 287.666 139.013C287.211 138.724 286.855 138.32 286.598 137.801C286.344 137.282 286.217 136.675 286.217 135.981C286.217 135.281 286.344 134.67 286.598 134.148C286.855 133.626 287.211 133.22 287.666 132.932C288.124 132.643 288.656 132.498 289.262 132.498C289.869 132.498 290.4 132.643 290.855 132.932C291.313 133.22 291.669 133.626 291.922 134.148C292.179 134.67 292.307 135.281 292.307 135.981C292.307 136.675 292.179 137.282 291.922 137.801C291.669 138.32 291.313 138.724 290.855 139.013C290.4 139.302 289.869 139.446 289.262 139.446ZM289.262 138.518C289.723 138.518 290.102 138.4 290.4 138.164C290.697 137.928 290.918 137.617 291.061 137.232C291.204 136.847 291.275 136.43 291.275 135.981C291.275 135.532 291.204 135.113 291.061 134.725C290.918 134.337 290.697 134.024 290.4 133.785C290.102 133.546 289.723 133.426 289.262 133.426C288.802 133.426 288.422 133.546 288.125 133.785C287.827 134.024 287.607 134.337 287.464 134.725C287.321 135.113 287.25 135.532 287.25 135.981C287.25 136.43 287.321 136.847 287.464 137.232C287.607 137.617 287.827 137.928 288.125 138.164C288.422 138.4 288.802 138.518 289.262 138.518ZM293.884 139.306V132.586H294.881V133.601H294.951C295.074 133.268 295.295 132.999 295.616 132.792C295.937 132.584 296.299 132.481 296.701 132.481C296.777 132.481 296.872 132.482 296.985 132.485C297.099 132.488 297.185 132.493 297.244 132.498V133.548C297.209 133.54 297.128 133.527 297.003 133.509C296.88 133.489 296.751 133.478 296.614 133.478C296.287 133.478 295.995 133.547 295.739 133.684C295.485 133.818 295.284 134.005 295.135 134.244C294.989 134.48 294.916 134.75 294.916 135.053V139.306H293.884ZM299.5 130.346V139.306H298.467V130.346H299.5ZM303.928 139.446C303.368 139.446 302.874 139.304 302.445 139.022C302.017 138.736 301.681 138.333 301.439 137.814C301.197 137.292 301.076 136.675 301.076 135.963C301.076 135.258 301.197 134.645 301.439 134.126C301.681 133.607 302.018 133.206 302.45 132.923C302.881 132.64 303.38 132.498 303.946 132.498C304.383 132.498 304.729 132.571 304.983 132.717C305.24 132.86 305.435 133.023 305.569 133.207C305.706 133.388 305.813 133.537 305.888 133.653H305.976V130.346H307.008V139.306H306.011V138.273H305.888C305.813 138.396 305.705 138.55 305.565 138.737C305.425 138.921 305.225 139.086 304.965 139.232C304.706 139.374 304.36 139.446 303.928 139.446ZM304.068 138.518C304.483 138.518 304.833 138.41 305.118 138.195C305.404 137.976 305.622 137.674 305.77 137.289C305.919 136.901 305.993 136.453 305.993 135.946C305.993 135.444 305.921 135.005 305.775 134.629C305.629 134.25 305.413 133.955 305.127 133.745C304.841 133.532 304.488 133.426 304.068 133.426C303.631 133.426 303.266 133.538 302.975 133.763C302.686 133.984 302.469 134.286 302.323 134.668C302.18 135.048 302.108 135.473 302.108 135.946C302.108 136.424 302.181 136.859 302.327 137.25C302.476 137.638 302.695 137.947 302.983 138.177C303.275 138.405 303.637 138.518 304.068 138.518ZM309.953 130.346V131.133C309.953 131.373 309.909 131.628 309.822 131.899C309.737 132.167 309.612 132.428 309.445 132.682C309.282 132.933 309.084 133.152 308.85 133.338L308.29 132.883C308.474 132.621 308.633 132.348 308.767 132.065C308.904 131.779 308.973 131.475 308.973 131.151V130.346H309.953Z" fill="#0DBA38"/>
<path d="M351.118 159.132H264.879C263.178 159.132 261.799 160.511 261.799 162.212V171.452C261.799 173.153 263.178 174.532 264.879 174.532H351.118C352.819 174.532 354.198 173.153 354.198 171.452V162.212C354.198 160.511 352.819 159.132 351.118 159.132Z" fill="#E8F5E9"/>
<path d="M272.659 163.946V163.158C272.659 162.919 272.702 162.665 272.786 162.397C272.874 162.126 272.999 161.865 273.163 161.614C273.329 161.36 273.529 161.14 273.762 160.953L274.322 161.408C274.138 161.671 273.978 161.945 273.841 162.231C273.707 162.514 273.639 162.817 273.639 163.141V163.946H272.659ZM274.899 163.946V163.158C274.899 162.919 274.942 162.665 275.026 162.397C275.114 162.126 275.239 161.865 275.403 161.614C275.569 161.36 275.769 161.14 276.002 160.953L276.562 161.408C276.378 161.671 276.218 161.945 276.081 162.231C275.947 162.514 275.879 162.817 275.879 163.141V163.946H274.899ZM281.097 167.306H282.287L283.284 168.618L283.547 168.968L285.034 170.946H283.844L282.864 169.633L282.619 169.301L281.097 167.306ZM285.402 165.626C285.402 166.571 285.231 167.387 284.89 168.076C284.548 168.764 284.08 169.295 283.485 169.668C282.89 170.042 282.211 170.228 281.447 170.228C280.682 170.228 280.003 170.042 279.408 169.668C278.813 169.295 278.345 168.764 278.003 168.076C277.662 167.387 277.492 166.571 277.492 165.626C277.492 164.681 277.662 163.864 278.003 163.176C278.345 162.487 278.813 161.957 279.408 161.583C280.003 161.21 280.682 161.023 281.447 161.023C282.211 161.023 282.89 161.21 283.485 161.583C284.08 161.957 284.548 162.487 284.89 163.176C285.231 163.864 285.402 164.681 285.402 165.626ZM284.352 165.626C284.352 164.85 284.222 164.195 283.962 163.661C283.706 163.128 283.357 162.724 282.917 162.45C282.479 162.175 281.989 162.038 281.447 162.038C280.904 162.038 280.413 162.175 279.972 162.45C279.535 162.724 279.186 163.128 278.927 163.661C278.67 164.195 278.542 164.85 278.542 165.626C278.542 166.402 278.67 167.056 278.927 167.59C279.186 168.124 279.535 168.528 279.972 168.802C280.413 169.076 280.904 169.213 281.447 169.213C281.989 169.213 282.479 169.076 282.917 168.802C283.357 168.528 283.706 168.124 283.962 167.59C284.222 167.056 284.352 166.402 284.352 165.626ZM291.321 167.358V163.386H292.353V170.106H291.321V168.968H291.251C291.093 169.309 290.848 169.6 290.516 169.839C290.183 170.075 289.763 170.193 289.256 170.193C288.836 170.193 288.463 170.101 288.136 169.918C287.809 169.731 287.553 169.451 287.366 169.078C287.179 168.701 287.086 168.227 287.086 167.656V163.386H288.118V167.586C288.118 168.076 288.255 168.467 288.53 168.758C288.807 169.05 289.16 169.196 289.588 169.196C289.845 169.196 290.106 169.13 290.372 168.999C290.64 168.868 290.864 168.666 291.045 168.395C291.229 168.124 291.321 167.778 291.321 167.358ZM296.974 170.246C296.368 170.246 295.836 170.101 295.378 169.813C294.923 169.524 294.567 169.12 294.31 168.601C294.056 168.082 293.929 167.475 293.929 166.781C293.929 166.081 294.056 165.47 294.31 164.948C294.567 164.426 294.923 164.02 295.378 163.731C295.836 163.443 296.368 163.298 296.974 163.298C297.581 163.298 298.112 163.443 298.567 163.731C299.025 164.02 299.381 164.426 299.634 164.948C299.891 165.47 300.019 166.081 300.019 166.781C300.019 167.475 299.891 168.082 299.634 168.601C299.381 169.12 299.025 169.524 298.567 169.813C298.112 170.101 297.581 170.246 296.974 170.246ZM296.974 169.318C297.435 169.318 297.814 169.2 298.112 168.964C298.409 168.728 298.63 168.417 298.773 168.032C298.915 167.647 298.987 167.23 298.987 166.781C298.987 166.332 298.915 165.913 298.773 165.525C298.63 165.137 298.409 164.824 298.112 164.584C297.814 164.345 297.435 164.226 296.974 164.226C296.514 164.226 296.134 164.345 295.837 164.584C295.539 164.824 295.319 165.137 295.176 165.525C295.033 165.913 294.962 166.332 294.962 166.781C294.962 167.23 295.033 167.647 295.176 168.032C295.319 168.417 295.539 168.728 295.837 168.964C296.134 169.2 296.514 169.318 296.974 169.318ZM304.518 163.386V164.261H301.036V163.386H304.518ZM302.051 161.776H303.083V168.181C303.083 168.472 303.125 168.691 303.21 168.837C303.297 168.98 303.408 169.076 303.542 169.126C303.679 169.172 303.824 169.196 303.976 169.196C304.089 169.196 304.183 169.19 304.255 169.178C304.328 169.164 304.387 169.152 304.43 169.143L304.64 170.071C304.57 170.097 304.473 170.123 304.347 170.149C304.222 170.179 304.063 170.193 303.871 170.193C303.579 170.193 303.293 170.131 303.013 170.005C302.736 169.88 302.506 169.689 302.322 169.432C302.141 169.175 302.051 168.852 302.051 168.461V161.776ZM308.816 170.246C308.169 170.246 307.61 170.103 307.141 169.817C306.674 169.528 306.314 169.126 306.06 168.609C305.809 168.09 305.684 167.487 305.684 166.798C305.684 166.11 305.809 165.503 306.06 164.978C306.314 164.45 306.667 164.039 307.119 163.745C307.574 163.447 308.105 163.298 308.711 163.298C309.061 163.298 309.407 163.357 309.748 163.473C310.09 163.59 310.4 163.78 310.68 164.042C310.96 164.302 311.183 164.646 311.35 165.074C311.516 165.503 311.599 166.031 311.599 166.658V167.096H306.419V166.203H310.549C310.549 165.824 310.473 165.486 310.321 165.188C310.173 164.891 309.96 164.656 309.683 164.484C309.408 164.312 309.085 164.226 308.711 164.226C308.3 164.226 307.944 164.328 307.644 164.532C307.346 164.733 307.117 164.996 306.957 165.319C306.797 165.643 306.716 165.99 306.716 166.361V166.956C306.716 167.463 306.804 167.893 306.979 168.246C307.157 168.596 307.403 168.863 307.718 169.047C308.033 169.228 308.399 169.318 308.816 169.318C309.088 169.318 309.333 169.28 309.551 169.204C309.773 169.126 309.964 169.009 310.125 168.854C310.285 168.697 310.409 168.502 310.496 168.268L311.494 168.548C311.389 168.887 311.212 169.184 310.965 169.441C310.717 169.694 310.41 169.893 310.046 170.036C309.681 170.176 309.271 170.246 308.816 170.246ZM314.08 161.146V161.933C314.08 162.172 314.036 162.428 313.948 162.699C313.864 162.967 313.738 163.228 313.572 163.482C313.409 163.733 313.21 163.952 312.977 164.138L312.417 163.683C312.601 163.421 312.76 163.148 312.894 162.865C313.031 162.579 313.1 162.275 313.1 161.951V161.146H314.08ZM316.319 161.146V161.933C316.319 162.172 316.276 162.428 316.188 162.699C316.104 162.967 315.978 163.228 315.812 163.482C315.649 163.733 315.45 163.952 315.217 164.138L314.657 163.683C314.841 163.421 315 163.148 315.134 162.865C315.271 162.579 315.339 162.275 315.339 161.951V161.146H316.319Z" fill="#0DBA38"/>
<path d="M351.118 189.932H264.879C263.178 189.932 261.799 191.311 261.799 193.012V202.252C261.799 203.953 263.178 205.332 264.879 205.332H351.118C352.819 205.332 354.198 203.953 354.198 202.252V193.012C354.198 191.311 352.819 189.932 351.118 189.932Z" fill="#E8F5E9"/>
<path d="M272.659 194.746V193.958C272.659 193.719 272.702 193.465 272.786 193.197C272.874 192.926 272.999 192.665 273.163 192.414C273.329 192.16 273.529 191.94 273.762 191.753L274.322 192.208C274.138 192.471 273.978 192.745 273.841 193.031C273.707 193.313 273.639 193.617 273.639 193.941V194.746H272.659ZM275.114 192.908V191.946H281.834V192.908H279.016V200.906H277.931V192.908H275.114ZM285.211 201.046C284.564 201.046 284.005 200.903 283.536 200.617C283.069 200.328 282.709 199.926 282.455 199.409C282.204 198.89 282.079 198.286 282.079 197.598C282.079 196.91 282.204 196.303 282.455 195.778C282.709 195.25 283.062 194.839 283.514 194.544C283.969 194.247 284.5 194.098 285.106 194.098C285.456 194.098 285.802 194.156 286.143 194.273C286.484 194.39 286.795 194.579 287.075 194.842C287.355 195.101 287.578 195.446 287.744 195.874C287.911 196.303 287.994 196.831 287.994 197.458V197.896H282.814V197.003H286.944C286.944 196.624 286.868 196.286 286.716 195.988C286.567 195.691 286.355 195.456 286.077 195.284C285.803 195.112 285.48 195.026 285.106 195.026C284.695 195.026 284.339 195.128 284.039 195.332C283.741 195.533 283.512 195.796 283.352 196.119C283.191 196.443 283.111 196.79 283.111 197.161V197.756C283.111 198.263 283.199 198.693 283.374 199.046C283.552 199.396 283.798 199.663 284.113 199.847C284.428 200.028 284.794 200.118 285.211 200.118C285.482 200.118 285.727 200.08 285.946 200.004C286.168 199.926 286.359 199.809 286.519 199.654C286.68 199.497 286.804 199.301 286.891 199.068L287.889 199.348C287.784 199.686 287.607 199.984 287.359 200.241C287.111 200.494 286.805 200.693 286.441 200.836C286.076 200.976 285.666 201.046 285.211 201.046ZM290.154 194.186L291.764 196.933L293.374 194.186H294.564L292.394 197.546L294.564 200.906H293.374L291.764 198.298L290.154 200.906H288.964L291.099 197.546L288.964 194.186H290.154ZM298.96 194.186V195.061H295.477V194.186H298.96ZM296.492 192.576H297.525V198.981C297.525 199.272 297.567 199.491 297.651 199.637C297.739 199.78 297.85 199.876 297.984 199.926C298.121 199.972 298.265 199.996 298.417 199.996C298.531 199.996 298.624 199.99 298.697 199.978C298.77 199.963 298.828 199.952 298.872 199.943L299.082 200.871C299.012 200.897 298.914 200.923 298.789 200.949C298.664 200.978 298.505 200.993 298.312 200.993C298.02 200.993 297.735 200.93 297.455 200.805C297.178 200.679 296.947 200.488 296.763 200.232C296.583 199.975 296.492 199.651 296.492 199.261V192.576ZM301.772 191.946V192.733C301.772 192.972 301.728 193.227 301.64 193.499C301.556 193.767 301.43 194.028 301.264 194.282C301.101 194.533 300.902 194.751 300.669 194.938L300.109 194.483C300.293 194.221 300.452 193.948 300.586 193.665C300.723 193.379 300.792 193.074 300.792 192.751V191.946H301.772Z" fill="#0DBA38"/>
<path opacity="0.3" d="M307.998 233.565C313.668 233.565 318.265 228.969 318.265 223.299C318.265 217.628 313.668 213.032 307.998 213.032C302.328 213.032 297.731 217.628 297.731 223.299C297.731 228.969 302.328 233.565 307.998 233.565Z" fill="#0DBA38"/>
<path d="M303.892 223.299L306.458 225.865L312.105 219.705" stroke="#0DBA38" stroke-width="1.53999" stroke-linecap="round" stroke-linejoin="round"/>
<path d="M70.8955 61.7056C70.8693 61.4409 70.7566 61.2353 70.5576 61.0887C70.3585 60.9422 70.0883 60.8689 69.7471 60.8689C69.5152 60.8689 69.3194 60.9017 69.1597 60.9673C69.0001 61.0308 68.8776 61.1194 68.7923 61.2331C68.7091 61.3469 68.6676 61.4759 68.6676 61.6203C68.6632 61.7406 68.6883 61.8456 68.743 61.9353C68.7999 62.025 68.8776 62.1026 68.976 62.1683C69.0744 62.2317 69.1882 62.2875 69.3172 62.3356C69.4463 62.3815 69.5841 62.4209 69.7307 62.4537L70.3344 62.5981C70.6276 62.6637 70.8966 62.7512 71.1416 62.8606C71.3866 62.97 71.5988 63.1045 71.7782 63.2642C71.9575 63.4239 72.0965 63.612 72.1949 63.8286C72.2955 64.0451 72.3469 64.2934 72.3491 64.5734C72.3469 64.9846 72.2419 65.3412 72.0341 65.6431C71.8285 65.9428 71.531 66.1757 71.1416 66.342C70.7544 66.506 70.2874 66.5881 69.7405 66.5881C69.198 66.5881 68.7255 66.505 68.323 66.3387C67.9227 66.1725 67.6099 65.9264 67.3846 65.6004C67.1615 65.2723 67.0445 64.8665 67.0335 64.3831H68.4083C68.4237 64.6084 68.4882 64.7965 68.6019 64.9475C68.7179 65.0962 68.8721 65.2089 69.0646 65.2854C69.2593 65.3598 69.4791 65.397 69.7241 65.397C69.9647 65.397 70.1736 65.362 70.3508 65.292C70.5302 65.222 70.6691 65.1246 70.7676 65C70.866 64.8753 70.9152 64.732 70.9152 64.5701C70.9152 64.4192 70.8704 64.2923 70.7807 64.1895C70.6932 64.0867 70.5641 63.9992 70.3935 63.927C70.2251 63.8548 70.0183 63.7892 69.7733 63.7301L69.0416 63.5464C68.4751 63.4086 68.0277 63.1931 67.6996 62.9C67.3715 62.6069 67.2085 62.212 67.2107 61.7154C67.2085 61.3086 67.3168 60.9531 67.5355 60.6491C67.7565 60.345 68.0594 60.1076 68.4444 59.937C68.8294 59.7664 69.2669 59.6811 69.7569 59.6811C70.2557 59.6811 70.691 59.7664 71.0629 59.937C71.4369 60.1076 71.7279 60.345 71.9357 60.6491C72.1435 60.9531 72.2507 61.3053 72.2572 61.7056H70.8955ZM75.9593 61.453V62.5029H72.9241V61.453H75.9593ZM73.6132 60.2455H75.011V64.9442C75.011 65.0732 75.0307 65.1739 75.0701 65.2461C75.1094 65.3161 75.1641 65.3653 75.2341 65.3937C75.3063 65.4221 75.3894 65.4364 75.4835 65.4364C75.5491 65.4364 75.6147 65.4309 75.6804 65.42C75.746 65.4068 75.7963 65.397 75.8313 65.3904L76.0512 66.4306C75.9812 66.4525 75.8827 66.4776 75.7558 66.506C75.629 66.5367 75.4747 66.5553 75.2932 66.5618C74.9563 66.575 74.661 66.5301 74.4073 66.4273C74.1557 66.3245 73.9599 66.1648 73.8199 65.9482C73.6799 65.7317 73.611 65.4582 73.6132 65.1279V60.2455ZM76.8698 66.4929V61.453H78.225V62.3323H78.2775C78.3693 62.0195 78.5236 61.7833 78.7401 61.6236C78.9567 61.4617 79.2061 61.3808 79.4882 61.3808C79.5582 61.3808 79.6337 61.3851 79.7146 61.3939C79.7956 61.4026 79.8667 61.4147 79.9279 61.43V62.6703C79.8623 62.6506 79.7715 62.6331 79.6556 62.6178C79.5396 62.6025 79.4336 62.5948 79.3373 62.5948C79.1317 62.5948 78.9479 62.6397 78.7861 62.7293C78.6264 62.8168 78.4995 62.9393 78.4054 63.0968C78.3136 63.2543 78.2676 63.4359 78.2676 63.6415V66.4929H76.8698ZM81.9434 66.5881C81.6219 66.5881 81.3353 66.5323 81.0837 66.4207C80.8322 66.307 80.6331 66.1396 80.4866 65.9187C80.3422 65.6956 80.27 65.4178 80.27 65.0853C80.27 64.8053 80.3214 64.5701 80.4242 64.3798C80.527 64.1895 80.667 64.0364 80.8442 63.9204C81.0214 63.8045 81.2226 63.717 81.448 63.6579C81.6755 63.5989 81.9139 63.5573 82.1633 63.5333C82.4564 63.5026 82.6926 63.4742 82.872 63.4479C83.0514 63.4195 83.1815 63.3779 83.2625 63.3233C83.3434 63.2686 83.3839 63.1876 83.3839 63.0804V63.0608C83.3839 62.8529 83.3183 62.6922 83.187 62.5784C83.0579 62.4647 82.8742 62.4078 82.6358 62.4078C82.3842 62.4078 82.184 62.4636 82.0353 62.5751C81.8865 62.6845 81.7881 62.8223 81.74 62.9886L80.4472 62.8836C80.5128 62.5773 80.6419 62.3126 80.8344 62.0895C81.0269 61.8642 81.2751 61.6914 81.5792 61.5711C81.8855 61.4486 82.2398 61.3873 82.6423 61.3873C82.9223 61.3873 83.1903 61.4201 83.4462 61.4858C83.7043 61.5514 83.9329 61.6531 84.132 61.7909C84.3332 61.9287 84.4918 62.1059 84.6078 62.3225C84.7237 62.5369 84.7817 62.7939 84.7817 63.0936V66.4929H83.4561V65.794H83.4167C83.3358 65.9515 83.2275 66.0904 83.0918 66.2107C82.9562 66.3289 82.7933 66.4218 82.6029 66.4896C82.4126 66.5553 82.1928 66.5881 81.9434 66.5881ZM82.3437 65.6234C82.5494 65.6234 82.7309 65.5829 82.8884 65.502C83.0459 65.4189 83.1695 65.3073 83.2592 65.1673C83.3489 65.0273 83.3937 64.8687 83.3937 64.6915V64.1567C83.35 64.1851 83.2898 64.2114 83.2133 64.2354C83.1389 64.2573 83.0547 64.2781 82.9606 64.2978C82.8665 64.3153 82.7725 64.3317 82.6784 64.347C82.5844 64.3601 82.499 64.3722 82.4225 64.3831C82.2584 64.4072 82.1151 64.4454 81.9926 64.4979C81.8701 64.5504 81.775 64.6215 81.7072 64.7112C81.6394 64.7987 81.6055 64.9081 81.6055 65.0393C81.6055 65.2296 81.6744 65.3751 81.8122 65.4757C81.9522 65.5742 82.1294 65.6234 82.3437 65.6234ZM85.8661 66.4929V61.453H87.2639V66.4929H85.8661ZM86.5683 60.8033C86.3605 60.8033 86.1822 60.7344 86.0335 60.5966C85.8869 60.4566 85.8136 60.2892 85.8136 60.0945C85.8136 59.902 85.8869 59.7369 86.0335 59.5991C86.1822 59.4591 86.3605 59.3891 86.5683 59.3891C86.7761 59.3891 86.9533 59.4591 87.0999 59.5991C87.2486 59.7369 87.323 59.902 87.323 60.0945C87.323 60.2892 87.2486 60.4566 87.0999 60.5966C86.9533 60.7344 86.7761 60.8033 86.5683 60.8033ZM90.6543 68.4879C90.2015 68.4879 89.8132 68.4256 89.4894 68.3009C89.1679 68.1784 88.9119 68.011 88.7216 67.7988C88.5313 67.5867 88.4077 67.3482 88.3508 67.0835L89.6436 66.9096C89.683 67.0103 89.7454 67.1043 89.8307 67.1918C89.916 67.2793 90.0286 67.3493 90.1686 67.4018C90.3108 67.4565 90.4836 67.4839 90.6871 67.4839C90.9911 67.4839 91.2416 67.4095 91.4385 67.2607C91.6375 67.1142 91.7371 66.8681 91.7371 66.5225V65.6004H91.678C91.6168 65.7404 91.5249 65.8728 91.4024 65.9975C91.2799 66.1221 91.1224 66.2239 90.9299 66.3026C90.7374 66.3814 90.5077 66.4207 90.2408 66.4207C89.8624 66.4207 89.5179 66.3332 89.2072 66.1582C88.8988 65.981 88.6527 65.7109 88.469 65.3478C88.2874 64.9825 88.1966 64.5209 88.1966 63.9631C88.1966 63.3922 88.2896 62.9153 88.4755 62.5325C88.6615 62.1497 88.9086 61.8631 89.2171 61.6728C89.5277 61.4825 89.8679 61.3873 90.2375 61.3873C90.5197 61.3873 90.756 61.4355 90.9463 61.5317C91.1366 61.6258 91.2897 61.7439 91.4057 61.8861C91.5238 62.0261 91.6146 62.1639 91.678 62.2995H91.7305V61.453H93.1185V66.5421C93.1185 66.9709 93.0135 67.3296 92.8035 67.6184C92.5935 67.9071 92.3025 68.1237 91.9307 68.2681C91.561 68.4146 91.1355 68.4879 90.6543 68.4879ZM90.6838 65.3707C90.9091 65.3707 91.0994 65.315 91.2547 65.2034C91.4122 65.0896 91.5325 64.9278 91.6157 64.7178C91.701 64.5056 91.7436 64.2518 91.7436 63.9565C91.7436 63.6612 91.7021 63.4053 91.6189 63.1887C91.5358 62.97 91.4155 62.8004 91.258 62.6801C91.1005 62.5598 90.9091 62.4997 90.6838 62.4997C90.4541 62.4997 90.2605 62.562 90.103 62.6867C89.9455 62.8092 89.8263 62.9798 89.7454 63.1986C89.6644 63.4173 89.624 63.67 89.624 63.9565C89.624 64.2475 89.6644 64.499 89.7454 64.7112C89.8285 64.9212 89.9477 65.0842 90.103 65.2001C90.2605 65.3139 90.4541 65.3707 90.6838 65.3707ZM95.6286 63.5792V66.4929H94.2308V59.773H95.5892V62.3422H95.6483C95.762 62.0447 95.9458 61.8117 96.1995 61.6433C96.4533 61.4726 96.7716 61.3873 97.1544 61.3873C97.5044 61.3873 97.8095 61.4639 98.0698 61.617C98.3323 61.7679 98.5358 61.9856 98.6801 62.27C98.8267 62.5522 98.8989 62.8901 98.8967 63.2839V66.4929H97.4989V63.5333C97.5011 63.2226 97.4223 62.9809 97.2627 62.8081C97.1052 62.6353 96.8842 62.5489 96.5998 62.5489C96.4095 62.5489 96.2411 62.5894 96.0945 62.6703C95.9502 62.7512 95.8364 62.8693 95.7533 63.0247C95.6724 63.1778 95.6308 63.3626 95.6286 63.5792ZM102.678 61.453V62.5029H99.6424V61.453H102.678ZM100.331 60.2455H101.729V64.9442C101.729 65.0732 101.749 65.1739 101.788 65.2461C101.828 65.3161 101.882 65.3653 101.952 65.3937C102.025 65.4221 102.108 65.4364 102.202 65.4364C102.267 65.4364 102.333 65.4309 102.399 65.42C102.464 65.4068 102.515 65.397 102.55 65.3904L102.769 66.4306C102.699 66.4525 102.601 66.4776 102.474 66.506C102.347 66.5367 102.193 66.5553 102.011 66.5618C101.675 66.575 101.379 66.5301 101.125 66.4273C100.874 66.3245 100.678 66.1648 100.538 65.9482C100.398 65.7317 100.329 65.4582 100.331 65.1279V60.2455ZM108.289 64.1567H109.497L110.104 64.9376L110.701 65.6332L111.826 67.0442H110.501L109.726 66.0926L109.329 65.5282L108.289 64.1567ZM111.928 63.1329C111.928 63.8657 111.789 64.4892 111.511 65.0032C111.236 65.5173 110.86 65.91 110.383 66.1812C109.908 66.4503 109.374 66.5848 108.781 66.5848C108.184 66.5848 107.648 66.4492 107.174 66.1779C106.699 65.9067 106.324 65.514 106.048 65C105.773 64.4859 105.635 63.8636 105.635 63.1329C105.635 62.4001 105.773 61.7767 106.048 61.2626C106.324 60.7486 106.699 60.357 107.174 60.088C107.648 59.8167 108.184 59.6811 108.781 59.6811C109.374 59.6811 109.908 59.8167 110.383 60.088C110.86 60.357 111.236 60.7486 111.511 61.2626C111.789 61.7767 111.928 62.4001 111.928 63.1329ZM110.488 63.1329C110.488 62.6583 110.417 62.2579 110.274 61.932C110.134 61.6061 109.936 61.3589 109.68 61.1905C109.425 61.022 109.125 60.9378 108.781 60.9378C108.438 60.9378 108.138 61.022 107.882 61.1905C107.626 61.3589 107.427 61.6061 107.285 61.932C107.145 62.2579 107.075 62.6583 107.075 63.1329C107.075 63.6076 107.145 64.0079 107.285 64.3339C107.427 64.6598 107.626 64.907 107.882 65.0754C108.138 65.2439 108.438 65.3281 108.781 65.3281C109.125 65.3281 109.425 65.2439 109.68 65.0754C109.936 64.907 110.134 64.6598 110.274 64.3339C110.417 64.0079 110.488 63.6076 110.488 63.1329ZM116.186 64.347V61.453H117.584V66.4929H116.242V65.5775H116.19C116.076 65.8728 115.887 66.1101 115.622 66.2895C115.359 66.4689 115.039 66.5585 114.661 66.5585C114.324 66.5585 114.027 66.482 113.771 66.3289C113.515 66.1757 113.315 65.9581 113.171 65.6759C113.029 65.3937 112.957 65.0557 112.954 64.662V61.453H114.352V64.4126C114.354 64.7101 114.434 64.9453 114.592 65.1181C114.749 65.2909 114.96 65.3773 115.225 65.3773C115.393 65.3773 115.551 65.339 115.697 65.2625C115.844 65.1837 115.962 65.0678 116.052 64.9146C116.144 64.7615 116.189 64.5723 116.186 64.347ZM120.979 66.5914C120.47 66.5914 120.029 66.4831 119.657 66.2665C119.287 66.0478 119.002 65.7437 118.801 65.3543C118.599 64.9628 118.499 64.5089 118.499 63.9926C118.499 63.472 118.599 63.017 118.801 62.6276C119.002 62.2361 119.287 61.932 119.657 61.7154C120.029 61.4967 120.47 61.3873 120.979 61.3873C121.489 61.3873 121.929 61.4967 122.298 61.7154C122.67 61.932 122.957 62.2361 123.158 62.6276C123.359 63.017 123.46 63.472 123.46 63.9926C123.46 64.5089 123.359 64.9628 123.158 65.3543C122.957 65.7437 122.67 66.0478 122.298 66.2665C121.929 66.4831 121.489 66.5914 120.979 66.5914ZM120.986 65.5086C121.218 65.5086 121.411 65.4429 121.567 65.3117C121.722 65.1782 121.839 64.9967 121.918 64.767C121.999 64.5373 122.039 64.2759 122.039 63.9828C122.039 63.6897 121.999 63.4283 121.918 63.1986C121.839 62.9689 121.722 62.7873 121.567 62.6539C121.411 62.5204 121.218 62.4537 120.986 62.4537C120.752 62.4537 120.555 62.5204 120.395 62.6539C120.238 62.7873 120.119 62.9689 120.038 63.1986C119.959 63.4283 119.92 63.6897 119.92 63.9828C119.92 64.2759 119.959 64.5373 120.038 64.767C120.119 64.9967 120.238 65.1782 120.395 65.3117C120.555 65.4429 120.752 65.5086 120.986 65.5086ZM127.05 61.453V62.5029H124.015V61.453H127.05ZM124.704 60.2455H126.101V64.9442C126.101 65.0732 126.121 65.1739 126.16 65.2461C126.2 65.3161 126.255 65.3653 126.325 65.3937C126.397 65.4221 126.48 65.4364 126.574 65.4364C126.64 65.4364 126.705 65.4309 126.771 65.42C126.836 65.4068 126.887 65.397 126.922 65.3904L127.142 66.4306C127.072 66.4525 126.973 66.4776 126.846 66.506C126.719 66.5367 126.565 66.5553 126.384 66.5618C126.047 66.575 125.751 66.5301 125.498 66.4273C125.246 66.3245 125.05 66.1648 124.91 65.9482C124.77 65.7317 124.701 65.4582 124.704 65.1279V60.2455ZM130.203 66.5914C129.684 66.5914 129.238 66.4864 128.864 66.2764C128.492 66.0642 128.206 65.7645 128.004 65.3773C127.803 64.9879 127.703 64.5275 127.703 63.9959C127.703 63.4775 127.803 63.0225 128.004 62.6309C128.206 62.2394 128.489 61.9342 128.854 61.7154C129.222 61.4967 129.653 61.3873 130.147 61.3873C130.48 61.3873 130.789 61.4409 131.076 61.5481C131.364 61.6531 131.616 61.8117 131.83 62.0239C132.047 62.2361 132.215 62.5029 132.336 62.8245C132.456 63.1439 132.516 63.5179 132.516 63.9467V64.3306H128.26V63.4643H131.2C131.2 63.2631 131.157 63.0848 131.069 62.9295C130.982 62.7742 130.86 62.6528 130.705 62.5653C130.552 62.4756 130.374 62.4308 130.17 62.4308C129.958 62.4308 129.77 62.48 129.606 62.5784C129.444 62.6747 129.317 62.8048 129.225 62.9689C129.133 63.1308 129.086 63.3112 129.084 63.5103V64.3339C129.084 64.5832 129.13 64.7987 129.222 64.9803C129.316 65.1618 129.448 65.3018 129.619 65.4003C129.789 65.4987 129.992 65.5479 130.226 65.5479C130.381 65.5479 130.523 65.5261 130.652 65.4823C130.782 65.4386 130.892 65.3729 130.984 65.2854C131.076 65.1979 131.146 65.0907 131.194 64.9639L132.487 65.0492C132.421 65.3598 132.287 65.6311 132.083 65.8629C131.882 66.0926 131.622 66.272 131.302 66.401C130.985 66.5279 130.619 66.5914 130.203 66.5914ZM137.622 62.8901L136.342 62.9689C136.32 62.8595 136.273 62.7611 136.201 62.6736C136.129 62.5839 136.034 62.5128 135.916 62.4603C135.8 62.4056 135.661 62.3783 135.499 62.3783C135.282 62.3783 135.1 62.4242 134.951 62.5161C134.802 62.6058 134.728 62.7261 134.728 62.877C134.728 62.9973 134.776 63.099 134.872 63.1822C134.968 63.2653 135.134 63.332 135.368 63.3823L136.28 63.5661C136.77 63.6667 137.135 63.8286 137.376 64.0517C137.616 64.2748 137.737 64.5679 137.737 64.9311C137.737 65.2614 137.639 65.5512 137.445 65.8006C137.252 66.05 136.987 66.2446 136.651 66.3846C136.316 66.5225 135.93 66.5914 135.492 66.5914C134.825 66.5914 134.294 66.4525 133.898 66.1746C133.504 65.8946 133.273 65.514 133.205 65.0328L134.58 64.9606C134.622 65.164 134.722 65.3193 134.882 65.4265C135.042 65.5315 135.246 65.584 135.496 65.584C135.741 65.584 135.937 65.537 136.086 65.4429C136.237 65.3467 136.314 65.2231 136.316 65.0721C136.314 64.9453 136.26 64.8414 136.155 64.7604C136.05 64.6773 135.888 64.6139 135.669 64.5701L134.797 64.3962C134.304 64.2978 133.938 64.1272 133.697 63.8843C133.459 63.6415 133.34 63.332 133.34 62.9558C133.34 62.632 133.427 62.3531 133.602 62.119C133.779 61.885 134.028 61.7045 134.347 61.5776C134.669 61.4508 135.045 61.3873 135.476 61.3873C136.112 61.3873 136.613 61.5219 136.979 61.7909C137.346 62.06 137.561 62.4264 137.622 62.8901Z" fill="#666666"/>
<path d="M276.621 61.7056C276.595 61.4409 276.482 61.2353 276.283 61.0887C276.084 60.9422 275.814 60.8689 275.473 60.8689C275.241 60.8689 275.045 60.9017 274.885 60.9673C274.726 61.0308 274.603 61.1194 274.518 61.2331C274.435 61.3469 274.393 61.4759 274.393 61.6203C274.389 61.7406 274.414 61.8456 274.469 61.9353C274.525 62.025 274.603 62.1026 274.702 62.1683C274.8 62.2317 274.914 62.2875 275.043 62.3356C275.172 62.3815 275.31 62.4209 275.456 62.4537L276.06 62.5981C276.353 62.6637 276.622 62.7512 276.867 62.8606C277.112 62.97 277.324 63.1045 277.504 63.2642C277.683 63.4239 277.822 63.612 277.92 63.8286C278.021 64.0451 278.073 64.2934 278.075 64.5734C278.073 64.9846 277.968 65.3412 277.76 65.6431C277.554 65.9428 277.257 66.1757 276.867 66.342C276.48 66.506 276.013 66.5881 275.466 66.5881C274.924 66.5881 274.451 66.505 274.049 66.3387C273.648 66.1725 273.336 65.9264 273.11 65.6004C272.887 65.2723 272.77 64.8665 272.759 64.3831H274.134C274.149 64.6084 274.214 64.7965 274.328 64.9475C274.443 65.0962 274.598 65.2089 274.79 65.2854C274.985 65.3598 275.205 65.397 275.45 65.397C275.69 65.397 275.899 65.362 276.076 65.292C276.256 65.222 276.395 65.1246 276.493 65C276.592 64.8753 276.641 64.732 276.641 64.5701C276.641 64.4192 276.596 64.2923 276.506 64.1895C276.419 64.0867 276.29 63.9992 276.119 63.927C275.951 63.8548 275.744 63.7892 275.499 63.7301L274.767 63.5464C274.201 63.4086 273.753 63.1931 273.425 62.9C273.097 62.6069 272.934 62.212 272.936 61.7154C272.934 61.3086 273.042 60.9531 273.261 60.6491C273.482 60.345 273.785 60.1076 274.17 59.937C274.555 59.7664 274.993 59.6811 275.483 59.6811C275.981 59.6811 276.417 59.7664 276.788 59.937C277.163 60.1076 277.453 60.345 277.661 60.6491C277.869 60.9531 277.976 61.3053 277.983 61.7056H276.621ZM279.004 66.4929V61.453H280.336V62.3422H280.395C280.5 62.0469 280.675 61.8139 280.92 61.6433C281.165 61.4726 281.458 61.3873 281.8 61.3873C282.145 61.3873 282.44 61.4737 282.682 61.6465C282.925 61.8172 283.087 62.049 283.168 62.3422H283.22C283.323 62.0534 283.509 61.8226 283.778 61.6498C284.05 61.4748 284.37 61.3873 284.74 61.3873C285.21 61.3873 285.592 61.5372 285.885 61.8369C286.18 62.1344 286.328 62.5565 286.328 63.1034V66.4929H284.933V63.379C284.933 63.099 284.859 62.889 284.71 62.749C284.561 62.609 284.375 62.539 284.152 62.539C283.899 62.539 283.701 62.62 283.558 62.7818C283.416 62.9415 283.345 63.1526 283.345 63.4151V66.4929H281.99V63.3495C281.99 63.1023 281.919 62.9054 281.777 62.7589C281.637 62.6123 281.452 62.539 281.222 62.539C281.067 62.539 280.927 62.5784 280.802 62.6572C280.68 62.7337 280.582 62.842 280.51 62.982C280.438 63.1198 280.402 63.2817 280.402 63.4676V66.4929H279.004ZM288.869 66.5881C288.548 66.5881 288.261 66.5323 288.009 66.4207C287.758 66.307 287.559 66.1396 287.412 65.9187C287.268 65.6956 287.196 65.4178 287.196 65.0853C287.196 64.8053 287.247 64.5701 287.35 64.3798C287.453 64.1895 287.593 64.0364 287.77 63.9204C287.947 63.8045 288.148 63.717 288.374 63.6579C288.601 63.5989 288.84 63.5573 289.089 63.5333C289.382 63.5026 289.618 63.4742 289.798 63.4479C289.977 63.4195 290.107 63.3779 290.188 63.3233C290.269 63.2686 290.31 63.1876 290.31 63.0804V63.0608C290.31 62.8529 290.244 62.6922 290.113 62.5784C289.984 62.4647 289.8 62.4078 289.561 62.4078C289.31 62.4078 289.11 62.4636 288.961 62.5751C288.812 62.6845 288.714 62.8223 288.666 62.9886L287.373 62.8836C287.438 62.5773 287.568 62.3126 287.76 62.0895C287.953 61.8642 288.201 61.6914 288.505 61.5711C288.811 61.4486 289.166 61.3873 289.568 61.3873C289.848 61.3873 290.116 61.4201 290.372 61.4858C290.63 61.5514 290.859 61.6531 291.058 61.7909C291.259 61.9287 291.418 62.1059 291.533 62.3225C291.649 62.5369 291.707 62.7939 291.707 63.0936V66.4929H290.382V65.794H290.342C290.261 65.9515 290.153 66.0904 290.018 66.2107C289.882 66.3289 289.719 66.4218 289.529 66.4896C289.338 66.5553 289.118 66.5881 288.869 66.5881ZM289.269 65.6234C289.475 65.6234 289.657 65.5829 289.814 65.502C289.972 65.4189 290.095 65.3073 290.185 65.1673C290.275 65.0273 290.319 64.8687 290.319 64.6915V64.1567C290.276 64.1851 290.216 64.2114 290.139 64.2354C290.065 64.2573 289.98 64.2781 289.886 64.2978C289.792 64.3153 289.698 64.3317 289.604 64.347C289.51 64.3601 289.425 64.3722 289.348 64.3831C289.184 64.4072 289.041 64.4454 288.918 64.4979C288.796 64.5504 288.701 64.6215 288.633 64.7112C288.565 64.7987 288.531 64.9081 288.531 65.0393C288.531 65.2296 288.6 65.3751 288.738 65.4757C288.878 65.5742 289.055 65.6234 289.269 65.6234ZM292.792 66.4929V61.453H294.147V62.3323H294.199C294.291 62.0195 294.446 61.7833 294.662 61.6236C294.879 61.4617 295.128 61.3808 295.41 61.3808C295.48 61.3808 295.556 61.3851 295.637 61.3939C295.718 61.4026 295.789 61.4147 295.85 61.43V62.6703C295.784 62.6506 295.694 62.6331 295.578 62.6178C295.462 62.6025 295.356 62.5948 295.259 62.5948C295.054 62.5948 294.87 62.6397 294.708 62.7293C294.548 62.8168 294.422 62.9393 294.327 63.0968C294.236 63.2543 294.19 63.4359 294.19 63.6415V66.4929H292.792ZM299.506 61.453V62.5029H296.471V61.453H299.506ZM297.16 60.2455H298.558V64.9442C298.558 65.0732 298.577 65.1739 298.617 65.2461C298.656 65.3161 298.711 65.3653 298.781 65.3937C298.853 65.4221 298.936 65.4364 299.03 65.4364C299.096 65.4364 299.162 65.4309 299.227 65.42C299.293 65.4068 299.343 65.397 299.378 65.3904L299.598 66.4306C299.528 66.4525 299.429 66.4776 299.303 66.506C299.176 66.5367 299.022 66.5553 298.84 66.5618C298.503 66.575 298.208 66.5301 297.954 66.4273C297.702 66.3245 297.507 66.1648 297.367 65.9482C297.227 65.7317 297.158 65.4582 297.16 65.1279V60.2455ZM305.118 64.1567H306.325L306.932 64.9376L307.529 65.6332L308.655 67.0442H307.329L306.555 66.0926L306.158 65.5282L305.118 64.1567ZM308.757 63.1329C308.757 63.8657 308.618 64.4892 308.34 65.0032C308.064 65.5173 307.688 65.91 307.211 66.1812C306.737 66.4503 306.203 66.5848 305.61 66.5848C305.013 66.5848 304.477 66.4492 304.002 66.1779C303.527 65.9067 303.152 65.514 302.877 65C302.601 64.4859 302.463 63.8636 302.463 63.1329C302.463 62.4001 302.601 61.7767 302.877 61.2626C303.152 60.7486 303.527 60.357 304.002 60.088C304.477 59.8167 305.013 59.6811 305.61 59.6811C306.203 59.6811 306.737 59.8167 307.211 60.088C307.688 60.357 308.064 60.7486 308.34 61.2626C308.618 61.7767 308.757 62.4001 308.757 63.1329ZM307.316 63.1329C307.316 62.6583 307.245 62.2579 307.103 61.932C306.963 61.6061 306.765 61.3589 306.509 61.1905C306.253 61.022 305.953 60.9378 305.61 60.9378C305.267 60.9378 304.967 61.022 304.711 61.1905C304.455 61.3589 304.256 61.6061 304.114 61.932C303.974 62.2579 303.904 62.6583 303.904 63.1329C303.904 63.6076 303.974 64.0079 304.114 64.3339C304.256 64.6598 304.455 64.907 304.711 65.0754C304.967 65.2439 305.267 65.3281 305.61 65.3281C305.953 65.3281 306.253 65.2439 306.509 65.0754C306.765 64.907 306.963 64.6598 307.103 64.3339C307.245 64.0079 307.316 63.6076 307.316 63.1329ZM313.015 64.347V61.453H314.413V66.4929H313.071V65.5775H313.018C312.904 65.8728 312.715 66.1101 312.45 66.2895C312.188 66.4689 311.868 66.5585 311.489 66.5585C311.152 66.5585 310.856 66.482 310.6 66.3289C310.344 66.1757 310.144 65.9581 309.999 65.6759C309.857 65.3937 309.785 65.0557 309.783 64.662V61.453H311.181V64.4126C311.183 64.7101 311.263 64.9453 311.42 65.1181C311.578 65.2909 311.789 65.3773 312.053 65.3773C312.222 65.3773 312.379 65.339 312.526 65.2625C312.673 65.1837 312.791 65.0678 312.88 64.9146C312.972 64.7615 313.017 64.5723 313.015 64.347ZM317.808 66.5914C317.298 66.5914 316.857 66.4831 316.486 66.2665C316.116 66.0478 315.83 65.7437 315.629 65.3543C315.428 64.9628 315.327 64.5089 315.327 63.9926C315.327 63.472 315.428 63.017 315.629 62.6276C315.83 62.2361 316.116 61.932 316.486 61.7154C316.857 61.4967 317.298 61.3873 317.808 61.3873C318.318 61.3873 318.757 61.4967 319.127 61.7154C319.499 61.932 319.785 62.2361 319.987 62.6276C320.188 63.017 320.289 63.472 320.289 63.9926C320.289 64.5089 320.188 64.9628 319.987 65.3543C319.785 65.7437 319.499 66.0478 319.127 66.2665C318.757 66.4831 318.318 66.5914 317.808 66.5914ZM317.814 65.5086C318.046 65.5086 318.24 65.4429 318.395 65.3117C318.551 65.1782 318.668 64.9967 318.746 64.767C318.827 64.5373 318.868 64.2759 318.868 63.9828C318.868 63.6897 318.827 63.4283 318.746 63.1986C318.668 62.9689 318.551 62.7873 318.395 62.6539C318.24 62.5204 318.046 62.4537 317.814 62.4537C317.58 62.4537 317.384 62.5204 317.224 62.6539C317.066 62.7873 316.947 62.9689 316.866 63.1986C316.787 63.4283 316.748 63.6897 316.748 63.9828C316.748 64.2759 316.787 64.5373 316.866 64.767C316.947 64.9967 317.066 65.1782 317.224 65.3117C317.384 65.4429 317.58 65.5086 317.814 65.5086ZM323.878 61.453V62.5029H320.843V61.453H323.878ZM321.532 60.2455H322.93V64.9442C322.93 65.0732 322.95 65.1739 322.989 65.2461C323.028 65.3161 323.083 65.3653 323.153 65.3937C323.225 65.4221 323.308 65.4364 323.402 65.4364C323.468 65.4364 323.534 65.4309 323.599 65.42C323.665 65.4068 323.715 65.397 323.75 65.3904L323.97 66.4306C323.9 66.4525 323.802 66.4776 323.675 66.506C323.548 66.5367 323.394 66.5553 323.212 66.5618C322.875 66.575 322.58 66.5301 322.326 66.4273C322.075 66.3245 321.879 66.1648 321.739 65.9482C321.599 65.7317 321.53 65.4582 321.532 65.1279V60.2455ZM327.031 66.5914C326.513 66.5914 326.067 66.4864 325.693 66.2764C325.321 66.0642 325.034 65.7645 324.833 65.3773C324.632 64.9879 324.531 64.5275 324.531 63.9959C324.531 63.4775 324.632 63.0225 324.833 62.6309C325.034 62.2394 325.318 61.9342 325.683 61.7154C326.05 61.4967 326.481 61.3873 326.976 61.3873C327.308 61.3873 327.618 61.4409 327.904 61.5481C328.193 61.6531 328.445 61.8117 328.659 62.0239C328.876 62.2361 329.044 62.5029 329.164 62.8245C329.285 63.1439 329.345 63.5179 329.345 63.9467V64.3306H325.089V63.4643H328.029C328.029 63.2631 327.985 63.0848 327.898 62.9295C327.81 62.7742 327.689 62.6528 327.533 62.5653C327.38 62.4756 327.202 62.4308 326.999 62.4308C326.786 62.4308 326.598 62.48 326.434 62.5784C326.272 62.6747 326.146 62.8048 326.054 62.9689C325.962 63.1308 325.915 63.3112 325.913 63.5103V64.3339C325.913 64.5832 325.958 64.7987 326.05 64.9803C326.144 65.1618 326.277 65.3018 326.447 65.4003C326.618 65.4987 326.82 65.5479 327.054 65.5479C327.21 65.5479 327.352 65.5261 327.481 65.4823C327.61 65.4386 327.721 65.3729 327.812 65.2854C327.904 65.1979 327.974 65.0907 328.022 64.9639L329.315 65.0492C329.25 65.3598 329.115 65.6311 328.912 65.8629C328.71 66.0926 328.45 66.272 328.131 66.401C327.813 66.5279 327.447 66.5914 327.031 66.5914ZM334.45 62.8901L333.171 62.9689C333.149 62.8595 333.102 62.7611 333.03 62.6736C332.957 62.5839 332.862 62.5128 332.744 62.4603C332.628 62.4056 332.489 62.3783 332.327 62.3783C332.111 62.3783 331.928 62.4242 331.779 62.5161C331.631 62.6058 331.556 62.7261 331.556 62.877C331.556 62.9973 331.604 63.099 331.701 63.1822C331.797 63.2653 331.962 63.332 332.196 63.3823L333.108 63.5661C333.598 63.6667 333.964 63.8286 334.204 64.0517C334.445 64.2748 334.565 64.5679 334.565 64.9311C334.565 65.2614 334.468 65.5512 334.273 65.8006C334.081 66.05 333.816 66.2446 333.479 66.3846C333.144 66.5225 332.758 66.5914 332.321 66.5914C331.654 66.5914 331.122 66.4525 330.726 66.1746C330.332 65.8946 330.102 65.514 330.034 65.0328L331.409 64.9606C331.45 65.164 331.551 65.3193 331.71 65.4265C331.87 65.5315 332.075 65.584 332.324 65.584C332.569 65.584 332.766 65.537 332.915 65.4429C333.066 65.3467 333.142 65.2231 333.144 65.0721C333.142 64.9453 333.089 64.8414 332.984 64.7604C332.879 64.6773 332.717 64.6139 332.498 64.5701L331.625 64.3962C331.133 64.2978 330.767 64.1272 330.526 63.8843C330.288 63.6415 330.168 63.332 330.168 62.9558C330.168 62.632 330.256 62.3531 330.431 62.119C330.608 61.885 330.856 61.7045 331.176 61.5776C331.497 61.4508 331.873 61.3873 332.304 61.3873C332.941 61.3873 333.442 61.5219 333.807 61.7909C334.175 62.06 334.389 62.4264 334.45 62.8901Z" fill="#0DBA38"/>
</g>
<defs>
<linearGradient id="paint0_linear_32_1273" x1="184.799" y1="128.333" x2="4291.44" y2="128.333" gradientUnits="userSpaceOnUse">
<stop stop-color="#6415FF"/>
<stop offset="1" stop-color="#A099FF"/>
</linearGradient>
<clipPath id="clip0_32_1273">
<rect width="410.664" height="328.531" fill="white"/>
</clipPath>
</defs>
</svg>
