<svg width="392" height="314" viewBox="0 0 392 314" fill="none" xmlns="http://www.w3.org/2000/svg">
<g clip-path="url(#clip0_25_1115)">
<path d="M391.332 0H0.00390625V313.062H391.332V0Z" fill="#E74646"/>
<path d="M124.251 53.8076H32.2885C27.966 53.8076 24.4619 57.3117 24.4619 61.6342V251.428C24.4619 255.751 27.966 259.255 32.2885 259.255H124.251C128.573 259.255 132.077 255.751 132.077 251.428V61.6342C132.077 57.3117 128.573 53.8076 124.251 53.8076Z" fill="black" fill-opacity="0.15"/>
<path d="M241.649 53.8076H149.687C145.364 53.8076 141.86 57.3117 141.86 61.6342V251.428C141.86 255.751 145.364 259.255 149.687 259.255H241.649C245.972 259.255 249.476 255.751 249.476 251.428V61.6342C249.476 57.3117 245.972 53.8076 241.649 53.8076Z" fill="black" fill-opacity="0.2"/>
<path d="M359.047 53.8076H267.085C262.763 53.8076 259.259 57.3117 259.259 61.6342V251.428C259.259 255.751 262.763 259.255 267.085 259.255H359.047C363.37 259.255 366.874 255.751 366.874 251.428V61.6342C366.874 57.3117 363.37 53.8076 359.047 53.8076Z" fill="black" fill-opacity="0.15"/>
<path d="M116.424 73.374H40.115C36.8732 73.374 34.2451 76.0021 34.2451 79.2439V111.529C34.2451 114.77 36.8732 117.398 40.115 117.398H116.424C119.666 117.398 122.294 114.77 122.294 111.529V79.2439C122.294 76.0021 119.666 73.374 116.424 73.374Z" fill="white"/>
<path d="M116.424 127.182H40.115C36.8732 127.182 34.2451 129.81 34.2451 133.052V165.336C34.2451 168.578 36.8732 171.206 40.115 171.206H116.424C119.666 171.206 122.294 168.578 122.294 165.336V133.052C122.294 129.81 119.666 127.182 116.424 127.182Z" fill="white"/>
<path d="M116.424 180.989H40.115C36.8732 180.989 34.2451 183.617 34.2451 186.859V219.144C34.2451 222.386 36.8732 225.014 40.115 225.014H116.424C119.666 225.014 122.294 222.386 122.294 219.144V186.859C122.294 183.617 119.666 180.989 116.424 180.989Z" fill="white"/>
<path d="M233.822 73.374H157.513C154.272 73.374 151.644 76.0021 151.644 79.2439V111.529C151.644 114.77 154.272 117.398 157.513 117.398H233.822C237.064 117.398 239.692 114.77 239.692 111.529V79.2439C239.692 76.0021 237.064 73.374 233.822 73.374Z" fill="white"/>
<path d="M233.822 127.182H157.513C154.272 127.182 151.644 129.81 151.644 133.052V165.336C151.644 168.578 154.272 171.206 157.513 171.206H233.822C237.064 171.206 239.692 168.578 239.692 165.336V133.052C239.692 129.81 237.064 127.182 233.822 127.182Z" fill="white"/>
<path d="M351.221 73.374H274.912C271.67 73.374 269.042 76.0021 269.042 79.2439V111.529C269.042 114.77 271.67 117.398 274.912 117.398H351.221C354.463 117.398 357.091 114.77 357.091 111.529V79.2439C357.091 76.0021 354.463 73.374 351.221 73.374Z" fill="white"/>
</g>
<defs>
<clipPath id="clip0_25_1115">
<rect width="391.336" height="313.062" fill="white"/>
</clipPath>
</defs>
</svg>
