<svg width="411" height="329" viewBox="0 0 411 329" fill="none" xmlns="http://www.w3.org/2000/svg">
<g clip-path="url(#clip0_33_1924)">
<path d="M410.664 0H0V328.531H410.664V0Z" fill="#F2F2F2"/>
<path opacity="0.6" d="M88.2928 102.666H65.7063C63.4382 102.666 61.5996 104.505 61.5996 106.773V221.759C61.5996 224.027 63.4382 225.865 65.7063 225.865H88.2928C90.5608 225.865 92.3994 224.027 92.3994 221.759V106.773C92.3994 104.505 90.5608 102.666 88.2928 102.666Z" fill="#666666"/>
<path opacity="0.6" d="M129.359 102.666H106.773C104.505 102.666 102.666 104.505 102.666 106.773V221.759C102.666 224.027 104.505 225.865 106.773 225.865H129.359C131.627 225.865 133.466 224.027 133.466 221.759V106.773C133.466 104.505 131.627 102.666 129.359 102.666Z" fill="#666666"/>
<path d="M215.599 143.732H195.065C183.725 143.732 174.532 152.925 174.532 164.266C174.532 175.606 183.725 184.799 195.065 184.799H215.599C226.939 184.799 236.132 175.606 236.132 164.266C236.132 152.925 226.939 143.732 215.599 143.732Z" fill="url(#paint0_linear_33_1924)"/>
<path opacity="0.8" d="M277.198 102.666C270.354 143.732 270.354 184.799 277.198 225.865H297.731C290.887 184.799 290.887 143.732 297.731 102.666H277.198Z" fill="#0DBA38"/>
<path opacity="0.8" d="M318.265 102.666C311.42 143.732 311.42 184.799 318.265 225.865H338.798C331.953 184.799 331.953 143.732 338.798 102.666H318.265Z" fill="#0DBA38"/>
</g>
<defs>
<linearGradient id="paint0_linear_33_1924" x1="174.532" y1="143.732" x2="6334.49" y2="143.732" gradientUnits="userSpaceOnUse">
<stop stop-color="#6415FF"/>
<stop offset="1" stop-color="#A099FF"/>
</linearGradient>
<clipPath id="clip0_33_1924">
<rect width="410.664" height="328.531" fill="white"/>
</clipPath>
</defs>
</svg>
