<svg width="392" height="314" viewBox="0 0 392 314" fill="none" xmlns="http://www.w3.org/2000/svg">
<g clip-path="url(#clip0_25_1166)">
<path d="M391.332 0H0.00390625V313.062H391.332V0Z" fill="url(#paint0_linear_25_1166)"/>
<path d="M58.7031 83.1572L195.668 156.531" stroke="white" stroke-opacity="0.4" stroke-width="1.95664"/>
<path d="M58.7031 156.531H195.668" stroke="white" stroke-opacity="0.4" stroke-width="1.95664"/>
<path d="M58.7031 229.905L195.668 156.531" stroke="white" stroke-opacity="0.4" stroke-width="1.95664"/>
<path d="M195.668 156.531L332.633 83.1572" stroke="white" stroke-opacity="0.4" stroke-width="1.95664"/>
<path d="M195.668 156.531H332.633" stroke="white" stroke-opacity="0.4" stroke-width="1.95664"/>
<path d="M195.668 156.531L332.633 229.905" stroke="white" stroke-opacity="0.4" stroke-width="1.95664"/>
<path d="M58.7031 112.507C74.9125 112.507 88.0527 99.3666 88.0527 83.1572C88.0527 66.9479 74.9125 53.8076 58.7031 53.8076C42.4938 53.8076 29.3535 66.9479 29.3535 83.1572C29.3535 99.3666 42.4938 112.507 58.7031 112.507Z" fill="white" fill-opacity="0.9"/>
<path d="M58.7031 185.881C74.9125 185.881 88.0527 172.741 88.0527 156.531C88.0527 140.322 74.9125 127.182 58.7031 127.182C42.4938 127.182 29.3535 140.322 29.3535 156.531C29.3535 172.741 42.4938 185.881 58.7031 185.881Z" fill="white" fill-opacity="0.9"/>
<path d="M58.7031 259.255C74.9125 259.255 88.0527 246.115 88.0527 229.905C88.0527 213.696 74.9125 200.556 58.7031 200.556C42.4938 200.556 29.3535 213.696 29.3535 229.905C29.3535 246.115 42.4938 259.255 58.7031 259.255Z" fill="white" fill-opacity="0.9"/>
<path d="M195.668 198.11C218.632 198.11 237.247 179.494 237.247 156.531C237.247 133.568 218.632 114.953 195.668 114.953C172.705 114.953 154.09 133.568 154.09 156.531C154.09 179.494 172.705 198.11 195.668 198.11Z" fill="#FFDD9E"/>
<path d="M332.633 112.507C348.842 112.507 361.982 99.3666 361.982 83.1572C361.982 66.9479 348.842 53.8076 332.633 53.8076C316.423 53.8076 303.283 66.9479 303.283 83.1572C303.283 99.3666 316.423 112.507 332.633 112.507Z" fill="white" fill-opacity="0.9"/>
<path d="M332.633 185.881C348.842 185.881 361.982 172.741 361.982 156.531C361.982 140.322 348.842 127.182 332.633 127.182C316.423 127.182 303.283 140.322 303.283 156.531C303.283 172.741 316.423 185.881 332.633 185.881Z" fill="white" fill-opacity="0.9"/>
<path d="M332.633 259.255C348.842 259.255 361.982 246.115 361.982 229.905C361.982 213.696 348.842 200.556 332.633 200.556C316.423 200.556 303.283 213.696 303.283 229.905C303.283 246.115 316.423 259.255 332.633 259.255Z" fill="white" fill-opacity="0.9"/>
</g>
<defs>
<linearGradient id="paint0_linear_25_1166" x1="0.00390625" y1="0" x2="30542.7" y2="38178.4" gradientUnits="userSpaceOnUse">
<stop stop-color="#6415FF"/>
<stop offset="1" stop-color="#A099FF"/>
</linearGradient>
<clipPath id="clip0_25_1166">
<rect width="391.336" height="313.062" fill="white"/>
</clipPath>
</defs>
</svg>
