<svg width="392" height="314" viewBox="0 0 392 314" fill="none" xmlns="http://www.w3.org/2000/svg">
<g clip-path="url(#clip0_25_971)">
<path d="M391.332 0H0.00390625V313.062H391.332V0Z" fill="url(#paint0_linear_25_971)"/>
<path d="M334.589 53.8076H56.7465C52.424 53.8076 48.9199 57.3117 48.9199 61.6342V85.1139C48.9199 89.4364 52.424 92.9404 56.7465 92.9404H334.589C338.912 92.9404 342.416 89.4364 342.416 85.1139V61.6342C342.416 57.3117 338.912 53.8076 334.589 53.8076Z" fill="white" fill-opacity="0.3"/>
<path d="M334.589 107.615H56.7465C52.424 107.615 48.9199 111.119 48.9199 115.442V138.921C48.9199 143.244 52.424 146.748 56.7465 146.748H334.589C338.912 146.748 342.416 143.244 342.416 138.921V115.442C342.416 111.119 338.912 107.615 334.589 107.615Z" fill="white" fill-opacity="0.4"/>
<path d="M334.589 161.423H56.7465C52.424 161.423 48.9199 164.927 48.9199 169.249V192.729C48.9199 197.052 52.424 200.556 56.7465 200.556H334.589C338.912 200.556 342.416 197.052 342.416 192.729V169.249C342.416 164.927 338.912 161.423 334.589 161.423Z" fill="white" fill-opacity="0.5"/>
<path d="M334.589 215.23H56.7465C52.424 215.23 48.9199 218.735 48.9199 223.057V246.537C48.9199 250.859 52.424 254.363 56.7465 254.363H334.589C338.912 254.363 342.416 250.859 342.416 246.537V223.057C342.416 218.735 338.912 215.23 334.589 215.23Z" fill="white" fill-opacity="0.6"/>
<path d="M73.3774 85.603C80.1313 85.603 85.6064 80.1279 85.6064 73.374C85.6064 66.6201 80.1313 61.145 73.3774 61.145C66.6235 61.145 61.1484 66.6201 61.1484 73.374C61.1484 80.1279 66.6235 85.603 73.3774 85.603Z" fill="#0086E6"/>
<path d="M195.668 85.603C202.422 85.603 207.897 80.1279 207.897 73.374C207.897 66.6201 202.422 61.145 195.668 61.145C188.915 61.145 183.439 66.6201 183.439 73.374C183.439 80.1279 188.915 85.603 195.668 85.603Z" fill="#0086E6"/>
<path d="M317.958 85.603C324.711 85.603 330.187 80.1279 330.187 73.374C330.187 66.6201 324.711 61.145 317.958 61.145C311.204 61.145 305.729 66.6201 305.729 73.374C305.729 80.1279 311.204 85.603 317.958 85.603Z" fill="#0086E6"/>
<path d="M73.3774 193.218C80.1313 193.218 85.6064 187.743 85.6064 180.989C85.6064 174.235 80.1313 168.76 73.3774 168.76C66.6235 168.76 61.1484 174.235 61.1484 180.989C61.1484 187.743 66.6235 193.218 73.3774 193.218Z" fill="#0DBA38"/>
<path d="M195.668 193.218C202.422 193.218 207.897 187.743 207.897 180.989C207.897 174.235 202.422 168.76 195.668 168.76C188.915 168.76 183.439 174.235 183.439 180.989C183.439 187.743 188.915 193.218 195.668 193.218Z" fill="#0DBA38"/>
<path d="M317.958 193.218C324.711 193.218 330.187 187.743 330.187 180.989C330.187 174.235 324.711 168.76 317.958 168.76C311.204 168.76 305.729 174.235 305.729 180.989C305.729 187.743 311.204 193.218 317.958 193.218Z" fill="#0DBA38"/>
</g>
<defs>
<linearGradient id="paint0_linear_25_971" x1="0.00390625" y1="0" x2="30542.7" y2="38178.4" gradientUnits="userSpaceOnUse">
<stop stop-color="#FFD3D9"/>
<stop offset="1" stop-color="#A099FF"/>
</linearGradient>
<clipPath id="clip0_25_971">
<rect width="391.336" height="313.062" fill="white"/>
</clipPath>
</defs>
</svg>
