<svg width="411" height="329" viewBox="0 0 411 329" fill="none" xmlns="http://www.w3.org/2000/svg">
<g clip-path="url(#clip0_33_1897)">
<path d="M410.664 0H0V328.531H410.664V0Z" fill="#F2F2F2"/>
<path d="M77.4902 207.899C100.171 207.899 118.557 189.513 118.557 166.832C118.557 144.152 100.171 125.766 77.4902 125.766C54.8099 125.766 36.4238 144.152 36.4238 166.832C36.4238 189.513 54.8099 207.899 77.4902 207.899Z" fill="#0086E6"/>
<path opacity="0.4" d="M205.332 166.832L274.097 82.9028" stroke="#CCCCCC" stroke-width="1.02666"/>
<path opacity="0.4" d="M205.332 166.832L335.183 104.463" stroke="#CCCCCC" stroke-width="1.02666"/>
<path opacity="0.4" d="M206.69 166.832L359.822 167.832" stroke="#CCCCCC" stroke-width="1.02666"/>
<path opacity="0.4" d="M206.69 166.832L335.183 228.175" stroke="#CCCCCC" stroke-width="1.02666"/>
<path opacity="0.4" d="M206.69 166.832L274.097 247.168" stroke="#CCCCCC" stroke-width="1.02666"/>
<path d="M272.556 111.136C288.149 111.136 300.79 98.4956 300.79 82.9028C300.79 67.3101 288.149 54.6697 272.556 54.6697C256.964 54.6697 244.323 67.3101 244.323 82.9028C244.323 98.4956 256.964 111.136 272.556 111.136Z" fill="#A099FF"/>
<path d="M334.156 130.129C348.331 130.129 359.822 118.638 359.822 104.463C359.822 90.2877 348.331 78.7964 334.156 78.7964C319.981 78.7964 308.489 90.2877 308.489 104.463C308.489 118.638 319.981 130.129 334.156 130.129Z" fill="#0DBA38"/>
<path d="M359.822 197.632C376.833 197.632 390.622 183.843 390.622 166.832C390.622 149.822 376.833 136.032 359.822 136.032C342.812 136.032 329.022 149.822 329.022 166.832C329.022 183.843 342.812 197.632 359.822 197.632Z" fill="#E74646"/>
<path d="M335.183 252.815C348.791 252.815 359.823 241.783 359.823 228.175C359.823 214.567 348.791 203.535 335.183 203.535C321.575 203.535 310.543 214.567 310.543 228.175C310.543 241.783 321.575 252.815 335.183 252.815Z" fill="#FFDD9E"/>
<path d="M274.096 273.862C288.839 273.862 300.79 261.911 300.79 247.169C300.79 232.426 288.839 220.475 274.096 220.475C259.354 220.475 247.403 232.426 247.403 247.169C247.403 261.911 259.354 273.862 274.096 273.862Z" fill="#FFD3D9"/>
<path d="M195.557 146.299H144.224C132.883 146.299 123.69 155.492 123.69 166.832C123.69 178.172 132.883 187.365 144.224 187.365H195.557C206.897 187.365 216.09 178.172 216.09 166.832C216.09 155.492 206.897 146.299 195.557 146.299Z" fill="#0086E6"/>
</g>
<defs>
<clipPath id="clip0_33_1897">
<rect width="410.664" height="328.531" fill="white"/>
</clipPath>
</defs>
</svg>
