<svg width="411" height="329" viewBox="0 0 411 329" fill="none" xmlns="http://www.w3.org/2000/svg">
<g clip-path="url(#clip0_31_554)">
<path d="M410.664 0H0V328.531H410.664V0Z" fill="#F2F2F2"/>
<path d="M87.2656 123.199H35.9326C30.2625 123.199 25.666 127.796 25.666 133.466V195.065C25.666 200.736 30.2625 205.332 35.9326 205.332H87.2656C92.9357 205.332 97.5322 200.736 97.5322 195.065V133.466C97.5322 127.796 92.9357 123.199 87.2656 123.199Z" fill="#0086E6"/>
<path opacity="0.9" d="M61.5994 151.432C65.8519 151.432 69.2993 147.985 69.2993 143.732C69.2993 139.48 65.8519 136.032 61.5994 136.032C57.3468 136.032 53.8994 139.48 53.8994 143.732C53.8994 147.985 57.3468 151.432 61.5994 151.432Z" fill="white"/>
<path opacity="0.9" d="M61.5994 171.966C65.8519 171.966 69.2993 168.518 69.2993 164.266C69.2993 160.013 65.8519 156.566 61.5994 156.566C57.3468 156.566 53.8994 160.013 53.8994 164.266C53.8994 168.518 57.3468 171.966 61.5994 171.966Z" fill="white"/>
<path opacity="0.9" d="M61.5994 192.499C65.8519 192.499 69.2993 189.051 69.2993 184.799C69.2993 180.546 65.8519 177.099 61.5994 177.099C57.3468 177.099 53.8994 180.546 53.8994 184.799C53.8994 189.051 57.3468 192.499 61.5994 192.499Z" fill="white"/>
<path d="M191.985 138.599H116.012C111.476 138.599 107.799 142.276 107.799 146.812V181.719C107.799 186.255 111.476 189.932 116.012 189.932H191.985C196.521 189.932 200.198 186.255 200.198 181.719V146.812C200.198 142.276 196.521 138.599 191.985 138.599Z" fill="url(#paint0_linear_31_554)"/>
<path opacity="0.3" d="M134.492 151.432H122.172C119.904 151.432 118.065 153.271 118.065 155.539V172.992C118.065 175.26 119.904 177.099 122.172 177.099H134.492C136.76 177.099 138.599 175.26 138.599 172.992V155.539C138.599 153.271 136.76 151.432 134.492 151.432Z" fill="white"/>
<path opacity="0.3" d="M162.725 151.432H150.405C148.137 151.432 146.299 153.271 146.299 155.539V172.992C146.299 175.26 148.137 177.099 150.405 177.099H162.725C164.993 177.099 166.832 175.26 166.832 172.992V155.539C166.832 153.271 164.993 151.432 162.725 151.432Z" fill="white"/>
<path opacity="0.3" d="M190.959 151.432H178.639C176.371 151.432 174.532 153.271 174.532 155.539V172.992C174.532 175.26 176.371 177.099 178.639 177.099H190.959C193.227 177.099 195.065 175.26 195.065 172.992V155.539C195.065 153.271 193.227 151.432 190.959 151.432Z" fill="white"/>
<path d="M112.932 164.266C112.932 160.013 109.485 156.566 105.232 156.566C100.98 156.566 97.5322 160.013 97.5322 164.266C97.5322 168.518 100.98 171.966 105.232 171.966C109.485 171.966 112.932 168.518 112.932 164.266Z" fill="#999999"/>
<path d="M215.599 164.266C215.599 160.013 212.152 156.566 207.899 156.566C203.647 156.566 200.199 160.013 200.199 164.266C200.199 168.518 203.647 171.966 207.899 171.966C212.152 171.966 215.599 168.518 215.599 164.266Z" fill="#999999"/>
<path d="M294.651 51.333H234.079C229.542 51.333 225.865 55.0102 225.865 59.5463V94.4527C225.865 98.9888 229.542 102.666 234.079 102.666H294.651C299.188 102.666 302.865 98.9888 302.865 94.4527V59.5463C302.865 55.0102 299.188 51.333 294.651 51.333Z" fill="#A099FF"/>
<path opacity="0.8" d="M249.478 64.1663H238.185C237.051 64.1663 236.132 65.0856 236.132 66.2196C236.132 67.3536 237.051 68.2729 238.185 68.2729H249.478C250.612 68.2729 251.532 67.3536 251.532 66.2196C251.532 65.0856 250.612 64.1663 249.478 64.1663Z" fill="white"/>
<path opacity="0.8" d="M259.745 74.4329H238.185C237.051 74.4329 236.132 75.3522 236.132 76.4862C236.132 77.6202 237.051 78.5395 238.185 78.5395H259.745C260.879 78.5395 261.798 77.6202 261.798 76.4862C261.798 75.3522 260.879 74.4329 259.745 74.4329Z" fill="white"/>
<path opacity="0.8" d="M254.612 84.6995H238.185C237.051 84.6995 236.132 85.6188 236.132 86.7528C236.132 87.8868 237.051 88.8061 238.185 88.8061H254.612C255.746 88.8061 256.665 87.8868 256.665 86.7528C256.665 85.6188 255.746 84.6995 254.612 84.6995Z" fill="white"/>
<path d="M294.651 123.199H234.079C229.542 123.199 225.865 126.876 225.865 131.413V166.319C225.865 170.855 229.542 174.532 234.079 174.532H294.651C299.188 174.532 302.865 170.855 302.865 166.319V131.413C302.865 126.876 299.188 123.199 294.651 123.199Z" fill="#0DBA38"/>
<path opacity="0.8" d="M249.478 136.032H238.185C237.051 136.032 236.132 136.952 236.132 138.086C236.132 139.22 237.051 140.139 238.185 140.139H249.478C250.612 140.139 251.532 139.22 251.532 138.086C251.532 136.952 250.612 136.032 249.478 136.032Z" fill="white"/>
<path opacity="0.8" d="M259.745 146.299H238.185C237.051 146.299 236.132 147.218 236.132 148.352C236.132 149.486 237.051 150.406 238.185 150.406H259.745C260.879 150.406 261.798 149.486 261.798 148.352C261.798 147.218 260.879 146.299 259.745 146.299Z" fill="white"/>
<path opacity="0.8" d="M254.612 156.566H238.185C237.051 156.566 236.132 157.485 236.132 158.619C236.132 159.753 237.051 160.672 238.185 160.672H254.612C255.746 160.672 256.665 159.753 256.665 158.619C256.665 157.485 255.746 156.566 254.612 156.566Z" fill="white"/>
<path d="M294.651 195.065H234.079C229.542 195.065 225.865 198.743 225.865 203.279V238.185C225.865 242.721 229.542 246.398 234.079 246.398H294.651C299.188 246.398 302.865 242.721 302.865 238.185V203.279C302.865 198.743 299.188 195.065 294.651 195.065Z" fill="#E74646"/>
<path opacity="0.8" d="M249.478 207.899H238.185C237.051 207.899 236.132 208.818 236.132 209.952C236.132 211.086 237.051 212.005 238.185 212.005H249.478C250.612 212.005 251.532 211.086 251.532 209.952C251.532 208.818 250.612 207.899 249.478 207.899Z" fill="white"/>
<path opacity="0.8" d="M259.745 218.165H238.185C237.051 218.165 236.132 219.085 236.132 220.219C236.132 221.353 237.051 222.272 238.185 222.272H259.745C260.879 222.272 261.798 221.353 261.798 220.219C261.798 219.085 260.879 218.165 259.745 218.165Z" fill="white"/>
<path opacity="0.8" d="M254.612 228.432H238.185C237.051 228.432 236.132 229.351 236.132 230.485C236.132 231.619 237.051 232.539 238.185 232.539H254.612C255.746 232.539 256.665 231.619 256.665 230.485C256.665 229.351 255.746 228.432 254.612 228.432Z" fill="white"/>
<path d="M377.81 87.2661H320.317C316.348 87.2661 313.131 90.4837 313.131 94.4527V126.279C313.131 130.248 316.348 133.466 320.317 133.466H377.81C381.78 133.466 384.997 130.248 384.997 126.279V94.4527C384.997 90.4837 381.78 87.2661 377.81 87.2661Z" fill="#FFDD9E"/>
<path opacity="0.8" d="M332.124 98.5593H322.371C321.521 98.5593 320.831 99.2488 320.831 100.099C320.831 100.95 321.521 101.639 322.371 101.639H332.124C332.975 101.639 333.664 100.95 333.664 100.099C333.664 99.2488 332.975 98.5593 332.124 98.5593Z" fill="#666666"/>
<path opacity="0.8" d="M339.824 106.773H322.371C321.521 106.773 320.831 107.462 320.831 108.313C320.831 109.163 321.521 109.853 322.371 109.853H339.824C340.675 109.853 341.364 109.163 341.364 108.313C341.364 107.462 340.675 106.773 339.824 106.773Z" fill="#666666"/>
<path opacity="0.8" d="M337.258 114.986H322.371C321.521 114.986 320.831 115.675 320.831 116.526C320.831 117.376 321.521 118.066 322.371 118.066H337.258C338.108 118.066 338.798 117.376 338.798 116.526C338.798 115.675 338.108 114.986 337.258 114.986Z" fill="#666666"/>
<path d="M377.81 159.132H320.317C316.348 159.132 313.131 162.35 313.131 166.319V198.145C313.131 202.114 316.348 205.332 320.317 205.332H377.81C381.78 205.332 384.997 202.114 384.997 198.145V166.319C384.997 162.35 381.78 159.132 377.81 159.132Z" fill="#FFD3D9"/>
<path opacity="0.8" d="M332.124 170.426H322.371C321.521 170.426 320.831 171.115 320.831 171.966C320.831 172.816 321.521 173.506 322.371 173.506H332.124C332.975 173.506 333.664 172.816 333.664 171.966C333.664 171.115 332.975 170.426 332.124 170.426Z" fill="#666666"/>
<path opacity="0.8" d="M339.824 178.639H322.371C321.521 178.639 320.831 179.328 320.831 180.179C320.831 181.029 321.521 181.719 322.371 181.719H339.824C340.675 181.719 341.364 181.029 341.364 180.179C341.364 179.328 340.675 178.639 339.824 178.639Z" fill="#666666"/>
<path opacity="0.8" d="M337.258 186.852H322.371C321.521 186.852 320.831 187.542 320.831 188.392C320.831 189.243 321.521 189.932 322.371 189.932H337.258C338.108 189.932 338.798 189.243 338.798 188.392C338.798 187.542 338.108 186.852 337.258 186.852Z" fill="#666666"/>
<path opacity="0.5" d="M215.599 143.732L225.865 76.9995" stroke="#999999" stroke-width="1.53999"/>
<path opacity="0.5" d="M215.599 164.266L225.865 148.866" stroke="#999999" stroke-width="1.53999"/>
<path opacity="0.5" d="M215.599 179.666L225.865 220.732" stroke="#999999" stroke-width="1.53999"/>
<path opacity="0.5" d="M302.865 110.366H313.132" stroke="#999999" stroke-width="1.53999"/>
<path opacity="0.5" d="M302.865 182.232H313.132" stroke="#999999" stroke-width="1.53999"/>
</g>
<defs>
<linearGradient id="paint0_linear_31_554" x1="107.799" y1="138.599" x2="9347.74" y2="138.599" gradientUnits="userSpaceOnUse">
<stop stop-color="#387FFB"/>
<stop offset="1" stop-color="#0086E6"/>
</linearGradient>
<clipPath id="clip0_31_554">
<rect width="410.664" height="328.531" fill="white"/>
</clipPath>
</defs>
</svg>
