<svg width="392" height="314" viewBox="0 0 392 314" fill="none" xmlns="http://www.w3.org/2000/svg">
<g clip-path="url(#clip0_25_941)">
<path d="M391.332 0H0.00390625V313.062H391.332V0Z" fill="#A099FF"/>
<path d="M332.633 68.4824H58.7031C53.3 68.4824 48.9199 72.8625 48.9199 78.2656V234.797C48.9199 240.2 53.3 244.58 58.7031 244.58H332.633C338.036 244.58 342.416 240.2 342.416 234.797V78.2656C342.416 72.8625 338.036 68.4824 332.633 68.4824Z" fill="black" fill-opacity="0.1"/>
<path opacity="0.9" d="M116.424 88.0488H69.4646C66.2228 88.0488 63.5947 90.6769 63.5947 93.9187V219.144C63.5947 222.386 66.2228 225.014 69.4646 225.014H116.424C119.666 225.014 122.294 222.386 122.294 219.144V93.9187C122.294 90.6769 119.666 88.0488 116.424 88.0488Z" fill="white"/>
<path opacity="0.9" d="M184.906 88.0488H137.947C134.705 88.0488 132.077 90.6769 132.077 93.9187V219.144C132.077 222.386 134.705 225.014 137.947 225.014H184.906C188.148 225.014 190.776 222.386 190.776 219.144V93.9187C190.776 90.6769 188.148 88.0488 184.906 88.0488Z" fill="white"/>
<path opacity="0.9" d="M253.389 88.0488H206.429C203.188 88.0488 200.56 90.6769 200.56 93.9187V219.144C200.56 222.386 203.188 225.014 206.429 225.014H253.389C256.631 225.014 259.259 222.386 259.259 219.144V93.9187C259.259 90.6769 256.631 88.0488 253.389 88.0488Z" fill="white"/>
<path opacity="0.9" d="M321.871 88.0488H274.912C271.67 88.0488 269.042 90.6769 269.042 93.9187V219.144C269.042 222.386 271.67 225.014 274.912 225.014H321.871C325.113 225.014 327.741 222.386 327.741 219.144V93.9187C327.741 90.6769 325.113 88.0488 321.871 88.0488Z" fill="white"/>
<path d="M92.9448 173.652C102.4 173.652 110.065 165.987 110.065 156.531C110.065 147.076 102.4 139.411 92.9448 139.411C83.4894 139.411 75.8242 147.076 75.8242 156.531C75.8242 165.987 83.4894 173.652 92.9448 173.652Z" fill="#0086E6"/>
<path d="M161.427 173.652C170.883 173.652 178.548 165.987 178.548 156.531C178.548 147.076 170.883 139.411 161.427 139.411C151.972 139.411 144.307 147.076 144.307 156.531C144.307 165.987 151.972 173.652 161.427 173.652Z" fill="#0DBA38"/>
<path d="M229.91 173.652C239.365 173.652 247.03 165.987 247.03 156.531C247.03 147.076 239.365 139.411 229.91 139.411C220.454 139.411 212.789 147.076 212.789 156.531C212.789 165.987 220.454 173.652 229.91 173.652Z" fill="#FFDD9E"/>
<path d="M298.392 173.652C307.848 173.652 315.513 165.987 315.513 156.531C315.513 147.076 307.848 139.411 298.392 139.411C288.937 139.411 281.271 147.076 281.271 156.531C281.271 165.987 288.937 173.652 298.392 173.652Z" fill="#E74646"/>
</g>
<defs>
<clipPath id="clip0_25_941">
<rect width="391.336" height="313.062" fill="white"/>
</clipPath>
</defs>
</svg>
