<svg width="392" height="314" viewBox="0 0 392 314" fill="none" xmlns="http://www.w3.org/2000/svg">
<g clip-path="url(#clip0_25_1061)">
<path d="M391.328 0H0V313.062H391.328V0Z" fill="#1D1B22"/>
<path opacity="0.8" d="M97.832 225.014C135.654 225.014 166.314 194.353 166.314 156.531C166.314 118.709 135.654 88.0488 97.832 88.0488C60.0102 88.0488 29.3496 118.709 29.3496 156.531C29.3496 194.353 60.0102 225.014 97.832 225.014Z" fill="#0086E6"/>
<path opacity="0.8" d="M195.664 225.014C233.486 225.014 264.146 194.353 264.146 156.531C264.146 118.709 233.486 88.0488 195.664 88.0488C157.842 88.0488 127.182 118.709 127.182 156.531C127.182 194.353 157.842 225.014 195.664 225.014Z" fill="#A099FF"/>
<path opacity="0.8" d="M293.496 225.014C331.318 225.014 361.979 194.353 361.979 156.531C361.979 118.709 331.318 88.0488 293.496 88.0488C255.674 88.0488 225.014 118.709 225.014 156.531C225.014 194.353 255.674 225.014 293.496 225.014Z" fill="#FFDD9E"/>
<path opacity="0.6" d="M146.748 205.447C173.764 205.447 195.664 183.547 195.664 156.531C195.664 129.516 173.764 107.615 146.748 107.615C119.732 107.615 97.832 129.516 97.832 156.531C97.832 183.547 119.732 205.447 146.748 205.447Z" fill="#FFD3D9"/>
<path opacity="0.6" d="M244.58 205.447C271.596 205.447 293.496 183.547 293.496 156.531C293.496 129.516 271.596 107.615 244.58 107.615C217.565 107.615 195.664 129.516 195.664 156.531C195.664 183.547 217.565 205.447 244.58 205.447Z" fill="#0DBA38"/>
</g>
<defs>
<clipPath id="clip0_25_1061">
<rect width="391.328" height="313.062" fill="white"/>
</clipPath>
</defs>
</svg>
