<svg width="392" height="314" viewBox="0 0 392 314" fill="none" xmlns="http://www.w3.org/2000/svg">
<g clip-path="url(#clip0_37_1177)">
<path d="M391.328 0H0V313.062H391.328V0Z" fill="#F2F2F2"/>
<path opacity="0.85" d="M136.965 244.58C185.593 244.58 225.014 205.159 225.014 156.531C225.014 107.903 185.593 68.4824 136.965 68.4824C88.3368 68.4824 48.916 107.903 48.916 156.531C48.916 205.159 88.3368 244.58 136.965 244.58Z" fill="url(#paint0_linear_37_1177)"/>
<path opacity="0.85" d="M254.363 244.58C302.991 244.58 342.412 205.159 342.412 156.531C342.412 107.903 302.991 68.4824 254.363 68.4824C205.735 68.4824 166.314 107.903 166.314 156.531C166.314 205.159 205.735 244.58 254.363 244.58Z" fill="url(#paint1_linear_37_1177)"/>
<path opacity="0.7" d="M195.664 136.965C217.277 136.965 234.797 119.444 234.797 97.832C234.797 76.2196 217.277 58.6992 195.664 58.6992C174.052 58.6992 156.531 76.2196 156.531 97.832C156.531 119.444 174.052 136.965 195.664 136.965Z" fill="#FFDD9E"/>
<path opacity="0.7" d="M195.664 254.363C217.277 254.363 234.797 236.843 234.797 215.23C234.797 193.618 217.277 176.098 195.664 176.098C174.052 176.098 156.531 193.618 156.531 215.23C156.531 236.843 174.052 254.363 195.664 254.363Z" fill="#0DBA38"/>
</g>
<defs>
<linearGradient id="paint0_linear_37_1177" x1="48.916" y1="68.4824" x2="17658.7" y2="17678.2" gradientUnits="userSpaceOnUse">
<stop stop-color="#387FFB"/>
<stop offset="1" stop-color="#0086E6"/>
</linearGradient>
<linearGradient id="paint1_linear_37_1177" x1="166.314" y1="68.4824" x2="17776.1" y2="17678.2" gradientUnits="userSpaceOnUse">
<stop stop-color="#A099FF"/>
<stop offset="1" stop-color="#6415FF"/>
</linearGradient>
<clipPath id="clip0_37_1177">
<rect width="391.328" height="313.062" fill="white"/>
</clipPath>
</defs>
</svg>
