<svg width="392" height="314" viewBox="0 0 392 314" fill="none" xmlns="http://www.w3.org/2000/svg">
<g clip-path="url(#clip0_25_1127)">
<path d="M391.332 0H0.00390625V313.062H391.332V0Z" fill="#16141C"/>
<path opacity="0.7" d="M122.294 141.856C143.906 141.856 161.427 124.336 161.427 102.724C161.427 81.1112 143.906 63.5908 122.294 63.5908C100.681 63.5908 83.1611 81.1112 83.1611 102.724C83.1611 124.336 100.681 141.856 122.294 141.856Z" fill="#A099FF"/>
<path opacity="0.7" d="M269.042 141.856C290.654 141.856 308.175 124.336 308.175 102.724C308.175 81.1112 290.654 63.5908 269.042 63.5908C247.43 63.5908 229.909 81.1112 229.909 102.724C229.909 124.336 247.43 141.856 269.042 141.856Z" fill="#0086E6"/>
<path opacity="0.7" d="M122.294 249.472C143.906 249.472 161.427 231.951 161.427 210.339C161.427 188.726 143.906 171.206 122.294 171.206C100.681 171.206 83.1611 188.726 83.1611 210.339C83.1611 231.951 100.681 249.472 122.294 249.472Z" fill="#0DBA38"/>
<path opacity="0.7" d="M269.042 249.472C290.654 249.472 308.175 231.951 308.175 210.339C308.175 188.726 290.654 171.206 269.042 171.206C247.43 171.206 229.909 188.726 229.909 210.339C229.909 231.951 247.43 249.472 269.042 249.472Z" fill="#FFDD9E"/>
<path opacity="0.7" d="M195.668 205.447C222.684 205.447 244.584 183.547 244.584 156.531C244.584 129.516 222.684 107.615 195.668 107.615C168.652 107.615 146.752 129.516 146.752 156.531C146.752 183.547 168.652 205.447 195.668 205.447Z" fill="#FFD3D9"/>
<path d="M158.981 141.856C165.735 141.856 171.21 136.381 171.21 129.627C171.21 122.874 165.735 117.398 158.981 117.398C152.227 117.398 146.752 122.874 146.752 129.627C146.752 136.381 152.227 141.856 158.981 141.856Z" fill="white" fill-opacity="0.9"/>
<path d="M232.355 141.856C239.109 141.856 244.584 136.381 244.584 129.627C244.584 122.874 239.109 117.398 232.355 117.398C225.601 117.398 220.126 122.874 220.126 129.627C220.126 136.381 225.601 141.856 232.355 141.856Z" fill="white" fill-opacity="0.9"/>
<path d="M158.981 195.664C165.735 195.664 171.21 190.189 171.21 183.435C171.21 176.681 165.735 171.206 158.981 171.206C152.227 171.206 146.752 176.681 146.752 183.435C146.752 190.189 152.227 195.664 158.981 195.664Z" fill="white" fill-opacity="0.9"/>
<path d="M232.355 195.664C239.109 195.664 244.584 190.189 244.584 183.435C244.584 176.681 239.109 171.206 232.355 171.206C225.601 171.206 220.126 176.681 220.126 183.435C220.126 190.189 225.601 195.664 232.355 195.664Z" fill="white" fill-opacity="0.9"/>
</g>
<defs>
<clipPath id="clip0_25_1127">
<rect width="391.336" height="313.062" fill="white"/>
</clipPath>
</defs>
</svg>
