<svg width="392" height="314" viewBox="0 0 392 314" fill="none" xmlns="http://www.w3.org/2000/svg">
<g clip-path="url(#clip0_25_1069)">
<path d="M391.332 0H0.00390625V313.062H391.332V0Z" fill="#0DBA38"/>
<path d="M322.85 39.1328H68.4863C63.0832 39.1328 58.7031 43.5129 58.7031 48.916V264.146C58.7031 269.55 63.0832 273.93 68.4863 273.93H322.85C328.253 273.93 332.633 269.55 332.633 264.146V48.916C332.633 43.5129 328.253 39.1328 322.85 39.1328Z" fill="#24292E"/>
<path d="M75.8234 65.0583C77.9847 65.0583 79.7367 63.3063 79.7367 61.145C79.7367 58.9838 77.9847 57.2318 75.8234 57.2318C73.6622 57.2318 71.9102 58.9838 71.9102 61.145C71.9102 63.3063 73.6622 65.0583 75.8234 65.0583Z" fill="#E74646"/>
<path d="M88.0529 65.0583C90.2142 65.0583 91.9662 63.3063 91.9662 61.145C91.9662 58.9838 90.2142 57.2318 88.0529 57.2318C85.8917 57.2318 84.1396 58.9838 84.1396 61.145C84.1396 63.3063 85.8917 65.0583 88.0529 65.0583Z" fill="#FCB23B"/>
<path d="M100.281 65.0583C102.443 65.0583 104.195 63.3063 104.195 61.145C104.195 58.9838 102.443 57.2318 100.281 57.2318C98.1202 57.2318 96.3682 58.9838 96.3682 61.145C96.3682 63.3063 98.1202 65.0583 100.281 65.0583Z" fill="#0DBA38"/>
<path d="M312.088 85.603H79.2479C76.006 85.603 73.3779 88.2311 73.3779 91.4729V253.385C73.3779 256.627 76.006 259.255 79.2479 259.255H312.088C315.33 259.255 317.958 256.627 317.958 253.385V91.4729C317.958 88.2311 315.33 85.603 312.088 85.603Z" fill="white"/>
<path d="M88.0527 102.724H83.1611V136.965H88.0527V102.724Z" fill="#0DBA38"/>
<path d="M166.319 107.615H97.8364C96.4856 107.615 95.3906 108.71 95.3906 110.061V117.398C95.3906 118.749 96.4856 119.844 97.8364 119.844H166.319C167.67 119.844 168.765 118.749 168.765 117.398V110.061C168.765 108.71 167.67 107.615 166.319 107.615Z" fill="#E6E6E6"/>
<path d="M222.572 107.615H178.547C177.197 107.615 176.102 108.71 176.102 110.061V117.398C176.102 118.749 177.197 119.844 178.547 119.844H222.572C223.923 119.844 225.018 118.749 225.018 117.398V110.061C225.018 108.71 223.923 107.615 222.572 107.615Z" fill="#E6E6E6"/>
<path d="M298.392 107.615H273.934C271.232 107.615 269.042 109.805 269.042 112.507V124.736C269.042 127.437 271.232 129.627 273.934 129.627H298.392C301.093 129.627 303.283 127.437 303.283 124.736V112.507C303.283 109.805 301.093 107.615 298.392 107.615Z" fill="#0DBA38"/>
<path d="M88.0527 151.64H83.1611V185.881H88.0527V151.64Z" fill="#E74646"/>
<path d="M166.319 156.531H97.8364C96.4856 156.531 95.3906 157.626 95.3906 158.977V166.314C95.3906 167.665 96.4856 168.76 97.8364 168.76H166.319C167.67 168.76 168.765 167.665 168.765 166.314V158.977C168.765 157.626 167.67 156.531 166.319 156.531Z" fill="#E6E6E6"/>
<path d="M222.572 156.531H178.547C177.197 156.531 176.102 157.626 176.102 158.977V166.314C176.102 167.665 177.197 168.76 178.547 168.76H222.572C223.923 168.76 225.018 167.665 225.018 166.314V158.977C225.018 157.626 223.923 156.531 222.572 156.531Z" fill="#E6E6E6"/>
<path d="M298.392 156.531H273.934C271.232 156.531 269.042 158.721 269.042 161.423V173.652C269.042 176.353 271.232 178.543 273.934 178.543H298.392C301.093 178.543 303.283 176.353 303.283 173.652V161.423C303.283 158.721 301.093 156.531 298.392 156.531Z" fill="#E74646"/>
<path d="M88.0527 200.556H83.1611V234.797H88.0527V200.556Z" fill="#0086E6"/>
<path d="M166.319 205.447H97.8364C96.4856 205.447 95.3906 206.542 95.3906 207.893V215.23C95.3906 216.581 96.4856 217.676 97.8364 217.676H166.319C167.67 217.676 168.765 216.581 168.765 215.23V207.893C168.765 206.542 167.67 205.447 166.319 205.447Z" fill="#E6E6E6"/>
<path d="M222.572 205.447H178.547C177.197 205.447 176.102 206.542 176.102 207.893V215.23C176.102 216.581 177.197 217.676 178.547 217.676H222.572C223.923 217.676 225.018 216.581 225.018 215.23V207.893C225.018 206.542 223.923 205.447 222.572 205.447Z" fill="#E6E6E6"/>
<path d="M298.392 205.447H273.934C271.232 205.447 269.042 207.637 269.042 210.339V222.568C269.042 225.269 271.232 227.459 273.934 227.459H298.392C301.093 227.459 303.283 225.269 303.283 222.568V210.339C303.283 207.637 301.093 205.447 298.392 205.447Z" fill="#0086E6"/>
</g>
<defs>
<clipPath id="clip0_25_1069">
<rect width="391.336" height="313.062" fill="white"/>
</clipPath>
</defs>
</svg>
