<svg width="392" height="314" viewBox="0 0 392 314" fill="none" xmlns="http://www.w3.org/2000/svg">
<g clip-path="url(#clip0_25_1106)">
<path d="M391.328 0H0V313.062H391.328V0Z" fill="#F2F2F2"/>
<path d="M124.247 34.2412H32.2846C27.9621 34.2412 24.458 37.7453 24.458 42.0678V134.03C24.458 138.352 27.9621 141.856 32.2846 141.856H124.247C128.569 141.856 132.073 138.352 132.073 134.03V42.0678C132.073 37.7453 128.569 34.2412 124.247 34.2412Z" fill="#0086E6"/>
<path d="M241.645 34.2412H149.683C145.361 34.2412 141.856 37.7453 141.856 42.0678V134.03C141.856 138.352 145.361 141.856 149.683 141.856H241.645C245.968 141.856 249.472 138.352 249.472 134.03V42.0678C249.472 37.7453 245.968 34.2412 241.645 34.2412Z" fill="#0DBA38"/>
<path d="M359.044 34.2412H267.081C262.759 34.2412 259.255 37.7453 259.255 42.0678V134.03C259.255 138.352 262.759 141.856 267.081 141.856H359.044C363.366 141.856 366.87 138.352 366.87 134.03V42.0678C366.87 37.7453 363.366 34.2412 359.044 34.2412Z" fill="#E74646"/>
<path d="M124.247 171.206H32.2846C27.9621 171.206 24.458 174.71 24.458 179.033V270.995C24.458 275.317 27.9621 278.821 32.2846 278.821H124.247C128.569 278.821 132.073 275.317 132.073 270.995V179.033C132.073 174.71 128.569 171.206 124.247 171.206Z" fill="#A099FF"/>
<path d="M241.645 171.206H149.683C145.361 171.206 141.856 174.71 141.856 179.033V270.995C141.856 275.317 145.361 278.821 149.683 278.821H241.645C245.968 278.821 249.472 275.317 249.472 270.995V179.033C249.472 174.71 245.968 171.206 241.645 171.206Z" fill="#FFDD9E"/>
<path d="M359.044 171.206H267.081C262.759 171.206 259.255 174.71 259.255 179.033V270.995C259.255 275.317 262.759 278.821 267.081 278.821H359.044C363.366 278.821 366.87 275.317 366.87 270.995V179.033C366.87 174.71 363.366 171.206 359.044 171.206Z" fill="#24292E"/>
</g>
<defs>
<clipPath id="clip0_25_1106">
<rect width="391.328" height="313.062" fill="white"/>
</clipPath>
</defs>
</svg>
