<svg width="392" height="314" viewBox="0 0 392 314" fill="none" xmlns="http://www.w3.org/2000/svg">
<g clip-path="url(#clip0_25_1139)">
<path d="M391.328 0H0V313.062H391.328V0Z" fill="#FFDD9E"/>
<path d="M332.629 34.2412H58.6992C53.2961 34.2412 48.916 38.6213 48.916 44.0244V269.038C48.916 274.441 53.2961 278.821 58.6992 278.821H332.629C338.032 278.821 342.412 274.441 342.412 269.038V44.0244C342.412 38.6213 338.032 34.2412 332.629 34.2412Z" fill="#24292E"/>
<path d="M66.0361 61.145C68.7377 61.145 70.9277 58.955 70.9277 56.2534C70.9277 53.5519 68.7377 51.3618 66.0361 51.3618C63.3346 51.3618 61.1445 53.5519 61.1445 56.2534C61.1445 58.955 63.3346 61.145 66.0361 61.145Z" fill="#E74646"/>
<path d="M80.7119 61.145C83.4135 61.145 85.6035 58.955 85.6035 56.2534C85.6035 53.5519 83.4135 51.3618 80.7119 51.3618C78.0104 51.3618 75.8203 53.5519 75.8203 56.2534C75.8203 58.955 78.0104 61.145 80.7119 61.145Z" fill="#FCB23B"/>
<path d="M95.3857 61.145C98.0873 61.145 100.277 58.955 100.277 56.2534C100.277 53.5519 98.0873 51.3618 95.3857 51.3618C92.6842 51.3618 90.4941 53.5519 90.4941 56.2534C90.4941 58.955 92.6842 61.145 95.3857 61.145Z" fill="#0DBA38"/>
<path d="M321.867 80.7114H69.4607C66.2189 80.7114 63.5908 83.3395 63.5908 86.5813V255.831C63.5908 259.073 66.2189 261.701 69.4607 261.701H321.867C325.109 261.701 327.737 259.073 327.737 255.831V86.5813C327.737 83.3395 325.109 80.7114 321.867 80.7114Z" fill="white"/>
<path d="M135.987 80.7114H69.4607C66.2189 80.7114 63.5908 83.3395 63.5908 86.5813V255.831C63.5908 259.073 66.2189 261.701 69.4607 261.701H135.987C139.228 261.701 141.856 259.073 141.856 255.831V86.5813C141.856 83.3395 139.228 80.7114 135.987 80.7114Z" fill="#F2F2F2"/>
<path d="M128.16 100.278H77.2873C75.1261 100.278 73.374 102.03 73.374 104.191V115.931C73.374 118.092 75.1261 119.844 77.2873 119.844H128.16C130.321 119.844 132.073 118.092 132.073 115.931V104.191C132.073 102.03 130.321 100.278 128.16 100.278Z" fill="#0086E6"/>
<path d="M129.138 132.073H76.309C74.6881 132.073 73.374 133.387 73.374 135.008V143.813C73.374 145.434 74.6881 146.748 76.309 146.748H129.138C130.759 146.748 132.073 145.434 132.073 143.813V135.008C132.073 133.387 130.759 132.073 129.138 132.073Z" fill="#E6E6E6"/>
<path d="M129.138 156.531H76.309C74.6881 156.531 73.374 157.845 73.374 159.466V168.271C73.374 169.892 74.6881 171.206 76.309 171.206H129.138C130.759 171.206 132.073 169.892 132.073 168.271V159.466C132.073 157.845 130.759 156.531 129.138 156.531Z" fill="#E6E6E6"/>
<path d="M310.128 100.278H159.466C157.845 100.278 156.531 101.592 156.531 103.213V112.018C156.531 113.639 157.845 114.953 159.466 114.953H310.128C311.748 114.953 313.062 113.639 313.062 112.018V103.213C313.062 101.592 311.748 100.278 310.128 100.278Z" fill="#E6E6E6"/>
<path d="M276.375 127.182H158.977C157.626 127.182 156.531 128.277 156.531 129.627V136.965C156.531 138.316 157.626 139.411 158.977 139.411H276.375C277.726 139.411 278.821 138.316 278.821 136.965V129.627C278.821 128.277 277.726 127.182 276.375 127.182Z" fill="#D6D6D6"/>
<path d="M291.05 149.194H158.977C157.626 149.194 156.531 150.289 156.531 151.64V158.977C156.531 160.328 157.626 161.423 158.977 161.423H291.05C292.401 161.423 293.496 160.328 293.496 158.977V151.64C293.496 150.289 292.401 149.194 291.05 149.194Z" fill="#D6D6D6"/>
<path d="M261.701 171.206H158.977C157.626 171.206 156.531 172.301 156.531 173.652V180.989C156.531 182.34 157.626 183.435 158.977 183.435H261.701C263.051 183.435 264.146 182.34 264.146 180.989V173.652C264.146 172.301 263.051 171.206 261.701 171.206Z" fill="#D6D6D6"/>
</g>
<defs>
<clipPath id="clip0_25_1139">
<rect width="391.328" height="313.062" fill="white"/>
</clipPath>
</defs>
</svg>
