<svg width="392" height="314" viewBox="0 0 392 314" fill="none" xmlns="http://www.w3.org/2000/svg">
<g clip-path="url(#clip0_25_960)">
<path d="M391.332 0H0.00390625V313.062H391.332V0Z" fill="#A099FF"/>
<path opacity="0.95" d="M332.633 53.8076H58.7031C53.3 53.8076 48.9199 58.1877 48.9199 63.5908V249.472C48.9199 254.875 53.3 259.255 58.7031 259.255H332.633C338.036 259.255 342.416 254.875 342.416 249.472V63.5908C342.416 58.1877 338.036 53.8076 332.633 53.8076Z" fill="white"/>
<path d="M93.9227 171.206H72.3996C70.2384 171.206 68.4863 172.958 68.4863 175.119V230.884C68.4863 233.045 70.2384 234.797 72.3996 234.797H93.9227C96.0839 234.797 97.8359 233.045 97.8359 230.884V175.119C97.8359 172.958 96.0839 171.206 93.9227 171.206Z" fill="#0086E6"/>
<path d="M133.055 136.965H111.532C109.371 136.965 107.619 138.717 107.619 140.878V230.884C107.619 233.045 109.371 234.797 111.532 234.797H133.055C135.217 234.797 136.969 233.045 136.969 230.884V140.878C136.969 138.717 135.217 136.965 133.055 136.965Z" fill="#0DBA38"/>
<path d="M172.188 122.29H150.665C148.504 122.29 146.752 124.042 146.752 126.203V230.884C146.752 233.045 148.504 234.797 150.665 234.797H172.188C174.35 234.797 176.102 233.045 176.102 230.884V126.203C176.102 124.042 174.35 122.29 172.188 122.29Z" fill="#0086E6"/>
<path d="M211.321 151.64H189.798C187.637 151.64 185.885 153.392 185.885 155.553V230.884C185.885 233.045 187.637 234.797 189.798 234.797H211.321C213.482 234.797 215.234 233.045 215.234 230.884V155.553C215.234 153.392 213.482 151.64 211.321 151.64Z" fill="#E74646"/>
<path d="M250.454 112.507H228.931C226.77 112.507 225.018 114.259 225.018 116.42V230.884C225.018 233.045 226.77 234.797 228.931 234.797H250.454C252.615 234.797 254.367 233.045 254.367 230.884V116.42C254.367 114.259 252.615 112.507 250.454 112.507Z" fill="#0DBA38"/>
<path d="M289.587 132.073H268.064C265.902 132.073 264.15 133.825 264.15 135.987V230.884C264.15 233.045 265.902 234.797 268.064 234.797H289.587C291.748 234.797 293.5 233.045 293.5 230.884V135.987C293.5 133.825 291.748 132.073 289.587 132.073Z" fill="#0086E6"/>
<path d="M328.72 161.423H307.196C305.035 161.423 303.283 163.175 303.283 165.336V230.884C303.283 233.045 305.035 234.797 307.196 234.797H328.72C330.881 234.797 332.633 233.045 332.633 230.884V165.336C332.633 163.175 330.881 161.423 328.72 161.423Z" fill="#0DBA38"/>
</g>
<defs>
<clipPath id="clip0_25_960">
<rect width="391.336" height="313.062" fill="white"/>
</clipPath>
</defs>
</svg>
