<?xml version="1.0" encoding="UTF-8"?>
<svg id="Layer_1" data-name="Layer 1" xmlns="http://www.w3.org/2000/svg" viewBox="0 0 1364.03 904.62">
  <defs>
    <style>
      .cls-1, .cls-2, .cls-3, .cls-4 {
        fill: none;
      }

      .cls-5, .cls-6 {
        fill: #fff;
      }

      .cls-7 {
        fill: #ffcc05;
      }

      .cls-6, .cls-2, .cls-3, .cls-4 {
        stroke: #000;
      }

      .cls-6, .cls-3 {
        stroke-linejoin: round;
        stroke-width: 39.24px;
      }

      .cls-6, .cls-3, .cls-4 {
        stroke-linecap: round;
      }

      .cls-2, .cls-4 {
        stroke-miterlimit: 10;
        stroke-width: 10px;
      }
    </style>
  </defs>
  <rect class="cls-7" width="1362.5" height="904.62"/>
  <g>
    <path class="cls-3" d="M645.51,404.01c0-106.7-86.5-193.2-193.2-193.2h-193.2v483h144.9v-96.6h39.76l33.5,96.6h144.84l-46.72-140.88c42.83-35.44,70.13-88.99,70.13-148.92Z"/>
    <path class="cls-6" d="M452.31,524.76c-66.69,0-120.75-54.06-120.75-120.75s54.06-120.75,120.75-120.75"/>
    <g>
      <circle cx="452.31" cy="404.01" r="52.83" transform="translate(-42.68 754.42) rotate(-77.07)"/>
      <path d="M452.31,370.8c18.31,0,33.21,14.9,33.21,33.21s-14.9,33.21-33.21,33.21-33.21-14.9-33.21-33.21,14.9-33.21,33.21-33.21m0-39.24c-40.01,0-72.45,32.44-72.45,72.45s32.44,72.45,72.45,72.45,72.45-32.44,72.45-72.45-32.44-72.45-72.45-72.45h0Z"/>
    </g>
  </g>
  <g>
    <g>
      <path class="cls-1" d="M1162.46,490.27c9.95-8.24,16.27-20.63,16.27-34.55,0-12.39-5.01-23.57-13.13-31.69-8.13-8.12-19.3-13.13-31.69-13.13h-44.82v114.59h27.28v-19.88c0-1.33,.54-2.64,1.48-3.58,.94-.94,2.25-1.48,3.58-1.48h10.27c2.16,0,4.08,1.37,4.79,3.41l7.47,21.54h26.78l-9.86-29.72c-.66-1.99-.04-4.16,1.58-5.5Zm-28.55,1.7c-20.02,0-36.25-16.23-36.25-36.25,0-20.02,16.23-36.25,36.25-36.25,20.02,0,36.25,16.23,36.25,36.25,0,20.02-16.23,36.25-36.25,36.25Z"/>
      <path d="M1171.55,495.74c10.65-10.01,17.32-24.25,17.32-40.02,0-30.35-24.6-54.95-54.96-54.96h-49.89c-1.33,0-2.64,.54-3.58,1.48-.94,.94-1.48,2.25-1.48,3.58v124.73c0,1.33,.54,2.64,1.48,3.58,.94,.94,2.25,1.48,3.58,1.48h37.42c1.33,0,2.64-.54,3.58-1.48s1.48-2.25,1.48-3.58v-19.88h1.59l7.47,21.54c.71,2.04,2.63,3.41,4.79,3.41h37.4c1.63,0,3.16-.78,4.11-2.1s1.21-3.02,.7-4.56l-11.02-33.22Zm-27.59,29.74l-7.47-21.54c-.71-2.04-2.63-3.41-4.79-3.41h-10.27c-1.33,0-2.64,.54-3.58,1.48-.94,.94-1.48,2.25-1.48,3.58v19.88h-27.28v-114.59h44.82c12.39,0,23.57,5.01,31.69,13.13,8.12,8.13,13.13,19.3,13.13,31.69,0,13.92-6.32,26.31-16.27,34.55-1.61,1.34-2.24,3.51-1.58,5.5l9.86,29.72h-26.78Z"/>
      <path class="cls-5" d="M1152.38,437.25c-4.74-4.73-11.24-7.65-18.47-7.65-7.23,0-13.72,2.91-18.47,7.65-4.73,4.74-7.65,11.24-7.65,18.47,0,7.23,2.92,13.72,7.65,18.47,4.74,4.73,11.24,7.65,18.47,7.65,7.23,0,13.72-2.91,18.47-7.65,4.73-4.74,7.65-11.24,7.65-18.47,0-7.23-2.92-13.72-7.65-18.47Zm-18.47,37.17c-10.33,0-18.71-8.38-18.71-18.71s8.38-18.71,18.71-18.71,18.71,8.38,18.71,18.71-8.38,18.71-18.71,18.71Z"/>
      <path d="M1133.91,419.47c-20.02,0-36.25,16.23-36.25,36.25,0,20.02,16.23,36.25,36.25,36.25,20.02,0,36.25-16.23,36.25-36.25,0-20.02-16.23-36.25-36.25-36.25Zm18.47,54.71c-4.74,4.73-11.24,7.65-18.47,7.65-7.23,0-13.72-2.91-18.47-7.65-4.73-4.74-7.65-11.24-7.65-18.47,0-7.23,2.92-13.72,7.65-18.47,4.74-4.73,11.24-7.65,18.47-7.65,7.23,0,13.72,2.91,18.47,7.65,4.73,4.74,7.65,11.24,7.65,18.47,0,7.23-2.92,13.72-7.65,18.47Z"/>
      <circle cx="1133.91" cy="455.72" r="18.71"/>
    </g>
    <g>
      <g>
        <path class="cls-1" d="M1028.69,490.27c9.95-8.24,16.27-20.63,16.27-34.55,0-12.39-5.01-23.57-13.13-31.69-8.13-8.12-19.3-13.13-31.69-13.13h-44.82v114.59h27.28v-19.88c0-1.33,.54-2.64,1.48-3.58,.94-.94,2.25-1.48,3.58-1.48h10.27c2.16,0,4.08,1.37,4.79,3.41l7.47,21.54h26.78l-9.86-29.72c-.66-1.99-.04-4.16,1.58-5.5Zm-28.55,1.7c-20.02,0-36.25-16.23-36.25-36.25,0-20.02,16.23-36.25,36.25-36.25,20.02,0,36.25,16.23,36.25,36.25,0,20.02-16.23,36.25-36.25,36.25Z"/>
        <path d="M1037.78,495.74c10.65-10.01,17.32-24.25,17.32-40.02,0-30.35-24.6-54.95-54.96-54.96h-49.89c-1.33,0-2.64,.54-3.58,1.48-.94,.94-1.48,2.25-1.48,3.58v124.73c0,1.33,.54,2.64,1.48,3.58,.94,.94,2.25,1.48,3.58,1.48h37.42c1.33,0,2.64-.54,3.58-1.48s1.48-2.25,1.48-3.58v-19.88h1.59l7.47,21.54c.71,2.04,2.63,3.41,4.79,3.41h37.4c1.63,0,3.16-.78,4.11-2.1s1.21-3.02,.7-4.56l-11.02-33.22Zm-27.59,29.74l-7.47-21.54c-.71-2.04-2.63-3.41-4.79-3.41h-10.27c-1.33,0-2.64,.54-3.58,1.48-.94,.94-1.48,2.25-1.48,3.58v19.88h-27.28v-114.59h44.82c12.39,0,23.57,5.01,31.69,13.13,8.12,8.13,13.13,19.3,13.13,31.69,0,13.92-6.32,26.31-16.27,34.55-1.61,1.34-2.24,3.51-1.58,5.5l9.86,29.72h-26.78Z"/>
      </g>
      <line class="cls-4" x1="953.94" y1="455.72" x2="1025.94" y2="455.72"/>
    </g>
    <g>
      <g>
        <path class="cls-1" d="M890.92,665.27c9.95-8.24,16.27-20.63,16.27-34.55,0-12.39-5.01-23.57-13.13-31.69-8.13-8.12-19.3-13.13-31.69-13.13h-44.82v114.59h27.28v-19.88c0-1.33,.54-2.64,1.48-3.58,.94-.94,2.25-1.48,3.58-1.48h10.27c2.16,0,4.08,1.37,4.79,3.41l7.47,21.54h26.78l-9.86-29.72c-.66-1.99-.04-4.16,1.58-5.5Zm-28.55,1.7c-20.02,0-36.25-16.23-36.25-36.25,0-20.02,16.23-36.25,36.25-36.25,20.02,0,36.25,16.23,36.25,36.25,0,20.02-16.23,36.25-36.25,36.25Z"/>
        <path d="M900,670.74c10.65-10.01,17.32-24.25,17.32-40.02,0-30.35-24.6-54.95-54.96-54.96h-49.89c-1.33,0-2.64,.54-3.58,1.48-.94,.94-1.48,2.25-1.48,3.58v124.73c0,1.33,.54,2.64,1.48,3.58,.94,.94,2.25,1.48,3.58,1.48h37.42c1.33,0,2.64-.54,3.58-1.48s1.48-2.25,1.48-3.58v-19.88h1.59l7.47,21.54c.71,2.04,2.63,3.41,4.79,3.41h37.4c1.63,0,3.16-.78,4.11-2.1,.95-1.32,1.21-3.02,.7-4.56l-11.02-33.22Zm-27.59,29.74l-7.47-21.54c-.71-2.04-2.63-3.41-4.79-3.41h-10.27c-1.33,0-2.64,.54-3.58,1.48-.94,.94-1.48,2.25-1.48,3.58v19.88h-27.28v-114.59h44.82c12.39,0,23.57,5.01,31.69,13.13,8.12,8.13,13.13,19.3,13.13,31.69,0,13.92-6.32,26.31-16.27,34.55-1.61,1.34-2.24,3.51-1.58,5.5l9.86,29.72h-26.78Z"/>
      </g>
      <line class="cls-4" x1="838.16" y1="630.72" x2="887.16" y2="630.72"/>
    </g>
    <g>
      <circle cx="995.94" cy="630.78" r="9"/>
      <g>
        <path class="cls-1" d="M1026.69,665.27c9.95-8.24,16.27-20.63,16.27-34.55,0-12.39-5.01-23.57-13.13-31.69-8.13-8.12-19.3-13.13-31.69-13.13h-44.82v114.59h27.28v-19.88c0-1.33,.54-2.64,1.48-3.58,.94-.94,2.25-1.48,3.58-1.48h10.27c2.16,0,4.08,1.37,4.79,3.41l7.47,21.54h26.78l-9.86-29.72c-.66-1.99-.04-4.16,1.58-5.5Zm-28.55,1.7c-20.02,0-36.25-16.23-36.25-36.25,0-20.02,16.23-36.25,36.25-36.25,20.02,0,36.25,16.23,36.25,36.25,0,20.02-16.23,36.25-36.25,36.25Z"/>
        <path d="M1035.78,670.74c10.65-10.01,17.32-24.25,17.32-40.02,0-30.35-24.6-54.95-54.96-54.96h-49.89c-1.33,0-2.64,.54-3.58,1.48-.94,.94-1.48,2.25-1.48,3.58v124.73c0,1.33,.54,2.64,1.48,3.58,.94,.94,2.25,1.48,3.58,1.48h37.42c1.33,0,2.64-.54,3.58-1.48s1.48-2.25,1.48-3.58v-19.88h1.59l7.47,21.54c.71,2.04,2.63,3.41,4.79,3.41h37.4c1.63,0,3.16-.78,4.11-2.1,.95-1.32,1.21-3.02,.7-4.56l-11.02-33.22Zm-27.59,29.74l-7.47-21.54c-.71-2.04-2.63-3.41-4.79-3.41h-10.27c-1.33,0-2.64,.54-3.58,1.48-.94,.94-1.48,2.25-1.48,3.58v19.88h-27.28v-114.59h44.82c12.39,0,23.57,5.01,31.69,13.13,8.12,8.13,13.13,19.3,13.13,31.69,0,13.92-6.32,26.31-16.27,34.55-1.61,1.34-2.24,3.51-1.58,5.5l9.86,29.72h-26.78Z"/>
      </g>
      <line class="cls-4" x1="966.94" y1="620.72" x2="1023.94" y2="620.72"/>
    </g>
    <g>
      <circle cx="1133.21" cy="630.78" r="14.5"/>
      <g>
        <path class="cls-1" d="M1162.46,665.27c9.95-8.24,16.27-20.63,16.27-34.55,0-12.39-5.01-23.57-13.13-31.69-8.13-8.12-19.3-13.13-31.69-13.13h-44.82v114.59h27.28v-19.88c0-1.33,.54-2.64,1.48-3.58,.94-.94,2.25-1.48,3.58-1.48h10.27c2.16,0,4.08,1.37,4.79,3.41l7.47,21.54h26.78l-9.86-29.72c-.66-1.99-.04-4.16,1.58-5.5Zm-28.55,1.7c-20.02,0-36.25-16.23-36.25-36.25,0-20.02,16.23-36.25,36.25-36.25,20.02,0,36.25,16.23,36.25,36.25,0,20.02-16.23,36.25-36.25,36.25Z"/>
        <path d="M1171.55,670.74c10.65-10.01,17.32-24.25,17.32-40.02,0-30.35-24.6-54.95-54.96-54.96h-49.89c-1.33,0-2.64,.54-3.58,1.48-.94,.94-1.48,2.25-1.48,3.58v124.73c0,1.33,.54,2.64,1.48,3.58,.94,.94,2.25,1.48,3.58,1.48h37.42c1.33,0,2.64-.54,3.58-1.48s1.48-2.25,1.48-3.58v-19.88h1.59l7.47,21.54c.71,2.04,2.63,3.41,4.79,3.41h37.4c1.63,0,3.16-.78,4.11-2.1,.95-1.32,1.21-3.02,.7-4.56l-11.02-33.22Zm-27.59,29.74l-7.47-21.54c-.71-2.04-2.63-3.41-4.79-3.41h-10.27c-1.33,0-2.64,.54-3.58,1.48-.94,.94-1.48,2.25-1.48,3.58v19.88h-27.28v-114.59h44.82c12.39,0,23.57,5.01,31.69,13.13,8.12,8.13,13.13,19.3,13.13,31.69,0,13.92-6.32,26.31-16.27,34.55-1.61,1.34-2.24,3.51-1.58,5.5l9.86,29.72h-26.78Z"/>
      </g>
    </g>
    <g>
      <g>
        <path class="cls-1" d="M894.92,490.27c9.95-8.24,16.27-20.63,16.27-34.55,0-12.39-5.01-23.57-13.13-31.69-8.13-8.12-19.3-13.13-31.69-13.13h-44.82v114.59h27.28v-19.88c0-1.33,.54-2.64,1.48-3.58,.94-.94,2.25-1.48,3.58-1.48h10.27c2.16,0,4.08,1.37,4.79,3.41l7.47,21.54h26.78l-9.86-29.72c-.66-1.99-.04-4.16,1.58-5.5Zm-28.55,1.7c-20.02,0-36.25-16.23-36.25-36.25,0-20.02,16.23-36.25,36.25-36.25,20.02,0,36.25,16.23,36.25,36.25,0,20.02-16.23,36.25-36.25,36.25Z"/>
        <path d="M904,495.74c10.65-10.01,17.32-24.25,17.32-40.02,0-30.35-24.6-54.95-54.96-54.96h-49.89c-1.33,0-2.64,.54-3.58,1.48-.94,.94-1.48,2.25-1.48,3.58v124.73c0,1.33,.54,2.64,1.48,3.58,.94,.94,2.25,1.48,3.58,1.48h37.42c1.33,0,2.64-.54,3.58-1.48s1.48-2.25,1.48-3.58v-19.88h1.59l7.47,21.54c.71,2.04,2.63,3.41,4.79,3.41h37.4c1.63,0,3.16-.78,4.11-2.1s1.21-3.02,.7-4.56l-11.02-33.22Zm-27.59,29.74l-7.47-21.54c-.71-2.04-2.63-3.41-4.79-3.41h-10.27c-1.33,0-2.64,.54-3.58,1.48-.94,.94-1.48,2.25-1.48,3.58v19.88h-27.28v-114.59h44.82c12.39,0,23.57,5.01,31.69,13.13,8.12,8.13,13.13,19.3,13.13,31.69,0,13.92-6.32,26.31-16.27,34.55-1.61,1.34-2.24,3.51-1.58,5.5l9.86,29.72h-26.78Z"/>
      </g>
      <line class="cls-2" x1="821.05" y1="455.72" x2="911.16" y2="455.72"/>
    </g>
  </g>
</svg>