<svg width="456" height="456" viewBox="0 0 456 456" fill="none" xmlns="http://www.w3.org/2000/svg">
<path d="M139.603 353.494L195.975 297.122" stroke="black" stroke-width="20" stroke-linecap="round" stroke-linejoin="round"/>
<path d="M348.953 399.7L360.49 388.163" stroke="black" stroke-width="20" stroke-linecap="round" stroke-linejoin="round"/>
<path d="M375.264 22C384.085 30.821 384.186 45.225 375.264 53.944L375.173 54.036L292.208 137" stroke="black" stroke-width="20" stroke-linecap="round" stroke-linejoin="round"/>
<path d="M113.32 252L97.3466 267.973C88.3446 276.61 74.2246 276.794 65.4036 267.973C56.5826 259.152 56.4816 244.748 65.4036 236.029L65.4026 236.028L71.7916 229.639" stroke="black" stroke-width="20" stroke-linecap="round" stroke-linejoin="round"/>
<path d="M260.265 73.1115C269.086 81.9325 283.207 81.7485 292.209 73.1115L328.945 36.3745" stroke="black" stroke-width="20" stroke-linecap="round" stroke-linejoin="round"/>
<path d="M269.14 34.27L280.68 22.73" stroke="black" stroke-width="20" stroke-linecap="round" stroke-linejoin="round"/>
<path d="M330.542 290.333L358.974 261.901L358.893 261.821C367.894 253.184 382.016 253 390.836 261.821C399.658 270.642 399.759 285.046 390.836 293.765L388.042 296.722" stroke="black" stroke-width="20" stroke-linecap="round" stroke-linejoin="round"/>
<path d="M263.459 165.75C254.537 174.469 254.638 188.873 263.459 197.694C272.28 206.515 286.401 206.331 295.403 197.694L327.348 165.749L358.893 134.204C367.894 125.567 382.016 125.383 390.836 134.204" stroke="black" stroke-width="20" stroke-linecap="round" stroke-linejoin="round"/>
<path d="M324.153 424.5C315.152 433.137 301.03 433.321 292.209 424.5C283.388 415.679 283.287 401.275 292.209 392.556L362.487 322.277" stroke="black" stroke-width="20" stroke-linecap="round" stroke-linejoin="round"/>
<path d="M388.042 168.944L161.237 395.75C152.315 404.469 152.416 418.873 161.237 427.694C170.058 436.515 184.179 436.331 193.181 427.694L199.57 421.305L298.432 322.443" stroke="black" stroke-width="20" stroke-linecap="round" stroke-linejoin="round"/>
<path d="M113.32 379.778C104.318 388.415 90.1965 388.599 81.3755 379.778C72.5545 370.957 72.4535 356.553 81.3755 347.834L170.819 258.389C179.741 249.67 179.64 235.266 170.819 226.445C161.998 217.624 147.877 217.808 138.875 226.445" stroke="black" stroke-width="20" stroke-linecap="round" stroke-linejoin="round"/>
</svg>
