<?xml version="1.0" encoding="UTF-8"?>
<svg width="426px" height="513px" viewBox="0 0 426 513" version="1.1" xmlns="http://www.w3.org/2000/svg" xmlns:xlink="http://www.w3.org/1999/xlink">
    <title>j</title>
    <g id="Page-1" stroke="none" stroke-width="1" fill="none" fill-rule="evenodd">
        <g id="j" transform="translate(-0.000234, -0.000791)" fill="#000000" fill-rule="nonzero">
            <path d="M258.500234,44.0007907 C262.318954,44.0007907 266.052994,42.4533507 268.753474,39.7528707 C271.452794,37.0535507 273.000234,33.3195107 273.000234,29.5007907 C273.000234,25.6820707 271.452794,21.9468707 268.753474,19.2475507 C266.052994,16.5470707 262.318954,15.0007907 258.500234,15.0007907 C254.681514,15.0007907 250.946314,16.5470707 248.246994,19.2475507 C245.546514,21.9468707 244.000234,25.6820707 244.000234,29.5007907 C244.000234,33.3195107 245.546514,37.0535507 248.246994,39.7528707 C250.946314,42.4533507 254.681514,44.0007907 258.500234,44.0007907" id="Fill-1"></path>
            <path d="M185.725514,347.913015 C191.425141,342.214556 191.425141,332.97397 185.725514,327.275511 C180.027055,321.575884 170.786469,321.575884 165.08801,327.275511 L99.2749536,393.088567 C93.5753272,398.787026 93.5753272,408.027612 99.2749536,413.726071 C104.973413,419.425698 114.213999,419.425698 119.912458,413.726071 L185.725514,347.913015 Z" id="Fill-3"></path>
            <path d="M357.887062,434.309971 L344.309384,447.887741 C338.563851,453.632137 338.563851,462.947215 344.309384,468.691611 C350.053741,474.437184 359.368755,474.437184 365.114289,468.691611 L378.691966,455.113841 C384.436323,449.369445 384.436323,440.054367 378.691966,434.309971 C372.946433,428.564398 363.631419,428.564398 357.887062,434.309971" id="Fill-5"></path>
            <path d="M375.175135,41.5919513 L375.055091,41.7102654 L360.708601,55.9911307 L277.309477,139.004298 C271.563819,144.722033 271.563819,153.993877 277.309477,159.711611 C283.053957,165.430518 292.369172,165.430518 298.113653,159.711611 L381.515131,76.698444 L395.861621,62.4164072 L395.859267,62.4140644 C399.874872,58.47807 402.932475,53.8509338 404.952046,48.9332837 C406.995156,43.9617479 408.000234,38.6996983 408.000234,33.4552201 C408.000234,28.1791133 406.984564,22.9065208 404.956754,17.9314708 C402.931298,12.959935 399.876049,8.28359889 395.860444,4.28903317 C390.114786,-1.42987295 380.799571,-1.42987295 375.055091,4.29020459 C369.31061,10.0091107 369.311787,19.2797832 375.056268,24.9975178 L375.056268,24.9975178 C376.24612,26.1841733 377.107616,27.5102285 377.694892,28.9475693 C378.280992,30.3813959 378.578749,31.9253365 378.578749,33.4552201 C378.578749,34.9769036 378.285699,36.4716443 377.721961,37.8398709 C377.154692,39.2116118 376.334388,40.4591815 375.175135,41.5919513" id="Fill-7"></path>
            <path d="M40.8690385,326.000791 C46.1063812,326.000791 51.3308672,324.999841 56.2608184,323.027277 C61.1907696,321.055887 65.8273549,318.099976 69.8374693,314.234643 L70.0536952,314.022249 L88.7215901,295.278788 C94.4264484,289.551196 94.4264484,280.263367 88.7215901,274.535775 C83.0167319,268.808183 73.7657685,268.808183 68.0609103,274.536948 L68.0609103,274.535775 L49.5741776,293.096178 C48.3048729,294.308348 46.9105079,295.186086 45.437834,295.777503 C43.9558098,296.371267 42.3966455,296.664629 40.8690385,296.664629 C39.3566258,296.664629 37.8839519,296.379481 36.5211441,295.825615 C35.1559988,295.268227 33.8925381,294.455029 32.7179053,293.280409 C31.5362598,292.090534 30.6807064,290.76102 30.096312,289.321201 C29.515424,287.883729 29.2197204,286.337126 29.2197204,284.805779 C29.2197204,283.280298 29.5107488,281.781807 30.0694299,280.412395 C30.6327861,279.039463 31.4450943,277.792089 32.5963513,276.659713 C32.6372589,276.618643 32.6723226,276.574052 32.7132302,276.534154 L32.7167365,276.536501 L40.1841283,269.039352 C45.8889865,263.311759 45.8889865,254.025104 40.1841283,248.296338 C34.4781013,242.568746 25.2283066,242.568746 19.5222796,248.297512 L12.0560567,255.793488 C12.0151491,255.834558 11.9789166,255.880323 11.938009,255.922567 C8.01087854,259.837184 5.01176644,264.424187 3.02716303,269.299857 C0.998145648,274.27879 -2.84217094e-14,279.551085 -2.84217094e-14,284.805779 C-2.84217094e-14,290.089808 1.00866475,295.371491 3.02248788,300.356291 C5.03514221,305.336398 8.06931798,310.020797 12.0572255,314.022249 C16.0077316,317.995539 20.6384729,321.023031 25.5590738,323.019063 C30.4808435,325.019789 35.6866289,326.000791 40.8690385,326.000791" id="Fill-10"></path>
            <path d="M240.29978,85.0421048 C244.26981,89.0080254 248.922062,92.0307951 253.865519,94.0237141 C258.810151,96.020148 264.040117,97.0007907 269.245425,97.0007907 C274.50827,97.0007907 279.757024,96.0014021 284.708701,94.0307438 C289.660378,92.0624287 294.317326,89.1122993 298.346068,85.2565106 L298.565647,85.0421048 L341.701716,42.0004429 C347.433073,36.2806129 347.433073,27.0084428 341.701716,21.2897845 C335.970358,15.5711261 326.676423,15.5711261 320.945066,21.2897845 L277.996871,64.1428162 C276.720497,65.3554389 275.316132,66.2329794 273.835443,66.8234739 C272.345361,67.4174833 270.778954,67.7103873 269.245425,67.7103873 C267.724813,67.7103873 266.247647,67.4256846 264.877335,66.8726818 C263.505848,66.3149925 262.236519,65.5042342 261.05643,64.3302748 C255.323898,58.6104448 246.029963,58.6104448 240.298605,64.3314464 C234.567248,70.0512764 234.567248,79.3234465 240.29978,85.0421048 Z" id="Fill-13"></path>
            <path d="M426.000469,314.917674 C425.999294,309.668303 424.986801,304.42243 422.96299,299.472591 C420.940353,294.525082 417.892302,289.873609 413.884615,285.899286 C409.914515,281.955265 405.260806,278.947133 400.315799,276.963468 C395.369618,274.976306 390.136838,274.000791 384.928724,274.000791 C379.665405,274.000791 374.415006,274.994954 369.459428,276.95531 C364.5062,278.913334 359.845443,281.850371 355.814264,285.691828 C355.299796,286.1825 354.838183,286.719791 354.404761,287.27573 L322.30098,319.130923 C316.566652,324.820848 316.566652,334.045707 322.30098,339.734468 C328.035308,345.423228 337.330981,345.423228 343.065309,339.734468 L376.45996,306.597235 C376.693703,306.365303 376.902779,306.118219 377.117728,305.873466 C378.13257,305.077435 379.213189,304.465553 380.338443,304.01917 C381.827818,303.429432 383.394715,303.138059 384.928724,303.138059 C386.448638,303.138059 387.926267,303.421273 389.297009,303.971385 C390.668925,304.526158 391.938653,305.333843 393.120286,306.501665 C394.308967,307.682307 395.167589,309.002808 395.754882,310.4317 C396.338652,311.859426 396.635822,313.395543 396.635822,314.917674 C396.635822,316.431646 396.34335,317.919978 395.780723,319.281271 C395.215747,320.646061 394.398236,321.886143 393.240094,323.013172 C387.441163,328.636665 387.335451,337.860359 393.002828,343.615552 C398.670204,349.369579 407.965877,349.474474 413.765982,343.850981 L413.765982,343.849815 C417.833573,339.909291 420.922734,335.260149 422.958291,330.317303 C424.997373,325.37096 426.000469,320.135576 426.000469,314.917674" id="Fill-15"></path>
            <path d="M244.1282,231.04257 C248.105006,235.009119 252.764995,238.032647 257.71425,240.024122 C262.667032,242.021454 267.903199,243.000791 273.115849,243.000791 C278.386117,243.000791 283.641099,242.000368 288.600936,240.03115 C293.558421,238.063105 298.223114,235.11455 302.257538,231.258118 L302.477427,231.04257 L340.03955,193.621584 L376.95024,156.850756 C378.227239,155.639471 379.630057,154.763222 381.111658,154.172808 C382.603842,153.580051 384.171283,153.287187 385.706974,153.287187 C387.229731,153.287187 388.710157,153.571851 390.081226,154.124778 C391.454647,154.68122 392.724591,155.493039 393.907521,156.666837 C399.646962,162.385885 408.95283,162.387056 414.693448,156.66918 C420.435241,150.951304 420.435241,141.680403 414.696975,135.961355 C410.718993,131.993634 406.06018,128.970107 401.10975,126.97746 C396.156968,124.980128 390.919624,124.000791 385.706974,124.000791 C380.436706,124.000791 375.181725,125.000043 370.220712,126.970432 C365.263227,128.938477 360.597358,131.889375 356.562934,135.74815 L356.346573,135.959012 L319.253623,172.913759 L281.878463,210.148483 C280.599112,211.359768 279.193943,212.237189 277.712341,212.827603 C276.220157,213.421531 274.651541,213.714395 273.115849,213.714395 C271.593092,213.714395 270.112667,213.429731 268.741597,212.876804 C267.368176,212.319191 266.098232,211.508543 264.915303,210.334745 C263.726494,209.14806 262.86693,207.8208 262.278993,206.383424 C261.693408,204.94839 261.395912,203.404412 261.395912,201.875662 C261.395912,200.353941 261.688704,198.857992 262.250772,197.490903 C262.817544,196.119128 263.635952,194.872699 264.794188,193.742244 C270.600654,188.089969 270.707659,178.819068 265.035242,173.034419 C259.361649,167.24977 250.055781,167.143167 244.250491,172.795442 L244.250491,172.79427 C240.177263,176.756134 237.083538,181.4279 235.044572,186.396044 C233.003255,191.366531 232.000234,196.629882 232.000234,201.875662 C232.000234,207.150728 233.013838,212.422279 235.039869,217.398623 C237.063548,222.370282 240.116117,227.046734 244.1282,231.04257" id="Fill-18"></path>
            <path d="M359.879944,357.298182 L277.143773,439.781322 C277.111986,439.813011 277.086086,439.847047 277.0543,439.878736 C273.083369,443.80114 270.053076,448.401924 268.049363,453.290257 C266.005622,458.270136 265.000234,463.542259 265.000234,468.797951 C265.000234,474.084158 266.016218,479.366844 268.044654,484.351418 C270.071913,489.333645 273.128105,494.018933 277.14495,498.021146 C281.125299,501.994017 285.789642,505.022084 290.744771,507.018496 C295.703432,509.019602 300.945815,510.00079 306.167007,510.00079 C311.441176,510.00079 316.703572,509.000824 321.669296,507.027885 C326.633843,505.056121 331.30525,502.099647 335.344463,498.23358 C341.209621,492.62344 341.401516,483.337368 335.775344,477.490147 C330.147994,471.644099 320.833434,471.451618 314.969453,477.061757 L314.968276,477.061757 C313.68152,478.290589 312.264087,479.17671 310.768954,479.772934 C309.276176,480.365637 307.705698,480.660228 306.167007,480.660228 C304.643619,480.659054 303.160259,480.375026 301.787563,479.821054 C300.411334,479.262388 299.138705,478.449035 297.954372,477.273018 C296.765329,476.084091 295.903568,474.754323 295.314933,473.314231 C294.72983,471.87766 294.431981,470.330763 294.431981,468.797951 C294.431981,467.273354 294.725121,465.774579 295.287856,464.403733 C295.8553,463.030539 296.67468,461.782929 297.833113,460.651511 C297.874318,460.610433 297.909636,460.56466 297.95084,460.524755 L297.954372,460.528276 L380.690543,378.045136 C386.436798,372.315282 386.436798,363.026862 380.690543,357.298182 C374.943112,351.568327 365.626198,351.568327 359.879944,357.298182" id="Fill-20"></path>
            <path d="M305.655332,356.611884 C299.933148,350.878348 290.654087,350.878348 284.931903,356.611884 L284.931903,356.611884 L169.042714,472.730955 C169.039197,472.734479 169.034507,472.736828 169.03099,472.741527 L161.723804,480.064383 C160.450644,481.276636 159.052044,482.155285 157.57607,482.746141 C156.088372,483.340521 154.524472,483.635362 152.993398,483.635362 C151.47522,483.634187 149.999245,483.348744 148.631126,482.794302 C147.261835,482.235162 145.994537,481.422295 144.816336,480.245281 C143.631102,479.056521 142.774123,477.724452 142.187953,476.283139 C141.604129,474.84535 141.307527,473.297143 141.307527,471.763032 C141.307527,470.235968 141.599439,468.737097 142.160989,467.365089 C142.724884,465.990732 143.53966,464.742064 144.694413,463.608513 C144.735445,463.568575 144.769443,463.522763 144.810475,463.48165 L144.815164,463.486348 L272.067831,335.982432 L289.713872,318.300214 L410.708595,197.06548 C416.43078,191.33077 416.43078,182.034478 410.708595,176.300943 C404.985238,170.567407 395.707351,170.567407 389.985166,176.300943 L268.98927,297.535676 L251.343229,315.21672 L124.090562,442.721811 C124.061254,442.751177 124.036635,442.785243 124.007326,442.815784 C120.050683,446.741511 117.031911,451.347369 115.036591,456.24102 C113.000234,461.226295 112.000234,466.502886 112.000234,471.763032 C112.000234,477.053719 113.01079,482.340882 115.031902,487.32968 C117.049496,492.31613 120.091715,497.005389 124.092907,501.010993 C128.056584,504.987231 132.701389,508.019039 137.636935,510.015968 C142.573653,512.018771 147.795249,513.000791 152.993398,513.000791 C158.245475,513.000791 163.485829,511.999976 168.430753,510.025366 C173.375677,508.050755 178.026345,505.092951 182.048638,501.224782 L182.266693,501.010993 L189.755592,493.506064 L305.655332,377.376421 C311.377517,371.641711 311.377517,362.345419 305.655332,356.611884" id="Fill-22"></path>
            <path d="M67.8381973,424.013845 L67.8381973,424.013845 C66.5536471,425.244464 65.1411116,426.130698 63.648732,426.727789 C62.1587008,427.32253 60.592348,427.617549 59.057698,427.617549 C57.5383124,427.616374 56.0588487,427.330757 54.6897578,426.777155 C53.3171443,426.217676 52.0478584,425.40314 50.8678101,424.226588 C49.6818908,423.035931 48.8223929,421.70423 48.2353041,420.262042 C47.6505637,418.822206 47.3534968,417.27306 47.354671,415.738018 C47.354671,414.211203 47.6470412,412.710247 48.2082981,411.337408 C48.7742516,409.962217 49.590305,408.712792 50.7456956,407.579728 C50.787966,407.53859 50.8220171,407.492751 50.8631134,407.452788 L50.8666359,407.456314 L110.881196,347.381639 L155.890942,302.325926 C155.922644,302.294191 155.94965,302.25893 155.980179,302.226019 C159.94068,298.29791 162.961838,293.691609 164.960288,288.79499 C166.998661,283.806692 168.000234,278.528075 168.000234,273.264739 C168.000234,267.970842 166.988093,262.680472 164.963811,257.688647 C162.943052,252.700349 159.896061,248.008245 155.889767,244.000211 C151.918699,240.021561 147.267782,236.989089 142.325669,234.988598 C137.380033,232.984581 132.150247,232.000791 126.943944,232.000791 C121.68128,232.000791 116.433881,233.003387 111.478852,234.980371 C106.527346,236.956179 101.868209,239.918128 97.8396063,243.790994 C91.9922024,249.41047 91.8019857,258.71005 97.4157282,264.564601 C103.029471,270.417976 112.319563,270.608387 118.168141,264.988912 C119.451517,263.757117 120.864053,262.870883 122.354084,262.273792 C123.844115,261.679051 125.409294,261.385207 126.943944,261.385207 C128.462155,261.385207 129.940445,261.670823 131.309536,262.225601 C132.682149,262.785081 133.951435,263.599617 135.132658,264.777344 L135.133832,264.779695 C136.319751,265.969176 137.178075,267.298527 137.765164,268.741889 C138.349904,270.18055 138.646971,271.729697 138.646971,273.264739 C138.646971,274.791553 138.354601,276.293684 137.79217,277.665349 C137.226216,279.041715 136.408989,280.293491 135.253598,281.427729 C135.212502,281.467692 135.178451,281.512356 135.138529,281.552319 L135.133832,281.548793 L90.124086,326.604506 L30.1107004,386.679181 C30.0801718,386.709741 30.0555141,386.743827 30.0249855,386.773211 C26.0633106,390.702495 23.0409778,395.309972 21.0413535,400.207766 C19.0029814,405.194889 18.0002338,410.474681 18.0002338,415.738018 C18.0002338,421.031914 19.0123748,426.322284 21.0366568,431.314109 C23.0574162,436.303583 26.105581,440.995686 30.1118746,445.003721 C34.0829429,448.983546 38.7350341,452.016018 43.6771471,454.015333 C48.6216085,456.018175 53.8513951,457.000791 59.057698,457.000791 C64.3191874,457.000791 69.5665866,455.999369 74.5204414,454.023561 C79.4719479,452.048928 84.12991,449.088154 88.1596871,445.217639 C94.0082652,439.600514 94.2020045,430.299759 88.5894361,424.445208 C82.9780418,418.589481 73.6867754,418.39672 67.8381973,424.013845" id="Fill-24"></path>
            <path d="M156.499234,244.500291 C156.499234,244.500291 156.500234,244.500291 156.500234,244.500291 C156.500234,244.501291 156.500234,244.501291 156.501234,244.501291 L156.499234,244.500291 Z" id="Fill-26"></path>
        </g>
    </g>
    <style>
        #j { fill: black; }

    @media (prefers-color-scheme: dark) {
      #j { fill: white; }
    }
  </style>
</svg>