<?xml version="1.0" encoding="UTF-8"?>
<svg width="1000px" height="1000px" viewBox="0 0 1000 1000" version="1.1" xmlns="http://www.w3.org/2000/svg" xmlns:xlink="http://www.w3.org/1999/xlink">
    <title>avatar-alt</title>
    <g id="Page-1" stroke="none" stroke-width="1" fill="none" fill-rule="evenodd">
        <g id="avatar-alt">
            <rect id="Rectangle" fill="#FFD3D9" fill-rule="nonzero" x="0" y="0" width="1000" height="1000"></rect>
            <g id="Group-11" transform="translate(259.069306, 181.845603)">
                <path d="M28.3799181,362.88713 C34.590691,288.697547 45.6266689,127.443775 45.6266689,194.659657 L45.6266689,259.109569 L51.8129607,259.109569 C86.5686724,259.109569 96.9569597,283.531961 96.9569597,310.51405 C96.9569597,335.409327 96.9569597,362.720826 61.4981478,383.049934 C61.9319567,384.970935 62.1609396,386.969574 62.1609396,389.021696 C62.1609396,403.930472 50.0749884,416.016424 35.166212,416.016424 C20.2574356,416.016424 8.17148434,403.930472 8.17148434,389.021696 C8.17148434,376.456785 16.7559975,365.896895 28.3799181,362.88713 Z" id="Combined-Shape-Copy-2" fill="#E8A191" fill-rule="nonzero" transform="translate(52.564222, 297.323171) scale(-1, 1) rotate(-4.000000) translate(-52.564222, -297.323171) "></path>
                <path d="M45.0725489,418.823974 C42.8436264,418.823974 41.7291652,417.709512 41.7291652,415.48059 L41.7291652,395.17263 C41.7291652,392.943707 42.8436264,391.829246 45.0725489,391.829246 L65.3805091,391.829246 C67.6094316,391.829246 68.7238928,392.943707 68.7238928,395.17263 L68.7238928,415.48059 C68.7238928,417.709512 67.6094316,418.823974 65.3805091,418.823974 L45.0725489,418.823974 Z" id="Shape_6_-Copy-4" fill="#FCB138" fill-rule="nonzero"></path>
                <path d="M391.877937,413.907142 C388.150994,457.207531 373.123777,478.633226 353.161323,506.997148 C280.673656,609.992225 238.422506,638.929844 150.210553,638.929844 C119.948776,638.929844 73.6581255,625.833768 60.5420095,506.997148 L33.855703,195.261863 C33.855703,89.7961808 67.5991125,-2.10942375e-15 218.882065,-2.10942375e-15 C365.103507,-2.10942375e-15 414.143928,101.726217 414.143928,195.261863 L414.143928,259.711775 L420.33022,259.711775 C455.085932,259.711775 465.474219,284.134167 465.474219,311.116255 C465.474219,336.011532 465.474219,363.323031 430.015407,383.652139 C430.449216,385.57314 430.678199,387.57178 430.678199,389.623901 C430.678199,404.532678 418.592248,416.618629 403.683471,416.618629 C399.449983,416.618629 395.444107,415.644102 391.877937,413.907142 Z" id="Combined-Shape" fill="#E8A191" fill-rule="nonzero"></path>
                <path d="M394.826804,418.823974 C392.597881,418.823974 391.48342,417.709512 391.48342,415.48059 L391.48342,395.17263 C391.48342,392.943707 392.597881,391.829246 394.826804,391.829246 L415.134764,391.829246 C417.363686,391.829246 418.478147,392.943707 418.478147,395.17263 L418.478147,415.48059 C418.478147,417.709512 417.363686,418.823974 415.134764,418.823974 L394.826804,418.823974 Z" id="Shape_6_-Copy-3" fill="#FCB138" fill-rule="nonzero"></path>
                <g id="Group-10" stroke-linecap="round" stroke-linejoin="round" transform="translate(418.317761, 320.172982) rotate(28.000000) translate(-418.317761, -320.172982) translate(396.227892, 293.140372)" stroke="#BC776C" stroke-width="22.4956063">
                    <path d="M1.55431223e-15,11.82101 C27.3193929,-23.9323596 49.7720243,30.615251 42.9435918,54.06522" id="Shape_8_-Copy-3"></path>
                    <path d="M0.693871647,12.100934 C21.4906755,5.05404595 41.6254928,25.5804759 16.3226331,48.6679636" id="Shape_9_-Copy-3"></path>
                </g>
                <path d="M93.8199,265.449687 C88.6731298,265.449687 82.0967014,261.589609 82.0967014,253.726488 C82.0967014,249.866412 84.6700863,245.863368 87.2434714,244.576675 C84.6700863,243.289982 83.3833939,243.289982 80.8100088,243.289982 C67.8001177,243.289982 57.3636116,252.439796 57.3636116,266.736379 C57.3636116,281.032963 66.5134251,290.182776 80.8100088,290.182776 C93.8199,290.182776 104.256406,281.032963 104.256406,266.736379 C104.256406,264.162995 104.256406,262.876302 102.969713,260.302917 C100.396328,264.162995 97.6799775,265.449687 93.8199,265.449687 Z" id="Shape_10_-Copy-3" stroke="#7F4B4F" stroke-width="5.11977504" fill="#7F4B4F" fill-rule="nonzero" stroke-linecap="round" stroke-linejoin="round"></path>
                <path d="M244.70918,265.449687 C239.562409,265.449687 232.985981,261.589609 232.985981,253.726488 C232.985981,249.866412 235.559365,245.863368 238.132751,244.576675 C235.559365,243.289982 234.272673,243.289982 231.699289,243.289982 C218.689398,243.289982 208.252891,252.439796 208.252891,266.736379 C208.252891,281.032963 217.402704,290.182776 231.699289,290.182776 C244.70918,290.182776 255.145686,281.032963 255.145686,266.736379 C255.145686,264.162995 255.145686,262.876301 253.858993,260.302917 C252.5723,264.162995 248.569256,265.449687 244.70918,265.449687 Z" id="Shape_11_-Copy-3" stroke="#7F4B4F" stroke-width="5.11977504" fill="#7F4B4F" fill-rule="nonzero" stroke-linecap="round" stroke-linejoin="round"></path>
                <g id="Group-8" transform="translate(218.263436, 353.743409)" fill="#BC776C" fill-rule="nonzero">
                    <circle id="Oval-Copy-3" cx="8.43585237" cy="11.2478032" r="8.43585237"></circle>
                    <circle id="Oval_1_-Copy-3" cx="65.3497363" cy="11.2478032" r="11.2478032"></circle>
                    <circle id="Oval_2_-Copy-3" cx="39.8172232" cy="48.1405976" r="11.2478032"></circle>
                </g>
                <path d="M121.989905,194.137082 C121.989905,207.481733 121.989905,234.586216 121.989905,275.450533 C121.989905,336.747008 107.421899,329.798212 107.421899,368.735674 C107.421899,407.673137 65.4199043,444.358148 121.989905,449.592944 C139.549576,449.592944 163.02369,434.767846 163.02369,434.767846 C163.02369,434.767846 199.579071,439.094081 199.579071,419.013975 C199.579071,398.93387 178.791191,400.58223 170.048628,407.192732" id="Line-Copy-3" stroke="#7F4B4F" stroke-width="22.4956063" stroke-linecap="round" stroke-linejoin="round"></path>
                <path d="M94.6707107,521.299274 C114.129411,483.506655 138.713832,499.654818 150.347337,498.691189 C161.980842,497.727561 209.285825,481.369573 234.818338,521.299274 C227.339084,538.226047 221.531284,548.177326 217.394936,551.15311 C199.010443,564.379339 180.94088,556.789292 167.128991,556.789292 C156.654352,556.789292 133.357115,554.616514 107.188725,538.447189 C103.531168,536.187203 99.3584966,530.471231 94.6707107,521.299274 Z" id="Shape_16_-Copy-4" stroke="#7F4B4F" stroke-width="22.4956063" stroke-linecap="round" stroke-linejoin="round"></path>
                <path d="M220.352513,531.119684 C215.521117,528.641255 202.171997,526.060196 187.421027,526.193731 C177.73586,526.281407 165.367493,528.448865 161.706977,529.390984 C152.471322,531.767996 149.006292,531.119684 147.040335,531.119684 C145.074378,531.119684 138.209093,529.390984 124.220063,529.390984 C110.231033,529.390984 105.423421,532.481237 101.333816,538.663506 C97.2442111,544.845775 94.1138993,566.291138 119.93455,568.229377 C145.73951,570.166438 136.656892,553.842432 171.091112,568.98492 C189.796353,577.210572 206.917145,570.043612 213.786138,560.430615 C219.56218,552.347178 228.356098,535.225397 228.356098,535.225397 C228.356098,535.225397 228.356098,535.225397 220.352513,531.119684 Z" id="Line-5-Copy-4" stroke="#7F4B4F" stroke-width="22.4956063" fill="#BC776C" fill-rule="nonzero" stroke-linecap="round" stroke-linejoin="round"></path>
                <line x1="286.878646" y1="192.11911" x2="180.163795" y2="193.981825" id="Shape_18_-Copy-3" stroke="#7F4B4F" stroke-width="22.4956063" stroke-linecap="round" stroke-linejoin="round" transform="translate(233.521220, 193.050468) scale(-1, 1) rotate(1.000000) translate(-233.521220, -193.050468) "></line>
                <line x1="121.673304" y1="192.488762" x2="34.6153072" y2="192.488762" id="Shape_18_-Copy-3" stroke="#7F4B4F" stroke-width="22.4956063" stroke-linecap="round" stroke-linejoin="round"></line>
            </g>
        </g>
    </g>
</svg>