<?xml version="1.0" encoding="UTF-8"?>
<svg id="Layer_1" data-name="Layer 1" xmlns="http://www.w3.org/2000/svg" xmlns:xlink="http://www.w3.org/1999/xlink" viewBox="0 0 883.09 883.09">
  <defs>
    <style>
      .cls-1, .cls-2, .cls-3 {
        fill: none;
      }

      .cls-2, .cls-4, .cls-5, .cls-3 {
        stroke: #f1f1f2;
        stroke-linejoin: round;
        stroke-width: 22.08px;
      }

      .cls-2, .cls-6 {
        fill-rule: evenodd;
      }

      .cls-7 {
        clip-path: url(#clippath);
      }

      .cls-4, .cls-8, .cls-5, .cls-6 {
        fill: #f1f1f2;
      }

      .cls-9 {
        fill: #a5d7ba;
      }

      .cls-10 {
        fill: #53bb7d;
      }

      .cls-11 {
        clip-path: url(#clippath-1);
      }

      .cls-12 {
        clip-path: url(#clippath-4);
      }

      .cls-13 {
        clip-path: url(#clippath-3);
      }

      .cls-14 {
        clip-path: url(#clippath-2);
      }

      .cls-15 {
        clip-path: url(#clippath-6);
      }

      .cls-16 {
        clip-path: url(#clippath-5);
      }

      .cls-5 {
        clip-rule: evenodd;
      }

      .cls-17 {
        opacity: .8;
      }
    </style>
    <clipPath id="clippath">
      <rect class="cls-1" width="883.09" height="883.09"/>
    </clipPath>
    <clipPath id="clippath-1">
      <rect class="cls-1" width="883.09" height="883.09"/>
    </clipPath>
    <clipPath id="clippath-2">
      <rect class="cls-1" width="883.09" height="883.09"/>
    </clipPath>
    <clipPath id="clippath-3">
      <rect class="cls-1" width="883.09" height="883.09"/>
    </clipPath>
    <clipPath id="clippath-4">
      <rect class="cls-1" width="883.09" height="883.09"/>
    </clipPath>
    <clipPath id="clippath-5">
      <path class="cls-5" d="M581.81,656.91c-5.73,6.28-11.54,10.74-22.76,16.06-11.82,5.54-29.45,11.33-55.46,18.28-25.98,6.99-44.17,10.79-57.15,11.9-12.39,1-19.66,.04-27.76-2.52l-108.71-58.16-26.88-100.32c7.8-7.31,18.27-17.97,28.83-31.32,10.03-12.78,20.14-27.92,27.56-45.27,6.04-14.15,10.11-30.07,10.37-46.98,7.86,.16,16.12-.12,25.03-1,16.23-1.62,34.09-4.93,52.71-9.92,28.4-7.64,53.24-17.63,72.07-28.84,.27-.15,.5-.34,.76-.51,8.67,14.49,20.14,26.2,32.45,35.43,22.67,16.91,48.02,26.78,67.94,32.96,7.39,2.28,13.67,3.85,19.16,5.13l24.17,90.19c-4.97,5.13-10.27,9.89-17.14,14.56-6.82,4.58-15.68,9.17-27.08,13.6-12.11,1.87-22.08,2.32-30.28,1.77-13.14-.94-22.92-3.95-34.32-7.9-12.81-4.46-26.84,2.33-31.32,15.17-2.12,6.07-1.55,12.37,.83,17.84l-8.94,2.39c-24.56,6.58-41.53,7.79-54.66,6.9-13.14-.94-22.92-3.95-34.3-7.91-12.84-4.46-26.87,2.33-31.32,15.17-4.49,12.82,2.3,26.85,15.15,31.33,12.32,4.32,27.73,9.18,47.07,10.5,19.39,1.35,42.26-.78,70.81-8.45l95.18-25.5-22,35.42ZM350.12,185.7c22.64,13.09,48.67,15.8,72.05,9.49,8.21-2.17,15.91-5.84,23.31-10.19l38.76,144.65c-.93,.81-1.81,1.61-3.18,2.58-11.63,8.6-36.82,20.13-66.19,27.88-24.66,6.66-47.83,9.66-63.37,9.39-5.31-.03-9.12-.56-11.94-1.11l-46.49-173.49c6.05-6.82,13.82-11.45,22.35-13.76,11.39-3.03,23.68-1.78,34.7,4.56Z"/>
    </clipPath>
    <clipPath id="clippath-6">
      <rect class="cls-4" x="-172.54" y="-186.76" width="1253.92" height="1253.92"/>
    </clipPath>
  </defs>
  <g class="cls-7">
    <g class="cls-11">
      <g class="cls-14">
        <rect class="cls-9" x="-3.68" y="-3.68" width="890.45" height="890.45"/>
      </g>
    </g>
    <g class="cls-13">
      <g class="cls-12">
        <rect class="cls-10" x="-3.68" y="-3.68" width="890.45" height="890.45"/>
      </g>
    </g>
    <g class="cls-17">
      <path class="cls-6" d="M581.81,656.91c-5.73,6.28-11.54,10.74-22.76,16.06-11.82,5.54-29.45,11.33-55.46,18.28-25.98,6.99-44.17,10.79-57.15,11.9-12.39,1-19.66,.04-27.76-2.52l-108.71-58.16-26.88-100.32c7.8-7.31,18.27-17.97,28.83-31.32,10.03-12.78,20.14-27.92,27.56-45.27,6.04-14.15,10.11-30.07,10.37-46.98,7.86,.16,16.12-.12,25.03-1,16.23-1.62,34.09-4.93,52.71-9.92,28.4-7.64,53.24-17.63,72.07-28.84,.27-.15,.5-.34,.76-.51,8.67,14.49,20.14,26.2,32.45,35.43,22.67,16.91,48.02,26.78,67.94,32.96,7.39,2.28,13.67,3.85,19.16,5.13l24.17,90.19c-4.97,5.13-10.27,9.89-17.14,14.56-6.82,4.58-15.68,9.17-27.08,13.6-12.11,1.87-22.08,2.32-30.28,1.77-13.14-.94-22.92-3.95-34.32-7.9-12.81-4.46-26.84,2.33-31.32,15.17-2.12,6.07-1.55,12.37,.83,17.84l-8.94,2.39c-24.56,6.58-41.53,7.79-54.66,6.9-13.14-.94-22.92-3.95-34.3-7.91-12.84-4.46-26.87,2.33-31.32,15.17-4.49,12.82,2.3,26.85,15.15,31.33,12.32,4.32,27.73,9.18,47.07,10.5,19.39,1.35,42.26-.78,70.81-8.45l95.18-25.5-22,35.42ZM350.12,185.7c22.64,13.09,48.67,15.8,72.05,9.49,8.21-2.17,15.91-5.84,23.31-10.19l38.76,144.65c-.93,.81-1.81,1.61-3.18,2.58-11.63,8.6-36.82,20.13-66.19,27.88-24.66,6.66-47.83,9.66-63.37,9.39-5.31-.03-9.12-.56-11.94-1.11l-46.49-173.49c6.05-6.82,13.82-11.45,22.35-13.76,11.39-3.03,23.68-1.78,34.7,4.56Z"/>
      <g class="cls-16">
        <g>
          <rect class="cls-8" x="-172.54" y="-186.76" width="1253.92" height="1253.92"/>
          <g class="cls-15">
            <rect class="cls-4" x="204.69" y="104.59" width="457.67" height="650.32" transform="translate(-96.46 126.85) rotate(-15)"/>
          </g>
          <rect class="cls-3" x="-172.54" y="-186.76" width="1253.92" height="1253.92"/>
        </g>
      </g>
      <path class="cls-2" d="M581.81,656.91c-5.73,6.28-11.54,10.74-22.76,16.06-11.82,5.54-29.45,11.33-55.46,18.28-25.98,6.99-44.17,10.79-57.15,11.9-12.39,1-19.66,.04-27.76-2.52l-108.71-58.16-26.88-100.32c7.8-7.31,18.27-17.97,28.83-31.32,10.03-12.78,20.14-27.92,27.56-45.27,6.04-14.15,10.11-30.07,10.37-46.98,7.86,.16,16.12-.12,25.03-1,16.23-1.62,34.09-4.93,52.71-9.92,28.4-7.64,53.24-17.63,72.07-28.84,.27-.15,.5-.34,.76-.51,8.67,14.49,20.14,26.2,32.45,35.43,22.67,16.91,48.02,26.78,67.94,32.96,7.39,2.28,13.67,3.85,19.16,5.13l24.17,90.19c-4.97,5.13-10.27,9.89-17.14,14.56-6.82,4.58-15.68,9.17-27.08,13.6-12.11,1.87-22.08,2.32-30.28,1.77-13.14-.94-22.92-3.95-34.32-7.9-12.81-4.46-26.84,2.33-31.32,15.17-2.12,6.07-1.55,12.37,.83,17.84l-8.94,2.39c-24.56,6.58-41.53,7.79-54.66,6.9-13.14-.94-22.92-3.95-34.3-7.91-12.84-4.46-26.87,2.33-31.32,15.17-4.49,12.82,2.3,26.85,15.15,31.33,12.32,4.32,27.73,9.18,47.07,10.5,19.39,1.35,42.26-.78,70.81-8.45l95.18-25.5-22,35.42ZM350.12,185.7c22.64,13.09,48.67,15.8,72.05,9.49,8.21-2.17,15.91-5.84,23.31-10.19l38.76,144.65c-.93,.81-1.81,1.61-3.18,2.58-11.63,8.6-36.82,20.13-66.19,27.88-24.66,6.66-47.83,9.66-63.37,9.39-5.31-.03-9.12-.56-11.94-1.11l-46.49-173.49c6.05-6.82,13.82-11.45,22.35-13.76,11.39-3.03,23.68-1.78,34.7,4.56Z"/>
    </g>
  </g>
</svg>