<?xml version="1.0" encoding="UTF-8"?>
<svg id="Layer_1" data-name="Layer 1" xmlns="http://www.w3.org/2000/svg" xmlns:xlink="http://www.w3.org/1999/xlink" viewBox="0 0 800.88 800.88">
  <defs>
    <style>
      .cls-1, .cls-2, .cls-3 {
        fill: none;
      }

      .cls-2, .cls-4, .cls-5, .cls-3 {
        stroke-linejoin: round;
      }

      .cls-2, .cls-4, .cls-3 {
        stroke: #f1f1f2;
        stroke-width: 22.08px;
      }

      .cls-2, .cls-6 {
        fill-rule: evenodd;
      }

      .cls-7 {
        clip-path: url(#clippath);
      }

      .cls-8, .cls-5 {
        fill: #fff;
      }

      .cls-9, .cls-4, .cls-6 {
        fill: #f1f1f2;
      }

      .cls-10 {
        fill: #404041;
      }

      .cls-11 {
        clip-path: url(#clippath-1);
      }

      .cls-4 {
        clip-rule: evenodd;
      }

      .cls-5 {
        stroke: #fff;
        stroke-width: 8.05px;
      }

      .cls-12 {
        opacity: .8;
      }
    </style>
    <clipPath id="clippath">
      <rect class="cls-1" x="950.47" y="308.43" width="883.09" height="883.09"/>
    </clipPath>
    <clipPath id="clippath-1">
      <path class="cls-4" d="M1532.27,965.33c-5.73,6.28-11.54,10.74-22.76,16.06-11.82,5.54-29.45,11.33-55.46,18.28-25.98,6.99-44.17,10.79-57.15,11.9-12.39,1-19.66,.04-27.76-2.52l-108.71-58.16-26.88-100.32c7.8-7.31,18.27-17.97,28.83-31.32,10.03-12.78,20.14-27.92,27.56-45.27,6.04-14.15,10.11-30.07,10.37-46.98,7.86,.16,16.12-.12,25.03-1,16.23-1.62,34.09-4.93,52.71-9.92,28.4-7.64,53.24-17.63,72.07-28.84,.27-.15,.5-.34,.76-.51,8.67,14.49,20.14,26.2,32.45,35.43,22.67,16.91,48.02,26.78,67.94,32.96,7.39,2.28,13.67,3.85,19.16,5.13l24.17,90.19c-4.97,5.13-10.27,9.89-17.14,14.56-6.82,4.58-15.68,9.17-27.08,13.6-12.11,1.87-22.08,2.32-30.28,1.77-13.14-.94-22.92-3.95-34.32-7.9-12.81-4.46-26.84,2.33-31.32,15.17-2.12,6.07-1.55,12.37,.83,17.84l-8.94,2.39c-24.56,6.58-41.53,7.79-54.66,6.9-13.14-.94-22.92-3.95-34.3-7.91-12.84-4.46-26.87,2.33-31.32,15.17-4.49,12.82,2.3,26.85,15.15,31.33,12.32,4.32,27.73,9.18,47.07,10.5,19.39,1.35,42.26-.78,70.81-8.45l95.18-25.5-22,35.42Zm-231.69-471.21c22.64,13.09,48.67,15.8,72.05,9.49,8.21-2.17,15.91-5.84,23.31-10.19l38.76,144.65c-.93,.81-1.81,1.61-3.18,2.58-11.63,8.6-36.82,20.13-66.19,27.88-24.66,6.66-47.83,9.66-63.37,9.39-5.31-.03-9.12-.56-11.94-1.11l-46.49-173.49c6.05-6.82,13.82-11.45,22.35-13.76,11.39-3.03,23.68-1.78,34.7,4.56Z"/>
    </clipPath>
  </defs>
  <rect class="cls-10" x="0" y="0" width="800.88" height="800.88"/>
  <path class="cls-8" d="M461.43,313.71c33.63,33.63,33.63,88.35,0,121.98-33.63,33.63-88.35,33.63-121.98,0-33.63-33.63-33.63-88.35,0-121.98,33.63-33.63,88.35-33.63,121.98,0m43.56-43.56c-57.74-57.74-151.37-57.74-209.11,0-57.74,57.74-57.74,151.37,0,209.11,57.74,57.74,151.37,57.74,209.11,0,57.74-57.74,57.74-151.37,0-209.11Z"/>
  <path class="cls-8" d="M458.58,316.55c16.03,16.04,24.04,37.07,24.04,58.14,0,21.07-8.01,42.11-24.04,58.14-16.04,16.03-37.07,24.04-58.14,24.04-21.07,0-42.11-8.01-58.14-24.04-16.03-16.04-24.04-37.07-24.04-58.14,0-21.07,8.01-42.11,24.04-58.14,16.04-16.03,37.07-24.04,58.14-24.04,21.07,0,42.11,8.01,58.14,24.04l5.69-5.69c-17.6-17.6-40.74-26.41-63.84-26.4-23.1,0-46.24,8.81-63.84,26.4-17.6,17.59-26.41,40.74-26.4,63.84,0,23.1,8.81,46.24,26.4,63.84,17.59,17.6,40.74,26.41,63.84,26.4,23.1,0,46.24-8.81,63.84-26.4,17.6-17.59,26.41-40.74,26.4-63.84,0-23.1-8.81-46.24-26.4-63.84l-5.69,5.69h0Zm46.41-46.41l2.85-2.85c-29.65-29.65-68.54-44.49-107.4-44.49-38.86,0-77.76,14.84-107.4,44.49-29.65,29.65-44.49,68.54-44.49,107.4,0,38.86,14.84,77.75,44.49,107.4,29.65,29.65,68.54,44.49,107.4,44.49,38.86,0,77.75-14.84,107.4-44.49,29.65-29.65,44.49-68.54,44.49-107.4,0-38.86-14.84-77.76-44.49-107.4l-2.85,2.85-2.85,2.85c28.09,28.1,42.12,64.88,42.13,101.71,0,36.82-14.04,73.61-42.13,101.71-28.1,28.09-64.89,42.12-101.71,42.13-36.82,0-73.61-14.04-101.71-42.13-28.09-28.1-42.13-64.88-42.13-101.71,0-36.82,14.04-73.61,42.13-101.71,28.1-28.09,64.88-42.12,101.71-42.13,36.82,0,73.61,14.04,101.71,42.13l2.85-2.85Z"/>
  <path class="cls-5" d="M463.51,481.33c22.3,0,29.92-23.19,46.93-40.2l80.33,80.33c12.03,12.03,12.03,31.53,0,43.56-12.03,12.03-31.53,12.03-43.56,0l-68.61-68.61-15.08-15.08Z"/>
  <path class="cls-5" d="M225.08,521.46c-12.03,12.03-12.03,31.53,0,43.56s31.53,12.03,43.56,0l40-40c-22.12-3.19-43.67-11.27-62.91-24.22l-20.66,20.66Z"/>
  <g class="cls-7">
    <g class="cls-12">
      <path class="cls-6" d="M1532.27,965.33c-5.73,6.28-11.54,10.74-22.76,16.06-11.82,5.54-29.45,11.33-55.46,18.28-25.98,6.99-44.17,10.79-57.15,11.9-12.39,1-19.66,.04-27.76-2.52l-108.71-58.16-26.88-100.32c7.8-7.31,18.27-17.97,28.83-31.32,10.03-12.78,20.14-27.92,27.56-45.27,6.04-14.15,10.11-30.07,10.37-46.98,7.86,.16,16.12-.12,25.03-1,16.23-1.62,34.09-4.93,52.71-9.92,28.4-7.64,53.24-17.63,72.07-28.84,.27-.15,.5-.34,.76-.51,8.67,14.49,20.14,26.2,32.45,35.43,22.67,16.91,48.02,26.78,67.94,32.96,7.39,2.28,13.67,3.85,19.16,5.13l24.17,90.19c-4.97,5.13-10.27,9.89-17.14,14.56-6.82,4.58-15.68,9.17-27.08,13.6-12.11,1.87-22.08,2.32-30.28,1.77-13.14-.94-22.92-3.95-34.32-7.9-12.81-4.46-26.84,2.33-31.32,15.17-2.12,6.07-1.55,12.37,.83,17.84l-8.94,2.39c-24.56,6.58-41.53,7.79-54.66,6.9-13.14-.94-22.92-3.95-34.3-7.91-12.84-4.46-26.87,2.33-31.32,15.17-4.49,12.82,2.3,26.85,15.15,31.33,12.32,4.32,27.73,9.18,47.07,10.5,19.39,1.35,42.26-.78,70.81-8.45l95.18-25.5-22,35.42Zm-231.69-471.21c22.64,13.09,48.67,15.8,72.05,9.49,8.21-2.17,15.91-5.84,23.31-10.19l38.76,144.65c-.93,.81-1.81,1.61-3.18,2.58-11.63,8.6-36.82,20.13-66.19,27.88-24.66,6.66-47.83,9.66-63.37,9.39-5.31-.03-9.12-.56-11.94-1.11l-46.49-173.49c6.05-6.82,13.82-11.45,22.35-13.76,11.39-3.03,23.68-1.78,34.7,4.56Z"/>
      <g class="cls-11">
        <g>
          <rect class="cls-9" x="777.93" y="121.67" width="1253.92" height="1253.92"/>
          <rect class="cls-3" x="777.93" y="121.67" width="1253.92" height="1253.92"/>
        </g>
      </g>
      <path class="cls-2" d="M1532.27,965.33c-5.73,6.28-11.54,10.74-22.76,16.06-11.82,5.54-29.45,11.33-55.46,18.28-25.98,6.99-44.17,10.79-57.15,11.9-12.39,1-19.66,.04-27.76-2.52l-108.71-58.16-26.88-100.32c7.8-7.31,18.27-17.97,28.83-31.32,10.03-12.78,20.14-27.92,27.56-45.27,6.04-14.15,10.11-30.07,10.37-46.98,7.86,.16,16.12-.12,25.03-1,16.23-1.62,34.09-4.93,52.71-9.92,28.4-7.64,53.24-17.63,72.07-28.84,.27-.15,.5-.34,.76-.51,8.67,14.49,20.14,26.2,32.45,35.43,22.67,16.91,48.02,26.78,67.94,32.96,7.39,2.28,13.67,3.85,19.16,5.13l24.17,90.19c-4.97,5.13-10.27,9.89-17.14,14.56-6.82,4.58-15.68,9.17-27.08,13.6-12.11,1.87-22.08,2.32-30.28,1.77-13.14-.94-22.92-3.95-34.32-7.9-12.81-4.46-26.84,2.33-31.32,15.17-2.12,6.07-1.55,12.37,.83,17.84l-8.94,2.39c-24.56,6.58-41.53,7.79-54.66,6.9-13.14-.94-22.92-3.95-34.3-7.91-12.84-4.46-26.87,2.33-31.32,15.17-4.49,12.82,2.3,26.85,15.15,31.33,12.32,4.32,27.73,9.18,47.07,10.5,19.39,1.35,42.26-.78,70.81-8.45l95.18-25.5-22,35.42Zm-231.69-471.21c22.64,13.09,48.67,15.8,72.05,9.49,8.21-2.17,15.91-5.84,23.31-10.19l38.76,144.65c-.93,.81-1.81,1.61-3.18,2.58-11.63,8.6-36.82,20.13-66.19,27.88-24.66,6.66-47.83,9.66-63.37,9.39-5.31-.03-9.12-.56-11.94-1.11l-46.49-173.49c6.05-6.82,13.82-11.45,22.35-13.76,11.39-3.03,23.68-1.78,34.7,4.56Z"/>
    </g>
  </g>
</svg>