<?xml version="1.0" encoding="UTF-8"?>
<svg id="Logos" xmlns="http://www.w3.org/2000/svg" viewBox="0 0 512.04 163.31">
  <defs>
    <style>
      .cls-1 {
        fill: #1e0d4f;
      }
    </style>
  </defs>
  <path class="cls-1" d="M213.88,63.49c-1.47-2.72-5.97-6.5-14.46-6.5-14.25,0-24.21,11.74-24.21,25.47,0,14.46,10.38,25.36,24.21,25.36,7.55,0,12.05-3.04,13.94-5.87v2.41c0,9.43-4.93,13.31-12.89,13.31-5.97,0-10.17-3.67-11.21-8.7l-14.04,3.98c1.47,9.33,11,18.55,25.99,18.55,19.49,0,27.88-13,27.88-27.98V57.93h-15.2v5.55Zm-11.53,30.5c-6.39,0-11.21-4.4-11.21-11.53s5.24-11.53,11.21-11.53,11.11,4.4,11.11,11.53-4.61,11.53-11.11,11.53Z"/>
  <path class="cls-1" d="M260.24,56.36c-13.52,0-25.99,10.69-25.99,27.46s12.79,27.77,27.14,27.77c13.2,0,21.48-7.55,24-16.56l-13.31-3.77c-1.47,4.09-4.72,6.81-10.48,6.81-6.18,0-11.53-4.19-11.84-10.06h36.26c.1-.31,.31-2.72,.31-4.93,0-16.77-9.96-26.72-26.1-26.72Zm-10.17,21.38c.31-3.88,3.67-8.8,10.38-8.8,7.55,0,10.27,4.82,10.48,8.8h-20.86Z"/>
  <path class="cls-1" d="M321.95,56.57c-5.34,0-11.74,2.41-14.57,7.34v-5.97h-15.41v52.09h15.93v-29.87c0-5.24,3.35-9.12,8.59-9.12,5.76,0,8.49,3.88,8.49,9.01v29.97h15.93v-32.7c0-11.42-5.87-20.75-18.97-20.75Z"/>
  <path class="cls-1" d="M371.9,56.36c-13.52,0-25.99,10.69-25.99,27.46s12.79,27.77,27.14,27.77c13.21,0,21.48-7.55,24-16.56l-13.31-3.77c-1.47,4.09-4.72,6.81-10.48,6.81-6.18,0-11.53-4.19-11.84-10.06h36.26c.1-.31,.31-2.72,.31-4.93,0-16.77-9.96-26.72-26.1-26.72Zm-10.17,21.38c.31-3.88,3.67-8.8,10.38-8.8,7.55,0,10.27,4.82,10.48,8.8h-20.86Z"/>
  <path class="cls-1" d="M426.68,77.64l-6.92-1.36c-2.31-.42-4.09-1.68-4.09-3.88,0-2.73,2.62-4.51,5.66-4.51,4.82,0,7.02,2.93,7.44,6.39l13.21-2.41c-.52-6.08-5.76-15.51-20.86-15.51-11.63,0-20.02,7.76-20.02,17.29,0,7.34,4.4,13.62,15.51,16.03l5.97,1.36c3.88,.84,5.14,2.41,5.14,4.3,0,2.31-1.99,4.51-6.08,4.51-5.45,0-7.96-3.46-8.17-7.02l-13.52,2.41c.42,5.76,5.66,16.35,22.01,16.35,13.94,0,20.75-8.7,20.75-17.61,0-7.65-5.24-14.15-16.03-16.35Z"/>
  <rect class="cls-1" x="448.36" y="57.93" width="15.93" height="52.09"/>
  <path class="cls-1" d="M456.22,32.68c-5.03,0-9.22,4.19-9.22,9.33s4.19,9.33,9.22,9.33,9.43-4.19,9.43-9.33-4.19-9.33-9.43-9.33Z"/>
  <path class="cls-1" d="M496,77.64l-6.92-1.36c-2.31-.42-4.09-1.68-4.09-3.88,0-2.73,2.62-4.51,5.66-4.51,4.82,0,7.02,2.93,7.44,6.39l13.21-2.41c-.52-6.08-5.76-15.51-20.86-15.51-11.63,0-20.02,7.76-20.02,17.29,0,7.34,4.4,13.62,15.51,16.03l5.97,1.36c3.88,.84,5.14,2.41,5.14,4.3,0,2.31-1.99,4.51-6.08,4.51-5.45,0-7.96-3.46-8.17-7.02l-13.52,2.41c.42,5.76,5.66,16.35,22.01,16.35,13.94,0,20.75-8.7,20.75-17.61,0-7.65-5.24-14.15-16.03-16.35Z"/>
  <path class="cls-1" d="M153.32,15.74c-5.58-.03-11.16-.03-16.74-.02-.63,0-1.27,.07-1.88,.22-6.34,1.56-10.2,5.77-12.31,11.73-.38,1.07-.78,1.45-1.94,1.44-16.38-.04-32.75-.03-49.13-.03h0c-15.88,.01-31.75,.06-47.63-.01-5-.02-9.42,1.5-13.11,4.73-6.01,5.27-9.22,11.84-6.94,19.87,2.79,9.79,5.96,19.48,9.26,29.11,4.46,13,16.11,21.17,29.85,21.21,16.65,.05,33.3,.05,49.94,.06,1.81,0,3.64,.04,5.44-.11,13.69-1.21,26.22-11.9,29.17-25.5,2.13-9.85,3.52-19.87,5.26-29.81,.85-4.86,1.68-9.72,2.69-14.54,.66-3.18,2.84-4.76,6.04-4.76,3.9,0,7.8,.05,11.7-.05,1.19-.03,2.45-.3,3.54-.77,3.12-1.35,4.72-5.04,3.61-8-1.02-2.73-3.86-4.75-6.84-4.77ZM65.34,86.11c0,2.62-1.27,3.92-3.92,3.93-6.08,.02-12.16-.04-18.23,.01-8.65,.07-15.59-5.69-17.71-13.02-2.55-8.82-5.37-17.55-8.01-26.34-1.15-3.81,1.16-7.21,5.15-7.77,.63-.09,1.26-.13,1.9-.13,12.11,0,24.22,0,36.33,.01,3.29,0,4.49,1.23,4.49,4.52,0,6.4,0,12.79,0,19.18h0c0,6.53,0,13.06,0,19.59Zm53.28-39.03c-1.63,9.45-3.15,18.92-5.09,28.31-1.81,8.74-9.23,14.52-18.17,14.65-4.26,.06-8.52,.03-12.79,0-2.78-.01-3.91-1.2-3.91-4.02,0-6.53,0-13.06,0-19.59h.01c0-6.62,0-13.24,0-19.86,0-2.26,1.02-3.57,3.23-3.77,1.93-.17,3.9-.17,5.84-.02,2.29,.19,3.37,1.61,3.37,4.12,.02,7.39-.04,14.78,.06,22.17,.02,1.44,.31,3.02,.98,4.26,1.41,2.58,4.6,3.7,7.27,2.93,2.92-.85,5.08-3.54,5.09-6.5,.03-7.53,.01-15.05,.02-22.58,0-3.26,1.13-4.4,4.42-4.43,1.99-.02,3.99-.07,5.98-.01,2.53,.08,4.1,1.84,3.68,4.32Z"/>
  <path class="cls-1" d="M5.64,109.32c-3.02,0-5.65,2.63-5.64,5.63,.01,3.08,2.75,5.79,5.86,5.8,2.87,.01,5.58-2.69,5.59-5.58,.01-3.33-2.49-5.85-5.81-5.85Z"/>
  <path class="cls-1" d="M30.63,17.79c2.87,.01,5.58-2.69,5.59-5.58,.01-3.33-2.49-5.85-5.81-5.85-3.02,0-5.65,2.63-5.64,5.63,.01,3.08,2.75,5.79,5.86,5.8Z"/>
  <path class="cls-1" d="M43.69,55.55c-6.05,.03-11.03,5.06-10.95,11.04,.08,5.92,5.11,10.78,11.11,10.73,5.91-.05,10.84-4.91,10.8-10.66-.04-6.28-4.84-11.14-10.97-11.11Z"/>
  <path class="cls-1" d="M124.35,105.99c-3.26-2.08-7.59-1.13-9.67,2.13-.66,1.03-1.38,1.76-2.18,2.37-1.19,.9-2.63,1.5-4.08,1.85-1.45,.36-2.87,.45-3.82,.45-.42,0-.75-.02-.94-.03-.09,0-.15-.01-.17-.01l-.4-.05H48.27c-2.96,0-5.68,.44-8.11,1.31-1.82,.65-3.47,1.54-4.88,2.59-2.13,1.58-3.71,3.49-4.81,5.37-.32,.54-.59,1.08-.84,1.61-1.14,.26-2.25,.6-3.3,1.05-3.62,1.53-6.68,4.08-8.85,7.29-2.17,3.21-3.45,7.12-3.44,11.26,0,2.76,.56,5.43,1.59,7.84,1.53,3.62,4.08,6.68,7.29,8.85,3.21,2.17,7.12,3.45,11.26,3.44,2.76,0,5.43-.56,7.84-1.59,3.62-1.53,6.68-4.08,8.85-7.29,2.17-3.21,3.45-7.12,3.44-11.26,0-2.76-.56-5.43-1.59-7.84-1.44-3.41-3.79-6.31-6.73-8.45,.61-.12,1.36-.19,2.28-.2h42.74c-2.01,1.41-3.75,3.18-5.13,5.22-2.17,3.21-3.45,7.12-3.44,11.26,0,2.76,.56,5.43,1.59,7.84,1.53,3.62,4.08,6.68,7.29,8.85,3.21,2.17,7.12,3.45,11.26,3.44,2.76,0,5.43-.56,7.84-1.59,3.62-1.53,6.68-4.08,8.85-7.29,2.17-3.21,3.45-7.12,3.44-11.26,0-2.76-.56-5.43-1.59-7.84-1.53-3.62-4.08-6.68-7.29-8.85-.4-.27-.82-.53-1.24-.78,.68-.19,1.38-.4,2.09-.66,2.03-.75,4.17-1.82,6.22-3.36,2.05-1.53,3.99-3.54,5.57-6.03,2.08-3.26,1.13-7.59-2.13-9.67Zm-84.53,39.57c-.46,1.09-1.25,2.04-2.23,2.71-.99,.66-2.13,1.04-3.43,1.04-.87,0-1.66-.17-2.39-.48-1.09-.46-2.04-1.25-2.71-2.23-.66-.99-1.04-2.13-1.04-3.43,0-.87,.17-1.66,.48-2.39,.46-1.09,1.25-2.04,2.23-2.71,.99-.66,2.13-1.04,3.43-1.04,.87,0,1.66,.17,2.39,.48,1.09,.46,2.04,1.25,2.71,2.23,.66,.99,1.04,2.13,1.04,3.43,0,.87-.17,1.66-.48,2.39Zm68.41,0c-.46,1.09-1.25,2.04-2.23,2.71-.99,.66-2.13,1.04-3.43,1.04-.87,0-1.66-.17-2.39-.48-1.09-.46-2.04-1.25-2.71-2.23-.66-.99-1.04-2.13-1.04-3.43,0-.87,.17-1.66,.48-2.39,.46-1.09,1.25-2.04,2.23-2.71,.99-.66,2.13-1.04,3.43-1.04,.87,0,1.66,.17,2.39,.48,1.09,.46,2.04,1.25,2.71,2.23,.66,.99,1.04,2.13,1.04,3.43,0,.87-.17,1.66-.48,2.39Z"/>
  <path class="cls-1" d="M98.41,18.65c5.24,0,9.43-4.19,9.43-9.33S103.65,0,98.41,0s-9.22,4.19-9.22,9.33,4.19,9.33,9.22,9.33Z"/>
</svg>