<?xml version="1.0" encoding="UTF-8"?>
<svg width="1656px" height="796px" viewBox="0 0 1656 796" version="1.1" xmlns="http://www.w3.org/2000/svg" xmlns:xlink="http://www.w3.org/1999/xlink">
    <!-- Generator: Sketch 51.2 (57519) - http://www.bohemiancoding.com/sketch -->
    <title>mailback</title>
    <desc>Created with Sketch.</desc>
    <defs></defs>
    <g id="mailback2" stroke="none" stroke-width="1" fill="none" fill-rule="evenodd">
        <rect fill="#003444" x="0" y="0" width="1656" height="796"></rect>
        <g id="Group-2" transform="translate(255.500000, 306.500000)" fill="#3ACB94">
            <g id="mailback-copy-2" transform="translate(0.000000, 6.401341)" fill-rule="nonzero" stroke="#3ACB94" stroke-width="14">
                <g id="Group" transform="translate(0.387330, 0.174419)">
                    <path d="M0,108.396921 L0,148.346684 L135.511982,148.346684 L135.511982,52.1370903 L15.7412908,52.1370903 L70.4936066,7.19370998 L65.189476,0.870877003 L1.53990889,53.1624146 C0.513302959,54.0168515 0,55.0421758 0,56.4092747 C0,57.6054865 0.513302959,58.8016981 1.53990889,59.6561349 L65.189476,111.947672 L70.4936066,105.624839 L15.7412908,60.6814592 L127.128033,60.6814592 L127.128033,140.485865 L8.21284735,140.485865 L8.21284735,115.396921 C2.73761578,110.730255 0,108.396921 0,108.396921 Z" id="path-15_1_"></path>
                </g>
            </g>
            <path d="M346.490465,47.6481546 C353.823835,47.6481546 363.570434,49.1514729 369.730465,52.1581546 C375.890496,55.1648363 380.80378,59.7481238 384.470465,65.9081546 C388.13715,72.0681854 389.970465,79.6214432 389.970465,88.5681546 L389.970465,159.848155 L366.430465,159.848155 L366.430465,92.3081546 C366.430465,83.654778 364.377152,77.2748418 360.270465,73.1681546 C356.163778,69.0614674 350.663833,67.0081546 343.770465,67.0081546 C335.703758,67.0081546 328.920492,69.9414586 323.420465,75.8081546 C317.920437,81.6748506 315.170465,89.7414366 315.170465,100.008155 L315.170465,159.848155 L291.630465,159.848155 L291.630465,92.3081546 C291.630465,83.654778 289.577152,77.2748418 285.470465,73.1681546 C281.363778,69.0614674 275.863833,67.0081546 268.970465,67.0081546 C264.277108,67.0081546 259.730487,68.2181425 255.330465,70.6381546 C250.930443,73.0581667 247.337145,76.8347956 244.550465,81.9681546 C241.763784,87.1015136 240.370465,93.5547824 240.370465,101.328155 L240.370465,159.848155 L216.830465,159.848155 L216.830465,49.8481546 L237.730465,49.8481546 L238.830465,68.1081546 C242.49715,61.3614542 247.483767,56.2648385 253.790465,52.8181546 C260.097163,49.3714707 266.990427,47.6481546 274.470465,47.6481546 C282.683839,47.6481546 290.127098,49.5181359 296.800465,53.2581546 C303.473831,56.9981733 308.423782,62.461452 311.650465,69.6481546 C315.023815,62.461452 320.193763,56.9981733 327.160465,53.2581546 C334.127166,49.5181359 338.570425,47.6481546 346.490465,47.6481546 Z M513.650465,144.448155 C516.877148,144.448155 519.590454,144.154824 521.790465,143.568155 L520.250465,159.408155 C516.290445,161.168163 511.743824,162.048155 506.610465,162.048155 C500.303767,162.048155 495.280483,160.8015 491.540465,158.308155 C487.800446,155.814809 485.343804,151.634851 484.170465,145.768155 C480.797115,150.901514 475.810498,154.89814 469.210465,157.758155 C462.610432,160.618169 455.203839,162.048155 446.990465,162.048155 C436.283745,162.048155 427.630498,159.554846 421.030465,154.568155 C414.430432,149.581463 411.130465,142.468201 411.130465,133.228155 C411.130465,124.574778 414.723762,117.278184 421.910465,111.338155 C429.097167,105.398125 439.803727,101.1815 454.030465,98.6881546 L481.970465,93.8481546 L481.970465,87.9081546 C481.970465,81.1614542 479.990485,75.8448407 476.030465,71.9581546 C472.070445,68.0714685 466.5705,66.1281546 459.530465,66.1281546 C445.010392,66.1281546 435.550487,72.7280886 431.150465,85.9281546 L412.890465,76.2481546 C415.530478,67.4481106 420.920424,60.4815136 429.060465,55.3481546 C437.200505,50.2147956 447.210405,47.6481546 459.090465,47.6481546 C473.317203,47.6481546 484.610423,50.9481216 492.970465,57.5481546 C501.330507,64.1481876 505.510465,73.8280908 505.510465,86.5881546 L505.510465,136.308155 C505.510465,139.094835 506.133792,141.148148 507.380465,142.468155 C508.627138,143.788161 510.717117,144.448155 513.650465,144.448155 Z M453.050465,144.228155 C460.970504,144.228155 467.937101,142.321507 473.950465,138.508155 C479.963828,134.694802 482.970465,129.634853 482.970465,123.328155 L482.970465,110.128155 L458.990465,114.968155 C451.36376,116.434829 445.71715,118.488141 442.050465,121.128155 C438.38378,123.768168 436.550465,127.288133 436.550465,131.688155 C436.550465,135.794842 437.98045,138.911477 440.840465,141.038155 C443.700479,143.164832 447.770438,144.228155 453.050465,144.228155 Z M554.890465,31.3681546 C549.903773,31.3681546 546.017145,30.0848341 543.230465,27.5181546 C540.443784,24.9514751 539.050465,21.3215114 539.050465,16.6281546 C539.050465,11.9347978 540.443784,8.34150043 543.230465,5.84815463 C546.017145,3.35480883 549.903773,2.10815463 554.890465,2.10815463 C559.877156,2.10815463 563.727118,3.35480883 566.440465,5.84815463 C569.153812,8.34150043 570.510465,11.9347978 570.510465,16.6281546 C570.510465,21.3215114 569.153812,24.9514751 566.440465,27.5181546 C563.727118,30.0848341 559.877156,31.3681546 554.890465,31.3681546 Z M566.550465,159.848155 L543.010465,159.848155 L543.010465,49.8481546 L566.550465,49.8481546 L566.550465,159.848155 Z M620.170465,127.728155 C620.170465,133.154848 620.977123,136.931477 622.590465,139.058155 C624.203806,141.184832 627.210443,142.248155 631.610465,142.248155 C634.397145,142.248155 636.780455,142.064823 638.760465,141.698155 C640.740475,141.331486 643.197117,140.561494 646.130465,139.388155 L643.490465,158.308155 C638.503773,160.8015 632.417167,162.048155 625.230465,162.048155 C615.403749,162.048155 608.180488,159.554846 603.560465,154.568155 C598.940442,149.581463 596.630465,141.734875 596.630465,131.028155 L596.630465,0.348154634 L620.170465,0.348154634 L620.170465,127.728155 Z M725.110465,47.6481546 C740.217207,47.6481546 752.097088,52.7447703 760.750465,62.9381546 C769.403841,73.1315389 773.730465,87.1747318 773.730465,105.068155 C773.730465,122.961577 769.403841,136.931438 760.750465,146.978155 C752.097088,157.024872 740.217207,162.048155 725.110465,162.048155 C716.457088,162.048155 708.867164,159.994842 702.340465,155.888155 C695.813765,151.781467 690.937148,146.281522 687.710465,139.388155 L686.610465,159.848155 L665.930465,159.848155 L665.930465,0.348154634 L689.470465,0.348154634 L689.470465,67.4481546 C692.843815,61.2881238 697.6471,56.4481722 703.880465,52.9281546 C710.113829,49.408137 717.190425,47.6481546 725.110465,47.6481546 Z M724.830465,143.128155 C734.363846,143.128155 741.807105,139.754855 747.160465,133.008155 C752.513825,126.261454 755.190465,116.874881 755.190465,104.848155 C755.190465,92.8214278 752.513825,83.4715213 747.160465,76.7981546 C741.807105,70.1247879 734.363846,66.7881546 724.830465,66.7881546 C715.883753,66.7881546 708.733825,69.7947912 703.380465,75.8081546 C698.027105,81.821518 695.057134,90.1081018 694.470465,100.668155 L694.470465,109.028155 C695.057134,119.734875 698.027105,128.094791 703.380465,134.108155 C708.733825,140.121518 715.883753,143.128155 724.830465,143.128155 Z M892.130465,144.448155 C895.357148,144.448155 898.070454,144.154824 900.270465,143.568155 L898.730465,159.408155 C894.770445,161.168163 890.223824,162.048155 885.090465,162.048155 C878.783767,162.048155 873.760483,160.8015 870.020465,158.308155 C866.280446,155.814809 863.823804,151.634851 862.650465,145.768155 C859.277115,150.901514 854.290498,154.89814 847.690465,157.758155 C841.090432,160.618169 833.683839,162.048155 825.470465,162.048155 C814.763745,162.048155 806.110498,159.554846 799.510465,154.568155 C792.910432,149.581463 789.610465,142.468201 789.610465,133.228155 C789.610465,124.574778 793.203762,117.278184 800.390465,111.338155 C807.577167,105.398125 818.283727,101.1815 832.510465,98.6881546 L860.450465,93.8481546 L860.450465,87.9081546 C860.450465,81.1614542 858.470485,75.8448407 854.510465,71.9581546 C850.550445,68.0714685 845.0505,66.1281546 838.010465,66.1281546 C823.490392,66.1281546 814.030487,72.7280886 809.630465,85.9281546 L791.370465,76.2481546 C794.010478,67.4481106 799.400424,60.4815136 807.540465,55.3481546 C815.680505,50.2147956 825.690405,47.6481546 837.570465,47.6481546 C851.797203,47.6481546 863.090423,50.9481216 871.450465,57.5481546 C879.810507,64.1481876 883.990465,73.8280908 883.990465,86.5881546 L883.990465,136.308155 C883.990465,139.094835 884.613792,141.148148 885.860465,142.468155 C887.107138,143.788161 889.197117,144.448155 892.130465,144.448155 Z M831.530465,144.228155 C839.450504,144.228155 846.417101,142.321507 852.430465,138.508155 C858.443828,134.694802 861.450465,129.634853 861.450465,123.328155 L861.450465,110.128155 L837.470465,114.968155 C829.84376,116.434829 824.19715,118.488141 820.530465,121.128155 C816.86378,123.768168 815.030465,127.288133 815.030465,131.688155 C815.030465,135.794842 816.46045,138.911477 819.320465,141.038155 C822.180479,143.164832 826.250438,144.228155 831.530465,144.228155 Z M966.670465,47.6481546 C990.723918,47.6481546 1006.63709,57.9147186 1014.41046,78.4481546 L992.410465,87.2481546 C988.597112,73.3147516 980.017198,66.3481546 966.670465,66.3481546 C956.843749,66.3481546 949.217159,69.7214542 943.790465,76.4681546 C938.363771,83.214855 935.650465,92.748093 935.650465,105.068155 C935.650465,117.388216 938.363771,126.848122 943.790465,133.448155 C949.217159,140.048188 956.843749,143.348155 966.670465,143.348155 C974.150502,143.348155 980.163775,141.51484 984.710465,137.848155 C989.257154,134.18147 992.263791,128.901522 993.730465,122.008155 L1015.29046,129.268155 C1012.06378,139.534873 1006.34384,147.564792 998.130465,153.358155 C989.91709,159.151517 979.577194,162.048155 967.110465,162.048155 C949.803712,162.048155 936.273847,156.988205 926.520465,146.868155 C916.767083,136.748104 911.890465,122.741577 911.890465,104.848155 C911.890465,86.9547318 916.730416,72.9482052 926.410465,62.8281546 C936.090513,52.708104 949.510379,47.6481546 966.670465,47.6481546 Z M1083.11046,108.148155 L1061.33046,130.588155 L1061.33046,159.848155 L1037.79046,159.848155 L1037.79046,0.348154634 L1061.33046,0.348154634 L1061.33046,103.748155 L1113.91046,49.8481546 L1141.63046,49.8481546 L1099.61046,92.9681546 L1144.27046,159.848155 L1116.99046,159.848155 L1083.11046,108.148155 Z" id="mailback"></path>
        </g>
    </g>
</svg>