<?xml version="1.0" encoding="UTF-8"?>
<svg id="Layer_1" data-name="Layer 1" xmlns="http://www.w3.org/2000/svg" viewBox="0 0 800.88 800.88">
  <defs>
    <style>
      .cls-1 {
        fill: #e8a191;
      }

      .cls-2 {
        fill: #7f4b4f;
      }

      .cls-3 {
        fill: #bc776c;
      }

      .cls-4 {
        fill: none;
        stroke: #7f4b4f;
        stroke-linecap: round;
        stroke-miterlimit: 10;
        stroke-width: 53.13px;
      }
    </style>
  </defs>
  <rect class="cls-3" x="0" y="0" width="800.88" height="800.88"/>
  <g>
    <path class="cls-1" d="M528.38,411.99c13.75-3.77,26.53-9.92,37.69-18.01,29.24-21.1,48.48-55.69,48.48-94.66,.01-28.17-10.06-54.25-26.74-74.4-16.18-19.58-38.69-33.75-64.43-39.55l-132.81-28.68c-6.99-2.11-30.77,5.68-37.1,9.32l-12.23,5.54c-13.71-5.69-58.35-9.13-73.32-4.15-62.85,20.9-81.57,30.37-81.58,94.93v265.37c.01,64.56,52.31,116.86,116.88,116.88,37.83-.01,71.25-18.19,92.56-46.03l69.78,16.62c9.23,2.2,18.96-.71,25.47-7.61l78.31-82.98c6.74-7.15,8.99-17.4,5.85-26.71l-46.82-85.86Z"/>
    <path class="cls-4" d="M267.92,194.14h0c43.16-11.66,88.2-14.66,132.52-8.83h0"/>
    <path class="cls-4" d="M547.39,295.78h-20.64c-7.32,.49-12.86,6.82-12.37,14.13l3.14,33.91c4.22,63.38,14.12,73.12,29.57,134.73l13.03,51.94c4.23,63.51-64.03,106.1-119.21,74.39l-140.86-60.39c-20.89-8.95-34.58-30.88-30.41-53.22,5.29-28.36,35.02-51.38,93.84-23.52"/>
    <circle class="cls-2" cx="341.24" cy="295.74" r="29.88"/>
  </g>
</svg>