<?xml version="1.0" encoding="UTF-8"?>
<svg width="2627px" height="1271px" viewBox="0 0 2627 1271" version="1.1" xmlns="http://www.w3.org/2000/svg" xmlns:xlink="http://www.w3.org/1999/xlink">
    <title>dod</title>
    <g id="Page-1" stroke="none" stroke-width="1" fill="none" fill-rule="evenodd">
        <g id="dod" transform="translate(1.000000, 0.000000)" fill-rule="nonzero">
            <rect id="Rectangle" stroke="#EB5263" fill="#EB5263" x="0" y="0.624742268" width="2624.74227" height="1269.06289"></rect>
            <path d="M454.736598,449.45567 L507.887629,449.45567 C527.901289,449.45567 544.305928,458.314175 554.148711,475.046907 C561.694845,487.842526 562.351031,493.748196 562.351031,525.573196 C562.351031,559.694845 560.710567,565.600515 553.820619,576.427577 C544.962113,590.535567 528.885567,601.690722 506.247165,601.690722 L454.736598,601.690722 L454.736598,449.45567 Z M477.703093,580.036598 L505.262887,580.036598 C518.386598,580.036598 527.573196,575.443299 533.478866,566.912887 C538.728351,559.366753 539.384536,555.101546 539.384536,526.885567 C539.384536,499.653866 538.728351,492.763918 532.494588,484.561598 C525.604639,475.046907 517.730412,471.765979 505.262887,471.765979 L477.703093,471.765979 L477.703093,580.036598 Z" id="Shape" stroke="#FFDD9D" fill="#FFDD9D"></path>
            <polygon id="Path" stroke="#FFDD9D" fill="#FFDD9D" points="598.441237 449.45567 695.556701 449.45567 695.556701 471.109794 621.407732 471.109794 621.407732 514.418041 684.729639 514.418041 684.729639 535.087887 621.407732 535.087887 621.407732 579.708505 695.556701 579.708505 695.556701 601.362629 598.441237 601.362629"></polygon>
            <polygon id="Path" stroke="#FFDD9D" fill="#FFDD9D" points="720.819845 449.45567 745.098711 449.45567 779.876546 565.272423 780.204639 565.272423 814.982474 449.45567 839.26134 449.45567 789.063144 601.690722 771.018041 601.690722"></polygon>
            <path d="M1004.9482,449.45567 L1060.06778,449.45567 C1071.87912,449.45567 1082.37809,451.096134 1094.18943,460.282732 C1103.37603,467.17268 1110.59407,480.296392 1110.59407,496.701031 C1110.59407,518.355155 1094.18943,542.305928 1063.02062,542.305928 L1027.91469,542.305928 L1027.91469,601.690722 L1004.9482,601.690722 L1004.9482,449.45567 Z M1027.91469,520.651804 L1062.03634,520.651804 C1079.09716,520.651804 1087.62758,508.184278 1087.62758,496.044845 C1087.62758,485.873969 1083.69046,479.640206 1077.78479,475.703093 C1072.53531,472.422165 1067.94201,471.437887 1061.38015,471.437887 L1027.91469,471.437887 L1027.91469,520.651804 Z" id="Shape" stroke="#FFDD9D" fill="#FFDD9D"></path>
            <path d="M1144.38763,564.616237 C1155.87088,573.802835 1171.29124,579.708505 1187.69588,579.708505 C1206.39716,579.708505 1217.88041,571.178093 1217.88041,558.710567 C1217.88041,547.883505 1211.64665,540.009278 1197.86675,538.040722 C1190.9768,537.056443 1185.72732,536.400258 1177.85309,535.415979 C1151.60567,531.806959 1137.49768,514.746134 1137.49768,492.763918 C1137.49768,466.844588 1155.54278,448.471392 1187.03969,448.471392 C1205.74098,448.471392 1222.47371,455.033247 1236.25361,464.219845 L1223.45799,483.249227 C1212.30284,476.359278 1199.17912,471.437887 1185.72732,471.437887 C1171.61933,471.437887 1160.13608,478.655928 1160.13608,493.09201 C1160.13608,501.622423 1166.36985,510.152835 1181.79021,512.449485 C1185.72732,513.10567 1191.63299,514.089948 1198.85103,514.746134 C1227.3951,518.027062 1240.51881,537.712629 1240.51881,558.710567 C1240.51881,586.598454 1219.84897,603.003093 1187.03969,603.003093 C1164.72938,603.003093 1145.04381,596.113144 1128.96727,582.005155 L1144.38763,564.616237 Z" id="Path" stroke="#FFDD9D" fill="#FFDD9D"></path>
            <path d="M1274.31237,449.45567 L1327.4634,449.45567 C1347.47706,449.45567 1363.8817,458.314175 1373.72448,475.046907 C1381.27062,487.842526 1381.9268,493.748196 1381.9268,525.573196 C1381.9268,559.694845 1380.28634,565.600515 1373.39639,576.427577 C1364.53789,590.535567 1348.46134,601.690722 1325.82294,601.690722 L1273.98428,601.690722 L1273.98428,449.45567 L1274.31237,449.45567 Z M1297.27887,580.036598 L1324.83866,580.036598 C1337.96237,580.036598 1347.14897,575.443299 1353.05464,566.912887 C1358.30412,559.366753 1358.96031,555.101546 1358.96031,526.885567 C1358.96031,499.653866 1358.30412,492.763918 1352.07036,484.561598 C1345.18041,475.046907 1337.30619,471.765979 1324.83866,471.765979 L1297.27887,471.765979 L1297.27887,580.036598 Z" id="Shape" stroke="#FFDD9D" fill="#FFDD9D"></path>
            <path d="M1495.44691,567.569072 L1437.70258,567.569072 L1425.89124,601.690722 L1401.61237,601.690722 L1457.06005,449.45567 L1476.41753,449.45567 L1531.86521,601.690722 L1507.58634,601.690722 L1495.44691,567.569072 Z M1488.88505,547.22732 L1466.90284,480.624485 L1466.57474,480.624485 L1444.59253,547.22732 L1488.88505,547.22732 Z" id="Shape" stroke="#FFDD9D" fill="#FFDD9D"></path>
            <polygon id="Path" stroke="#FFDD9D" fill="#FFDD9D" points="1573.53299 539.025 1527.92809 449.45567 1552.20696 449.45567 1584.36005 517.042784 1616.51314 449.45567 1640.79201 449.45567 1595.18711 539.025 1595.18711 601.690722 1573.53299 601.690722"></polygon>
            <path d="M1666.38325,564.616237 C1677.86649,573.802835 1693.28686,579.708505 1709.69149,579.708505 C1728.39278,579.708505 1739.87603,571.178093 1739.87603,558.710567 C1739.87603,547.883505 1733.64227,540.009278 1719.86237,538.040722 C1712.97242,537.056443 1707.72294,536.400258 1699.84871,535.415979 C1673.60129,531.806959 1659.4933,514.746134 1659.4933,492.763918 C1659.4933,466.844588 1677.5384,448.471392 1709.03531,448.471392 C1727.7366,448.471392 1744.46933,455.033247 1758.24923,464.219845 L1745.45361,483.249227 C1734.29845,476.359278 1721.17474,471.437887 1707.72294,471.437887 C1693.61495,471.437887 1682.1317,478.655928 1682.1317,493.09201 C1682.1317,501.622423 1688.36546,510.152835 1703.78582,512.449485 C1707.72294,513.10567 1713.62861,514.089948 1720.84665,514.746134 C1749.39072,518.027062 1762.51443,537.712629 1762.51443,558.710567 C1762.51443,586.598454 1741.84459,603.003093 1709.03531,603.003093 C1686.725,603.003093 1667.03943,596.113144 1650.96289,582.005155 L1666.38325,564.616237 Z" id="Path" stroke="#FFDD9D" fill="#FFDD9D"></path>
            <polygon id="Path" stroke="#FFDD9D" fill="#FFDD9D" points="495.420103 683.713918 453.75232 683.713918 453.75232 663.044072 560.054381 663.044072 560.054381 683.713918 518.386598 683.713918 518.386598 815.279124 495.420103 815.279124"></polygon>
            <path d="M589.582732,689.291495 C596.800773,676.167784 613.205412,662.059794 637.156186,662.059794 C661.106959,662.059794 677.511598,676.167784 684.729639,689.291495 C689.651031,698.15 691.291495,702.743299 691.291495,739.161598 C691.291495,775.579897 689.651031,780.173196 684.729639,789.031701 C677.511598,802.155412 661.106959,816.263402 637.156186,816.263402 C613.205412,816.263402 596.800773,802.155412 589.582732,789.031701 C584.66134,780.173196 583.020876,775.579897 583.020876,739.161598 C583.020876,702.743299 584.66134,698.15 589.582732,689.291495 Z M613.861598,782.469845 C618.454897,788.375515 626.329124,793.625 637.484278,793.625 C648.31134,793.625 656.185567,788.375515 661.106959,782.469845 C667.012629,774.923711 668.653093,770.658505 668.653093,739.161598 C668.653093,707.992784 667.012629,703.727577 661.106959,695.853351 C656.51366,689.94768 648.639433,684.698196 637.484278,684.698196 C626.657216,684.698196 618.78299,689.94768 613.861598,695.853351 C607.955928,703.399485 606.315464,707.664691 606.315464,739.161598 C605.987371,770.658505 607.955928,774.923711 613.861598,782.469845 Z" id="Shape" stroke="#FFDD9D" fill="#FFDD9D"></path>
            <path d="M728.037887,663.372165 L787.42268,663.372165 C800.218299,663.372165 810.389175,666.325 818.263402,673.543041 C826.793814,680.761082 833.35567,692.24433 833.35567,706.024227 C833.35567,725.709794 822.200515,741.78634 803.82732,748.020103 L838.933247,815.607216 L811.701546,815.607216 L780.204639,750.644845 L750.676289,750.644845 L750.676289,815.607216 L727.709794,815.607216 L727.709794,663.372165 L728.037887,663.372165 Z M751.004381,729.975 L785.782216,729.975 C803.171134,729.975 811.701546,718.491753 811.701546,705.696134 C811.701546,697.821907 808.748711,691.916237 804.155412,688.307216 C799.890206,685.026289 795.296907,683.713918 787.42268,683.713918 L751.332474,683.713918 L751.332474,729.975 L751.004381,729.975 Z" id="Shape" stroke="#FFDD9D" fill="#FFDD9D"></path>
            <polygon id="Path" stroke="#FFDD9D" fill="#FFDD9D" points="1009.86959 663.372165 1031.52371 663.372165 1100.4232 771.642784 1100.75129 771.642784 1100.75129 663.372165 1123.71778 663.372165 1123.71778 815.607216 1102.06366 815.607216 1033.16418 707.336598 1032.83608 707.336598 1032.83608 815.607216 1009.86959 815.607216"></polygon>
            <polygon id="Path" stroke="#FFDD9D" fill="#FFDD9D" points="1195.8982 683.713918 1154.23041 683.713918 1154.23041 663.044072 1260.53247 663.044072 1260.53247 683.713918 1218.86469 683.713918 1218.86469 815.279124 1195.8982 815.279124"></polygon>
            <path d="M1290.06082,689.291495 C1297.27887,676.167784 1313.68351,662.059794 1337.63428,662.059794 C1361.58505,662.059794 1377.98969,676.167784 1385.20773,689.291495 C1390.12912,698.15 1391.76959,702.743299 1391.76959,739.161598 C1391.76959,775.579897 1390.12912,780.173196 1385.20773,789.031701 C1377.98969,802.155412 1361.58505,816.263402 1337.63428,816.263402 C1313.68351,816.263402 1297.27887,802.155412 1290.06082,789.031701 C1285.13943,780.173196 1283.49897,775.579897 1283.49897,739.161598 C1283.49897,702.743299 1285.13943,698.15 1290.06082,689.291495 Z M1314.0116,782.469845 C1318.6049,788.375515 1326.47912,793.625 1337.63428,793.625 C1348.46134,793.625 1356.33557,788.375515 1361.25696,782.469845 C1367.16263,774.923711 1368.80309,770.658505 1368.80309,739.161598 C1368.80309,707.992784 1367.16263,703.727577 1361.25696,695.853351 C1356.66366,689.94768 1348.78943,684.698196 1337.63428,684.698196 C1326.80722,684.698196 1318.93299,689.94768 1314.0116,695.853351 C1308.10593,703.399485 1306.46546,707.664691 1306.46546,739.161598 C1306.46546,770.658505 1308.10593,774.923711 1314.0116,782.469845 Z" id="Shape" stroke="#FFDD9D" fill="#FFDD9D"></path>
            <path d="M916.035052,792.640722 L917.01933,792.640722 C921.612629,792.640722 925.221649,792.312629 928.502577,791.328351 C931.12732,790.672165 933.423969,789.687887 935.392526,789.031701 C937.03299,788.047423 938.345361,787.391237 939.657732,786.406959 C940.64201,785.42268 941.626289,784.766495 942.282474,783.782216 C943.594845,782.141753 944.579124,780.501289 945.563402,778.860825 C946.219588,777.548454 946.54768,776.236082 946.875773,774.923711 C947.531959,773.283247 947.531959,771.642784 947.860052,770.330412 C947.860052,769.674227 947.860052,769.346134 947.860052,769.346134 C947.860052,769.346134 947.860052,769.346134 947.860052,769.346134 L947.860052,704.383763 C947.860052,700.446649 947.531959,697.165722 947.203866,693.884794 C946.875773,691.260052 946.219588,688.635309 945.235309,686.010567 C943.922938,681.745361 941.954381,677.808247 939.657732,674.199227 C938.017268,671.574485 936.048711,668.621649 933.752062,665.996907 C930.471134,662.059794 926.534021,658.12268 922.268814,653.857474 C920.300258,652.21701 918.331701,650.248454 916.363144,648.60799 L897.989948,631.875258 C895.693299,629.906701 893.396649,627.938144 891.428093,625.641495 C887.490979,621.704381 883.225773,617.767268 879.616753,613.173969 C876.99201,609.893041 874.367268,606.284021 871.742526,602.346907 C870.102062,599.394072 868.461598,596.441237 866.821134,593.160309 C864.524485,588.238918 862.884021,583.317526 861.899742,577.739948 C860.587371,572.162371 860.259278,566.256701 860.259278,560.022938 L860.259278,495.060567 C860.259278,494.404381 860.259278,491.451546 861.243557,487.18634 C861.899742,483.905412 863.212113,479.968299 865.18067,475.375 C866.821134,472.094072 868.789691,468.485052 871.742526,465.204124 C873.711082,462.579381 876.335825,460.282732 879.28866,457.986082 C881.585309,456.345619 883.881959,454.705155 886.506701,453.392784 C890.443814,451.424227 895.037113,449.783763 899.958505,448.471392 C904.879897,447.487113 910.457474,446.830928 916.363144,446.830928 L917.347423,446.830928 C923.581186,446.830928 929.158763,447.487113 934.408247,448.799485 C939.001546,449.783763 942.93866,451.424227 946.875773,453.064691 C950.156701,454.705155 953.109536,456.673711 955.406186,458.642268 C957.702835,460.282732 959.671392,462.251289 961.311856,464.219845 C964.264691,467.828866 966.56134,471.437887 968.201804,474.718814 C969.514175,477.343557 970.170361,479.640206 971.154639,481.936856 C972.138918,485.217784 972.795103,488.170619 972.795103,490.467268 C973.123196,492.763918 973.123196,494.076289 973.123196,494.404381 L973.123196,559.366753 C973.123196,564.288144 972.795103,569.209536 972.138918,573.802835 C971.482732,577.739948 970.498454,581.677062 969.514175,585.286082 C967.545619,591.519845 964.592784,597.425515 961.639948,602.346907 C959.343299,606.284021 956.390464,609.893041 953.765722,613.173969 C950.484794,617.111082 950.156701,617.767268 949.828608,617.767268 L931.783505,601.034536 C932.111598,601.034536 932.439691,600.706443 935.064433,597.097423 C937.361082,594.47268 939.001546,591.847938 940.970103,589.223196 C942.282474,587.254639 943.266753,585.286082 944.251031,582.989433 C945.563402,579.708505 946.875773,576.427577 947.531959,572.490464 C948.188144,568.553351 948.84433,564.288144 948.84433,559.694845 L948.84433,494.732474 C948.84433,494.404381 948.84433,492.763918 948.188144,490.467268 C947.860052,488.826804 947.203866,486.530155 945.891495,484.561598 C944.907216,482.921134 943.922938,481.28067 942.610567,479.968299 C941.626289,478.984021 940.64201,477.671649 939.001546,476.687371 C937.03299,475.375 934.408247,473.734536 930.799227,472.750258 C927.190206,471.765979 922.925,471.109794 917.347423,471.109794 L916.363144,471.109794 C911.769845,471.109794 908.160825,471.437887 904.879897,472.422165 C902.255155,473.078351 899.958505,474.062629 897.989948,474.718814 C896.349485,475.703093 895.037113,476.359278 893.724742,477.343557 C892.740464,478.327835 891.756186,478.984021 891.1,479.968299 C889.787629,481.608763 888.803351,483.249227 887.819072,484.889691 C887.162887,486.202062 886.834794,487.514433 886.506701,488.826804 C885.850515,490.467268 885.850515,492.107732 885.522423,493.420103 C885.522423,494.076289 885.522423,494.404381 885.522423,494.404381 L885.522423,494.404381 L885.522423,559.366753 C885.522423,563.303866 885.850515,566.584794 886.178608,569.865722 C886.506701,572.490464 887.162887,575.115206 888.147165,577.739948 C889.459536,582.005155 891.428093,585.942268 893.724742,589.551289 C895.365206,592.176031 897.333763,595.128866 899.630412,597.753608 C902.91134,601.690722 906.848454,605.627835 911.11366,609.893041 C913.082216,611.533505 915.050773,613.502062 917.01933,615.142526 L935.392526,631.875258 C937.689175,633.843814 939.985825,635.812371 941.954381,638.109021 C945.891495,642.046134 950.156701,645.983247 953.765722,650.576546 C956.390464,653.857474 959.015206,657.466495 961.639948,661.403608 C963.280412,664.356443 964.920876,667.309278 966.56134,670.590206 C968.85799,675.511598 970.498454,680.43299 971.482732,686.010567 C972.795103,691.588144 973.123196,697.493814 973.123196,703.727577 L973.123196,768.689948 C973.123196,769.346134 973.123196,772.298969 972.138918,776.564175 C971.482732,779.845103 970.170361,783.782216 968.201804,788.375515 C966.56134,791.656443 964.592784,795.265464 961.639948,798.546392 C959.671392,801.171134 957.046649,803.467784 954.093814,805.764433 C951.797165,807.404897 949.500515,809.045361 946.875773,810.357732 C942.93866,812.326289 938.345361,813.966753 933.423969,815.279124 C928.502577,816.263402 922.925,816.919588 917.01933,816.919588 L916.035052,816.919588 L916.363144,816.919588 L915.378866,816.919588 C909.145103,816.919588 903.567526,816.263402 898.318041,814.951031 C893.724742,813.966753 889.787629,812.326289 885.850515,810.685825 C882.569588,809.045361 879.616753,807.076804 877.320103,805.108247 C875.023454,803.467784 873.054897,801.499227 871.414433,799.53067 C868.461598,795.921649 866.164948,792.312629 864.524485,789.031701 C863.212113,786.406959 862.555928,784.110309 861.571649,781.81366 C860.587371,778.532732 859.931186,775.579897 859.931186,773.283247 C859.603093,770.986598 859.603093,769.674227 859.603093,769.346134 L859.603093,704.383763 C859.603093,699.462371 859.931186,694.540979 860.587371,689.94768 C861.243557,686.010567 862.227835,682.073454 863.212113,678.464433 C865.18067,672.23067 868.133505,666.325 871.08634,661.403608 C873.38299,657.466495 876.335825,653.857474 878.960567,650.576546 C882.241495,646.639433 882.569588,645.983247 882.89768,645.983247 L900.942784,662.715979 C900.614691,662.715979 900.286598,663.044072 897.661856,666.653093 C895.365206,669.277835 893.724742,671.902577 891.756186,674.52732 C890.443814,676.495876 889.459536,678.464433 888.475258,680.761082 C887.162887,684.04201 885.850515,687.322938 885.19433,691.260052 C884.538144,695.197165 883.881959,699.462371 883.881959,704.05567 L883.881959,769.018041 C883.881959,769.346134 883.881959,770.986598 884.538144,773.283247 C884.866237,774.923711 885.522423,777.220361 886.834794,779.188918 C887.819072,780.829381 888.803351,782.469845 890.115722,783.782216 C891.1,784.766495 892.084278,786.078866 893.724742,787.063144 C895.693299,788.375515 898.318041,790.015979 901.927062,791.000258 C905.536082,791.984536 909.801289,792.640722 915.378866,792.640722 L916.363144,792.640722 L916.035052,792.640722 L916.035052,792.640722 Z" id="Path" stroke="#FFDD9D" fill="#FFDD9D"></path>
            <path d="M2100.77809,980.965979 L2114.2299,980.965979 C2119.15129,980.965979 2123.41649,983.262629 2125.71314,987.527835 C2127.6817,990.808763 2127.6817,992.121134 2127.6817,999.995361 C2127.6817,1008.52577 2127.35361,1010.16624 2125.38505,1012.79098 C2123.0884,1016.4 2119.15129,1019.02474 2113.57371,1019.02474 L2100.77809,1019.02474 L2100.77809,980.965979 Z M2106.68376,1013.44716 L2113.57371,1013.44716 C2116.85464,1013.44716 2119.15129,1012.46289 2120.46366,1010.16624 C2121.77603,1008.19768 2121.77603,1007.2134 2121.77603,999.995361 C2121.77603,993.105412 2121.77603,991.464948 2120.13557,989.496392 C2118.4951,987.199742 2116.52655,986.215464 2113.24562,986.215464 L2106.35567,986.215464 L2106.35567,1013.44716 L2106.68376,1013.44716 Z" id="Shape" stroke="#FFDD9D" stroke-width="0.25" fill="#FFDD9D"></path>
            <polygon id="Path" stroke="#FFDD9D" stroke-width="0.25" fill="#FFDD9D" points="2136.8683 980.965979 2161.14716 980.965979 2161.14716 986.543557 2142.44588 986.543557 2142.44588 997.370619 2158.19433 997.370619 2158.19433 1002.6201 2142.44588 1002.6201 2142.44588 1013.77526 2161.14716 1013.77526 2161.14716 1019.35284 2136.8683 1019.35284"></polygon>
            <polygon id="Path" stroke="#FFDD9D" stroke-width="0.25" fill="#FFDD9D" points="2167.38093 980.965979 2173.61469 980.965979 2182.1451 1009.83814 2182.1451 1009.83814 2190.67552 980.965979 2196.90928 980.965979 2184.44175 1019.02474 2179.84845 1019.02474"></polygon>
            <path d="M2238.24897,980.965979 L2252.02887,980.965979 C2254.9817,980.965979 2257.60644,981.294072 2260.55928,983.590722 C2262.85593,985.231186 2264.82448,988.512113 2264.82448,992.77732 C2264.82448,998.026804 2260.55928,1004.26057 2253.01314,1004.26057 L2244.15464,1004.26057 L2244.15464,1019.02474 L2238.24897,1019.02474 L2238.24897,980.965979 Z M2244.15464,998.68299 L2252.68505,998.68299 C2256.95026,998.68299 2258.91881,995.402062 2258.91881,992.449227 C2258.91881,989.824485 2257.93454,988.184021 2256.62216,987.527835 C2255.30979,986.543557 2254.32552,986.543557 2252.35696,986.543557 L2244.15464,986.543557 L2244.15464,998.68299 Z" id="Shape" stroke="#FFDD9D" stroke-width="0.25" fill="#FFDD9D"></path>
            <path d="M2273.3549,1009.51005 C2276.30773,1011.8067 2280.24485,1013.44716 2284.18196,1013.44716 C2288.77526,1013.44716 2291.72809,1011.15052 2291.72809,1008.19768 C2291.72809,1005.57294 2290.08763,1003.60438 2286.8067,1002.9482 C2285.16624,1002.6201 2283.85387,1002.6201 2281.88531,1002.29201 C2275.32345,1001.30773 2271.71443,997.042526 2271.71443,991.464948 C2271.71443,984.903093 2276.30773,980.309794 2284.18196,980.309794 C2288.77526,980.309794 2293.04046,981.950258 2296.64948,984.246907 L2293.36856,988.840206 C2290.74381,987.199742 2287.46289,985.887371 2283.85387,985.887371 C2280.24485,985.887371 2277.6201,987.855928 2277.6201,991.464948 C2277.6201,993.761598 2279.26057,995.730155 2282.86959,996.38634 C2283.85387,996.38634 2285.16624,996.714433 2287.13479,997.042526 C2294.35284,998.026804 2297.63376,1002.9482 2297.63376,1007.86959 C2297.63376,1014.75954 2292.38428,1019.02474 2284.18196,1019.02474 C2278.60438,1019.02474 2273.68299,1017.38428 2269.74588,1013.77526 L2273.3549,1009.51005 Z" id="Path" stroke="#FFDD9D" stroke-width="0.25" fill="#FFDD9D"></path>
            <path d="M2305.83608,980.965979 L2319.28789,980.965979 C2324.20928,980.965979 2328.47448,983.262629 2330.77113,987.527835 C2332.73969,990.808763 2332.73969,992.121134 2332.73969,999.995361 C2332.73969,1008.52577 2332.4116,1010.16624 2330.44304,1012.79098 C2328.14639,1016.4 2324.20928,1019.02474 2318.6317,1019.02474 L2305.83608,1019.02474 L2305.83608,980.965979 Z M2311.41366,1013.44716 L2318.30361,1013.44716 C2321.58454,1013.44716 2323.88119,1012.46289 2325.19356,1010.16624 C2326.50593,1008.19768 2326.50593,1007.2134 2326.50593,999.995361 C2326.50593,993.105412 2326.50593,991.464948 2324.86546,989.496392 C2323.225,987.199742 2321.25644,986.215464 2317.97552,986.215464 L2311.08557,986.215464 L2311.08557,1013.44716 L2311.41366,1013.44716 Z" id="Shape" stroke="#FFDD9D" stroke-width="0.25" fill="#FFDD9D"></path>
            <path d="M2360.95567,1010.49433 L2346.51959,1010.49433 L2343.56675,1019.02474 L2337.33299,1019.02474 L2351.11289,980.965979 L2356.03428,980.965979 L2369.81418,1019.02474 L2363.58041,1019.02474 L2360.95567,1010.49433 Z M2359.31521,1005.24485 L2353.73763,988.512113 L2353.73763,988.512113 L2348.16005,1005.24485 L2359.31521,1005.24485 Z" id="Shape" stroke="#FFDD9D" stroke-width="0.25" fill="#FFDD9D"></path>
            <polygon id="Path" stroke="#FFDD9D" stroke-width="0.25" fill="#FFDD9D" points="2380.64124 1003.27629 2369.15799 980.965979 2375.39175 980.965979 2383.59407 997.698711 2391.79639 980.965979 2398.03015 980.965979 2386.54691 1003.27629 2386.54691 1019.02474 2380.96933 1019.02474 2380.96933 1003.27629"></polygon>
            <path d="M2403.93582,1009.51005 C2406.88866,1011.8067 2410.82577,1013.44716 2414.76289,1013.44716 C2419.35619,1013.44716 2422.30902,1011.15052 2422.30902,1008.19768 C2422.30902,1005.57294 2420.66856,1003.60438 2417.38763,1002.9482 C2415.74716,1002.6201 2414.43479,1002.6201 2412.46624,1002.29201 C2405.90438,1001.30773 2402.29536,997.042526 2402.29536,991.464948 C2402.29536,984.903093 2406.88866,980.309794 2414.76289,980.309794 C2419.35619,980.309794 2423.62139,981.950258 2427.23041,984.246907 L2423.94948,988.840206 C2421.32474,987.199742 2418.04381,985.887371 2414.43479,985.887371 C2410.82577,985.887371 2408.20103,987.855928 2408.20103,991.464948 C2408.20103,993.761598 2409.84149,995.730155 2413.45052,996.38634 C2414.43479,996.38634 2415.74716,996.714433 2417.71572,997.042526 C2424.93376,998.026804 2428.21469,1002.9482 2428.21469,1007.86959 C2428.21469,1014.75954 2422.96521,1019.02474 2414.76289,1019.02474 C2409.18531,1019.02474 2404.26392,1017.38428 2400.3268,1013.77526 L2403.93582,1009.51005 Z" id="Path" stroke="#FFDD9D" stroke-width="0.25" fill="#FFDD9D"></path>
            <polygon id="Path" stroke="#FFDD9D" stroke-width="0.25" fill="#FFDD9D" points="2110.94897 1039.36649 2100.45 1039.36649 2100.45 1034.11701 2127.02552 1034.11701 2127.02552 1039.36649 2116.52655 1039.36649 2116.52655 1072.17577 2110.62088 1072.17577 2110.62088 1039.36649"></polygon>
            <path d="M2134.57165,1040.67887 C2136.54021,1037.39794 2140.47732,1033.78892 2146.38299,1033.78892 C2152.28866,1033.78892 2156.55387,1037.39794 2158.19433,1040.67887 C2159.5067,1042.97552 2159.83479,1043.95979 2159.83479,1053.14639 C2159.83479,1062.33299 2159.5067,1063.31727 2158.19433,1065.61392 C2156.22577,1068.89485 2152.28866,1072.50387 2146.38299,1072.50387 C2140.47732,1072.50387 2136.21211,1068.89485 2134.57165,1065.61392 C2133.25928,1063.31727 2132.93119,1062.33299 2132.93119,1053.14639 C2132.93119,1044.28789 2133.25928,1042.97552 2134.57165,1040.67887 Z M2140.47732,1063.97345 C2141.78969,1065.61392 2143.75825,1066.5982 2146.38299,1066.5982 C2149.00773,1066.5982 2150.97629,1065.28582 2152.28866,1063.97345 C2153.92912,1062.0049 2154.25722,1061.02062 2154.25722,1053.14639 C2154.25722,1045.27216 2153.92912,1044.28789 2152.28866,1042.31933 C2150.97629,1040.67887 2149.00773,1039.69459 2146.38299,1039.69459 C2143.75825,1039.69459 2141.78969,1041.00696 2140.47732,1042.31933 C2138.83686,1044.28789 2138.50876,1045.27216 2138.50876,1053.14639 C2138.83686,1061.02062 2139.16495,1062.0049 2140.47732,1063.97345 Z" id="Shape" stroke="#FFDD9D" stroke-width="0.25" fill="#FFDD9D"></path>
            <path d="M2169.34948,1034.11701 L2184.11366,1034.11701 C2187.39459,1034.11701 2189.69124,1034.7732 2191.98789,1036.74175 C2194.28454,1038.71031 2195.925,1041.33505 2195.925,1044.94407 C2195.925,1049.86546 2193.30026,1053.80258 2188.70696,1055.44304 L2197.56546,1072.17577 L2190.67552,1072.17577 L2182.80129,1055.77113 L2175.58325,1055.77113 L2175.58325,1072.17577 L2169.67758,1072.17577 L2169.67758,1034.11701 L2169.34948,1034.11701 Z M2174.92706,1050.84974 L2183.78557,1050.84974 C2188.05077,1050.84974 2190.34742,1047.89691 2190.34742,1044.94407 C2190.34742,1042.97552 2189.69124,1041.33505 2188.37887,1040.67887 C2187.39459,1040.02268 2186.08222,1039.36649 2184.11366,1039.36649 L2174.92706,1039.36649 L2174.92706,1050.84974 L2174.92706,1050.84974 Z" id="Shape" stroke="#FFDD9D" stroke-width="0.25" fill="#FFDD9D"></path>
            <polygon id="Path" stroke="#FFDD9D" stroke-width="0.25" fill="#FFDD9D" points="2239.56134 1034.11701 2245.13892 1034.11701 2262.19974 1061.02062 2262.19974 1061.02062 2262.19974 1034.11701 2268.10541 1034.11701 2268.10541 1072.17577 2262.52784 1072.17577 2245.46701 1045.27216 2245.46701 1045.27216 2245.46701 1072.17577 2239.56134 1072.17577"></polygon>
            <polygon id="Path" stroke="#FFDD9D" stroke-width="0.25" fill="#FFDD9D" points="2286.15052 1039.36649 2275.65155 1039.36649 2275.65155 1034.11701 2302.22706 1034.11701 2302.22706 1039.36649 2291.72809 1039.36649 2291.72809 1072.17577 2285.82242 1072.17577 2285.82242 1039.36649"></polygon>
            <path d="M2309.7732,1040.67887 C2311.74175,1037.39794 2315.67887,1033.78892 2321.58454,1033.78892 C2327.49021,1033.78892 2331.75541,1037.39794 2333.39588,1040.67887 C2334.70825,1042.97552 2335.03634,1043.95979 2335.03634,1053.14639 C2335.03634,1062.33299 2334.70825,1063.31727 2333.39588,1065.61392 C2331.42732,1068.89485 2327.49021,1072.50387 2321.58454,1072.50387 C2315.67887,1072.50387 2311.41366,1068.89485 2309.7732,1065.61392 C2308.46082,1063.31727 2308.13273,1062.33299 2308.13273,1053.14639 C2308.13273,1044.28789 2308.46082,1042.97552 2309.7732,1040.67887 Z M2315.67887,1063.97345 C2316.99124,1065.61392 2318.95979,1066.5982 2321.58454,1066.5982 C2324.20928,1066.5982 2326.17784,1065.28582 2327.49021,1063.97345 C2329.13067,1062.0049 2329.45876,1061.02062 2329.45876,1053.14639 C2329.45876,1045.27216 2329.13067,1044.28789 2327.49021,1042.31933 C2326.17784,1040.67887 2324.20928,1039.69459 2321.58454,1039.69459 C2318.95979,1039.69459 2316.99124,1041.00696 2315.67887,1042.31933 C2314.0384,1044.28789 2313.71031,1045.27216 2313.71031,1053.14639 C2313.71031,1061.02062 2314.36649,1062.0049 2315.67887,1063.97345 Z" id="Shape" stroke="#FFDD9D" stroke-width="0.25" fill="#FFDD9D"></path>
            <path d="M2216.26675,1066.5982 L2216.26675,1066.5982 C2217.57912,1066.5982 2218.5634,1066.5982 2219.54768,1066.2701 C2220.20387,1066.2701 2220.86005,1065.94201 2221.18814,1065.61392 C2221.51624,1065.28582 2221.84433,1065.28582 2222.17242,1064.95773 C2222.50052,1064.62964 2222.50052,1064.62964 2222.82861,1064.30155 C2223.1567,1063.97345 2223.48479,1063.31727 2223.48479,1062.98918 C2223.48479,1062.66108 2223.81289,1062.33299 2223.81289,1062.0049 C2223.81289,1061.6768 2224.14098,1061.02062 2224.14098,1061.02062 C2224.14098,1061.02062 2224.14098,1060.69253 2224.14098,1060.69253 C2224.14098,1060.69253 2224.14098,1060.69253 2224.14098,1060.69253 L2224.14098,1044.61598 C2224.14098,1043.6317 2224.14098,1042.97552 2223.81289,1041.99124 C2223.81289,1041.33505 2223.48479,1040.67887 2223.48479,1040.02268 C2223.1567,1039.0384 2222.82861,1038.05412 2222.17242,1037.06985 C2221.84433,1036.41366 2221.18814,1035.75747 2220.53196,1035.10129 C2219.54768,1034.11701 2218.5634,1033.13273 2217.57912,1032.14845 C2217.25103,1031.82036 2216.59485,1031.16418 2216.26675,1030.83608 L2211.67345,1026.57088 C2211.01727,1025.91469 2210.68918,1025.5866 2210.03299,1024.93041 C2209.04871,1023.94613 2208.06443,1022.96186 2207.08015,1021.64948 C2206.42397,1020.66521 2205.76778,1020.00902 2205.1116,1019.02474 C2204.78351,1018.36856 2204.12732,1017.38428 2203.79923,1016.72809 C2203.14304,1015.41572 2202.81495,1014.10335 2202.48686,1012.79098 C2202.15876,1011.47861 2202.15876,1009.83814 2202.15876,1008.19768 L2202.15876,992.121134 C2202.15876,992.121134 2202.15876,991.136856 2202.48686,990.152577 C2202.81495,989.168299 2202.81495,988.184021 2203.47113,987.199742 C2203.79923,986.215464 2204.45541,985.559278 2205.1116,984.575 C2205.76778,983.918814 2206.09588,983.262629 2207.08015,982.934536 C2207.73634,982.606443 2208.06443,982.278351 2209.04871,981.950258 C2210.03299,981.294072 2211.01727,980.965979 2212.32964,980.637887 C2213.64201,980.309794 2214.95438,980.309794 2216.26675,980.309794 L2216.59485,980.309794 C2218.23531,980.309794 2219.54768,980.309794 2220.86005,980.637887 C2221.84433,980.965979 2223.1567,981.294072 2223.81289,981.622165 C2224.46907,981.950258 2225.45335,982.606443 2226.10954,982.934536 C2226.76572,983.262629 2227.09381,983.918814 2227.42191,984.246907 C2228.07809,985.231186 2228.73428,985.887371 2229.06237,986.871649 C2229.39046,987.527835 2229.71856,988.184021 2229.71856,988.840206 C2230.04665,989.824485 2230.04665,990.48067 2230.04665,991.136856 C2230.04665,991.793041 2230.04665,992.121134 2230.04665,992.121134 L2230.04665,1008.19768 C2230.04665,1009.51005 2230.04665,1010.49433 2229.71856,1011.8067 C2229.71856,1012.79098 2229.39046,1013.77526 2229.06237,1014.75954 C2228.40619,1016.4 2227.75,1017.71237 2227.09381,1019.02474 C2226.43763,1020.00902 2225.78144,1020.9933 2225.12526,1021.64948 C2224.14098,1022.63376 2224.14098,1022.63376 2224.14098,1022.63376 L2219.54768,1018.36856 C2219.54768,1018.36856 2219.54768,1018.36856 2220.53196,1017.38428 C2221.18814,1016.72809 2221.51624,1016.07191 2221.84433,1015.41572 C2222.17242,1014.75954 2222.50052,1014.43144 2222.82861,1013.77526 C2223.1567,1013.11907 2223.48479,1012.13479 2223.81289,1011.15052 C2224.14098,1010.16624 2224.14098,1009.18196 2224.14098,1007.86959 L2224.14098,991.793041 C2224.14098,991.793041 2224.14098,991.136856 2224.14098,990.808763 C2224.14098,990.48067 2223.81289,989.824485 2223.48479,989.168299 C2223.1567,988.840206 2223.1567,988.512113 2222.82861,987.855928 C2222.50052,987.527835 2222.17242,987.199742 2221.84433,987.199742 C2221.18814,986.871649 2220.53196,986.543557 2219.87577,986.215464 C2218.89149,985.887371 2217.90722,985.887371 2216.59485,985.887371 L2216.26675,985.887371 C2215.28247,985.887371 2214.2982,985.887371 2213.31392,986.215464 C2212.65773,986.215464 2212.00155,986.543557 2211.67345,986.871649 C2211.34536,987.199742 2211.01727,987.199742 2210.68918,987.527835 C2210.36108,987.855928 2210.36108,987.855928 2210.03299,988.184021 C2209.7049,988.512113 2209.3768,989.168299 2209.3768,989.496392 C2209.3768,989.824485 2209.04871,990.152577 2209.04871,990.48067 C2209.04871,990.808763 2208.72062,991.464948 2208.72062,991.464948 C2208.72062,991.464948 2208.72062,991.793041 2208.72062,991.793041 L2208.72062,991.793041 L2208.72062,1007.86959 C2208.72062,1008.85387 2208.72062,1009.51005 2209.04871,1010.49433 C2209.04871,1011.15052 2209.3768,1011.8067 2209.3768,1012.46289 C2209.7049,1013.44716 2210.03299,1014.43144 2210.68918,1015.41572 C2211.01727,1016.07191 2211.67345,1016.72809 2212.32964,1017.38428 C2213.31392,1018.36856 2214.2982,1019.35284 2215.28247,1020.33711 C2215.61057,1020.66521 2216.26675,1021.32139 2216.59485,1021.64948 L2221.18814,1025.91469 C2221.84433,1026.57088 2222.17242,1026.89897 2222.82861,1027.55515 C2223.81289,1028.53943 2224.79716,1029.52371 2225.78144,1030.83608 C2226.43763,1031.82036 2227.09381,1032.47655 2227.75,1033.46082 C2228.07809,1034.11701 2228.73428,1035.10129 2229.06237,1035.75747 C2229.71856,1037.06985 2230.04665,1038.38222 2230.37474,1039.69459 C2230.70284,1041.00696 2230.70284,1042.64742 2230.70284,1044.28789 L2230.70284,1060.36443 C2230.70284,1060.36443 2230.70284,1061.34871 2230.37474,1062.33299 C2230.04665,1063.31727 2230.04665,1064.30155 2229.39046,1065.28582 C2229.06237,1066.2701 2228.40619,1066.92629 2227.75,1067.91057 C2227.09381,1068.56675 2226.76572,1069.22294 2225.78144,1069.55103 C2225.12526,1069.87912 2224.79716,1070.20722 2223.81289,1070.53531 C2222.82861,1071.19149 2221.84433,1071.51959 2220.53196,1071.84768 C2219.21959,1072.17577 2217.90722,1072.17577 2216.59485,1072.17577 L2216.26675,1072.17577 L2216.26675,1072.17577 L2215.93866,1072.17577 C2214.2982,1072.17577 2212.98582,1072.17577 2211.67345,1071.84768 C2210.68918,1071.51959 2209.3768,1071.19149 2208.72062,1070.8634 C2208.06443,1070.53531 2207.08015,1069.87912 2206.42397,1069.55103 C2205.76778,1069.22294 2205.43969,1068.56675 2205.1116,1068.23866 C2204.45541,1067.25438 2203.79923,1066.5982 2203.47113,1065.61392 C2203.14304,1064.95773 2202.81495,1064.30155 2202.81495,1063.64536 C2202.48686,1062.66108 2202.48686,1062.0049 2202.48686,1061.34871 C2202.48686,1060.69253 2202.48686,1060.36443 2202.48686,1060.36443 L2202.48686,1044.28789 C2202.48686,1042.97552 2202.48686,1041.99124 2202.81495,1040.67887 C2202.81495,1039.69459 2203.14304,1038.71031 2203.47113,1037.72603 C2204.12732,1036.08557 2204.78351,1034.7732 2205.43969,1033.46082 C2206.09588,1032.47655 2206.75206,1031.49227 2207.40825,1030.83608 C2208.39253,1029.8518 2208.39253,1029.8518 2208.39253,1029.8518 L2212.98582,1034.11701 C2212.98582,1034.11701 2212.98582,1034.11701 2212.00155,1035.10129 C2211.34536,1035.75747 2211.01727,1036.41366 2210.68918,1037.06985 C2210.36108,1037.72603 2210.03299,1038.05412 2209.7049,1038.71031 C2209.3768,1039.36649 2209.04871,1040.35077 2208.72062,1041.33505 C2208.39253,1042.31933 2208.39253,1043.30361 2208.39253,1044.61598 L2208.39253,1060.69253 C2208.39253,1060.69253 2208.39253,1061.34871 2208.39253,1061.6768 C2208.39253,1062.0049 2208.72062,1062.66108 2209.04871,1063.31727 C2209.3768,1063.64536 2209.3768,1063.97345 2209.7049,1064.62964 C2210.03299,1064.95773 2210.36108,1065.28582 2210.68918,1065.28582 C2211.34536,1065.61392 2212.00155,1065.94201 2212.65773,1066.2701 C2213.64201,1066.5982 2214.62629,1066.5982 2216.26675,1066.5982 L2216.26675,1066.5982 L2216.26675,1066.5982 Z" id="Path" stroke="#FFDD9D" stroke-width="0.25" fill="#FFDD9D"></path>
        </g>
    </g>
</svg>