<?xml version="1.0" encoding="utf-8"?>
<!-- Generator: Adobe Illustrator 17.1.0, SVG Export Plug-In . SVG Version: 6.00 Build 0)  -->
<!DOCTYPE svg PUBLIC "-//W3C//DTD SVG 1.1//EN" "http://www.w3.org/Graphics/SVG/1.1/DTD/svg11.dtd">
<svg version="1.1" id="Layer_1" xmlns="http://www.w3.org/2000/svg" xmlns:xlink="http://www.w3.org/1999/xlink" x="0px" y="0px"
	 viewBox="-100 -100 800 800" enable-background="new -100 -100 800 800" xml:space="preserve">
<title>gob</title>
<desc>Created with Sketch.</desc>
<g>
	<rect x="-100" y="-100" fill="#E3E3E3" width="800" height="800"/>
	<path fill="#B12025" stroke="#B12025" stroke-width="7.6922" stroke-linejoin="round" stroke-miterlimit="10" d="M191.2,288.2
		l4-61.4c0.1-11.4,3.5-23.2,18.6-31.8l185-107.4c0,0,7.3-6.5,7.3-16.2c0.2-2.2,0.2-3.2-1.1-6.4l0.9-4.5c-3.5-6.5-9.8-12.6-18.6-17.8
		c-29.8-17.3-78.3-16.7-108.3,0.6L98.9,150.7l65.8,112.4L99.8,456.2l97.8-55.8L191.2,288.2z"/>
	<path fill="#B12025" stroke="#B12025" stroke-width="7.6922" stroke-linejoin="round" stroke-miterlimit="10" d="M409.3,74.2v57.1
		V156L384,141.4l-152.1,86.8c-13.4,7.7-20.2,16.9-20.9,25.9c0-0.2,0-0.3,0-0.4H211v1.7c0-0.1,0-0.1,0-0.2c0,0.3,0,0.6,0,0.9
		c0-0.1,0-0.1,0-0.2V293c-12.2-3.4-19.8-5.8-19.8-5.8v-61.8c0.1-11.4,8.6-17.4,23.5-26.1c2.1,0.3,4.6-3,4.6-3l181.1-109L409.3,74.2z
		"/>
	<path fill="#EB5263" stroke="#EB5263" stroke-width="7.6922" stroke-linejoin="round" stroke-miterlimit="10" d="M321.4,253.8
		c-29.9,17.3-75.4,15.3-105.1-2c-14.9-8.6-25.4-15-25.4-26.3v301v1.1c0.4,11,7.8,21.8,22.2,30.2c29.8,17.3,78.3,16.7,108.3-0.6
		l186.1-107.4l-65.8-112.4L506,149L321.4,253.8z"/>
	<g>
		<path fill="#9E1522" d="M165,269.5"/>
	</g>
	<g>
		<path fill="#9E1522" d="M109.4,270.2"/>
	</g>
	<path fill="#EB5263" stroke="#EB5263" stroke-width="7.6922" stroke-linejoin="round" stroke-miterlimit="10" d="M158.4,262.6
		L92.6,150.2L278.7,42.7c29.9-17.3,78.6-17.8,108.3-0.6c8.9,5.1,15,11.3,18.6,17.8c4.4,7.6,3.4,17.3,3.4,17.3
		c0.1,12-15.7,21.1-15.7,21.1l-178,104.8c0,0-11.8,6.4-13.7,15.8c-2.6,8.7,0.2,18.4,11.8,26.1c27.9,18.2,73.2,21,108.1,1.7
		L499.9,142l6.2,6.9l-12.6,25l-171.8,82c-29.9,17.3-78.6,17.3-108.3,0c-14.9-8.6-22.5-19.1-22.5-30.5l0,0c0.1-11.4,7.8-22.4,22.8-31
		l173-101.9c0,0,16.1-7.7,13.1-22.2c0,0-1-10.4-15.9-18.6c-29.8-17.3-75-16.7-104.9,0.6L102.2,153.5l65.7,112.3L99.8,456.2l-6.6-6.6
		L158.4,262.6z"/>
</g>
</svg>
