<?xml version="1.0" encoding="UTF-8"?>
<svg width="800px" height="800px" viewBox="0 0 800 800" version="1.1" xmlns="http://www.w3.org/2000/svg" xmlns:xlink="http://www.w3.org/1999/xlink">
    <title>j</title>
    <defs>
        <polygon id="path-1" points="0 0 135 0 135 164 0 164"></polygon>
        <polygon id="path-3" points="0 3.33513549e-14 93 3.33513549e-14 93 82 0 82"></polygon>
        <polygon id="path-5" points="6.6767477e-14 0 108 0 108 74 6.6767477e-14 74"></polygon>
    </defs>
    <g id="Page-1" stroke="none" stroke-width="1" fill="none" fill-rule="evenodd">
        <g id="j" transform="translate(0.916467, 0.899311)">
            <g fill="#FEDCA1" fill-rule="nonzero" id="Rectangle-path">
                <rect x="0" y="0" width="799.001248" height="799.001248"></rect>
            </g>
            <g id="Group-28" transform="translate(176.083533, 133.100689)">
                <path d="M258.5,44 C262.31872,44 266.05276,42.45256 268.75324,39.75208 C271.45256,37.05276 273,33.31872 273,29.5 C273,25.68128 271.45256,21.94608 268.75324,19.24676 C266.05276,16.54628 262.31872,15 258.5,15 C254.68128,15 250.94608,16.54628 248.24676,19.24676 C245.54628,21.94608 244,25.68128 244,29.5 C244,33.31872 245.54628,37.05276 248.24676,39.75208 C250.94608,42.45256 254.68128,44 258.5,44" id="Fill-1" fill="#FCB138"></path>
                <path d="M185.72528,347.912224 C191.424907,342.213765 191.424907,332.973179 185.72528,327.27472 C180.026821,321.575093 170.786235,321.575093 165.087776,327.27472 L99.2747198,393.087776 C93.5750934,398.786235 93.5750934,408.026821 99.2747198,413.72528 C104.973179,419.424907 114.213765,419.424907 119.912224,413.72528 L185.72528,347.912224 Z" id="Fill-3" fill="#FCB138"></path>
                <path d="M357.886828,434.30918 L344.30915,447.88695 C338.563617,453.631346 338.563617,462.946424 344.30915,468.69082 C350.053507,474.436393 359.368521,474.436393 365.114055,468.69082 L378.691732,455.11305 C384.436089,449.368654 384.436089,440.053576 378.691732,434.30918 C372.946199,428.563607 363.631185,428.563607 357.886828,434.30918" id="Fill-5" fill="#FCB138"></path>
                <g id="Group-9" transform="translate(273.000000, 0.000000)">
                    <mask id="mask-2" fill="white">
                        <use xlink:href="#path-1"></use>
                    </mask>
                    <g id="Clip-8"></g>
                    <path d="M102.174901,41.5911606 L102.054857,41.7094747 L87.7083669,55.99034 L4.30924307,139.003507 C-1.43641436,144.721242 -1.43641436,153.993086 4.30924307,159.71082 C10.0537236,165.429727 19.3689384,165.429727 25.1134189,159.71082 L108.514897,76.6976533 L122.861387,62.4156165 L122.859033,62.4132737 C126.874638,58.4772793 129.932241,53.8501431 131.951812,48.932493 C133.994922,43.9609572 135,38.6989076 135,33.4544294 C135,28.1783226 133.98433,22.9057301 131.95652,17.9306801 C129.931064,12.9591443 126.875815,8.28280817 122.86021,4.28824245 C117.114552,-1.43066367 107.799337,-1.43066367 102.054857,4.28941387 C96.3103764,10.00832 96.3115533,19.2789925 102.056034,24.9967271 L102.056034,24.9967271 C103.245886,26.1833826 104.107382,27.5094378 104.694658,28.9467786 C105.280758,30.3806052 105.578515,31.9245458 105.578515,33.4544294 C105.578515,34.9761129 105.285465,36.4708536 104.721727,37.8390802 C104.154458,39.2108211 103.334154,40.4583908 102.174901,41.5911606" id="Fill-7" fill="#FCB138" mask="url(#mask-2)"></path>
                </g>
                <g id="Group-12" transform="translate(0.000000, 244.000000)">
                    <mask id="mask-4" fill="white">
                        <use xlink:href="#path-3"></use>
                    </mask>
                    <g id="Clip-11"></g>
                    <path d="M40.8688047,82 C46.1061474,82 51.3306334,80.9990502 56.2605846,79.0264866 C61.1905358,77.0550965 65.8271211,74.0991848 69.8372355,70.2338521 L70.0534614,70.0214583 L88.7213563,51.2779977 C94.4262146,45.5504054 94.4262146,36.2625765 88.7213563,30.5349843 C83.0164981,24.807392 73.7655347,24.807392 68.0606765,30.5361577 L68.0606765,30.5349843 L49.5739438,49.0953873 C48.3046391,50.3075575 46.9102741,51.1852954 45.4376002,51.7767125 C43.955576,52.3704764 42.3964117,52.663838 40.8688047,52.663838 C39.356392,52.663838 37.8837181,52.3786905 36.5209103,51.8248238 C35.155765,51.2674367 33.8923043,50.4542383 32.7176715,49.2796183 C31.536026,48.0897436 30.6804726,46.7602288 30.0960782,45.3204099 C29.5151902,43.882938 29.2194866,42.3363355 29.2194866,40.8049879 C29.2194866,39.2795074 29.510515,37.7810163 30.0691961,36.4116042 C30.6325523,35.0386719 31.4448605,33.7912983 32.5961175,32.6589224 C32.6370251,32.6178518 32.6720888,32.5732608 32.7129964,32.5333636 L32.7165027,32.5357105 L40.1838945,25.038561 C45.8887527,19.3109687 45.8887527,10.0243132 40.1838945,4.29554753 C34.4778675,-1.43204474 25.2280728,-1.43204474 19.5220458,4.29672098 L12.0558229,11.7926971 C12.0149153,11.8337677 11.9786828,11.8795321 11.9377752,11.9217762 C8.01064478,15.8363937 5.01153268,20.423396 3.02692927,25.2990661 C0.99791189,30.2779995 -0.000233757763,35.5502945 -0.000233757763,40.8049879 C-0.000233757763,46.0890174 1.00843099,51.3707 3.02225412,56.3555006 C5.03490845,61.3356075 8.06908422,66.0200058 12.0569917,70.0214583 C16.0074978,73.9947481 20.6382391,77.02224 25.55884,79.0182725 C30.4806097,81.0189987 35.6863951,82 40.8688047,82" id="Fill-10" fill="#FCB138" mask="url(#mask-4)"></path>
                </g>
                <path d="M240.299546,85.0413141 C244.269576,89.0072347 248.921828,92.0300044 253.865285,94.0229234 C258.809917,96.0193573 264.039883,97 269.245191,97 C274.508036,97 279.75679,96.0006114 284.708467,94.0299531 C289.660144,92.061638 294.317092,89.1115086 298.345834,85.2557199 L298.565413,85.0413141 L341.701482,41.9996522 C347.432839,36.2798222 347.432839,27.0076521 341.701482,21.2889938 C335.970124,15.5703354 326.676189,15.5703354 320.944832,21.2889938 L277.996637,64.1420255 C276.720263,65.3546482 275.315898,66.2321887 273.835209,66.8226832 C272.345127,67.4166926 270.77872,67.7095966 269.245191,67.7095966 C267.724579,67.7095966 266.247413,67.4248939 264.877101,66.8718911 C263.505614,66.3142018 262.236285,65.5034435 261.056196,64.3294841 C255.323664,58.6096541 246.029729,58.6096541 240.298371,64.3306557 C234.567014,70.0504857 234.567014,79.3226558 240.299546,85.0413141 Z" id="Fill-13" fill="#FCB138"></path>
                <g id="Group-17" transform="translate(318.000000, 274.000000)">
                    <mask id="mask-6" fill="white">
                        <use xlink:href="#path-5"></use>
                    </mask>
                    <g id="Clip-16"></g>
                    <path d="M108.000235,40.9168829 C107.99906,35.6675126 106.986567,30.4216389 104.962756,25.4717998 C102.940119,20.5242917 99.8920686,15.8728182 95.8843816,11.8984948 C91.9142813,7.95447419 87.2605721,4.94634263 82.3155655,2.96267742 C77.3693844,0.975515736 72.1366043,0 66.9284906,0 C61.6651712,0 56.4147724,0.994163588 51.4591946,2.95451899 C46.5059659,4.9125434 41.8452092,7.84958003 37.8140304,11.6910375 C37.2995618,12.181709 36.8379496,12.7190003 36.4045274,13.2749393 L4.30074619,45.1301318 C-1.43358206,50.8200575 -1.43358206,60.0449166 4.30074619,65.7336768 C10.0350744,71.4224371 19.3307471,71.4224371 25.0650753,65.7336768 L58.4597264,32.5964446 C58.693469,32.3645119 58.9025453,32.1174279 59.1174945,31.8726748 C60.1323367,31.0766447 61.2129557,30.464762 62.338209,30.0183791 C63.8275838,29.4286408 65.3944814,29.1372681 66.9284906,29.1372681 C68.4484047,29.1372681 69.9260337,29.4204823 71.2967754,29.970594 C72.6686917,30.5253676 73.9384191,31.3330526 75.1200525,32.5008743 C76.3087334,33.6815164 77.1673556,35.0020174 77.7546486,36.4309091 C78.3384178,37.8586352 78.635588,39.394752 78.635588,40.9168829 C78.635588,42.4308553 78.3431161,43.919187 77.7804895,45.2804801 C77.2155137,46.6452698 76.3980019,47.8853519 75.2398602,49.0123814 C69.4409297,54.6358742 69.335217,63.8595678 75.0025939,69.614761 C80.6699707,75.3687887 89.9656434,75.4736828 95.7657484,69.8501901 L95.7657484,69.8490246 C99.8333393,65.9085005 102.9225,61.259358 104.958057,56.3165118 C106.997139,51.3701692 108.000235,46.1347848 108.000235,40.9168829" id="Fill-15" fill="#FCB138" mask="url(#mask-6)"></path>
                </g>
                <path d="M244.127966,231.041779 C248.104772,235.008328 252.764761,238.031856 257.714016,240.023331 C262.666798,242.020663 267.902965,243 273.115615,243 C278.385883,243 283.640865,241.999577 288.600702,240.030359 C293.558187,238.062314 298.22288,235.113759 302.257304,231.257327 L302.477193,231.041779 L340.039316,193.620793 L376.950006,156.849965 C378.227005,155.63868 379.629823,154.762431 381.111424,154.172017 C382.603608,153.57926 384.171049,153.286396 385.70674,153.286396 C387.229497,153.286396 388.709923,153.57106 390.080992,154.123987 C391.454413,154.680429 392.724357,155.492248 393.907287,156.666046 C399.646728,162.385094 408.952596,162.386265 414.693214,156.668389 C420.435007,150.950513 420.435007,141.679612 414.696741,135.960564 C410.718759,131.992843 406.059946,128.969316 401.109516,126.976669 C396.156734,124.979337 390.91939,124 385.70674,124 C380.436472,124 375.181491,124.999252 370.220478,126.969641 C365.262993,128.937686 360.597124,131.888584 356.5627,135.747359 L356.346339,135.958221 L319.253389,172.912968 L281.878229,210.147692 C280.598878,211.358977 279.193709,212.236398 277.712107,212.826812 C276.219923,213.42074 274.651307,213.713604 273.115615,213.713604 C271.592858,213.713604 270.112433,213.42894 268.741363,212.876013 C267.367942,212.3184 266.097998,211.507752 264.915069,210.333954 C263.72626,209.147269 262.866696,207.820009 262.278759,206.382633 C261.693174,204.947599 261.395678,203.403621 261.395678,201.874871 C261.395678,200.35315 261.68847,198.857201 262.250538,197.490112 C262.81731,196.118337 263.635718,194.871908 264.793954,193.741453 C270.60042,188.089178 270.707425,178.818277 265.035008,173.033628 C259.361415,167.248979 250.055547,167.142376 244.250257,172.794651 L244.250257,172.793479 C240.177029,176.755343 237.083304,181.427109 235.044338,186.395253 C233.003021,191.36574 232,196.629091 232,201.874871 C232,207.149937 233.013604,212.421488 235.039635,217.397832 C237.063314,222.369491 240.115883,227.045943 244.127966,231.041779" id="Fill-18" fill="#FCB138"></path>
                <path d="M359.87971,357.297391 L277.143539,439.780531 C277.111752,439.81222 277.085852,439.846256 277.054066,439.877945 C273.083135,443.800349 270.052842,448.401133 268.049129,453.289466 C266.005388,458.269345 265,463.541468 265,468.79716 C265,474.083367 266.015984,479.366053 268.04442,484.350627 C270.071679,489.332854 273.127871,494.018142 277.144716,498.020355 C281.125065,501.993226 285.789408,505.021293 290.744537,507.017705 C295.703198,509.018811 300.945581,510 306.166773,510 C311.440942,510 316.703338,509.000033 321.669062,507.027094 C326.633609,505.05533 331.305016,502.098856 335.344229,498.232789 C341.209387,492.622649 341.401282,483.336577 335.77511,477.489356 C330.14776,471.643308 320.8332,471.450827 314.969219,477.060966 L314.968042,477.060966 C313.681286,478.289798 312.263853,479.175919 310.76872,479.772143 C309.275942,480.364846 307.705464,480.659437 306.166773,480.659437 C304.643385,480.658263 303.160025,480.374235 301.787329,479.820263 C300.4111,479.261597 299.138471,478.448244 297.954138,477.272227 C296.765095,476.0833 295.903334,474.753532 295.314699,473.31344 C294.729596,471.876869 294.431747,470.329972 294.431747,468.79716 C294.431747,467.272563 294.724887,465.773788 295.287622,464.402942 C295.855066,463.029748 296.674446,461.782138 297.832879,460.65072 C297.874084,460.609642 297.909402,460.563869 297.950606,460.523964 L297.954138,460.527485 L380.690309,378.044345 C386.436564,372.314491 386.436564,363.026071 380.690309,357.297391 C374.942878,351.567536 365.625964,351.567536 359.87971,357.297391" id="Fill-20" fill="#FCB138"></path>
                <path d="M305.655098,356.611093 C299.932914,350.877557 290.653853,350.877557 284.931669,356.611093 L284.931669,356.611093 L169.04248,472.730164 C169.038963,472.733688 169.034273,472.736037 169.030756,472.740736 L161.72357,480.063592 C160.45041,481.275845 159.05181,482.154494 157.575836,482.74535 C156.088138,483.33973 154.524238,483.634571 152.993164,483.634571 C151.474986,483.633396 149.999011,483.347953 148.630892,482.793511 C147.261601,482.234371 145.994303,481.421504 144.816102,480.24449 C143.630868,479.05573 142.773889,477.723661 142.187719,476.282348 C141.603895,474.844559 141.307293,473.296352 141.307293,471.762241 C141.307293,470.235177 141.599205,468.736306 142.160755,467.364298 C142.72465,465.989941 143.539426,464.741273 144.694179,463.607722 C144.735211,463.567784 144.769209,463.521972 144.810241,463.480859 L144.81493,463.485557 L272.067597,335.981641 L289.713638,318.299423 L410.708361,197.064689 C416.430546,191.329979 416.430546,182.033687 410.708361,176.300152 C404.985004,170.566616 395.707117,170.566616 389.984932,176.300152 L268.989036,297.534885 L251.342995,315.215929 L124.090328,442.72102 C124.06102,442.750386 124.036401,442.784452 124.007092,442.814993 C120.050449,446.74072 117.031677,451.346578 115.036357,456.240229 C113,461.225504 112,466.502095 112,471.762241 C112,477.052928 113.010556,482.340091 115.031668,487.328889 C117.049262,492.315339 120.091481,497.004598 124.092673,501.010202 C128.05635,504.98644 132.701155,508.018248 137.636701,510.015177 C142.573419,512.01798 147.795015,513 152.993164,513 C158.245241,513 163.485595,511.999185 168.430519,510.024575 C173.375443,508.049964 178.026111,505.09216 182.048404,501.223991 L182.266459,501.010202 L189.755358,493.505273 L305.655098,377.37563 C311.377283,371.64092 311.377283,362.344628 305.655098,356.611093" id="Fill-22" fill="#FCB138"></path>
                <path d="M67.8379635,424.013054 L67.8379635,424.013054 C66.5534133,425.243673 65.1408778,426.129907 63.6484982,426.726998 C62.158467,427.321739 60.5921142,427.616758 59.0574642,427.616758 C57.5380786,427.615583 56.0586149,427.329966 54.689524,426.776364 C53.3169105,426.216885 52.0476246,425.402349 50.8675763,424.225797 C49.681657,423.03514 48.8221591,421.703439 48.2350703,420.261251 C47.6503299,418.821415 47.353263,417.272269 47.3544372,415.737227 C47.3544372,414.210412 47.6468074,412.709456 48.2080643,411.336617 C48.7740178,409.961426 49.5900712,408.712001 50.7454618,407.578937 C50.7877322,407.537799 50.8217833,407.49196 50.8628796,407.451997 L50.8664021,407.455523 L110.880962,347.380848 L155.890708,302.325135 C155.92241,302.2934 155.949416,302.258139 155.979945,302.225228 C159.940446,298.297119 162.961604,293.690818 164.960054,288.794199 C166.998427,283.805901 168,278.527284 168,273.263948 C168,267.970051 166.987859,262.679681 164.963577,257.687856 C162.942818,252.699558 159.895827,248.007454 155.889533,243.99942 C151.918465,240.02077 147.267548,236.988298 142.325435,234.987807 C137.379799,232.98379 132.150013,232 126.94371,232 C121.681046,232 116.433647,233.002596 111.478618,234.97958 C106.527112,236.955388 101.867975,239.917337 97.8393725,243.790203 C91.9919686,249.409679 91.8017519,258.709259 97.4154944,264.56381 C103.029237,270.417185 112.319329,270.607596 118.167907,264.988121 C119.451283,263.756326 120.863819,262.870092 122.35385,262.273001 C123.843881,261.67826 125.40906,261.384416 126.94371,261.384416 C128.461921,261.384416 129.940211,261.670032 131.309302,262.22481 C132.681915,262.78429 133.951201,263.598826 135.132424,264.776553 L135.133598,264.778904 C136.319517,265.968385 137.177841,267.297736 137.76493,268.741098 C138.34967,270.179759 138.646737,271.728906 138.646737,273.263948 C138.646737,274.790762 138.354367,276.292893 137.791936,277.664558 C137.225982,279.040924 136.408755,280.2927 135.253364,281.426938 C135.212268,281.466901 135.178217,281.511565 135.138295,281.551528 L135.133598,281.548002 L90.1238522,326.603715 L30.1104666,386.67839 C30.079938,386.70895 30.0552803,386.743036 30.0247517,386.77242 C26.0630768,390.701704 23.040744,395.309181 21.0411197,400.206975 C19.0027476,405.194098 18,410.47389 18,415.737227 C18,421.031123 19.012141,426.321493 21.036423,431.313318 C23.0571824,436.302792 26.1053472,440.994895 30.1116408,445.00293 C34.0827091,448.982755 38.7348003,452.015227 43.6769133,454.014542 C48.6213747,456.017384 53.8511613,457 59.0574642,457 C64.3189536,457 69.5663528,455.998578 74.5202076,454.02277 C79.4717141,452.048137 84.1296762,449.087363 88.1594533,445.216848 C94.0080314,439.599723 94.2017707,430.298968 88.5892023,424.444417 C82.977808,418.58869 73.6865416,418.395929 67.8379635,424.013054" id="Fill-24" fill="#FCB138"></path>
                <path d="M156.499,244.4995 C156.499,244.4995 156.5,244.4995 156.5,244.4995 C156.5,244.5005 156.5,244.5005 156.501,244.5005 L156.499,244.4995 Z" id="Fill-26" fill="#FCB138"></path>
            </g>
        </g>
    </g>
</svg>