<?xml version="1.0" encoding="UTF-8"?>
<svg width="1907px" height="1905px" viewBox="0 0 1907 1905" version="1.1" xmlns="http://www.w3.org/2000/svg" xmlns:xlink="http://www.w3.org/1999/xlink">
    <title>Group 2</title>
    <defs>
        <rect id="path-1" x="0.580288" y="0" width="1905" height="1905"></rect>
        <rect id="path-3" x="5.68434189e-14" y="1.13686838e-13" width="586.587465" height="1205.31942" rx="121.807787"></rect>
        <rect id="path-5" x="5.68434189e-14" y="1.13686838e-13" width="586.587465" height="1205.31942" rx="121.807787"></rect>
        <rect id="path-7" x="5.68434189e-14" y="1.13686838e-13" width="586.587465" height="1205.31942" rx="121.807787"></rect>
        <rect id="path-9" x="5.68434189e-14" y="1.13686838e-13" width="586.587465" height="1205.31942" rx="121.807787"></rect>
    </defs>
    <g id="Page-1" stroke="none" stroke-width="1" fill="none" fill-rule="evenodd">
        <g id="Group-2" transform="translate(0.419712, 0.000000)">
            <mask id="mask-2" fill="white">
                <use xlink:href="#path-1"></use>
            </mask>
            <use id="path-1" fill="#E3E3E3" fill-rule="nonzero" xlink:href="#path-1"></use>
            <path d="M789.200198,264.149204 L2794.76407,264.149204 C2827.90116,264.149204 2854.76407,291.017658 2854.76407,324.154743 L2854.76407,1728.78305 L729.335403,1728.78305 L729.200198,324.154743 C729.200198,291.017658 756.057574,264.149204 789.194659,264.149204 C789.196505,264.149204 789.198351,264.149204 789.200198,264.149204 L789.200198,264.149204 Z" id="path-41" fill="#202427" fill-rule="nonzero" mask="url(#mask-2)"></path>
            <path d="M619.585093,1681.46259 C619.585093,1676.42609 623.674758,1672.34321 628.731124,1672.34321 L2955.23315,1672.34321 C2960.28436,1672.34321 2964.37918,1676.42854 2964.37918,1681.46259 L2964.37918,1711.09853 C2964.37918,1732.5025 2947.03392,1749.85385 2925.61129,1749.85385 L658.352967,1749.85385 C636.942061,1749.85385 619.585093,1732.50721 619.585093,1711.09853 L619.585093,1681.46259 Z" id="Rectangle-304" fill="#B6B6B6" fill-rule="nonzero" mask="url(#mask-2)"></path>
            <rect id="Rectangle-2" fill="#000000" fill-rule="nonzero" mask="url(#mask-2)" x="821.394245" y="360.517927" width="1084" height="1211.30997"></rect>
            <g id="Group" mask="url(#mask-2)">
                <g transform="translate(-152.000000, 262.168482)">
                    <rect id="path-3" stroke="none" fill="#202427" fill-rule="nonzero" x="5.68434189e-14" y="1.13686838e-13" width="586.587465" height="1205.31942" rx="121.807787"></rect>
                    <mask id="mask-4" fill="white">
                        <use xlink:href="#path-3"></use>
                    </mask>
                    <g id="path-5" stroke="none" fill="none"></g>
                    <circle id="Oval" stroke="none" fill="#32383D" fill-rule="nonzero" mask="url(#mask-4)" cx="198.81587" cy="75.1706649" r="9.13288452"></circle>
                    <mask id="mask-6" fill="white">
                        <use xlink:href="#path-5"></use>
                    </mask>
                    <g id="path-7" stroke="none" fill="none"></g>
                    <circle id="Oval-Copy" stroke="none" fill="#32383D" fill-rule="nonzero" mask="url(#mask-6)" cx="293.293732" cy="40.9743408" r="9.13288452"></circle>
                    <mask id="mask-8" fill="white">
                        <use xlink:href="#path-7"></use>
                    </mask>
                    <g id="path-9" stroke="none" fill="none"></g>
                    <rect id="path-49" stroke="none" fill="#000000" fill-rule="nonzero" mask="url(#mask-8)" x="33.7214196" y="124.561728" width="521.557977" height="926.214996" rx="13.841794"></rect>
                    <mask id="mask-10" fill="white">
                        <use xlink:href="#path-9"></use>
                    </mask>
                    <g id="path-11" stroke="none" fill="none"></g>
                    <rect id="Rectangle" stroke="none" fill="#32383D" fill-rule="nonzero" mask="url(#mask-10)" x="247.290411" y="66.0377802" width="90.9698427" height="18.265769" rx="9.13288449"></rect>
                </g>
            </g>
        </g>
    </g>
</svg>